<?xml version="1.0" encoding="utf-8"?>
<!-- Generator: Adobe Illustrator 19.0.0, SVG Export Plug-In . SVG Version: 6.00 Build 0)  -->
<svg version="1.1" id="Layer_1" xmlns="http://www.w3.org/2000/svg" xmlns:xlink="http://www.w3.org/1999/xlink" x="0px" y="0px"
	 viewBox="0 0 40 40" style="enable-background:new 0 0 40 40;" xml:space="preserve">
<g id="CZoR8x.tif">
	<g id="XMLID_2_">
		<path id="XMLID_164_" class="st0" d="M35.6,21.3c0-0.1,0.1-0.1,0.1-0.2c0.3-0.2,0.5-0.4,0.7-0.6c-0.1-0.1-0.1-0.2-0.1-0.2
			c-0.1-0.1-0.1-0.2-0.2-0.2c-0.2,0-0.2-0.2-0.2-0.3c0.1,0,0.2,0,0.3,0c0.1,0,0.2,0,0.2-0.1c0-0.2,0.2-0.1,0.3-0.2
			c0.1-0.1,0.3-0.2,0.5-0.3c-0.2-0.2-0.6-0.2-0.9-0.1c-0.4,0.1-0.8,0.3-1.1,0.6c-0.2,0.2-0.5,0.3-0.7,0.5c0,0-0.1,0.1-0.1,0.1
			c0.3-0.7,0.7-1.5,1.3-2.1c-0.1-0.1-0.2-0.1-0.3-0.2c-0.1,0.5-0.5,0.7-0.7,1c-0.1,0.2-0.3,0.4-0.4,0.6c-0.3,0.5-0.7,0.9-1,1.4
			c-0.3,0.4-0.5,0.8-0.7,1.2c-0.1,0.2-0.3,0.5-0.5,0.7c0.1-0.2,0.2-0.4,0.3-0.6c0.3-0.8,0.8-1.6,1.2-2.3c0.3-0.5,0.6-1,1-1.4
			c0.2-0.2,0.4-0.3,0.6-0.5c-0.2-0.1-0.2-0.1-0.4,0.1c-0.5,0.5-1,1-1.4,1.6c-0.2,0.3-0.4,0.6-0.6,1c-0.2,0.4-0.4,0.8-0.6,1.2
			c-0.2,0.3-0.4,0.7-0.6,1c0,0.1-0.1,0.1-0.1,0.1c0-0.1,0.1-0.1,0.1-0.2c0.2-0.4,0.3-0.8,0.5-1.3c0.3-0.7,0.6-1.4,1-2.1
			c0.2-0.3,0.5-0.6,0.7-0.9c0.1-0.1,0.2-0.3,0.3-0.4c0,0,0-0.1,0-0.1c0.2-0.1,0.3-0.2,0.4-0.3c-0.1,0-0.2-0.1-0.4-0.1
			c-1,1.1-1.8,2.2-2.5,3.5c0-0.2,0.1-0.3,0.1-0.5c0.3-0.8,0.8-1.6,1.3-2.3c0.1-0.2,0.3-0.4,0.4-0.5c0.1-0.1,0.2-0.2,0.4-0.3
			c-0.1-0.1-0.2-0.1-0.4-0.2c-0.3,0.4-0.6,0.7-0.8,1.1c0,0,0,0.1-0.1,0.2c0,0,0,0.1,0,0.1c-0.2,0.1-0.2,0.2-0.2,0.4
			c0,0.1-0.1,0.1-0.2,0.2c0,0.1-0.1,0.1-0.1,0.2c-0.1,0.2-0.3,0.5-0.3,0.7c-0.1,0.4-0.4,0.7-0.5,1c-0.1,0.3-0.2,0.5-0.4,0.8
			c-0.1,0.1-0.1,0.3-0.2,0.4c-0.2,0.3-0.4,0.6-0.6,0.9c-0.4,0.7-0.9,1.4-1.6,2c-0.6,0.5-1.2,0.9-1.8,1.3c-0.3,0.2-0.6,0.4-1,0.5
			c-0.4,0.2-0.7,0.3-1.1,0.4c-0.6,0.2-1.3,0.4-1.9,0.6c-0.5,0.2-1,0.2-1.6,0.2c-0.5,0-1,0-1.4-0.1c-0.4,0-0.7-0.1-1.1-0.1
			c-0.5,0-0.9,0-1.4-0.1c-0.6-0.1-1.3-0.3-1.9-0.5c-0.4-0.2-0.7-0.3-1.1-0.5c-0.3-0.1-0.6-0.3-1-0.5c-0.7-0.3-1.3-0.7-1.9-1.1
			c-0.2-0.2-0.5-0.3-0.7-0.5c-0.4-0.3-0.6-0.7-0.8-1.1c-0.1-0.2-0.2-0.5-0.3-0.7c-0.1-0.1-0.1-0.3-0.1-0.4c0,0-0.1-0.1-0.1-0.1
			c0,0,0,0-0.1,0c0,0.1,0,0.3,0.1,0.4c0.1,0.4,0.2,0.8,0.3,1.2c0,0.1,0.1,0.2,0.2,0.2c0.1,0,0.1,0.1,0.2,0.1C9.7,25,9.5,25,9.4,24.9
			c-0.1-0.1-0.2-0.2-0.4-0.2c-0.1,0-0.1,0-0.2-0.1c-0.1-0.1-0.2-0.2-0.3-0.3c-0.3-0.2-0.6-0.3-0.9-0.4c-0.2-0.1-0.4-0.1-0.6-0.2
			c-0.2-0.1-0.3,0-0.4,0.1C7,24,7.4,24.2,7.9,24.3c0,0,0,0,0,0c-0.1,0-0.2,0.1-0.2,0.1c-0.2,0-0.5,0-0.7,0c-0.1,0-0.1,0-0.2,0
			c0,0,0,0,0,0c0.2,0,0.4,0,0.7,0.1c-0.2,0.3-0.4,0.4-0.8,0.3c0,0,0,0,0,0c-0.2-0.1-0.5-0.1-0.7,0c0,0-0.1,0-0.1,0c0,0-0.1,0-0.1,0
			c-0.2,0.1-0.5,0.3-0.7,0.4c-0.1,0.1-0.3,0.1-0.4,0.1c-0.6,0-1.2,0-1.8-0.3c-0.5-0.2-0.7-0.5-0.8-1.1c0-0.2-0.1-0.4-0.2-0.5
			c0-0.1,0-0.2,0-0.2c0.1,0,0.1,0,0.2,0c0.3,0.2,0.6,0.4,0.8,0.6c0.1,0,0.1,0.1,0.1,0.2c0.7,0.2,1.4,0.4,2.1,0.1
			c0.3-0.1,0.6-0.2,0.8-0.3c0.2-0.1,0.3-0.2,0.5-0.3c0.2-0.2,0.4-0.4,0.6-0.6c0.3-0.3,0.6-0.7,0.8-1.1c0.2-0.4,0.5-0.7,0.8-1
			c0.2-0.2,0.4-0.4,0.6-0.6c0.6-0.6,1-1.2,1.1-2c0.1-0.3,0-0.7,0-1c0-0.3-0.1-0.7-0.2-1c-0.1-0.2-0.2-0.4-0.2-0.6
			c0.3,0,0.4,0.3,0.6,0.6c0,0.1,0.1,0.1,0.1,0.2c0,0.2,0.1,0.3,0.1,0.5c0.1,0.3,0.2,0.6,0.3,1c0,0.1,0,0.1,0,0.2c0,0,0.1,0,0.1,0
			c0.5-0.2,0.9-0.4,1.2-0.7c0.4-0.3,0.5-0.7,0.7-1.1c0.2-0.4,0.5-0.7,0.8-0.9c0.3-0.2,0.5-0.5,0.6-0.7c0-0.1,0.1-0.2,0.1-0.2
			c0.2-0.3,0.3-0.7,0.3-1c0-0.4,0-0.8-0.1-1.2c-0.1-0.2-0.1-0.3-0.2-0.5c0.2,0.1,0.3,0.3,0.4,0.5c0,0.2,0.1,0.4,0.2,0.6
			c0.1,0.3,0.1,0.6,0.1,0.9c0,0.1,0,0.3,0,0.4c0.3-0.1,0.5-0.3,0.8-0.4c0.4-0.1,0.7-0.2,1.1-0.2c0.4-0.1,0.8-0.2,1.3-0.3
			c0.3-0.1,0.5-0.2,0.8-0.3c0.2-0.1,0.4-0.3,0.5-0.5c0.3-0.3,0.5-0.7,0.7-1.1c0.1-0.2,0.1-0.4,0.1-0.6c0.1-0.5-0.1-0.9-0.2-1.4
			c0-0.1-0.1-0.2-0.2-0.3C20,8.6,19.9,8.3,19.8,8c0-0.1-0.1-0.2-0.1-0.3c0.1,0.1,0.2,0.1,0.2,0.2c0.2,0.4,0.5,0.8,0.7,1.1
			c0,0.1,0.1,0.2,0.1,0.3c0,0,0,0.1,0,0.1c0.2,0.4,0.2,0.9,0.2,1.3c0,0.2,0,0.5-0.2,0.7c-0.1,0.1-0.1,0.2-0.1,0.3
			c-0.1,0.2-0.1,0.3-0.2,0.4c0,0.1-0.1,0.1-0.1,0.3c0.7,0,1.4,0,2.1,0c0.5,0,1-0.1,1.5-0.3c0.2-0.1,0.4-0.2,0.6-0.4
			c0.3-0.3,0.7-0.4,1.1-0.7c0.3-0.2,0.6-0.4,0.8-0.7c0.3-0.4,0.4-0.9,0.4-1.5C27,9,27,9.2,27,9.3c0,0.4-0.1,0.8-0.4,1.1
			c-0.1,0.2-0.2,0.3-0.3,0.5c-0.2,0.3-0.5,0.5-0.8,0.7c0,0,0,0,0,0c-0.1,0.2-0.3,0.3-0.4,0.5c0.2,0.3,0.5,0.4,0.8,0.5
			c0.5,0.1,0.9,0.2,1.4,0.2c0.4,0.1,0.8,0.1,1.2,0.1c0.5,0,0.9,0,1.4,0c0.2,0,0.4-0.1,0.7-0.2c0.2-0.1,0.4-0.2,0.6-0.3
			c0.3-0.1,0.3-0.2,0.5-0.4c0,0-0.1,0-0.1-0.1c-0.1-0.1-0.2-0.1-0.1-0.3c0.1-0.2,0.1-0.4,0.1-0.6c0-0.1,0.1-0.3-0.1-0.5
			c0,0.2,0,0.4,0,0.6c0,0.2-0.1,0.4-0.1,0.6c0,0-0.1,0.1-0.1,0.1c-0.1,0-0.2-0.1-0.1-0.2c0.1-0.2,0.1-0.4,0.1-0.5
			c0.1-0.4-0.1-0.8-0.1-1.3c0-0.2-0.1-0.3-0.2-0.5c0-0.1-0.2-0.1-0.3-0.2c0.3,0.3,0.3,0.6,0.3,1c0,0.3,0,0.7-0.2,1
			c0-0.3,0-0.7-0.1-1c-0.1-0.3-0.1-0.7-0.2-1c0,0,0,0-0.1,0c0,0.1,0,0.1,0,0.2c0.1,0.3,0.1,0.6,0,0.9c0,0.2-0.1,0.4-0.1,0.6
			c0,0-0.1,0.1-0.1,0.1c0,0,0.1,0.1,0.1,0.1c0,0.1-0.1,0.2-0.2,0.3c-0.1-0.5,0-1-0.1-1.4c0,0.2-0.1,0.4-0.1,0.6c0,0.2,0,0.5-0.2,0.7
			c-0.1-0.1-0.2-0.2-0.3-0.3c0.2-0.1,0.2-0.2,0.2-0.4c0-0.1,0-0.1,0-0.2c0.1-0.1,0.1-0.3,0-0.5c0,0,0-0.1,0-0.1
			c0-0.4-0.2-0.7-0.2-1.1c0-0.1-0.1-0.1-0.2-0.1c0.3,0.5,0.3,1.5,0,1.8c0-0.7-0.2-1.3-0.4-2c1.3,0.3,2.5,0.7,3.4,1.6
			c-0.2-0.6-0.3-1.2-0.7-1.6C31.3,8,31,7.7,30.6,7.5c-0.3-0.2-0.7-0.3-1.1-0.4C29.2,7,28.9,7,28.7,6.9c-0.2,0-0.3-0.1-0.5-0.1
			c-0.2-0.1-0.5-0.1-0.7-0.2c-0.2,0-0.4-0.1-0.6-0.1c-0.2,0-0.5,0-0.7,0c0.1,0.4,0.1,0.7,0.1,1c0,0.2,0.1,0.3,0.1,0.5
			c0,0.2-0.1,0.4-0.1,0.5c0,0-0.1,0-0.1,0.1c-0.1-0.3-0.2-0.6-0.4-0.9c0,0,0,0-0.1,0c0.1,0.5,0.1,0.9-0.1,1.4c0-0.6-0.1-1.1-0.3-1.6
			c0.1,0.7,0,1.4-0.2,2.1c0,0,0,0-0.1,0c0-0.4,0-0.8,0.1-1.2c0-0.4-0.2-0.8-0.3-1.2c0.2,0.9,0.1,1.8-0.1,2.6c0-0.3,0.1-0.6,0.1-0.9
			c0-0.2,0-0.5-0.1-0.7c-0.1-0.3-0.1-0.6-0.2-1c0-0.1-0.1-0.2-0.2-0.2c-0.1,0-0.2-0.1-0.3-0.1c0.5,0.5,0.6,1.1,0.5,1.7
			c0,0.3,0,0.6,0,0.9c0,0.2,0,0.5-0.2,0.7c0,0-0.1-0.1-0.1-0.1c0.2-1,0.2-2-0.3-2.9c0.1,0.3,0.1,0.5,0.1,0.8c0,0.3-0.1,0.6,0,0.9
			c0,0.3-0.1,0.5-0.1,0.8c0-0.4,0-0.9-0.1-1.3c0-0.5-0.2-0.9-0.4-1.3c0.1,0.5,0.1,1,0.2,1.4c0.1,0.5,0,0.9-0.1,1.4c0,0,0,0,0,0
			c0-0.3-0.1-0.5-0.1-0.8c0-0.2,0-0.4,0-0.5c-0.1-0.4-0.2-0.7-0.3-1.1C23.1,7.4,23.1,7.2,23,7C23,7,22.9,7,22.8,6.9
			c0.4,0.8,0.5,1.6,0.4,2.4c0,0.1-0.1,0.1-0.1,0.1c0.1-0.8-0.2-1.4-0.4-2.1c0,0,0,0-0.1,0c0,0.3,0,0.6,0.1,0.9c0,0.2,0,0.3-0.1,0.4
			c-0.1-0.2-0.1-0.3-0.2-0.5c-0.1-0.3-0.2-0.6-0.4-0.9c0-0.1-0.1-0.1-0.2-0.2c0.1,0.3,0.2,0.6,0.1,1c-0.2-0.3-0.3-0.6-0.5-0.8
			c0,0-0.2-0.1-0.2-0.1c-0.2,0-0.3,0-0.5,0c0,0,0-0.1,0-0.1C21,7,21.2,6.9,21.5,6.8c0.3-0.1,0.6-0.2,0.9-0.3
			c0.6-0.2,1.3-0.2,1.9-0.1c0.3,0.1,0.6,0.3,0.9,0.5c0.1,0,0.2,0,0.2,0.2c0.2,0,0.2,0,0.1-0.2c-0.1-0.1-0.1-0.3-0.3-0.3
			c0-0.2-0.2-0.2-0.2-0.3C25,6.2,24.9,6.1,24.8,6c-0.3-0.2-0.6-0.4-0.9-0.6c-0.3-0.1-0.6-0.2-0.9-0.2c-0.2,0-0.5,0-0.7-0.1
			c-0.3,0-0.6,0.1-1,0.2c-0.2,0-0.4,0-0.6,0.1c-0.1,0-0.1,0-0.1,0c-0.3,0.2-0.6,0.4-0.8,0.5C19.5,6,19.4,6,19.3,6.1c0,0-0.2,0-0.4,0
			c0.2,0.3-0.1,0.4-0.3,0.5C18.8,6.7,19,6.9,19.1,7c0,0,0,0,0,0.1c-0.2-0.1-0.4-0.1-0.6-0.2c-0.3-0.1-0.5-0.3-0.8-0.4
			c-0.3-0.1-0.6-0.2-0.9-0.2c-0.2,0-0.4,0-0.6,0c-0.4,0-0.8,0-1.1,0.2c-0.4,0.2-0.8,0.3-1.2,0.6c-0.2,0.2-0.4,0.4-0.6,0.6
			c-0.4,0.4-0.8,0.9-1,1.4c0,0,0,0.1,0,0.1c0.3,0.1,0.6,0.3,1,0.5c0.4-0.4,0.9-0.8,1.4-1.1c0.5-0.4,1.1-0.8,1.8-0.9
			c0.1,0,0.3,0,0.4,0c0.3,0,0.6,0.1,0.9,0.1c0.1,0,0.1,0.1,0.1,0.1c0,0.1,0,0.2,0,0.2c0.1,0.3,0.2,0.7,0.3,1c0,0.1,0,0.3,0,0.5
			c-0.1-0.3-0.2-0.5-0.3-0.8c-0.1-0.3-0.2-0.6-0.3-0.8c0,0-0.1-0.1-0.2-0.1c0.1,0.5,0.4,0.9,0.4,1.4c0,0.1,0.1,0.3,0.1,0.4
			c0,0,0,0-0.1,0c-0.1-0.3-0.2-0.6-0.3-0.9C17.2,8.5,17.1,8.3,17,8c0,0-0.1-0.1-0.2-0.1c-0.1,0-0.2,0-0.3,0c0.1,0.4,0.4,0.7,0.4,1.1
			c0,0,0-0.1-0.1-0.1c-0.2-0.3-0.3-0.6-0.5-0.9C16.2,8,16.2,8,16.1,8c-0.1,0-0.2,0.1-0.3,0.1c0.5,0.3,1,1.4,0.9,1.7
			c-0.1-0.2-0.1-0.3-0.2-0.5c-0.2-0.4-0.4-0.7-0.6-1.1c-0.1-0.1-0.2-0.1-0.3,0c-0.1,0.1-0.1,0.1-0.2,0.2l0,0
			c-0.1,0.1-0.2,0.2-0.3,0.2c0.4,0.5,0.7,0.9,0.8,1.5c0,0,0,0,0,0c-0.1-0.2-0.3-0.5-0.4-0.7c-0.1-0.2-0.2-0.4-0.4-0.5
			c-0.1-0.1-0.2,0-0.3,0.1c0,0,0,0.1-0.1,0.2c0.5,0.4,0.6,0.9,0.7,1.5c-0.3-0.4-0.5-0.9-0.8-1.4c-0.1,0.1-0.2,0.1-0.2,0.2
			c0.3,0.4,0.6,0.9,0.7,1.4c-0.3-0.4-0.6-0.8-0.9-1.2C14.1,9.8,14,9.8,14,9.9c0.2,0.3,0.4,0.7,0.5,1c0,0,0,0-0.1,0
			c-0.2-0.3-0.4-0.5-0.6-0.8c-0.1-0.1-0.2-0.1-0.3-0.1c0,0,0,0,0,0c0.1,0.2,0.3,0.4,0.4,0.6c0,0,0,0,0,0c-0.1-0.1-0.2-0.1-0.2-0.2
			c-0.4-0.4-0.8-0.6-1.3-0.8c-0.4-0.2-0.9-0.2-1.3-0.1c-0.2,0-0.3,0.1-0.5,0.1c-0.4,0.1-0.7,0.3-1,0.5c-0.1,0-0.1,0.1-0.2,0.1
			c-0.2,0.2-0.4,0.4-0.6,0.6c-0.1,0.2-0.3,0.3-0.5,0.5c-0.4,0.4-0.6,0.9-0.8,1.4c0,0.1,0,0.1,0,0.2c0.1,0.2-0.1,0.4-0.2,0.6
			c0.3,0.1,0.6,0.2,0.9,0.3c0.1,0,0.1,0,0.2-0.1c0.1-0.1,0.3-0.2,0.4-0.3c0.2-0.3,0.3-0.6,0.5-0.8c0.2-0.4,0.4-0.8,0.7-1.2
			c0.2-0.4,0.6-0.6,1-0.8c0.4-0.2,0.9-0.3,1.3-0.2c0.1,0,0.2,0.1,0.3,0.2c0.1,0,0.1,0.1,0.2,0.2c-0.1,0-0.1,0-0.2,0
			c0.3,0.4,0.5,0.8,0.4,1.3c0,0,0,0.1-0.1,0.1c0-0.2,0-0.4-0.1-0.6c0-0.2-0.1-0.3-0.4-0.4c0.1,0.3,0.2,0.6,0.1,0.9
			c0-0.1,0-0.2-0.1-0.4c-0.1-0.4-0.3-0.7-0.6-1c-0.1-0.1-0.2,0-0.4,0c0.2,0.3,0.4,0.5,0.4,0.8c-0.2-0.2-0.3-0.3-0.4-0.5c0,0,0,0,0,0
			c-0.2-0.2-0.2-0.2-0.4,0c0.3,0.4,0.6,0.8,0.6,1.3c0-0.1-0.1-0.1-0.1-0.2c-0.1-0.4-0.4-0.7-0.7-1c-0.1-0.2-0.2,0-0.3,0.1
			c0.3,0.3,0.5,0.7,0.6,1.2c-0.1-0.3-0.4-0.6-0.6-0.8c-0.1-0.1-0.2-0.1-0.3,0c0.2,0.4,0.5,0.8,0.7,1.1c0,0,0,0,0,0
			c-0.2-0.2-0.4-0.3-0.5-0.5c-0.1,0.3-0.3-0.1-0.5,0c0.2,0.1,0.4,0.3,0.4,0.7C9.9,13,9.8,13,9.4,13.2c0.3,0.1,0.6,0.2,0.7,0.5
			c-0.3-0.1-0.5-0.2-0.7-0.3c-0.1,0-0.2,0-0.3,0.1c0.3,0.1,0.5,0.3,0.5,0.6C9.4,14.1,9.2,14.1,9,14c-0.1,0-0.2,0-0.2,0.1
			c0,0.1,0,0.1,0.1,0.2c0.1,0.1,0.3,0.1,0.4,0.2c0,0,0.1,0.1,0.1,0.2c0,0.1,0,0.2-0.1,0.3c0,0-0.1,0-0.1,0c-0.1-0.2-0.3-0.3-0.4-0.4
			c-0.2-0.1-0.4-0.3-0.7-0.4C7.5,14.1,7,14,6.4,14.2c-0.2,0.1-0.3,0.1-0.5,0.2c-0.2,0.1-0.3,0.2-0.5,0.3c0.2,0,0.4,0,0.5,0
			c0.1,0,0.2,0.1,0.2,0.1c0,0.1-0.1,0.2-0.2,0.2C5.6,15,5.3,15.1,5,15.1c-0.7,0.2-1.3,0.4-1.8,1c-0.3,0.3-0.6,0.7-0.9,1
			c0,0-0.1,0.1-0.1,0.1c-0.1,0.4-0.3,0.7-0.4,1.1c-0.1,0.4-0.1,0.7-0.2,1.1c0,0.2-0.1,0.5-0.2,0.7c0,0-0.1,0-0.1,0
			c0-0.2,0-0.4,0-0.6c0.1-0.6,0.2-1.3,0.4-1.9C2.1,17,2.4,16.5,2.8,16c0.1-0.1,0.2-0.3,0.3-0.4c0.1-0.1,0.1-0.1,0-0.2
			C3,15.3,3,15.1,3.2,14.9c0.2-0.3,0.5-0.5,0.7-0.8C4,14,4.1,13.9,4.2,13.9c0,0,0,0,0.1,0c0.2,0,0.2,0,0.2-0.2
			c0-0.1,0.1-0.2,0.1-0.3c0.5-0.3,0.9-0.5,1.4-0.8c0.2-0.1,0.4,0,0.6,0.1c0.2,0.1,0.2,0.1,0.4,0c0-0.2-0.3-0.5-0.4-0.5
			c-0.1,0-0.2,0.1-0.3,0.1c-0.1,0-0.3,0-0.4,0c-0.3,0.1-0.5,0.1-0.8,0.2c-0.2,0.1-0.3,0.2-0.4,0.3c-0.4,0.3-0.8,0.7-1.1,1
			c-0.2,0.2-0.4,0.5-0.6,0.7c-0.1,0.1-0.1,0.1-0.2,0.1c0.1-0.3,0.2-0.6,0.3-0.8c0.3-0.5,0.7-0.9,1.2-1.2c0.3-0.2,0.6-0.4,1-0.6
			c0,0,0,0,0,0c0.1-0.1,0.3-0.1,0.4-0.2c0,0,0.1-0.1,0.1-0.1c0-0.2,0.1-0.3,0.3-0.4c0.2-0.3,0.5-0.5,0.8-0.8
			c0.3-0.3,0.7-0.5,1.1-0.7c0.2-0.1,0.5-0.1,0.8-0.2C8.5,9.4,8.3,9.3,8.1,9.4c-0.6,0.2-1.2,0.3-1.8,0.7c-0.4,0.3-0.7,0.6-1,1
			c-0.1,0.1-0.2,0.2-0.3,0.3c0.2-0.5,0.4-0.9,0.8-1.3C6,10.1,6.1,10,6.1,9.9c0.1-0.2,0.3-0.3,0.5-0.4c0.3-0.1,0.5-0.2,0.8-0.3
			c0.2-0.1,0.4-0.1,0.7-0.1c0.1,0,0.2,0,0.4,0c0.2,0,0.3,0,0.5,0.1c0,0,0.1,0,0.1,0.1C9.4,9,9.7,8.7,10,8.5c0,0,0,0,0,0
			c0.2-0.1,0.4-0.2,0.6-0.3c0.1,0,0.3,0,0.4,0c0.1,0.1,0.2,0.1,0.4,0c-0.1-0.2-0.3-0.3-0.5-0.3c-0.5,0-0.9,0-1.4,0.2
			c-0.3,0.2-0.6,0.4-1,0.5C8.5,8.7,8.4,8.7,8.3,8.8c0,0,0,0,0,0c0.1-0.1,0.2-0.3,0.4-0.4C8.8,8.1,9,8,9.2,7.8
			c0.3-0.3,0.7-0.4,1.2-0.5c0.1,0,0.3,0,0.3-0.1c0.1-0.2,0.3-0.2,0.4-0.3c0.4-0.3,0.8-0.5,1.2-0.6c0.4-0.1,0.7,0,0.9,0.4
			c0,0,0.1,0.1,0.1,0.1c0,0,0.1,0,0.1-0.1c0.1-0.2,0.2-0.3,0.2-0.5c0-0.2-0.1-0.3-0.3-0.3C13,6,12.7,6,12.4,6
			c-0.5,0-0.9,0.3-1.3,0.4c0,0-0.1,0-0.1,0c0,0,0,0,0,0c0.1-0.1,0.3-0.3,0.4-0.4c0.2-0.1,0.5-0.2,0.7-0.4c0.1,0,0.2-0.1,0.3-0.1
			c0.5,0,1,0,1.4,0.2c0.1,0,0.2,0,0.3,0c0.5-0.3,1-0.4,1.5-0.5c0.1,0,0.3,0,0.4,0.1c0.1,0.1,0.3,0.2,0.4,0.3c0.2-0.2,0.2-0.3,0-0.4
			c-0.1,0-0.2-0.1-0.3-0.1c-0.5,0-1.1,0-1.6,0.1c0,0,0,0,0-0.1C14.5,5.1,14.8,5,15,4.9c0.3-0.1,0.5-0.1,0.8-0.1
			c0.2,0,0.4,0.1,0.6,0.1c0.2,0.1,0.3,0,0.5-0.1c0.4-0.2,0.8-0.4,1.2-0.4c0.3,0,0.6,0,0.9,0.1c0.1,0,0.1,0,0.2,0
			c0.5-0.3,1.1-0.5,1.6-0.6c0.1,0,0.3,0,0.4,0C21.6,4,22,4.1,22.3,4.5c0,0,0.1,0.1,0.2,0.1c0.5,0,1,0.1,1.4,0.3c0.1,0,0.1,0,0.2,0
			c0.6-0.1,1.1-0.3,1.7-0.3c0.5,0,1,0.2,1.3,0.6c0,0,0.1,0.1,0.1,0c0.6-0.2,1.3,0,1.9,0.2c0.3,0.1,0.5,0.2,0.7,0.4
			c0.1,0,0.1,0,0.2,0c0.5-0.1,1,0,1.5,0.3c0.1,0.1,0.2,0.2,0.3,0.3c0.6-0.3,1.2-0.1,1.7,0.3c0.2,0.1,0.3,0.3,0.5,0.4
			c0.1,0.1,0.1,0.2,0.1,0.3C34,7.6,34,7.8,34.1,8c0.2,0,0.4,0,0.6,0.1c0.4,0.1,0.7,0.3,1,0.6c0.2,0.3,0.3,0.6,0.2,1
			c0,0.1,0,0.2,0.1,0.2c0.3,0.3,0.5,0.5,0.8,0.8c0.1,0.1,0.1,0.2,0.1,0.3c0.1,0.3,0.1,0.5,0.2,0.8c0,0,0.1,0.1,0.1,0.1
			c0.5,0.2,1,0.4,1.4,0.8c0.2,0.2,0.4,0.5,0.5,0.8c0.1,0.5,0.2,1.1,0.2,1.6c0,0.2,0,0.4-0.1,0.6c0,0.1,0,0.2,0,0.3
			c0.1,0.3,0.1,0.6,0.1,1c0,0.1,0,0.1-0.1,0.2c-0.1,0.2-0.3,0.4-0.4,0.6c-0.1,0.1-0.1,0.2-0.1,0.3c0.1,0.3,0,0.5-0.1,0.7
			c-0.1,0.2-0.3,0.5-0.5,0.7c-0.1,0.1-0.1,0.3-0.1,0.5c0.1,0.2,0,0.5,0,0.7c0,0.1-0.1,0.1-0.1,0.2c-0.1,0.2-0.1,0.3-0.3,0.3
			c-0.2,0.1-0.4,0.3-0.6,0.4c0,0.2-0.1,0.5-0.1,0.7c0,0,0,0-0.1,0c0.1,0,0.1,0.1,0.2,0.1c0.3,0.1,0.4,0.3,0.5,0.6
			c0,0.4-0.2,0.7-0.6,0.9c-0.1,0.1-0.3,0.2-0.5,0c-0.1-0.1-0.1-0.1-0.1-0.2c-0.1,0.1-0.2,0.1-0.3,0.2c0.1,0,0.2,0,0.3,0.1
			c0.5,0.2,0.5,0.7,0.2,1c-0.1,0.1-0.1,0.1,0,0.2c0.2,0.1,0.3,0.5,0.2,0.8c-0.1,0.2-0.2,0.4-0.3,0.6c-0.1,0.2-0.3,0.4-0.5,0.5
			c-0.2,0.1-0.3,0.3-0.5,0.4c0,0,0,0,0,0c0,0.1,0,0.2,0,0.3c-0.1,0.4-0.3,0.7-0.6,0.9c0,0-0.1,0.1-0.1,0.1c-0.2,0.3-0.5,0.5-0.9,0.7
			c0,0,0,0,0,0c-0.3,0.1-0.4,0-0.5-0.3c-0.1,0.2-0.2,0.3-0.3,0.5c0.1,0,0.1,0.1,0.2,0.1c0.4,0.1,0.4,0.5,0.3,0.7
			c-0.2,0.3-0.4,0.6-0.7,0.8c-0.2,0.2-0.4,0.4-0.7,0.5c-0.2,0.1-0.5,0.3-0.8,0.3c-0.1,0-0.2,0-0.3-0.2c0.5,0,0.8-0.3,1.2-0.5
			c0.3-0.2,0.6-0.5,0.9-0.9c0.1-0.1,0.1-0.3,0.2-0.4c0,0,0-0.1,0-0.1c0-0.1-0.2-0.2-0.3-0.2c-0.1,0-0.2-0.1-0.3,0.1
			c0.2,0.1,0.3,0.3,0.1,0.5c-0.1,0.1-0.2,0.3-0.3,0.4c-0.1,0.1-0.3,0.2-0.4,0.3c-0.2,0.2-0.4,0.3-0.6,0.4c-0.3,0.1-0.5,0.2-0.8,0.3
			c-0.1,0-0.1,0.1-0.2,0.1c-0.2,0.2-0.3,0.4-0.4,0.6c-0.2,0.2-0.4,0.3-0.5,0.4c-0.5,0.4-1.1,0.5-1.8,0.6c-0.2,0-0.4,0.1-0.6,0
			c-0.3,0-0.3-0.1-0.3-0.4c-0.2,0.1-0.4,0.1-0.5,0.2c-0.4,0.1-0.8,0.3-1.2,0.3c-0.1,0-0.2,0-0.2,0c-0.4,0.4-0.8,0.7-1.3,0.9
			c-0.4,0.1-0.8,0.1-1.2,0c-0.1,0-0.2-0.1-0.3-0.1c-0.1,0-0.1,0-0.2,0c0.2,0.1,0.4,0.1,0.5,0.2c0.2,0.1,0.3,0.2,0.3,0.4
			c0,0.3-0.1,0.5-0.4,0.7c-0.6,0.4-1.2,0.4-1.8,0.2c-0.2-0.1-0.3-0.1-0.5-0.2c0,0,0,0,0,0c0.1,0,0.1,0,0.2,0c0.4,0,0.7,0,1.1,0.1
			c0.1,0,0.2,0,0.3,0c0.1,0,0.3-0.1,0.4-0.1c0.2,0,0.4-0.3,0.4-0.5c0,0,0-0.1,0-0.1c-0.1-0.1-0.2-0.2-0.2-0.3c0,0-0.1-0.1-0.1-0.2
			c-0.1,0.3-0.1,0.5-0.4,0.7c-0.2-0.1-0.2-0.1-0.5,0.1c0-0.2,0-0.2-0.2-0.2c-0.2,0-0.2,0.2-0.3,0.2c0-0.1-0.1-0.2-0.1-0.3
			c-0.1-0.1-0.2,0.1-0.3,0.1c0-0.1,0-0.1-0.1-0.2c0-0.1-0.1-0.2-0.2-0.2c0,0-0.1,0.1-0.2,0.1c-0.1,0-0.1,0.1-0.2,0.2c0,0,0,0,0,0
			c0-0.1,0-0.2,0-0.2c0,0,0-0.1,0-0.1c0,0-0.1,0-0.1,0.1c-0.2,0.2-0.4,0.3-0.6,0.3c-0.5,0-1,0.2-1.5,0.1c-0.3,0-0.5-0.1-0.7-0.3
			c0,0-0.1-0.1-0.2-0.1c0.1-0.1,0.2-0.2,0.3-0.2c-0.4-0.1-0.7-0.3-1.1-0.5c0,0,0-0.1,0-0.1c0,0,0-0.1,0-0.1
			c-0.5-0.1-0.9-0.2-1.4-0.3c0,0,0,0,0-0.1c0.1,0,0.2,0,0.2,0c0.2,0,0.5,0,0.7-0.1c0.5-0.1,1,0,1.4-0.4c0.1,0,0.1-0.1,0.2-0.2
			c-0.2-0.1-0.4-0.1-0.6-0.2c0,0.1,0,0.2,0,0.2c-0.1,0-0.3,0-0.2,0.2c-0.1,0-0.2-0.1-0.3-0.1c-0.1,0-0.2,0-0.2,0.2
			c-0.4-0.1-0.7-0.1-1.1-0.2c-0.1,0-0.2-0.1-0.3-0.2c-0.1,0-0.1-0.1-0.2-0.1c-0.1-0.1-0.2-0.1-0.2-0.2c0-0.1-0.1-0.2-0.2-0.2
			c-0.1-0.1-0.2-0.1-0.2-0.3c0.1,0,0.2,0,0.3,0c0,0,0,0,0,0c-0.2-0.1-0.4-0.1-0.7-0.2c0,0-0.1,0-0.1,0.1c-0.1,0.3-0.4,0.3-0.6,0.3
			c-0.5,0-1-0.1-1.5-0.4c-0.1-0.1-0.2-0.1-0.4-0.2c-0.1,0-0.1-0.1-0.2,0.1c-0.1,0.3-0.3,0.6-0.6,0.7c-0.1,0-0.3,0-0.4,0
			c-0.4,0-0.8-0.2-1.2-0.5c-0.2-0.1-0.4-0.3-0.5-0.4c0,0,0,0,0-0.1c0.2-0.1,0.4,0,0.5,0.1c0.3,0.2,0.6,0.3,0.9,0.4
			c0.4,0.2,0.7,0,0.9-0.2c0.1-0.1,0.1-0.2,0.2-0.3c-0.1,0.1-0.2,0.1-0.4,0c-0.1-0.1-0.3,0-0.4-0.1c-0.5-0.1-1-0.3-1.5-0.7
			c-0.1-0.1-0.2-0.1-0.3,0c-0.5,0.3-1.1,0.3-1.6,0.1c-0.1,0-0.2,0-0.3-0.1c0,0,0,0,0-0.1c0.1,0,0.2-0.1,0.3-0.1c0.3,0,0.7,0,1,0
			c0.1,0,0.2,0,0.3-0.1c0.2-0.1,0.3-0.3,0.2-0.5c-0.1,0.1-0.2,0.1-0.3,0.2c0,0,0,0.1-0.1,0.1c-0.1,0.1-0.1,0.2-0.2,0.3
			c0-0.1-0.1-0.2-0.1-0.3c-0.1,0-0.2,0.1-0.3,0.1c0,0-0.1-0.1-0.1-0.1c-0.1,0-0.2,0-0.3,0c-0.1-0.2-0.2-0.1-0.4-0.1
			c-0.1,0.1-0.1,0.2-0.2,0.3c0-0.1-0.1-0.1-0.1-0.1c0.1-0.2,0-0.4-0.3-0.4C5,30.1,5,30.2,4.8,30.3c0-0.1,0-0.2,0-0.3
			C4.8,30,4.7,30,4.7,30.1c0,0,0-0.1,0-0.1c0.1-0.1,0-0.2-0.1-0.2c-0.2-0.2-0.4-0.4-0.5-0.6C4,29,4,29,4.2,28.9c0.2-0.1,0.3,0,0.4,0
			c0.3,0.1,0.7,0.2,1,0.4c0.3,0.1,0.5,0.1,0.8,0.1C6.8,29.3,7,29,6.9,28.5c-0.1,0.1-0.1,0.2-0.2,0.3c0,0,0,0.1-0.1,0.1
			c-0.1,0-0.2,0.1-0.2,0.2c0,0,0,0,0,0c-0.1-0.1-0.1-0.3-0.3-0.3c-0.2,0-0.3,0-0.3,0.2c-0.1-0.2-0.3-0.3-0.5-0.3
			c-0.2-0.1-0.3-0.2-0.5-0.3c-0.2-0.1-0.3-0.2-0.5-0.4c0,0-0.1-0.1-0.1-0.1c-0.4,0-0.7-0.2-1-0.4c0,0-0.1,0-0.1-0.1
			c-0.1,0.5-0.4,0.7-0.8,0.6c-0.1,0-0.3-0.1-0.4-0.1c-0.4-0.1-0.7-0.3-1-0.5c-0.1-0.1-0.1-0.1-0.3-0.1c0.1,0,0.2,0,0.2,0
			c0.4,0,0.6,0.2,0.9,0.3C2.3,27.9,2.5,28,2.8,28c0.1,0,0.2-0.1,0.2-0.2c0-0.1-0.1-0.2-0.2-0.3c-0.2,0.2-0.4,0.1-0.6,0
			c-0.2-0.1-0.5-0.2-0.7-0.3c-0.2-0.1-0.3-0.3-0.2-0.6c0-0.1,0.1-0.2,0.1-0.3c0,0,0,0-0.1-0.1c0.2,0,0.3,0.1,0.4,0.1
			c0.3,0.1,0.5,0.3,0.8,0.5c0.3,0.1,0.4,0.4,0.6,0.6c0,0,0.1,0.1,0.1,0.1c0.3,0.1,0.7,0.3,1,0.4c0.4,0.1,0.8,0,1.1,0
			c0.2,0,0.3-0.2,0.3-0.4c0-0.2-0.1-0.3-0.2-0.5c-0.1,0.2-0.2,0.3-0.4,0.3c0,0.1,0,0.2,0,0.3c0,0,0,0,0,0c-0.1-0.1-0.2-0.2-0.3-0.3
			c0,0.1-0.1,0.2-0.1,0.3c-0.1-0.1-0.2-0.3-0.4-0.4c-0.1,0.1-0.1,0.1-0.1,0.2C4,26.9,4,26.9,3.9,27c-0.1-0.2-0.4-0.3-0.6-0.5
			c0,0-0.1,0-0.1-0.1c-0.1-0.2-0.1-0.4,0-0.6c0-0.1,0.2-0.1,0.3-0.1c0,0,0.1,0.1,0.1,0.1c0.2,0,0.3,0,0.5,0c0.1,0,0.3,0.1,0.4,0.2
			c0.2,0.1,0.4,0.1,0.6,0.2c0.2,0,0.4,0.1,0.5,0.2C5.9,26.6,6,26.8,6,27.1c0.3,0,0.5,0.2,0.7,0.2c0.4,0.1,0.8,0.4,1.2,0.4
			c0.3,0,0.5,0,0.8,0c0.2,0,0.5,0,0.7-0.3c0.1-0.1,0.1-0.3,0-0.4c-0.1-0.1-0.2-0.1-0.2-0.2c0,0,0,0,0,0.1c0,0.1,0,0.2,0,0.3
			c-0.1,0.1-0.2,0.1-0.3,0.1c-0.4,0.1-0.7,0.1-1.1,0.1c-0.4,0-0.7-0.2-1.1-0.4c-0.1-0.1-0.3-0.2-0.4-0.4C6,26.4,6,26.2,5.9,26
			c0,0,0.1-0.1,0.1-0.1c0.1-0.1,0.2-0.2,0.3-0.3c0,0-0.1,0-0.1-0.1c0.1,0,0.1-0.1,0.2-0.1c0.2,0,0.5-0.1,0.7-0.1c0.1,0,0.3,0,0.4,0
			c0.6,0.1,1.2,0.4,1.6,0.8c0.1,0.1,0.3,0.2,0.5,0.3c0,0,0,0,0,0c-0.1-0.1-0.2-0.2-0.3-0.2c0.2,0,0.6,0.2,0.8,0.4
			c0.1,0.2,0.3,0.3,0.5,0.3c0.1,0,0.2,0.1,0.3,0.1c0.1,0.1,0.3,0.2,0.4,0.3c0.3,0.2,0.7,0.3,1,0.5c0.1,0,0.1,0.1,0.2,0.1
			c0.5,0.3,1,0.5,1.5,0.7c0.3,0.1,0.6,0.3,0.9,0.4c0.2,0.1,0.4,0.2,0.5,0.3c0,0,0.1,0.1,0.1,0.1c0,0-0.1,0.1-0.1,0
			c-0.2-0.1-0.4-0.1-0.6-0.2c-0.2-0.1-0.4-0.1-0.7-0.2c-0.2-0.1-0.4-0.1-0.7-0.2c0,0,0,0,0,0c0.2,0.1,0.3,0.2,0.5,0.3
			c0.5,0.3,1.1,0.5,1.6,0.8c0.3,0.1,0.7,0.2,1.1,0.3c0.6,0.1,1.1,0.3,1.7,0.4c0.6,0.1,1.2,0.2,1.8,0.2c0.3,0,0.7,0,1-0.1
			c0.3,0,0.5-0.1,0.8-0.2c0.3-0.1,0.7-0.1,1-0.2c0.6-0.2,1.1-0.4,1.7-0.7c0.5-0.2,1-0.5,1.6-0.7c0.6-0.3,1.1-0.6,1.6-1
			c0.6-0.4,1.2-0.9,1.7-1.3c0.4-0.3,0.8-0.7,1.1-1.1c0.1-0.2,0.3-0.3,0.4-0.5c0.3-0.4,0.5-0.8,0.7-1.2c0.1-0.2,0.3-0.4,0.4-0.6
			c0.3-0.6,0.7-1.2,1-1.7c0.1-0.2,0.2-0.3,0.3-0.4c0.1-0.1,0.1-0.2,0.2-0.3c0,0,0,0,0,0c0.1,0.1,0.2,0.1,0.2,0.2
			c0,0.2-0.1,0.3-0.1,0.5c0,0.1-0.1,0.2-0.1,0.2c-0.1,0.1-0.1,0.2-0.1,0.3c0,0,0.1-0.1,0.1-0.1c0.3-0.2,0.6-0.3,0.7-0.6
			c0.1-0.2,0.2-0.3,0.1-0.5c0,0,0-0.1,0-0.1c0,0,0.1,0,0.1,0c0.1,0.1,0.2,0.2,0.3,0.3c-0.1-0.4,0.3-0.4,0.5-0.6
			c0.2,0.2,0.2,0.4,0.1,0.7C35.5,21.2,35.5,21.2,35.6,21.3c0.1,0.1,0.1,0.1,0.2,0.2c0,0,0.1,0.1,0.1,0.1c0,0.2,0,0.4-0.2,0.6
			c-0.1,0.2-0.3,0.3-0.5,0.3c0,0-0.1,0-0.1,0.1c-0.1,0-0.1,0.1-0.2,0.1c0,0.1,0,0.1,0.1,0.1c0.1,0,0.2,0,0.3,0c0.1,0,0.2,0,0.2,0
			c0.5-0.2,0.7-0.5,1-0.9c0-0.1,0.1-0.2,0-0.2c-0.1-0.1-0.2-0.2-0.2-0.3c-0.1,0-0.1,0.1-0.2,0.1c0-0.1,0-0.1,0-0.1
			c-0.1,0-0.2,0-0.2,0C35.8,21.3,35.7,21.3,35.6,21.3z M9.9,22.8c0.1-0.1,0.3-0.1,0.4-0.2c0,0,0,0,0,0.1c-0.2,0.2-0.4,0.4-0.6,0.5
			c-0.1,0.1-0.1,0.1,0,0.2c0.4-0.3,0.8-0.6,1.3-0.9c0,0,0,0,0,0.1c-0.4,0.3-0.8,0.6-1.1,0.9c-0.1,0.1-0.1,0.1,0,0.2
			c0.5-0.4,0.9-0.8,1.4-1.2c0,0,0,0,0,0.1c-0.4,0.4-0.9,0.9-1.3,1.3c0,0,0.1,0.1,0.2,0.1c0.3-0.4,0.6-0.8,1-1.1c0,0.1,0,0.1-0.1,0.1
			c-0.3,0.3-0.5,0.6-0.8,0.9c-0.2,0.2-0.2,0.2,0,0.4c0.3-0.4,0.6-0.7,1-0.9c-0.1,0.1-0.2,0.2-0.2,0.3c-0.2,0.3-0.3,0.5-0.5,0.8
			c-0.1,0.1,0,0.2,0.1,0.2c0.5-0.6,1-1.2,1.7-1.6c-0.1,0.2-0.3,0.3-0.5,0.5c-0.3,0.4-0.7,0.7-1,1.1c-0.1,0.1-0.1,0.2,0.1,0.3
			c0.4-0.5,0.8-1,1.4-1.3c-0.3,0.3-0.5,0.7-0.8,1c0,0,0,0,0,0c0.3-0.3,0.6-0.5,0.9-0.8c0,0,0,0,0,0c-0.2,0.2-0.3,0.4-0.5,0.6
			c-0.2,0.2-0.4,0.4-0.5,0.6c0.1,0,0.1,0.1,0.2,0.1c0,0,0.1,0,0.1,0c0.1-0.1,0.2-0.3,0.4-0.4c0.1-0.1,0.2-0.1,0.3-0.2c0,0,0,0,0,0
			c-0.2,0.2-0.4,0.5-0.6,0.7c0.1,0,0.2,0.1,0.3,0.1c0.1-0.3,0.5-0.7,0.9-0.8c-0.2,0.3-0.5,0.6-0.7,0.8c0.1,0.1,0.2,0.1,0.3,0
			c0.1-0.2,0.3-0.3,0.5-0.4c0.1-0.1,0.2-0.1,0.2-0.2c0,0,0,0,0,0c-0.2,0.3-0.4,0.6-0.6,0.9c0.1,0,0.2,0,0.3,0
			c0.2-0.1,0.3-0.3,0.5-0.5c0.1-0.1,0.2-0.2,0.4-0.3c0,0,0,0,0,0c-0.2,0.3-0.4,0.6-0.6,0.9c0.1,0.1,0.3,0.1,0.4,0.2
			c0.1-0.4,0.2-0.5,0.5-0.7c-0.1,0.3-0.2,0.5-0.4,0.7c0.1,0.1,0.2,0.1,0.2,0.1c0.2-0.3,0.4-0.7,0.8-0.8c-0.1,0.3-0.2,0.5-0.3,0.7
			c-0.1,0.2-0.1,0.3,0.2,0.4c0.1,0,0.1,0,0.2-0.1c0.1-0.3,0.3-0.5,0.5-0.6c0,0,0,0,0,0c-0.1,0.3-0.2,0.5-0.4,0.8
			c0.1,0,0.1,0.1,0.2,0.1c0.3,0.2,0.4,0.1,0.6-0.2c0,0,0,0,0,0c0.1-0.1,0.2-0.3,0.3-0.4c0,0,0.1,0,0.2-0.1c-0.1,0.3-0.3,0.5-0.4,0.8
			c0,0,0,0,0,0.1c0.1,0,0.2,0,0.2-0.1c0.1-0.1,0.1-0.2,0.2-0.3c0.1-0.1,0.2-0.2,0.3-0.3c-0.1,0.2-0.2,0.4-0.3,0.7c0.1,0,0.1,0,0.2,0
			c0.1-0.1,0.2-0.2,0.3-0.4c0,0,0.1-0.1,0.2-0.1c-0.1,0.2-0.1,0.4-0.2,0.6c0.1,0.1,0.1,0.1,0.2-0.1c0.1-0.1,0.1-0.3,0.2-0.4
			c0-0.1,0.1-0.1,0.2-0.2c-0.1,0.3-0.1,0.5-0.1,0.7c0,0,0,0,0,0c0.1-0.2,0.2-0.4,0.3-0.6c0,0,0.1,0,0.1,0.1c0,0.2,0,0.4,0,0.6
			c1.3,0.1,2.5,0.2,3.8,0.1c-0.1-0.1-0.2-0.2-0.3-0.3c-0.2-0.3-0.4-0.5-0.7-0.8c-0.3-0.4-0.6-0.7-1-1.1c-0.2-0.2-0.4-0.5-0.5-0.8
			c-0.2-0.4-0.4-0.8-0.5-1.2c-0.1-0.4-0.2-0.9-0.3-1.3c-0.1-0.5-0.1-1-0.1-1.4c0-0.2,0-0.4,0.3-0.4c0,0,0.1-0.1,0.1-0.1
			c-0.1,0-0.2-0.1-0.2-0.1c0.1,0,0.2,0,0.3-0.1c0.1,0,0.1-0.2,0.2-0.2c-0.2,0-0.3,0-0.4,0c0,0,0,0,0-0.1c0.2,0,0.3-0.1,0.5-0.1
			c0-0.1,0.1-0.2,0.1-0.4c-0.1,0.1-0.3,0.1-0.4,0.2c0,0,0,0,0,0c0.1-0.1,0.2-0.2,0.4-0.4c0,0,0-0.1-0.1-0.1c-0.1,0-0.2,0.1-0.4,0.1
			c0.1-0.1,0.2-0.2,0.2-0.3c-0.1-0.1-0.1-0.1-0.2,0c-0.1,0.1-0.1,0.1-0.2,0.1c0-0.1,0.1-0.2,0.1-0.2c-0.4,0-0.5,0-0.5,0.3
			c0,0,0,0.1,0,0.1c-0.1,0-0.2,0.1-0.3,0.1c-0.1,0-0.1-0.1-0.2-0.2c0.2-0.2,0.1-0.5,0.1-0.8c0-0.6-0.1-1.2-0.1-1.9
			c0-0.3,0-0.6,0-0.9c0-0.2,0.1-0.4,0.1-0.6c-0.1,0-0.1,0-0.1,0c-0.5,0.2-0.9,0.4-1.4,0.5c-0.2,0.1-0.4,0.1-0.5,0.2
			c-0.4,0.2-0.8,0.4-1.2,0.6c-0.3,0.1-0.6,0.3-0.9,0.6c-0.3,0.3-0.7,0.7-1,0.9c-0.4,0.3-0.8,0.5-1,0.9c0,0,0,0,0,0c0,0,0,0,0,0.1
			c-0.2,0.1-0.6,0.2-0.6,0.5c0.3-0.1,0.7-0.2,1-0.3c0,0,0,0,0,0.1c-0.3,0.2-0.7,0.4-1,0.5c-0.3,0.1-0.6,0.2-0.7,0.5
			c0.1-0.1,0.3-0.1,0.4-0.2c0.3-0.1,0.5-0.2,0.8-0.3c0,0,0,0,0,0.1c-0.3,0.1-0.5,0.3-0.8,0.4c-0.2,0.1-0.4,0.2-0.4,0.4
			c0.5-0.2,0.9-0.4,1.4-0.6c0,0,0,0,0,0c-0.3,0.2-0.7,0.4-1,0.6c0,0,0,0,0,0c0.2-0.1,0.5-0.2,0.7-0.3c0,0,0,0.1,0,0.1
			c-0.4,0.2-0.8,0.5-1.2,0.7c-0.2,0.1-0.4,0.2-0.4,0.4c0.1-0.1,0.3-0.1,0.4-0.2c0.4-0.2,0.8-0.4,1.2-0.6c0.1,0,0.1,0,0.2-0.1
			c0,0,0,0,0,0.1c0,0,0,0-0.1,0c-0.3,0.2-0.6,0.4-0.9,0.6c-0.3,0.2-0.5,0.3-0.8,0.4c-0.2,0.1-0.3,0.2-0.3,0.5
			c0.4-0.4,0.9-0.7,1.4-0.9c-0.3,0.2-0.7,0.4-1,0.7c-0.1,0.1-0.3,0.2-0.4,0.4c0,0,0,0.1-0.1,0.2c0.5-0.2,0.8-0.5,1.3-0.7
			c0,0,0,0,0,0c-0.2,0.2-0.5,0.4-0.7,0.6c0,0,0,0,0,0c0.4-0.3,0.8-0.6,1.3-0.8c0,0,0,0,0,0.1c-0.2,0.2-0.5,0.4-0.7,0.6
			C10.3,22.4,10.1,22.6,9.9,22.8C9.8,22.9,9.6,23,9.5,23c0,0,0,0,0,0.1C9.7,23,9.8,23,9.9,22.8z M31,19.9c-0.7-0.1-1.4-0.1-2-0.2
			c0.1-0.1,0.1-0.1,0.2-0.1c0.3,0,0.7-0.1,1-0.1c0.3,0,0.7,0,1,0c0,0,0.1,0,0.2-0.1c-0.8,0-1.6-0.1-2.3-0.1c0,0,0,0,0-0.1
			c0.8-0.2,1.7-0.3,2.6-0.3c-0.9,0-1.7-0.1-2.6-0.1c0,0,0-0.1,0-0.1c0.1,0,0.2,0,0.3-0.1c0.1,0,0.1,0,0.2,0c0.3,0,0.6-0.1,0.9-0.1
			c0.5-0.1,1-0.1,1.5-0.2c-1.1,0-2.3,0.1-3.4-0.1c0.4-0.1,0.7-0.1,1.1-0.2c0.4-0.1,0.8-0.1,1.2-0.2c0.5-0.1,1-0.2,1.5-0.2
			c0.2,0,0.3-0.1,0.4-0.3c-1.2,0-2.3,0.1-3.4,0.1c0.2-0.1,0.5-0.2,0.7-0.2c0.4-0.1,0.9-0.1,1.3-0.2c0.4,0,0.9-0.1,1.4-0.1
			c0,0,0.1,0,0.1,0c-0.1-0.1-0.2-0.2-0.2,0c-0.1-0.2-0.2-0.1-0.4-0.1c-0.4,0-0.9,0.1-1.3,0.1c-0.5,0-1,0-1.4,0.1c0,0,0,0,0,0
			c0.9-0.3,1.8-0.4,2.8-0.6c-0.2-0.1-0.3-0.3-0.5-0.2c-0.6,0.1-1.2,0.2-1.8,0.3c-0.3,0-0.5,0-0.8,0.1c0,0,0,0,0,0
			c0.8-0.2,1.5-0.5,2.3-0.5c-0.1-0.1-0.2-0.1-0.3-0.2c-0.1-0.1-0.2-0.1-0.3,0c-0.5,0.1-1.1,0.3-1.6,0.4c-0.1,0-0.3,0-0.4,0
			c0,0,0,0,0-0.1c0.5-0.3,1-0.5,1.6-0.7c-0.1-0.1-0.2-0.1-0.3-0.2c-0.1-0.1-0.2-0.1-0.3,0c-0.4,0.1-0.8,0.2-1.1,0.3c0,0,0,0,0-0.1
			c0.3-0.2,0.7-0.3,1-0.5c-0.2-0.2-0.3-0.2-0.5-0.1c-0.3,0.1-0.6,0.2-0.9,0.3c0.1-0.3,0.3-0.2,0.4-0.3c0.1-0.1,0.3-0.2,0.4-0.3
			c-0.1-0.1-0.1-0.2-0.3-0.1c-0.1,0.1-0.3,0.1-0.5,0.1c0,0,0,0,0,0c0.1-0.1,0.1-0.1,0.2-0.2c-0.4,0-0.7,0-1.1-0.1
			c-0.7,0-1.4-0.1-2-0.4c-0.2-0.1-0.5-0.2-0.7-0.3c-0.1,0-0.2,0-0.3,0c-0.2,0-0.3,0.1-0.5,0.2c-0.5,0-0.9,0.1-1.4,0.1
			c-0.5,0-1.1,0-1.6,0c-0.2,0-0.3,0.1-0.4,0.2c-0.2,0.1-0.4,0.2-0.6,0.4c0,0,0.1,0.1,0.1,0.1c0.2,0.3,0.3,0.6,0.5,0.9
			c0.2,0.3,0.4,0.7,0.6,1c0.2,0.5,0.4,1,0.5,1.5c0,0.2,0.1,0.3,0.2,0.5c0.1,0.3,0.1,0.6,0.1,0.9c0,0.1,0,0.2,0,0.2
			c0.1,0.2,0.1,0.5,0.2,0.7c0.1,0.3,0.1,0.6,0.1,0.9c0,0.6,0,1.2,0,1.8c0,0.1,0,0.3,0,0.4c0,0.2,0,0.3,0,0.5c0,0.4-0.1,0.7-0.1,1.1
			c0,0.6,0.1,1.1,0.1,1.7c0,0.3,0.2,0.6,0.1,0.9c0.3-0.1,0.5-0.1,0.7-0.2c0.9-0.3,1.8-0.7,2.6-1c0.5-0.2,0.9-0.5,1.4-0.8
			c-0.1-0.1-0.1-0.2-0.1-0.3c0.2,0,0.3,0,0.5,0c0-0.1-0.1-0.1-0.1-0.1c-0.1-0.1-0.1-0.2-0.1-0.2c0,0,0.1,0,0.2-0.1
			c0.1-0.1,0.2,0,0.3,0.1c0,0,0.1,0,0.1,0c0.1-0.1,0.2-0.1,0.2-0.2c-0.2-0.1-0.4-0.3-0.6-0.4c0.2-0.1,0.6-0.1,0.9,0.1
			c0.1-0.1,0.2-0.2,0.2-0.2c-0.3-0.2-0.5-0.3-0.8-0.5c0.1-0.1,0.1-0.1,0.1-0.1c0.3,0.1,0.6,0.1,1,0.2c0,0,0-0.1,0.1-0.1
			c-0.3-0.1-0.5-0.2-0.8-0.3c0.3-0.1,0.6,0,0.9,0.1c0.1-0.1,0.1-0.2,0.2-0.2c-0.4-0.2-0.8-0.4-1.2-0.6c0,0,0,0,0-0.1
			c0.1,0,0.2-0.1,0.3,0c0.3,0,0.7,0.1,1,0.2c0.1,0.1,0.2,0,0.2-0.1c-0.5-0.2-0.9-0.4-1.3-0.6c0,0,0,0,0-0.1c0.1,0,0.2,0,0.3,0
			c0.2,0,0.4,0.1,0.6,0.1c0.2,0,0.4,0,0.6,0.1c0,0,0.1,0,0.1,0c0,0-0.1-0.1-0.1-0.1c-0.4-0.1-0.8-0.3-1.3-0.4c0,0,0,0,0-0.1
			c0.1,0,0.1,0,0.2,0c0.5,0,0.9,0.1,1.4,0.1c0.1,0,0.2-0.1,0.2-0.2c-0.4-0.1-0.9-0.2-1.3-0.3c0,0,0,0,0-0.1c0,0,0.1,0,0.1,0
			c0.2,0,0.4,0,0.5,0c0.3-0.1,0.5,0,0.8,0c0.2,0,0.2-0.1,0.2-0.2c-0.5-0.1-1-0.1-1.5-0.2c0.2-0.2,0.4-0.1,0.6-0.1
			c0.2,0,0.4-0.1,0.6-0.1c0.2,0,0.4,0,0.5,0c0,0,0,0,0,0c-0.6-0.1-1.1-0.2-1.7-0.3c0-0.1,0.1-0.1,0.1-0.1c0.2,0,0.5,0,0.7-0.1
			c0.3,0,0.6,0,0.9-0.1C30.8,20,31,20.1,31,19.9z M33.8,13.3c0-0.5-0.1-1.1-0.1-1.7c0,0,0,0,0,0c-0.1,0.1-0.1,0.3-0.2,0.5
			c0-0.2-0.1-0.4-0.1-0.6c-0.1-0.3-0.3-0.7-0.4-1c0-0.1-0.1-0.1-0.2-0.2c0,0.1-0.1,0.1-0.1,0.2c0.1,0.2-0.1,0.4-0.1,0.7
			c0,0.2-0.1,0.4-0.2,0.6c0,0.1,0,0.3-0.1,0.5c-0.2,0.3-0.4,0.6-0.7,0.8c-0.2,0.1-0.3,0.2-0.5,0.3c-0.4,0.2-0.8,0.3-1.2,0.5
			c0.1,0.1,0.3,0.2,0.4,0.3c0.2,0.1,0.3,0.3,0.5,0.4c0.3,0.2,0.7,0.3,1,0.5c0.3,0.2,0.6,0.4,1,0.4c0.3,0.1,0.7,0.1,1,0.2
			c0.4,0.1,0.8,0.1,1.2-0.2c0.5-0.3,0.9-0.7,1.1-1.2c-0.1-0.2-0.1-0.4-0.2-0.5c-0.1,0.3-0.3,0.6-0.4,0.9c0,0,0,0,0,0
			c0.1-0.5,0.2-0.9,0.2-1.4c-0.1,0-0.1,0.1-0.1,0.1c0,0.2-0.2,0.3-0.1,0.5c-0.2,0.2-0.1,0.4-0.2,0.6c-0.1,0.2-0.2,0.5-0.5,0.6
			c0.3-0.4,0.5-1.6,0.4-1.8c-0.2,0.4-0.3,0.9-0.6,1.3c0-0.2,0.1-0.3,0.1-0.4c0.1-0.6,0.2-1.1,0.2-1.7c0,0-0.1-0.1-0.1-0.1
			c0,0,0,0-0.1,0c0,0.4-0.1,0.8-0.2,1.2c0-0.5-0.1-1-0.1-1.4c0-0.1,0-0.1-0.1-0.2C34.2,12.3,33.9,12.8,33.8,13.3z M36.6,13.6
			c-0.1,0.3-0.2,0.5-0.3,0.8c-0.2,0.5-0.6,0.9-1,1.3c-0.3,0.3-0.6,0.5-1,0.6c-0.2,0.1-0.5,0.1-0.7,0.1c-0.2,0-0.4,0-0.6,0.1
			c0.1,0.1,0.1,0.1,0.2,0.1c0.2,0.1,0.3,0.3,0.5,0.4c0.1,0.1,0.2,0.2,0.3,0.3c0.5,0.4,1.2,0.5,1.8,0.6c0,0,0.1,0,0.1,0
			c0.2,0,0.4-0.1,0.6-0.1c0.3-0.1,0.4-0.3,0.6-0.4c0,0,0,0,0,0c-0.1,0.1-0.2,0.2-0.3,0.3c0,0,0,0,0,0c0.1-0.3,0.2-0.6,0.3-0.9
			c0,0-0.1,0.1-0.1,0.1c-0.1,0.1-0.1,0.2-0.2,0.3c0,0-0.1,0.1-0.2,0.1c0,0-0.1-0.1-0.1-0.1c0,0,0.1-0.1,0.1-0.1c0,0,0.1-0.1,0.1-0.1
			c0.1-0.2,0.2-0.4,0.2-0.6c0.1-0.3,0.2-0.6,0.3-0.8c0-0.2,0-0.3,0.1-0.5c0,0,0,0-0.1,0c-0.2,0.3-0.2,0.7-0.6,0.9
			c0.3-0.5,0.3-1,0.4-1.5c0-0.2,0.1-0.4-0.1-0.5C36.8,13.7,36.7,13.7,36.6,13.6z M38.2,16.2c0.2-0.2,0.2-0.4,0.4-0.6
			c0.2-0.2,0.2-0.6,0.1-0.9c-0.1-0.3-0.1-0.5-0.2-0.8c-0.1-0.4-0.2-0.9-0.6-1.1c-0.2-0.1-0.4-0.3-0.5-0.4c-0.1-0.1-0.2-0.1-0.2-0.1
			c-0.1,0-0.2,0-0.1,0.1c0,0.1,0,0.1,0,0.2c0,0,0,0,0,0c0-0.1-0.1-0.1-0.1-0.2c0,0.3-0.1,0.6-0.1,0.9c0,0.2,0.1,0.3,0.3,0.3
			c0.2,0,0.3,0.1,0.4,0.2c0.2,0.2,0.3,0.4,0.5,0.6c0.1,0.1,0.2,0.3,0.2,0.5c0.1,0.2,0.1,0.5,0.2,0.8C38.3,15.8,38.2,16,38.2,16.2z
			 M36.5,13.3C36.5,13.3,36.5,13.3,36.5,13.3c0.1-0.3,0.1-0.5,0.2-0.8c0-0.3,0-0.5-0.2-0.8c-0.2-0.4-0.3-0.8-0.7-1
			c-0.3-0.2-0.5-0.4-0.8-0.5c-0.4-0.2-0.8-0.4-1.2-0.6c-0.3-0.1-0.5-0.3-0.8-0.2c0,0-0.1,0-0.1-0.1c0,0-0.1-0.1-0.1-0.1c0,0,0,0,0,0
			c0.1,0.1,0.1,0.1,0.2,0.2c0.1,0.1,0.2,0.1,0.3,0.2c0.2,0.1,0.4,0.3,0.5,0.4c0.2,0.1,0.4,0.3,0.6,0.4c0.1,0.1,0.3,0.2,0.5,0.2
			c0.4,0,0.7,0.2,1,0.5c0.1,0.1,0.2,0.2,0.3,0.4c0.1,0.2,0.3,0.5,0.3,0.7C36.4,12.6,36.4,12.9,36.5,13.3z M7.9,23.7
			c0-0.2-0.1-0.4-0.1-0.5c0.1,0,0.1-0.1,0.2-0.1c0,0,0,0.1,0,0.1c0,0.2,0.1,0.4,0.1,0.6c0,0,0,0.1,0.1,0.1c0.2,0.1,0.3,0.1,0.5,0.2
			c0-0.1,0.1-0.2,0.1-0.3c0-0.4-0.1-0.7-0.2-1.1c0-0.1-0.1-0.2-0.2-0.3c0,0,0-0.1,0-0.1c0-0.1-0.1-0.1-0.1-0.1
			c-0.1-0.1-0.2-0.1-0.3,0.1c-0.1,0.2-0.2,0.4-0.4,0.6c-0.2,0.2-0.4,0.4-0.5,0.6C7.4,23.5,7.6,23.6,7.9,23.7z M29.6,31.6
			c0,0.1,0.1,0.1,0,0.2c-0.1,0.2-0.2,0.3-0.4,0.5c-0.1,0.1-0.3,0.2-0.5,0.3c-0.1,0.1-0.2,0.2-0.4,0.2c-0.2,0.1-0.5,0.2-0.7,0.3
			c-0.1,0.1-0.3,0.1-0.5,0.1c-0.1-0.1-0.2,0-0.4,0c-0.1,0-0.1,0.1-0.1,0.1c0.1,0.1,0.1,0.1,0.2,0.1c0.2,0,0.4,0.1,0.6,0
			c0.5-0.1,1.1-0.2,1.5-0.5c0.4-0.3,0.8-0.5,1-1c-0.2-0.2-0.3-0.3-0.3-0.5C29.7,31.5,29.7,31.6,29.6,31.6z M26.5,30.4
			c0,0,0,0.1,0.1,0.1c0.2,0,0.3,0.1,0.5,0c0.3,0,0.6-0.1,0.9-0.1c0.2,0,0.4-0.1,0.6-0.2c0.1-0.1,0.2-0.2,0.3-0.2
			c0.2,0,0.4-0.2,0.6-0.3c0.1-0.1,0.1-0.2,0.2-0.3c0.3-0.3,0.3-0.6,0.1-0.9c0,0-0.1-0.1-0.1-0.1c0,0-0.1,0.1-0.1,0.1
			c-0.1,0.4-0.2,0.7-0.5,0.9c-0.1,0.1-0.2,0.2-0.2,0.2c-0.2,0.1-0.3,0.1-0.5,0.2c-0.2,0.1-0.3,0.1-0.5,0.2c-0.3,0.1-0.6,0.3-0.9,0.4
			C26.7,30.4,26.6,30.4,26.5,30.4z M17.8,32C17.8,32,17.8,32,17.8,32c-0.1,0-0.2,0-0.2,0c-0.1-0.1-0.2-0.2-0.3-0.3c0,0-0.1,0-0.1,0
			c0.1,0.1,0.1,0.3,0.2,0.4c-0.2,0.1-0.3-0.3-0.4,0c-0.1,0-0.2-0.1-0.2-0.1c-0.1-0.1-0.2-0.1-0.3-0.1c-0.3,0-0.7,0-1,0
			c-0.2,0-0.2,0-0.3,0.1c0.3,0.1,0.5,0.2,0.7,0.3c0.5,0.2,1.1,0.2,1.6,0.2c0.3,0,0.5-0.2,0.7-0.3c0.1-0.1,0.3-0.2,0.2-0.4
			c0,0,0,0,0.1,0c-0.3,0-0.6-0.1-0.8-0.1C17.7,31.7,17.8,31.9,17.8,32z M22.4,34.2C22.4,34.2,22.4,34.2,22.4,34.2
			c0.4,0.1,0.8,0,1.1-0.1c0.2,0,0.4-0.2,0.5-0.3c0.3-0.2,0.6-0.5,0.7-0.9c0-0.1,0-0.2-0.1-0.2c-0.1-0.1-0.3-0.2-0.4-0.1
			c0,0-0.1,0-0.1,0c-0.1,0-0.3,0-0.4,0c0.1,0.1,0.1,0.2,0.1,0.3c0,0.2,0,0.5-0.2,0.6c-0.2,0.1-0.3,0.3-0.4,0.4
			c-0.2,0.1-0.4,0.2-0.6,0.2C22.5,34.1,22.5,34.2,22.4,34.2z M32.2,28.5c0,0,0.1,0,0.1-0.1c0.1-0.1,0.2-0.2,0.3-0.4
			c0.1-0.2,0.2-0.3,0.1-0.5c-0.1-0.2-0.3-0.2-0.4-0.3c-0.1,0-0.1,0-0.2,0c0,0,0,0-0.1,0.1c0.1,0.1,0.3,0.2,0.2,0.4
			c-0.1,0.2-0.2,0.4-0.3,0.5c-0.1,0.1-0.3,0.3-0.5,0.4c-0.1,0.1-0.2,0.1-0.3,0.2c-0.2,0.1-0.5,0.3-0.7,0.4c0-0.1-0.1-0.1-0.1-0.1
			c-0.1,0.1-0.2,0.1-0.3,0.2c0.3,0,0.6,0,0.9,0c0,0,0,0,0,0c0.4-0.1,0.7-0.3,1-0.5C32.1,28.7,32.2,28.6,32.2,28.5z M9,29.6
			c-0.2-0.1-0.4-0.3-0.6-0.5c-0.1,0.1-0.1,0.2-0.2,0.4c-0.2,0-0.5-0.1-0.7,0.1c0.1,0,0.1,0.1,0.2,0.1c0.2,0,0.3,0,0.5,0.1
			c0.2,0.1,0.4,0.1,0.6,0c0,0,0.1,0,0.1,0c0.2,0.1,0.4,0.2,0.6,0.3c0.5,0.3,1,0.3,1.5,0.2c0.2,0,0.3-0.1,0.3-0.3
			c0-0.1-0.1-0.4-0.2-0.5c-0.1,0.1-0.1,0.4-0.3,0.4c-0.1,0-0.2,0.1-0.2,0.3c0,0,0,0-0.1,0c0-0.1-0.1-0.1-0.1-0.2
			c-0.1,0-0.2,0.1-0.2,0.1c0,0-0.1-0.1-0.1-0.1c-0.2,0-0.3,0-0.5-0.1c-0.2-0.1-0.3-0.1-0.4-0.3C9.2,29.6,9.1,29.4,9,29.6z
			 M32.2,24.6c0.2-0.1,0.4-0.1,0.6-0.2c0.4-0.2,0.8-0.4,1-0.9c0.1-0.2,0.2-0.5,0.1-0.8c-0.1-0.2-0.3-0.2-0.4-0.3
			c-0.1-0.1-0.3-0.1-0.4-0.2c-0.1,0.1-0.1,0.2,0,0.2c0.1,0,0.1,0.1,0.1,0.1c0.2,0.1,0.2,0.3,0.2,0.5c-0.1,0.4-0.5,0.5-0.7,0.8
			c-0.1,0.1-0.1,0.2-0.2,0.2C32.2,24.3,32.2,24.5,32.2,24.6z M29.7,27.7C29.7,27.7,29.7,27.7,29.7,27.7c0.1,0.1,0.2,0.1,0.3,0
			c0.4-0.1,0.9-0.1,1.3-0.4c0.5-0.3,0.9-0.8,1-1.4c0-0.2,0-0.3-0.2-0.4c0,0-0.1-0.1-0.1-0.1c0-0.1-0.1-0.1-0.1-0.2
			c-0.1,0.1-0.1,0.2-0.1,0.3c0.1,0.1,0.2,0.1,0.2,0.2c0,0.1-0.1,0.2-0.1,0.3c-0.1,0.3-0.2,0.5-0.4,0.8C31.3,26.9,31.2,27,31,27
			c0,0,0,0-0.1,0c-0.3,0.2-0.5,0.3-0.8,0.4C30,27.6,29.9,27.6,29.7,27.7z M26.3,33C26.4,33,26.4,33.1,26.3,33
			c0.5-0.2,1.1-0.5,1.4-0.9c0.1-0.2,0.3-0.3,0.4-0.5c0.1-0.1,0.1-0.3,0-0.5c-0.2-0.3-0.3-0.3-0.5-0.2c0,0-0.1,0,0,0
			c0,0.1,0,0.1,0,0.2c0,0.1-0.1,0.2-0.1,0.2c0,0.4-0.1,0.7-0.5,1c-0.1,0.1-0.2,0.3-0.4,0.4C26.5,32.9,26.4,32.9,26.3,33z M27.1,5.9
			c-0.2-0.8-0.8-1.1-1.6-1c-0.3,0-0.6,0.2-0.9,0.3c0.1,0,0.1,0.1,0.1,0.1c0.1,0.1,0.3,0.1,0.4,0.1c0.1,0,0.2,0,0.2-0.1
			c0.4-0.1,0.7,0.1,1,0.2c0.2,0.1,0.4,0.2,0.5,0.4C26.9,5.9,27,5.9,27.1,5.9z M10.2,31.3c0.1,0.2,0.3,0.3,0.5,0.3
			c0.3,0.1,0.6,0.2,0.9,0.3c0.3,0.1,0.7,0.1,1,0c0,0,0.1-0.1,0.2-0.1c-0.1,0-0.2,0-0.3,0c0-0.2,0-0.3,0.3-0.3c0-0.2-0.2-0.4-0.4-0.6
			c0,0.2,0.1,0.5-0.1,0.7c-0.1-0.1-0.2-0.1-0.3-0.2c0,0.1,0,0.2,0,0.4c-0.1,0-0.2-0.1-0.3-0.1c-0.1,0-0.2,0-0.2-0.1
			c-0.1-0.1-0.2-0.2-0.3-0.1C10.8,31.4,10.5,31.4,10.2,31.3z M26,30.2c-0.2,0.1-0.3,0.1-0.4,0.2c-0.2,0-0.3,0.1-0.2,0.3
			c0,0.2-0.1,0.3-0.3,0.3c0,0-0.1,0-0.1,0c0,0.2,0,0.2-0.2,0.3c-0.1,0-0.3,0.1-0.4,0.2c-0.1,0.1-0.3,0.2-0.4,0.2
			c-0.1,0-0.3,0.1-0.4,0.1c0.3,0,0.5,0.1,0.8,0c0.3-0.1,0.7-0.2,1-0.4C25.7,31.1,26,30.7,26,30.2z M34.1,24.5
			c0.1,0.2,0.3,0.2,0.4,0.1c0.3-0.2,0.5-0.5,0.7-0.7c0.1-0.1,0.2-0.3,0.2-0.5c0-0.2-0.1-0.3-0.3-0.4c-0.1,0-0.1-0.1-0.1-0.1
			c-0.1-0.2-0.1-0.2-0.3,0c0.2,0.1,0.2,0.3,0.2,0.4c0,0.1-0.1,0.3-0.1,0.4C34.6,24,34.4,24.3,34.1,24.5z M38,17
			c-0.1,0-0.2,0.1-0.3,0.1c-0.1,0-0.2,0-0.2,0.2c0,0.1-0.1,0.2-0.1,0.3c-0.2,0.2-0.4,0.4-0.7,0.4c-0.2,0-0.3,0.1-0.4,0.1
			c0.4,0.1,0.8,0.2,1.2,0C37.8,17.9,38,17.6,38,17z M29.5,31.2c0.1,0,0.1,0,0.1,0c0.3-0.2,0.6-0.4,0.8-0.6c0.2-0.2,0.3-0.4,0.2-0.6
			c0-0.1-0.1-0.1-0.1-0.1c-0.1,0-0.2,0-0.2,0.1c0,0.3-0.2,0.5-0.4,0.7c-0.2,0.3-0.6,0.5-0.8,0.7c0,0,0,0-0.1,0
			c-0.2,0.1-0.3,0.2-0.5,0c0,0.1,0,0.2,0,0.4C28.9,31.5,29.3,31.4,29.5,31.2z M19.9,33.3c0-0.1,0-0.1-0.1-0.2c0.1,0,0.2-0.1,0.3-0.1
			c-0.2-0.4-0.5-0.4-0.8-0.5c0,0.2,0.1,0.4-0.1,0.5c0.1,0.2,0,0.4-0.2,0.4c-0.2,0.1-0.4,0.1-0.6,0.2c0.6,0.2,1,0,1.5-0.2
			c0,0,0.1-0.1,0.2-0.2C20,33.3,19.9,33.3,19.9,33.3z M11.6,30C11.6,30,11.6,30,11.6,30c0,0.1,0,0.1,0.1,0.1
			c0.4,0.1,0.7,0.3,1.1,0.4c0.3,0.1,0.6-0.1,0.8-0.3c0,0,0.1-0.1,0-0.2c0,0-0.1-0.1-0.2-0.1c0,0-0.1,0-0.1,0
			c-0.1-0.2-0.3-0.2-0.5-0.1c0,0.1,0,0.2,0.1,0.3c-0.1-0.1-0.2-0.1-0.3-0.2c0,0.1,0,0.1,0,0.2c-0.2-0.1-0.3-0.2-0.6-0.2
			C12,30.1,11.8,30.1,11.6,30z M20.3,33c0.4-0.1,0.7-0.1,1-0.2c0.1,0,0.2-0.1,0.3-0.1c0.1-0.1,0.3-0.2,0.4-0.3
			c0.1-0.1,0.1-0.2,0.1-0.3c0-0.1,0-0.2,0-0.3c0-0.1-0.1-0.3-0.2-0.3c-0.1,0-0.2,0.1-0.2,0.1c0,0.2-0.1,0.4-0.3,0.6
			c-0.1,0.1-0.2,0.2-0.3,0.3c-0.2,0.1-0.3,0.2-0.5,0.2c-0.1,0-0.3,0-0.5,0C20.3,32.9,20.3,32.9,20.3,33z M35.2,27.3
			c0-0.1,0.1-0.2,0.2-0.2c0.1,0,0.1,0,0.2-0.1c0.1-0.1,0.2-0.2,0.3-0.3c0.3-0.3,0.4-0.6,0.5-0.9c0.1-0.2-0.1-0.3-0.4-0.4
			c-0.1,0-0.1,0-0.2,0.1c0.2,0.2,0.3,0.3,0.2,0.5c-0.1,0.1-0.1,0.2-0.2,0.3c-0.1,0.1-0.2,0.3-0.3,0.4c-0.1,0.1-0.3,0.2-0.5,0.3
			c-0.1,0-0.1,0.1-0.2,0.1c0,0,0,0,0,0.1C35,27.2,35.1,27.2,35.2,27.3z M33.1,28.1c0.3-0.1,0.6-0.3,0.8-0.4c0.1-0.1,0.3-0.2,0.4-0.3
			c0,0,0-0.2,0.1-0.2c0.2-0.1,0.3-0.3,0.4-0.4c0.1-0.1,0-0.3-0.1-0.3c-0.1,0-0.2,0-0.4-0.1c0.2,0.2,0.2,0.3,0,0.5
			c-0.2,0.2-0.4,0.4-0.6,0.5c-0.2,0.1-0.3,0.2-0.5,0.3C33.1,27.8,33.1,27.9,33.1,28.1z M27.2,5.5c0.1,0.2,0.2,0.2,0.3,0.2
			c0.6-0.1,1,0.2,1.5,0.5c0.1,0.1,0.2,0.1,0.3,0.1c0.2,0.1,0.2-0.1,0.3-0.2c0,0,0,0,0-0.1c0,0-0.1,0-0.1,0c0-0.2-0.1-0.2-0.2-0.2
			c-0.6-0.3-1.2-0.3-1.8-0.3C27.5,5.5,27.3,5.5,27.2,5.5z M32.8,26.3c0.2-0.1,0.4-0.2,0.7-0.3c0.3-0.1,0.5-0.5,0.7-0.8
			c0.1-0.2,0-0.3-0.1-0.3c-0.2-0.1-0.2,0-0.2,0.2c0,0,0,0,0,0.1c-0.2,0.3-0.5,0.5-0.7,0.7C32.8,25.9,32.7,26,32.8,26.3z M34.4,27.6
			c0.1,0.1,0.2,0.1,0.3,0.1c0.1,0,0.2,0.1,0.1,0.2c-0.1,0.2-0.3,0.4-0.4,0.5c-0.1,0.1-0.3,0.2-0.4,0.3c-0.2,0.2-0.4,0.3-0.7,0.4
			c0.1,0,0.1,0.1,0.2,0.1c0.1,0,0.3,0,0.4-0.1c0.5-0.3,1-0.8,1.2-1.4c0-0.1,0-0.2,0-0.2C35,27.4,34.6,27.5,34.4,27.6z M15,30.6
			c0,0.2-0.1,0.4-0.1,0.6c-0.1,0-0.1-0.1-0.2-0.1c0,0-0.1,0.1-0.1,0.2c0,0.1,0,0.1,0,0.2c-0.1-0.1-0.2-0.1-0.2-0.2
			c-0.3,0.1-0.6,0.3-1,0.2c0.2,0.1,0.5,0.2,0.7,0.1c0.2,0,0.5,0,0.7-0.1c0.1,0,0.3,0,0.2-0.3c0,0,0.1-0.1,0.1-0.2c0,0,0.1,0,0.2-0.1
			C15.3,31,15.2,30.8,15,30.6z M32.3,28.9c0.2,0.1,0.3,0.2,0.1,0.4c0,0,0,0,0,0.1c-0.1,0.2-0.2,0.4-0.4,0.5c0,0-0.1,0-0.1,0.1
			c-0.2,0.2-0.4,0.3-0.7,0.4c-0.1,0-0.1,0.1-0.2,0.1c0,0-0.1,0-0.1,0.1c0,0,0.1,0.1,0.1,0.1c0.4,0,0.8-0.2,1.1-0.5
			c0.2-0.2,0.3-0.3,0.5-0.5c0.1-0.1,0.1-0.2,0.1-0.3c-0.1-0.1-0.1-0.2-0.1-0.3C32.5,28.9,32.4,28.9,32.3,28.9z M9.5,28.8
			C9.5,28.8,9.5,28.9,9.5,28.8c-0.1-0.1-0.2-0.2-0.2-0.3c-0.1,0.1-0.1,0.1-0.1,0.2c-0.1-0.1-0.2-0.2-0.4-0.1
			c-0.1-0.1-0.1-0.2-0.1-0.3c-0.1,0-0.2,0-0.2,0c0.1,0.2,0.3,0.3,0.4,0.5c0,0,0,0,0.1,0C9,28.9,9.3,29.1,9.6,29c0.1,0,0.2,0,0.3,0
			c0.2,0,0.4,0.1,0.6-0.1c-0.1-0.1-0.2-0.4-0.5-0.3c0.1,0,0.1,0.1,0.2,0.2c-0.1,0-0.1,0-0.2,0c0,0.1-0.1,0.1-0.1,0.2c0,0,0,0-0.1,0
			c-0.1,0-0.2-0.1-0.1-0.2c0,0,0-0.1-0.1-0.1C9.5,28.7,9.5,28.8,9.5,28.8z M18.8,34.1c0.2,0.1,0.3,0.1,0.5,0.1
			c0,0.2-0.1,0.3-0.2,0.3c-0.2,0.1-0.3,0.1-0.5,0.1c-0.4,0-0.9,0-1.3,0.1c0,0,0,0,0,0c0.2,0,0.4,0.1,0.7,0.1c0.4,0,0.8,0,1.2-0.1
			c0.1,0,0.3-0.1,0.3-0.2c0.1-0.2,0.1-0.4,0-0.6C19.2,34.1,19,34.1,18.8,34.1z M16.9,5.5c0.1,0,0.1-0.1,0.2-0.1
			c0.2-0.1,0.4-0.2,0.6-0.2c0.3,0,0.6,0,0.8-0.1c0.2,0,0.4-0.1,0.6,0c0,0,0.1,0,0.1,0c0,0,0-0.1,0-0.1C19.1,5,19,5,19,5
			c-0.5-0.1-1-0.1-1.6,0.1c-0.2,0.1-0.4,0.1-0.7,0.2C16.8,5.4,16.8,5.4,16.9,5.5z M35.9,24.5c-0.2,0.3-0.4,0.7-0.6,1
			c0.2-0.1,0.6-0.1,0.5-0.4c0.1,0,0.2,0,0.2-0.1c0.1-0.1,0.2-0.3,0.3-0.4c0.1-0.1,0.1-0.2-0.1-0.3c-0.1,0-0.1,0-0.2-0.1
			c-0.1,0-0.3-0.1-0.4-0.1c0,0-0.1,0-0.1,0C35.7,24.3,35.8,24.4,35.9,24.5z M30,6.4c0.7-0.1,1.2,0.2,1.7,0.6
			c-0.1-0.3-0.2-0.5-0.4-0.6c-0.4-0.1-0.8-0.2-1.2-0.3C30,6.3,30,6.3,30,6.4z M36.4,23.6c0.1,0,0.1,0,0.2,0c0.3-0.1,0.4-0.3,0.6-0.6
			c0,0,0-0.1-0.1-0.2c-0.2,0-0.4-0.2-0.4-0.3c-0.1,0.1-0.2,0.1-0.3,0.2c0,0.1,0.1,0.1,0.1,0.2C36.6,23.2,36.6,23.3,36.4,23.6z
			 M33.6,8.2c-0.1-0.3-0.8-0.6-1.3-0.6c0,0.2,0,0.3,0.2,0.4c0.1,0,0.1,0,0.2,0c0.3,0,0.5,0,0.8,0.2C33.4,8.1,33.5,8.1,33.6,8.2z
			 M32.1,7C32.1,7,32.2,7,32.1,7c0.4-0.1,0.6-0.1,0.9,0c0,0,0.1,0,0.2,0c0-0.1-0.1-0.1-0.1-0.1c-0.2-0.1-0.4-0.2-0.7-0.2
			c-0.2,0-0.3-0.1-0.5-0.1C32,6.7,32,6.8,32.1,7z M35.3,9.6c0-0.6-0.3-1-1.1-1.1c-0.1,0.1-0.1,0.2,0.1,0.3c0.1,0,0.2,0.1,0.3,0.1
			c0.1,0,0.2,0,0.2,0.1C35,9.1,35.2,9.3,35.3,9.6z M19.4,4.6c0.1,0.1,0.2,0.1,0.3,0c0.3-0.2,0.6-0.3,0.9-0.4c0,0,0.1,0,0.1,0
			c0,0,0,0,0,0C20.3,4.3,19.9,4.4,19.4,4.6z M8.4,21.6c0.2,0.3,0.4,0.5,0.6,0.8C9,22.1,8.7,21.8,8.4,21.6z M10.8,28.5
			c-0.1,0-0.2,0.1-0.3,0.1c0,0.1,0,0.2,0,0.4c0.1-0.1,0.2-0.1,0.2-0.1C10.8,28.7,10.8,28.6,10.8,28.5z M35.3,25.6
			c-0.2,0.2-0.4,0.3-0.6,0.5C34.9,26.1,35.3,25.8,35.3,25.6z M23.9,7.1c-0.1-0.2-0.2-0.2-0.4-0.1c0,0,0,0,0,0
			C23.6,7,23.7,7.1,23.9,7.1z M6.2,27.5c-0.1-0.1-0.2-0.2-0.3-0.2C5.9,27.5,6,27.5,6.2,27.5z M33.5,24.8c0-0.1,0-0.2,0-0.3
			c-0.1,0.1-0.2,0.1-0.2,0.2C33.4,24.7,33.5,24.8,33.5,24.8z M10,20.7C10,20.7,10,20.8,10,20.7c0.2,0,0.3,0,0.4-0.1c0,0,0,0,0,0
			C10.3,20.6,10.2,20.7,10,20.7z"/>
		<path id="XMLID_160_" class="st0" d="M5.8,19.1c-0.2-0.2-0.3-0.4-0.5-0.6c-0.2-0.3-0.5-0.5-0.7-0.8c0,0-0.1,0-0.2,0
			c-0.1,0-0.2,0.1-0.3,0.1c0.2,0.2,0.4,0.5,0.6,0.7C5,18.8,5.2,19,5.2,19.3C5,19,4.7,18.8,4.5,18.5c-0.1-0.1-0.3-0.3-0.4-0.4
			c-0.2-0.2-0.2-0.2-0.5,0c0,0-0.1,0.1-0.1,0.1c0.4,0.1,0.6,0.4,0.8,0.7c0.1,0.1,0.2,0.2,0.3,0.3c0,0,0,0.1,0,0.2
			c-0.4-0.3-0.8-0.6-1.2-0.9c0,0-0.1,0-0.2,0c-0.1,0.1-0.2,0.1-0.4,0.2c0.7,0,0.9,0.5,1.1,1c-0.2-0.1-0.4-0.3-0.6-0.4
			c0,0.3,0.2,0.4,0.3,0.6c0,0,0,0,0,0c-0.3-0.2-0.6-0.3-0.9-0.5c0,0-0.1,0-0.1-0.1c-0.4-0.1-0.4-0.1-0.5,0.2
			c-0.1,0.2-0.2,0.3-0.3,0.5c0-0.2,0.1-0.4,0.1-0.5c0.2-0.7,0.6-1.3,1.2-1.7c0.1,0,0.1-0.1,0.2-0.1c0.6-0.2,1-0.6,1.4-1.1
			c0.3-0.4,0.7-0.7,1.2-0.9C6.3,15.3,6.7,15.1,7,15c0.3-0.1,0.7-0.2,1.1,0.1c-0.1,0-0.1,0.1-0.2,0.1c0.5-0.1,0.7,0.3,0.8,0.7
			c0,0.1,0,0.1,0,0.2c-0.3-0.3-0.5-0.6-0.8-0.8c0.1,0.2,0.2,0.3,0.3,0.5c0.1,0.2,0.2,0.4,0.3,0.5c0,0,0,0.1,0,0.2
			c-0.1-0.2-0.3-0.4-0.4-0.5c-0.2-0.2-0.4-0.4-0.5-0.6c-0.1-0.1-0.2-0.1-0.3-0.1c0.2,0.2,0.4,0.5,0.5,0.7c0.1,0.2,0.3,0.5,0.4,0.8
			c-0.3-0.5-0.7-0.8-1.1-1.2c-0.1-0.1-0.2-0.1-0.3,0c0.2,0.2,0.3,0.4,0.5,0.6c0.2,0.2,0.3,0.5,0.5,0.7c0,0,0,0.1,0,0.1
			c0,0-0.1,0-0.1,0c-0.3-0.3-0.6-0.6-0.9-0.9c-0.1-0.1-0.2-0.1-0.3-0.2c0,0-0.1,0-0.1,0c-0.1,0.1-0.1,0.2-0.2,0.3
			c0.9,0.2,1.9,1.6,1.8,2.3c-0.3-1.1-1.1-1.6-2-2.1c0,0.1-0.1,0.1-0.1,0.2c0.6,0.4,1.1,0.9,1.4,1.6c-0.3-0.3-0.6-0.6-0.9-0.9
			c0,0,0,0-0.1,0c0.1,0.2,0.3,0.4,0.4,0.6C6.8,18,7,18.1,6.9,18.2c-0.3-0.3-0.5-0.5-0.8-0.8c-0.1-0.1-0.2-0.2-0.3-0.2
			c-0.1,0-0.2,0-0.3,0c-0.1,0-0.2,0.1-0.3,0.2c0.6,0.5,1.1,1.1,1.3,1.8c0,0,0,0,0,0c-0.1-0.1-0.2-0.3-0.3-0.4
			c-0.3-0.5-0.7-0.9-1.1-1.2c0,0-0.1,0-0.2,0c-0.1,0-0.1,0-0.2,0.1C5.2,18.1,5.7,18.5,5.8,19.1z M2.6,18.8c0.2,0.1,0.4,0.1,0.6,0.2
			c-0.1-0.1-0.2-0.2-0.3-0.2C2.7,18.7,2.7,18.6,2.6,18.8z M6.2,17.1c-0.2-0.3-0.4-0.3-0.5-0.2C5.8,17,6,17,6.2,17.1z"/>
		<path id="XMLID_159_" class="st0" d="M15.1,28.5c-0.3,0.2-0.5,0.1-0.8,0c-0.3-0.1-0.5-0.2-0.8-0.4c-0.3-0.1-0.5-0.2-0.8-0.3
			c-0.3-0.1-0.5-0.3-0.8-0.5c-0.3-0.2-0.6-0.3-0.8-0.5c-0.3-0.2-0.6-0.4-0.9-0.6c-0.2-0.1-0.4-0.3-0.6-0.5c-0.1,0-0.1-0.1-0.2-0.1
			c0,0,0-0.1,0.1-0.1c0.1,0,0.3,0.1,0.4,0.1c0.1,0.1,0.3,0.2,0.4,0.3c0.2,0.1,0.4,0.3,0.6,0.4c0.3,0.2,0.6,0.3,0.9,0.5
			c0.3,0.2,0.7,0.4,1,0.5c0.2,0.1,0.5,0.2,0.8,0.3c0.3,0.1,0.7,0.2,1,0.3C14.6,28.2,14.8,28.3,15.1,28.5z"/>
		<path id="XMLID_158_" class="st0" d="M20,28.9c-0.2,0-0.4,0-0.7,0c-0.3,0-0.5,0-0.8,0c0,0-0.1,0-0.1,0c-0.4-0.1-0.8-0.1-1.2-0.2
			c-0.5-0.1-1-0.2-1.5-0.4c-0.5-0.2-1-0.3-1.4-0.5c-0.3-0.1-0.6-0.2-0.8-0.3c-0.1,0-0.1-0.1-0.2-0.2c0.1,0,0.2,0.1,0.3,0.1
			c0.1,0,0.1,0,0.2,0.1c0.1,0,0.2,0.1,0.3,0.1c0,0,0,0,0,0c0.5,0.1,0.9,0.3,1.4,0.3c0.1,0,0.2,0.1,0.3,0.1c0.6,0.2,1.1,0.4,1.7,0.5
			c0.2,0,0.4,0.2,0.6,0.2c0,0,0,0,0,0c0.2,0,0.3,0,0.5,0c0.4,0,0.7,0,1.1,0C19.7,28.9,19.9,28.9,20,28.9C20,28.9,20,28.9,20,28.9z"
			/>
		<path id="XMLID_157_" class="st0" d="M13.1,27.3c-0.3-0.1-0.6-0.1-0.8-0.2c-0.2-0.1-0.4-0.2-0.6-0.3c-0.3-0.2-0.6-0.4-0.9-0.5
			c-0.2-0.1-0.3-0.3-0.4-0.4c-0.2-0.2-0.4-0.3-0.6-0.5c-0.2-0.2-0.2-0.2-0.1-0.3c0.1,0,0.3,0,0.4,0.1c0.2,0.1,0.3,0.2,0.4,0.3
			c0.1,0.2,0.2,0.3,0.5,0.4c0.1,0,0.2,0.2,0.3,0.2c0.1,0.1,0.1,0.1,0.2,0.2c0.3,0.1,0.5,0.3,0.7,0.4c0.1,0.1,0.2,0.1,0.3,0.2
			C12.7,27,12.9,27.1,13.1,27.3C13.1,27.2,13.1,27.3,13.1,27.3z"/>
		<path id="XMLID_156_" class="st0" d="M19.6,29.6c-0.1,0-0.3,0-0.4,0c-0.5-0.1-1-0.2-1.5-0.3c-0.1,0-0.3-0.1-0.4-0.1
			c-0.4-0.1-0.8-0.1-1.2-0.2c-0.2,0-0.3-0.1-0.5-0.2c-0.1,0-0.2-0.1-0.3-0.2c0,0,0-0.1,0-0.1c0.2,0.1,0.4,0.1,0.6,0.2
			c0.1,0,0.3,0,0.5,0.1c0.1,0,0.2,0,0.3,0.1c0.2,0.1,0.4,0.1,0.6,0.2c0.1,0,0.1,0.1,0.2,0.1c0.1,0,0.2,0.1,0.3,0.1
			c0.3,0,0.5,0,0.8,0.1c0.3,0.1,0.7,0.1,1,0.2C19.5,29.5,19.5,29.6,19.6,29.6C19.6,29.6,19.6,29.6,19.6,29.6z"/>
		<path id="XMLID_155_" class="st0" d="M13.8,11.9C13.8,11.8,13.8,11.8,13.8,11.9C13.8,11.8,13.8,11.8,13.8,11.9
			c0,0.1,0,0.2-0.1,0.4c0,0,0,0.1-0.1,0.1c0,0-0.1,0-0.1,0c0,0,0-0.1,0-0.1c0,0,0-0.1,0-0.1c0-0.4-0.2-0.8-0.5-1.1
			c0.1,0.1,0.1,0.3,0.2,0.4c0.1,0.2,0.1,0.3,0.1,0.5c0,0.2,0,0.3,0,0.5c0,0,0,0-0.1,0c0,0-0.1-0.1-0.1-0.1c0.1-0.2,0-0.4-0.1-0.6
			c-0.2-0.5-0.4-0.9-0.9-1.2c0.1,0,0.1,0,0.2,0c0.4,0.2,0.8,0.2,1,0.6c0.1,0.2,0.2,0.4,0.3,0.6C13.9,11.8,13.9,11.8,13.8,11.9
			C13.9,11.9,13.8,11.9,13.8,11.9z"/>
		<path id="XMLID_154_" class="st0" d="M20.7,30.6c-1.2,0.1-2.3,0-3.5-0.5c0.2-0.1,0.3,0,0.4,0c0.1,0.1,0.2,0.1,0.3,0.1
			c0.4,0,0.9,0.1,1.3,0.1c0.4,0,0.8,0,1.2,0.1C20.5,30.5,20.6,30.5,20.7,30.6C20.7,30.6,20.7,30.6,20.7,30.6z"/>
		<path id="XMLID_153_" class="st0" d="M28.3,7.9C28.9,8.2,29,8.6,29,9.2c0,0.2,0,0.4,0,0.6c0,0.1-0.1,0.3-0.2,0.5
			c0-0.4,0-0.8-0.1-1.2C28.6,8.7,28.4,8.3,28.3,7.9z"/>
		<path id="XMLID_152_" class="st0" d="M15.9,29.6c0-0.2,0.2-0.1,0.2-0.1c0.1,0,0.2,0.1,0.3,0.1c0.1,0,0.3,0.1,0.4,0.1
			c0.1,0,0.2,0.1,0.3,0.1c0,0,0.1,0,0.1,0c0.4,0,0.7,0.1,1.1,0.2c0.3,0.1,0.5,0.1,0.8,0.1c-0.2,0-0.3,0.1-0.5,0.1
			c-0.3,0-0.6-0.1-0.9-0.2c-0.2,0-0.4-0.1-0.5-0.1c-0.4,0-0.8-0.1-1.2-0.3C16,29.6,16,29.6,15.9,29.6z"/>
		<path id="XMLID_151_" class="st0" d="M28.3,9.7c0.1-0.7-0.2-1.3-0.5-1.8C28,7.8,28.1,8,28.2,8.1c0.2,0.3,0.3,0.7,0.2,1.1
			C28.3,9.4,28.3,9.5,28.3,9.7z"/>
		<path id="XMLID_150_" class="st0" d="M6.8,19.1c-0.4-0.6-0.8-1.2-1.2-1.8C5.9,17.3,6.6,18.3,6.8,19.1z"/>
		<path id="XMLID_149_" class="st0" d="M6.1,25.2c0.2-0.2,0.5-0.2,0.8-0.3C6.9,24.9,7,24.9,7,25C7,25,7,25.1,6.9,25.1
			c-0.1,0.1-0.3,0.1-0.5,0.1C6.3,25.2,6.2,25.2,6.1,25.2z"/>
		<path id="XMLID_148_" class="st0" d="M15.4,8.5c0.1,0,0.2,0.1,0.3,0.1c0.2,0.2,0.3,0.5,0.4,0.8c0,0.1,0.1,0.2,0.1,0.2
			c0,0.1,0,0.1,0.1,0.2c-0.3-0.4-0.5-0.8-0.8-1.2C15.5,8.6,15.4,8.6,15.4,8.5C15.4,8.5,15.4,8.5,15.4,8.5z"/>
		<path id="XMLID_147_" class="st0" d="M18.1,8c0.3,0,0.5,0.5,0.4,1.1C18.5,8.7,18.3,8.4,18.1,8z"/>
		<path id="XMLID_146_" class="st0" d="M15.4,27.1c-0.2-0.2,0-0.6,0.4-0.8C15.7,26.5,15.5,26.8,15.4,27.1z"/>
	</g>
</g>
</svg>
