<?xml version="1.0" encoding="utf-8"?>
<!-- Generator: Adobe Illustrator 19.0.0, SVG Export Plug-In . SVG Version: 6.00 Build 0)  -->
<svg version="1.1" id="Layer_1" xmlns="http://www.w3.org/2000/svg" xmlns:xlink="http://www.w3.org/1999/xlink" x="0px" y="0px"
	 viewBox="0 0 40 40" style="enable-background:new 0 0 40 40;" xml:space="preserve">
<g>
	<path d="M34.2,7.9L23,7.1l-0.2-6.5c0-0.2-0.1-0.3-0.3-0.3l-0.8,0c-0.1,0-0.3,0.1-0.3,0.3V1H7.1c0-0.3,0-0.6-0.1-0.7
		C7.1,0.1,6.9,0,6.8,0h-1C5.7,0,5.6,0,5.6,0.1C5.5,0.1,5.5,0.2,5.5,0.3l1.3,14l-0.8,0c-0.1,0-0.2,0.1-0.2,0.3v1.3
		c0,0.1,0,0.1,0.1,0.2l1.2,1.2c0,0,0.1,0,0.1,0.1l1.4,0.5l6.4,6.1c0,0-7,9.9-7,9.9c-0.2,0.2,0,0.3,0.5,0.9c0.2,0.2,0.5,0.3,0.6,0.3
		c0,0,0,0,0.1,0c0.5,0,0.9-0.5,0.9-0.6l2.6-3.8l5,3.1l-3.3,5c-0.1,0.1-0.1,0.2,0,0.3l0.5,0.7c0,0,0.3,0.3,0.7,0.3c0,0,0,0,0.1,0
		c0.4,0,0.9-0.4,1.3-1c0.4-0.7,3.3-5.2,6.4-10l2.7,1.2l4,3.9c0,0,0.1,0.1,0.1,0.1c0.2,0.1,0.4,0.1,0.5,0.1c0.3,0,0.4-0.1,0.5-0.2
		c0.1-0.2,0.3-0.7,0.3-0.8c0-0.1,0-0.2-0.1-0.3l-6.3-6.7c3.1-4.8,6-9.4,6-9.4c0,0,1.9,0.6,2,0.6c0.1,0,0.2,0,0.2-0.1l1-1.4
		c0,0,0-0.1,0-0.2v-1.4c0,0,0,0,0,0c0,0,0,0,0-0.1c0,0,0,0,0,0c0,0,0,0,0,0c0,0,0,0,0-0.1c0,0,0,0,0,0c0,0,0,0-0.1-0.1c0,0,0,0,0,0
		c0,0-0.1,0-0.1,0c0,0,0,0,0,0L32.3,14V9.5c0.3,0,0.5,0.1,0.5,0.1c0,0,0,0,0,0h1.3c0.1,0,0.3-0.1,0.3-0.3V8.2
		C34.5,8,34.4,7.9,34.2,7.9z M21.7,12.4l-0.4,0c-0.1,0-0.2,0.1-0.2,0.3v0.6c0,0,0,0-0.1,0c-0.4,0.1-2.5,0.5-4.6,0.9v-3l1.2-0.1
		c0.1,0,0.2-0.1,0.2-0.3l0-0.9c0-0.1-0.1-0.3-0.2-0.3L7.7,8.1c0-0.2,0-0.3,0-0.5l13.9-0.8L21.7,12.4z M21.4,1.5l0.1,4.8L7.6,7.1
		C7.5,4.9,7.3,2.8,7.2,1.5H21.4z M6.1,0.5h0.5l0.7,8l10.1,1.5l0,0.4l-1.5,0.2l-6.2-1C9.4,9.6,8.7,9.3,7.8,9.1C7.7,9.1,7.4,9,7.3,9h0
		l0.4,5.3H7.4C7.3,13.5,6.1,0.5,6.1,0.5z M15.9,11.2v3v0.5v1.8v0.5c0,0,0,0,0,0c-0.1,0-0.4,0.1-0.5,0V17v-0.6v-1.6v-0.5v-3.2l0.3,0
		c0,0,0,0,0,0c0,0,0,0,0,0L15.9,11.2z M14.9,15v1.3L12,15.4C12.8,15.3,13.8,15.2,14.9,15z M10.9,15.1l-2.6-0.8
		C8.2,13.5,8,11.7,7.9,9.6c0.9,0.2,1.5,0.6,1.5,0.6l5.5,0.9v3.3C12.9,14.8,11.2,15,10.9,15.1z M7.4,16.8l-1.1-1.1v-0.9l1.6,0
		l6.9,2.1v0.3c0,0.2,0.1,0.4,0.3,0.4c0.2,0.1,0.3,0.1,0.5,0.1c0.4,0,0.7-0.2,0.8-0.4l0.6,0.2l-0.5,0.1c-0.1,0-0.2,0.1-0.2,0.2
		l-0.1,1.5c0,0.1,0,0.1,0.1,0.2l1,1.1l-5.4-2.3c0,0,0,0,0,0L7.4,16.8z M17.8,18.8C17.8,18.8,17.8,18.9,17.8,18.8
		C17.8,18.9,17.8,18.9,17.8,18.8C17.8,18.9,17.8,18.9,17.8,18.8C17.8,18.9,17.8,18.9,17.8,18.8C17.8,18.9,17.8,18.9,17.8,18.8
		c0,0.1,0,0.1,0,0.1c0,0,0,0,0,0c0,0,0,0,0,0c0,0,0,0,0,0c0,0,0,0,0,0c0,0,0,0,0,0c0,0,0,0,0,0c0,0,0,0,0,0c0,0,0,0,0,0c0,0,0,0,0,0
		c0,0,0,0,0,0c0,0,0,0,0,0l0.4,0l-0.9,1l-0.9-0.9l0-1.2l1-0.2L17.8,18.8C17.8,18.8,17.8,18.8,17.8,18.8z M19.2,20.1l-0.5-0.5
		l0.5-0.6l0.8-0.1L19.2,20.1z M20.8,18.8c2.4-0.4,5.3-1,7.7-1.6l-4.9,7.4l-4-4.2L20.8,18.8z M23.3,25.1l-0.6,0.9l-5.1-5l0.9-1
		L23.3,25.1z M17.5,23.6l0.8-1.2l4.1,4.1l-0.7,1.1L17.5,23.6z M21.3,28.1L21,28.7l-4.2-4l0.4-0.6L21.3,28.1z M16.9,21.1l-0.8,1.2
		l-3.3-3.1L16.9,21.1z M9.8,18.2l1.8,0.6l4.2,4l-0.4,0.6L9.8,18.2z M12.6,29.9l-0.2-0.1c-0.1-0.1-0.3,0-0.4,0.1
		c-0.1,0.1,0,0.3,0.1,0.4l0.2,0.1L9.7,34c-0.1,0.1-0.3,0.3-0.5,0.4c-0.1,0-0.2,0-0.3-0.1c-0.2-0.2-0.3-0.3-0.3-0.3l8.7-12.4l0.6,0.6
		L12.6,29.9z M13,30.1l3.4-5l4.2,4L18,33.2L13,30.1z M23.7,28.6c0.1-0.2,0.2-0.3,0.3-0.5l1.1,1L23.7,28.6z M31,33.2
		c-0.1,0.2-0.2,0.4-0.2,0.5c-0.1,0-0.2,0-0.4,0l-6.1-6c0.2-0.3,0.4-0.6,0.6-0.9L31,33.2z M16.6,38.7c-0.3,0.5-0.6,0.8-0.9,0.8
		c-0.2,0-0.3-0.1-0.3-0.1L15,38.8l14.3-21.8l1.4-0.3l0,0C30.3,17.2,17,38,16.6,38.7z M18.3,18.6v-1c0,0,0,0,0,0v0c0,0,0,0,0,0
		c0,0,0,0,0-0.1c0,0,0,0,0,0c0,0,0,0,0,0c0,0,0,0,0-0.1c0,0,0,0,0,0c0,0,0,0-0.1,0c0,0,0,0,0,0c0,0,0,0-0.1,0c0,0,0,0,0,0l-1.7-0.5
		v-2.1c2.2-0.4,4.3-0.8,4.8-0.9c0,0,0.1,0,0.1,0c0,0,0,0,0,0c0,0,0,0,0,0c1.1,0,5.8,1,10.2,2.1C29,16.6,21.7,18.3,18.3,18.6z
		 M32.9,16.2C32.9,16.1,32.9,16.1,32.9,16.2C33,16.1,33,16.1,32.9,16.2C33,16.1,33,16.1,33,16c0,0,0,0,0,0c0,0,0-0.1,0-0.1v-0.8
		l0.8-0.2v0.9L33,16.9l-1.4-0.4C32.3,16.3,32.7,16.2,32.9,16.2C32.8,16.2,32.8,16.2,32.9,16.2C32.8,16.2,32.9,16.2,32.9,16.2
		C32.9,16.2,32.9,16.2,32.9,16.2z M32.9,14.6l-0.2,0.1c-0.1,0-0.2,0.1-0.2,0.3v0.7c-2.1-0.5-8.7-2.2-10.8-2.3v-0.4l0.9-0.1l8.3,1.4
		c0,0.4,0.4,0.6,0.8,0.6c0.2,0,0.3-0.1,0.5-0.1c0.1-0.1,0.1-0.1,0.2-0.2L32.9,14.6z M23,8.5c1.9,0.2,5.5,0.6,7.8,0.8v4.3l-7.7-1.3
		L23,8.5z M31.4,14.2v-0.4V9.4c0.2,0,0.3,0,0.4,0v4.4v0.3c0,0.1,0,0.1,0,0.1c0,0-0.1,0-0.2,0C31.5,14.3,31.4,14.3,31.4,14.2z
		 M32.9,9L22.5,7.9v0l0.1,4.4h-0.3L22,0.9l0.3,0l0.2,6.7l11.5,0.9V9H32.9z"/>
	<path d="M13.5,6l1.3-0.7L16,5.9l-0.2-1.3l0.9-0.9l-1.3-0.2l-0.6-1.2l-0.6,1.2l-1.5,0.2l1.1,1L13.5,6z M13.3,3.8l1-0.1l0.4-0.8
		l0.4,0.8l0.9,0.1l-0.6,0.6l0.2,0.9L14.8,5l-0.9,0.5l0.2-0.9L13.3,3.8z"/>
</g>
</svg>
