<?xml version="1.0" encoding="utf-8"?>
<!-- Generator: Adobe Illustrator 19.0.0, SVG Export Plug-In . SVG Version: 6.00 Build 0)  -->
<svg version="1.1" id="Layer_1" xmlns="http://www.w3.org/2000/svg" xmlns:xlink="http://www.w3.org/1999/xlink" x="0px" y="0px"
	 viewBox="0 0 40 40" style="enable-background:new 0 0 40 40;" xml:space="preserve">
<path class="st0" d="M20,0C11,0,3.8,17.1,3.8,26.1C3.8,33.1,10,40,20,40s16.2-6.9,16.2-13.9C36.2,17.1,29,0,20,0z M20,39
	c-8-0.1-14.9-6.3-14.9-14.3S12,0.6,20,0.6c3.9,0,7.4,3.6,10,8.2L24.3,11v-0.1l-4-0.3l3.4,1.2L22,18.7l-4.8,1.6l-0.8,2.6l0.9-2.5
	l4.9-1.4h0.1v-0.1l2.1-7.2l6-2c2.5,4.8,4.5,11.2,4.5,15.1C34.9,32.8,28,39,20,39z"/>
</svg>
