<?xml version="1.0" encoding="utf-8"?>
<!-- Generator: Adobe Illustrator 19.0.0, SVG Export Plug-In . SVG Version: 6.00 Build 0)  -->
<svg version="1.1" id="Layer_1" xmlns="http://www.w3.org/2000/svg" xmlns:xlink="http://www.w3.org/1999/xlink" x="0px" y="0px"
	 viewBox="0 0 40 40" style="enable-background:new 0 0 40 40;" xml:space="preserve">
<g>
	<path class="st0" d="M39.8,8.6c-0.1-0.1-0.2-0.1-0.3-0.1H27.1l-1.3-3.9c0-0.2-0.2-0.3-0.4-0.3H14.6c-0.2,0-0.3,0.1-0.4,0.3
		l-1.3,3.9H8V6.6c0-0.1-0.1-0.3-0.2-0.4C7.7,6.1,7.6,6.1,7.5,6.1H4.2C4.1,6.1,4,6.2,3.8,6.3C3.7,6.4,3.7,6.5,3.7,6.6v1.9H0.4
		c-0.1,0-0.2,0-0.3,0.1C0,8.7,0,8.8,0,8.9v26.4c0,0.1,0,0.3,0.1,0.4c0.1,0.1,0.2,0.1,0.3,0.1v-0.1h39.2c0.1,0,0.2,0,0.3-0.1
		c0.1-0.1,0.1-0.2,0.1-0.3V8.9C40,8.8,40,8.7,39.8,8.6z M14.9,5.2h10.2l1.1,3.3H13.8L14.9,5.2z M4.7,7h2.4v1.5H4.7V7z M39.1,34.9
		H0.9V16.4h11.6C10.9,18.2,10,20.6,10,23c0,5.6,4.6,10.2,10.2,10.2c5.6,0,10.2-4.6,10.2-10.2c0-2.4-0.9-4.7-2.5-6.6h11.2V34.9z
		 M20.2,13.7c5.1,0,9.3,4.2,9.3,9.3s-4.2,9.3-9.3,9.3c-5.1,0-9.3-4.2-9.3-9.3S15.1,13.7,20.2,13.7z M39.1,15.5h-12
		c-1.9-1.7-4.3-2.7-6.9-2.7c-2.6,0-5,1-6.9,2.7H0.9V9.4h38.2V15.5z"/>
	<path class="st0" d="M32,12.6h2.8c0.2,0,0.4-0.2,0.4-0.4s-0.2-0.4-0.4-0.4H32c-0.2,0-0.4,0.2-0.4,0.4S31.8,12.6,32,12.6z"/>
	<path class="st0" d="M21.6,29.4c0,0,0.1,0,0.2,0c2.4-0.6,4.4-2.6,4.9-5.1c0-0.1,0-0.2-0.1-0.3c-0.1-0.1-0.2-0.2-0.3-0.2h-0.1
		c-0.2,0-0.4,0.2-0.4,0.4c-0.5,2.2-2.1,3.9-4.3,4.4c-0.2,0-0.4,0.3-0.3,0.5C21.2,29.3,21.4,29.4,21.6,29.4z"/>
</g>
</svg>
