<?xml version="1.0" encoding="utf-8"?>
<!-- Generator: Adobe Illustrator 19.0.0, SVG Export Plug-In . SVG Version: 6.00 Build 0)  -->
<svg version="1.1" id="Layer_1" xmlns="http://www.w3.org/2000/svg" xmlns:xlink="http://www.w3.org/1999/xlink" x="0px" y="0px"
	 viewBox="0 0 200 147.2" style="enable-background:new 0 0 200 147.2;" xml:space="preserve">
<style type="text/css">
	.st0{fill:#FFFFFF;}
</style>
<g id="IgaeiT.tif">
	<g id="XMLID_1_">
		<path id="XMLID_282_" class="st0" d="M95.9,0c2,0,3.9,0,5.9,0c0,0,0.1,0.1,0.1,0.1c0.7,0,1.5-0.1,2.2,0.1c0.4,0.1,0.9,0,1.4,0.1
			c0.4,0.1,0.8,0,1.2,0.1c0.3,0.1,0.6,0,1,0.1c0.3,0.1,0.6,0,1,0.1c0.2,0.1,0.5,0,0.7,0.1c0.2,0.1,0.5,0,0.8,0.1
			c0.2,0.1,0.5,0,0.7,0.1C111,1,111.2,1,111.5,1c0.5,0.1,0.9,0.2,1.4,0.2c0.2,0,0.5,0,0.7,0.1c0.4,0.2,0.8,0.2,1.2,0.3
			c0.4,0.1,0.8,0.3,1.2,0.2c0.7,0.3,1.4,0.4,2.2,0.6c0.7,0.2,1.5,0.4,2.2,0.6c0.6,0.2,1.2,0.4,1.8,0.5c0.6,0.1,1.2,0.4,1.7,0.6
			c0.6,0.2,1.1,0.5,1.7,0.6c0.8,0.3,1.5,0.6,2.3,0.9c0.4,0.1,0.8,0.4,1.2,0.5c0.7,0.2,1.3,0.6,2,0.9c1.1,0.5,2.1,1.1,3.1,1.6
			c0.9,0.5,1.7,1,2.5,1.5c0.4,0.3,0.8,0.5,1.2,0.8c0.4,0.3,0.8,0.5,1.2,0.8c0.6,0.4,1.2,0.8,1.8,1.2c0.5,0.4,1,0.8,1.6,1.2
			c0.3,0.2,0.6,0.5,1,0.8c0.6,0.4,1.2,0.9,1.8,1.4c0.3,0.2,0.6,0.5,0.9,0.8c0.4,0.3,0.7,0.6,1,0.9c0.3,0.2,0.5,0.5,0.8,0.7
			c0.5,0.4,1,0.9,1.4,1.3c1.1,1.1,2.3,2.2,3.3,3.4c0.5,0.6,1.1,1.1,1.6,1.7c0,0,0.1,0,0.1,0.1c0.4,0.6,0.9,1.1,1.3,1.6
			c0.3,0.5,0.7,0.9,1.1,1.3c0.4,0.5,0.7,1,1.1,1.5c0.5,0.6,0.9,1.1,1.3,1.7c0.5,0.8,1.1,1.6,1.6,2.5c0.3,0.6,0.8,1.2,1.1,1.8
			c0.2,0.4,0.5,0.8,0.7,1.2c0.2,0.4,0.4,0.8,0.7,1.2c0.4,0.6,0.7,1.2,1,1.8c0.6,1.1,1.1,2.2,1.6,3.3c0.2,0.4,0.4,0.8,0.6,1.3
			c0.1,0.3,0.3,0.5,0.4,0.8c0.2,0.7,0.5,1.3,0.7,2c0.2,0.6,0.4,1.2,0.7,1.8c0.1,0.3,0.2,0.6,0.3,0.9c0.1,0.3,0.2,0.6,0.3,0.9
			c0.1,0.3,0.2,0.6,0.3,0.9c0.1,0.6,0.4,1.2,0.5,1.8c0.1,0.5,0.3,0.9,0.4,1.4c0.1,0.4,0.2,0.7,0.3,1.1c0.1,0.4,0.2,0.7,0.2,1.1
			c0,0.2,0,0.4,0.1,0.6c0.2,0.3,0.2,0.7,0.3,1.1c0.1,0.3,0,0.6,0.1,0.8c0.1,0.3,0,0.6,0.2,0.8c0.1,0.2,0,0.4,0.1,0.6
			c0.1,0.2,0,0.4,0.1,0.6c0.1,0.2,0,0.5,0.1,0.7c0.1,0.2,0,0.5,0.1,0.7c0.1,0.3,0,0.5,0.1,0.8c0.1,0.3,0,0.5,0.1,0.8
			c0.1,0.3,0,0.7,0.1,1c0.1,0.3,0,0.7,0.1,1c0.1,0.4,0,0.9,0.1,1.4c0.1,0.5,0,1.1,0.1,1.6c0.1,1.1,0,2.1,0.1,3.2
			c0.1,0.7,0.1,1.5-0.1,2.3c-0.1,0.4,0,0.7,0,1.1c0,0.4,0,0.8,0,1.1c0,0.4-0.1,0.7-0.1,1.1c0,0.4,0.1,0.8-0.1,1.1
			c0,0,0.1,0.2,0.1,0.2c0.1,0,0.3,0,0.4,0c9.1,0,18.3,0,27.4,0c0,14.7,0,29.4,0,44.1c-8,0-15.9,0-23.9,0c-7.6,0-15.3,0-22.9,0
			c-0.3,0-0.5,0.1-0.7,0.3c-1.2,1.2-2.3,2.4-3.6,3.5c-0.7,0.6-1.3,1.2-2,1.8c-0.5,0.4-0.9,0.8-1.4,1.2c-0.5,0.4-0.9,0.8-1.3,1.1
			c-0.2,0.2-0.4,0.4-0.6,0.5c-0.3,0.2-0.6,0.4-0.9,0.6c-0.3,0.2-0.6,0.5-0.9,0.7c-0.5,0.4-1.1,0.8-1.7,1.2c-0.8,0.6-1.6,1.1-2.5,1.6
			c-0.8,0.5-1.7,1-2.5,1.5c-0.4,0.2-0.7,0.4-1.1,0.6c-0.5,0.3-1.1,0.6-1.6,0.9c-0.8,0.5-1.7,0.9-2.6,1.3c-0.8,0.4-1.6,0.7-2.4,1.1
			c-0.3,0.1-0.5,0.3-0.8,0.4c-0.7,0.2-1.3,0.6-2,0.7c-0.3,0.1-0.6,0.2-0.9,0.4c-0.3,0.1-0.6,0.2-0.9,0.3c-0.4,0.1-0.9,0.3-1.3,0.4
			c-0.4,0.1-0.9,0.3-1.3,0.4c-0.8,0.3-1.6,0.5-2.5,0.7c-0.4,0.1-0.8,0.2-1.2,0.3c-0.4,0.1-0.8,0.2-1.2,0.3c-0.4,0.1-0.7,0.2-1.1,0.2
			c-0.2,0.2-0.4,0.1-0.6,0.2c-0.2,0.1-0.5,0.1-0.7,0.1c-0.2,0-0.4,0.1-0.7,0.1c-0.2,0-0.5,0-0.7,0.1c-0.2,0.1-0.4,0-0.6,0.1
			c-0.2,0.1-0.4,0.1-0.6,0.1c-0.1,0-0.1,0-0.2,0c-0.3,0.2-0.6,0.1-0.9,0.2c-0.4,0.1-0.8,0-1.2,0.1c-0.4,0.1-0.8,0-1.2,0.2
			c-0.4,0.1-0.8,0-1.2,0.1c-0.4,0.1-0.8,0-1.2,0.1c-1.1,0-2.2,0.2-3.3,0.1c-0.2,0-0.4,0-0.5,0c0,0-0.1,0.1-0.1,0.1
			c-1.2,0-2.5,0-3.7,0c0-0.2-0.1-0.1-0.2-0.1c-0.8-0.1-1.6,0.1-2.5-0.1c-0.3-0.1-0.6,0-0.9,0c-0.3,0-0.6-0.1-0.9-0.1
			c-0.6,0-1.1-0.1-1.7-0.1c0,0-0.1,0-0.1,0c-0.2-0.2-0.4-0.1-0.6-0.1c-0.2,0-0.4-0.1-0.7-0.1c-0.4,0-0.8,0-1.3-0.1
			c-0.3-0.1-0.5,0-0.8-0.1c-0.2-0.1-0.3-0.1-0.5-0.1c-0.2,0-0.3-0.1-0.5-0.1c-0.3,0-0.6,0-1-0.1c-0.3-0.1-0.7-0.2-1-0.2
			c-0.4,0-0.7-0.2-1.1-0.2c-0.2,0-0.4,0-0.6-0.1c-0.4-0.1-0.7-0.2-1.1-0.3c-0.5-0.1-1-0.2-1.5-0.3c-0.6-0.1-1.1-0.3-1.7-0.5
			c-0.6-0.2-1.2-0.3-1.8-0.5c-0.3-0.1-0.6-0.2-0.9-0.3c-0.5-0.1-1-0.3-1.5-0.5c-0.6-0.2-1.2-0.4-1.7-0.6c-0.5-0.2-1.1-0.4-1.6-0.6
			c-0.4-0.2-0.9-0.4-1.3-0.6c-0.4-0.2-0.7-0.3-1.1-0.5c-0.4-0.1-0.8-0.3-1.1-0.5c-1.2-0.6-2.5-1.2-3.7-1.9c-0.2-0.1-0.4-0.1-0.5-0.3
			c-0.6-0.4-1.3-0.8-1.9-1.2c-0.6-0.4-1.2-0.7-1.7-1.1c-1.4-0.9-2.7-1.8-4-2.8c-0.8-0.5-1.5-1.1-2.2-1.7c-0.6-0.5-1.2-0.9-1.7-1.5
			c-0.5-0.4-1-0.9-1.5-1.3c-0.5-0.4-0.9-0.8-1.3-1.2c-1.2-1.2-2.5-2.4-3.7-3.7c-0.1-0.1-0.3-0.2-0.5-0.2c-0.1,0-0.1,0-0.2,0
			c-14.8,0-29.6,0-44.4,0C0,109,0,94.3,0,79.6c8.3,0,16.5,0,24.8,0c0.1,0,0.2,0,0.3,0c0.3,0,0.4-0.1,0.3-0.4c0-0.1-0.1-0.1-0.1-0.2
			c0-0.4,0-0.7,0-1.1c0-0.4-0.1-0.7-0.1-1.1c0-1.2,0-2.5,0-3.7c0-1.2-0.1-2.5,0.1-3.7c0.1-0.5,0-1.1,0.1-1.7c0.1-0.5,0-0.9,0.1-1.4
			c0.1-0.5,0.1-1,0.1-1.6c0,0,0,0,0,0c0.2-0.4,0-0.8,0.2-1.2c0.1-0.2,0.1-0.5,0.1-0.8c0-0.3,0-0.5,0.1-0.8c0.1-0.4,0.1-0.8,0.2-1.3
			c0.1-0.3,0-0.6,0.1-0.9c0.1-0.3,0.1-0.6,0.2-0.8c0.1-0.6,0.3-1.2,0.3-1.8c0.2-0.2,0-0.5,0.2-0.7c0-0.3,0.2-0.6,0.2-0.9
			c0.1-0.5,0.2-1,0.4-1.5c0.2-0.5,0.2-1,0.5-1.5c0.1-0.8,0.4-1.5,0.6-2.3c0.2-0.8,0.5-1.6,0.8-2.3c0.2-0.6,0.4-1.1,0.6-1.7
			c0.3-0.7,0.6-1.5,0.9-2.2c0.2-0.4,0.3-0.7,0.5-1.1c0.2-0.7,0.6-1.3,0.9-1.9c0.2-0.6,0.6-1.1,0.9-1.6c0.4-0.8,0.9-1.7,1.4-2.5
			c0.3-0.4,0.5-0.9,0.8-1.3c0.5-0.7,0.9-1.4,1.4-2.1c0.4-0.5,0.7-1.1,1.1-1.6c0.4-0.6,0.8-1.1,1.2-1.6c0.4-0.5,0.8-1,1.1-1.5
			c0.2-0.2,0.4-0.4,0.5-0.6c0.4-0.5,0.8-1.1,1.2-1.5c0.1-0.1,0.1-0.1,0.2-0.2c0.2-0.4,0.5-0.6,0.8-0.9c0.2-0.3,0.4-0.5,0.6-0.7
			c0.4-0.5,0.8-0.9,1.2-1.3c1.6-1.6,3.2-3.3,5-4.9c0.4-0.4,0.8-0.8,1.2-1.1c0.3-0.2,0.5-0.5,0.7-0.6c0.5-0.4,1-0.8,1.5-1.2
			c0.4-0.3,0.7-0.6,1.1-0.9c0.5-0.3,1-0.8,1.5-1.1c0.2-0.1,0.4-0.3,0.7-0.5c0.2-0.1,0.4-0.3,0.7-0.5c1.1-0.7,2.1-1.5,3.3-2.1
			c0.6-0.4,1.2-0.8,1.8-1.1c0.3-0.2,0.7-0.3,1-0.5c0.5-0.3,1-0.6,1.5-0.9c1-0.5,1.9-1,2.9-1.4c0.5-0.2,1-0.4,1.6-0.7
			c0.3-0.1,0.5-0.3,0.8-0.4c0.9-0.3,1.7-0.7,2.5-1c0.3-0.1,0.6-0.2,0.9-0.3C73.7,4.1,74,4,74.3,3.9c0.5-0.2,1-0.3,1.5-0.5
			c0.3-0.1,0.6-0.2,0.9-0.3c0.4-0.1,0.8-0.2,1.2-0.3c0.4-0.1,0.8-0.3,1.2-0.4c0.5-0.1,0.9-0.2,1.4-0.3c0.4-0.1,0.7-0.2,1.1-0.2
			c0.4-0.1,0.8-0.2,1.3-0.3c0.2,0,0.4,0,0.6-0.1c0.2-0.1,0.4,0,0.5-0.1c0.2-0.1,0.3,0,0.5-0.1c0.2-0.1,0.3-0.1,0.5-0.1
			c0.2-0.1,0.5,0,0.7-0.1C85.8,1,86,1.1,86.2,1c0.2-0.1,0.4-0.1,0.6-0.1c0.1,0,0.2,0,0.2,0c0.1-0.2,0.3-0.1,0.4-0.1
			c0.2,0,0.3-0.1,0.5-0.1c0.4,0,0.9-0.1,1.3-0.1c0,0,0.1,0,0.1,0c0.1-0.2,0.3-0.1,0.5-0.1c0.2,0,0.4-0.1,0.6-0.1c0.3,0,0.6,0,1-0.1
			c0.4-0.1,0.8,0,1.3-0.1c1,0,2-0.2,3.1-0.1C95.7,0.1,95.8,0.1,95.9,0C95.9,0.1,95.9,0,95.9,0z M126.9,79.6c13.7,0,27.4,0,41.1,0
			c0.1,0,0.3,0,0.4,0c0,0,0.1-0.1,0.1-0.1c0-0.3,0-0.7,0.1-1c-0.1-1.1,0.1-2.2,0.1-3.4c0-1,0-2,0-3c0-0.6,0-1.2-0.1-1.8
			c-0.1-0.8,0-1.5-0.1-2.3c-0.1-0.6-0.1-1.3-0.1-2c0,0,0,0,0,0c-0.1-0.2-0.1-0.4-0.1-0.7c0-0.3-0.1-0.5-0.1-0.7c0-0.4,0-0.9-0.1-1.3
			c-0.1-0.3,0-0.5-0.1-0.8c0-0.2-0.1-0.3-0.1-0.5c0-0.2-0.1-0.3-0.1-0.5c0-0.3,0-0.6-0.1-0.9c-0.1-0.5-0.2-1-0.3-1.5
			c-0.1-0.4-0.2-0.8-0.2-1.3c-0.2-0.1,0-0.4-0.1-0.5c-0.1-0.2-0.1-0.4-0.2-0.6c0-0.2-0.1-0.4-0.1-0.6c-0.1-0.5-0.2-0.9-0.4-1.4
			c-0.1-0.4-0.2-0.8-0.3-1.2c-0.1-0.6-0.3-1.1-0.5-1.7c-0.2-0.8-0.5-1.5-0.7-2.3c-0.2-0.6-0.4-1.2-0.7-1.8c-0.2-0.6-0.5-1.2-0.7-1.8
			c-0.2-0.5-0.4-0.9-0.6-1.4c-0.2-0.5-0.4-0.9-0.6-1.4c-0.2-0.5-0.5-1-0.7-1.5c-0.4-0.8-0.8-1.7-1.3-2.5c-0.3-0.6-0.7-1.2-1-1.8
			c-0.3-0.5-0.6-1-0.9-1.5c-0.7-1-1.3-2-2-2.9c-0.2-0.2-0.3-0.4-0.4-0.6c-0.3-0.4-0.7-0.9-1-1.3c-0.4-0.6-0.9-1.1-1.3-1.7
			c-0.2-0.3-0.5-0.5-0.7-0.8c-0.4-0.6-1-1.1-1.4-1.7c-0.3-0.3-0.6-0.6-0.9-0.9c-0.6-0.7-1.2-1.3-1.8-1.9c-0.6-0.7-1.3-1.3-2-1.9
			c-0.5-0.4-0.9-0.9-1.4-1.3c-0.4-0.3-0.7-0.6-1-0.9c-0.5-0.4-0.9-0.8-1.4-1.2c-0.5-0.4-1.1-0.8-1.6-1.3c-0.5-0.4-1.1-0.9-1.7-1.3
			c-0.7-0.6-1.5-1.1-2.3-1.6c-0.5-0.4-1.1-0.8-1.6-1.1c-0.7-0.4-1.4-0.8-2.1-1.3c-0.9-0.5-1.8-1-2.7-1.5c-0.7-0.4-1.5-0.7-2.3-1.1
			c-0.7-0.4-1.5-0.7-2.2-1c-0.5-0.3-1-0.5-1.6-0.7c-0.6-0.2-1.2-0.4-1.8-0.7c-0.4-0.2-0.8-0.3-1.3-0.5c-0.4-0.2-0.8-0.4-1.3-0.4
			c-0.5-0.3-1.1-0.4-1.7-0.6c-0.4-0.1-0.8-0.3-1.3-0.3c-0.2,0-0.4-0.1-0.6-0.2c-0.2-0.1-0.5,0-0.7-0.1c-0.5-0.2-1-0.2-1.5-0.4
			c-0.4-0.1-0.9-0.1-1.3-0.3c-0.2-0.1-0.3-0.1-0.5-0.1c-0.3,0-0.6,0-0.8-0.1c-0.4-0.2-0.9-0.2-1.3-0.3c-0.2-0.1-0.4-0.1-0.6-0.1
			c-0.2,0-0.4,0-0.7-0.1c-0.2-0.1-0.5,0-0.7-0.1c-0.2-0.1-0.5,0-0.7-0.1c-0.2-0.1-0.4,0.1-0.6,0c-0.2-0.1-0.4-0.1-0.6-0.1
			c-0.2,0-0.4-0.1-0.6-0.1c-0.4,0-0.8,0-1.2-0.1c-0.4-0.1-0.8,0-1.2-0.1c-0.5-0.1-1,0-1.6-0.1c-1-0.1-2,0-3-0.1
			c-0.9-0.1-1.8-0.1-2.8,0.1c-0.3,0.1-0.7,0-1,0c-0.3,0-0.7,0-1,0c-0.4,0-0.7,0.1-1,0.1c-0.7,0-1.5,0.1-2.2,0.1c0,0-0.1,0-0.1,0
			c-0.2,0.2-0.4,0.1-0.7,0.1c-0.2,0-0.4,0.1-0.7,0.1c-0.5,0-0.9,0.1-1.4,0.1c0,0-0.1,0-0.1,0c-0.2,0.2-0.4,0.1-0.6,0.1
			C88.2,3.9,88,4,87.8,4c-0.3,0-0.6,0.2-0.9,0.1c-0.2,0.2-0.6,0-0.8,0.2c-0.3-0.1-0.6,0.1-0.9,0.1c-0.2,0-0.5,0-0.7,0.1
			c-0.5,0.2-1.1,0.2-1.6,0.4C82.7,5,82.4,5,82.1,5.1c-0.3,0.1-0.6,0.2-0.9,0.2c-0.7,0.1-1.4,0.4-2.1,0.5c-0.3,0.1-0.5,0.2-0.8,0.3
			c-0.3,0.1-0.5,0.3-0.9,0.2c-0.7,0.3-1.4,0.5-2.1,0.7c-0.6,0.2-1.1,0.4-1.7,0.6c-0.8,0.3-1.5,0.6-2.3,0.9C70.7,8.8,70.4,9,70,9.2
			c-0.8,0.3-1.5,0.7-2.3,1.1c-0.6,0.3-1.2,0.6-1.8,0.9c-0.6,0.3-1.1,0.6-1.7,0.9c-0.5,0.3-0.9,0.5-1.4,0.8c-0.5,0.3-0.9,0.6-1.3,0.8
			c-0.5,0.3-1,0.6-1.4,0.9c-0.2,0.2-0.4,0.3-0.7,0.5c-0.2,0.1-0.4,0.3-0.7,0.5c-0.5,0.3-1,0.7-1.5,1.1c-0.6,0.4-1.1,0.9-1.7,1.3
			c-0.7,0.5-1.3,1-1.9,1.6c-0.6,0.5-1.2,1-1.7,1.5c-0.6,0.6-1.2,1.1-1.8,1.7c-0.8,0.8-1.7,1.6-2.4,2.5c-0.7,0.8-1.4,1.5-2,2.3
			c-0.4,0.5-0.8,0.9-1.2,1.4c-0.3,0.4-0.7,0.9-1.1,1.3c-0.2,0.2-0.4,0.4-0.5,0.6c-0.4,0.5-0.7,0.9-1,1.4c-0.3,0.4-0.6,0.9-1,1.4
			c-0.2,0.2-0.3,0.5-0.5,0.7c-0.3,0.4-0.5,0.7-0.8,1.1c-0.3,0.5-0.6,1-0.9,1.5c-0.3,0.6-0.7,1.1-1,1.7c-0.2,0.4-0.4,0.8-0.6,1.1
			c-0.4,0.6-0.6,1.2-1,1.8c-0.6,1-1,2.1-1.5,3.1c-0.2,0.4-0.4,0.8-0.5,1.2c-0.1,0.3-0.3,0.6-0.4,0.9c-0.2,0.5-0.4,0.9-0.6,1.4
			c-0.2,0.5-0.4,0.9-0.5,1.4c-0.3,1-0.7,1.9-0.9,2.9c0,0.2-0.1,0.3-0.2,0.5c-0.1,0.5-0.3,1.1-0.4,1.6c0,0.1-0.1,0.2-0.1,0.3
			c0,0,0,0.1,0.1,0.1c0,0,0-0.1,0-0.1c0.2-0.5,0.5-0.9,0.8-1.4c0.2-0.2,0.3-0.5,0.7-0.5c0.1,0,0.3-0.1,0.5-0.2
			c0.3-0.2,0.7-0.2,1-0.2c0.1,0,0.2,0,0.3,0.1c0.5,0.5,0.9,1.1,1.2,1.7c0.3,0.5,0.5,1,0.6,1.6c0,0.2,0.1,0.4,0.2,0.5
			c0,0.1,0.1,0.1,0.2,0.2c0.1-0.2,0.3-0.1,0.5-0.1c0.5-0.1,2-0.8,2.5-1.1c0.1-0.1,0.2-0.1,0.1-0.3c0-0.4,0-0.7-0.1-1.1
			c-0.1-0.4-0.1-0.7-0.2-1.1c0-0.2-0.1-0.3-0.2-0.5c0,0,0-0.1,0-0.1c0.3-0.6,0.7-1.1,1.3-1.4c0.7-0.4,1.4-0.5,2.2-0.6
			c0.2,0,0.4,0.1,0.6,0c0.2-0.1,0.4-0.1,0.6-0.1c0.2,0,0.4,0.1,0.5,0.3c0.2,0.3,0.2,0.7,0.3,1c0,0.1,0,0.3,0,0.4
			c0,0.1,0.1,0.3,0.1,0.4c0,0.2,0.1,0.4,0.3,0.5c0.1,0.1,0.2,0.1,0.3,0.1c0.4-0.1,0.6-0.4,0.9-0.7c0.2-0.3,0.3-0.6,0.3-0.9
			c0-0.5,0.1-1,0.1-1.5c0-0.2,0-0.4,0-0.5c0-0.2,0.1-0.3,0.1-0.5c0.1-0.5,0.6-0.9,1.1-0.9c0.1,0,0.3,0,0.4,0c0.5,0,0.9,0.2,1.1,0.6
			c0.2,0.3,0.3,0.6,0.4,0.8c0.2,0.4,0.3,0.8,0.7,1c0.3,0.2,0.6,0.2,0.9,0.4c0.1,0,0.2,0,0.4-0.1c0.2-0.2,0.3-0.5,0.3-0.8
			c0-0.9,0-1.7,0-2.6c0-0.3,0.1-0.5,0.2-0.7c0.2-0.3,0.2-0.3,0.5-0.2c0.6,0.2,1.1,0.6,1.6,0.9c0.5,0.3,0.9,0.6,1.3,0.9
			c0.5,0.4,1.1,0.8,1.6,1.2c0.1,0.1,0.1,0,0.2,0c0.1-0.1,0.2-0.1,0.2-0.1c0.1-0.1,0.4-0.9,0.4-1.1c0-0.5,0.1-1.1,0.1-1.6
			c0-0.3,0-0.7,0.1-1c0.1-0.4,0.2-0.7,0.4-1c0.2-0.3,0.2-0.3,0.4-0.1c0.1,0.1,0.3,0.2,0.4,0.3c0.6,0.5,1.1,1.2,1.5,1.8
			c0.4,0.5,0.8,0.9,1.2,1.4c0.1,0.1,0.1,0.1,0.2,0c0.4-0.2,0.7-0.5,0.9-0.9c0.3-0.5,0.3-1,0.5-1.5c0-0.2,0.1-0.4,0.1-0.6
			c0-0.2,0.1-0.4,0.1-0.6c0.1-0.3,0.2-0.6,0.3-0.9c0-0.1,0.1-0.1,0.2,0c0.3,0.3,0.7,0.6,0.8,1.1c0.1,0.4,0.3,0.7,0.5,1.1
			c0.2,0.4,0.5,0.8,1,1.1c0.1,0.1,0.3,0.1,0.4,0.1c0.2,0,0.5-0.4,0.5-0.6c0-0.3-0.1-1.2-0.1-1.6c-0.1-0.4,0-0.8,0-1.2
			c0-0.1,0.2-0.2,0.3-0.1c0.1,0.2,0.3,0.3,0.4,0.5c0.2,0.3,0.5,0.6,0.6,1c0.2,0.5,0.7,0.6,1.1,0.8c0.1,0.1,0.3,0,0.3-0.2
			c0.1-0.4,0.2-0.7,0-1.1c-0.2-0.4-0.4-0.8-0.6-1.2c-0.2-0.4-0.4-0.7-0.5-1.1c-0.1-0.2,0-0.5,0.1-0.7c0,0,0.1-0.1,0.2,0
			c0.2,0.2,0.6,0.3,0.6,0.6c0.3,0.3,0.5,0.7,0.9,0.9c0.3,0.2,0.6,0.2,0.9,0c0.6-0.3,0.9-0.9,0.9-1.5c0-0.1,0-0.2,0.1-0.3
			c0,0,0.1-0.2,0-0.2c-0.1-0.1-0.1-0.3-0.1-0.5c0-0.4,0-0.8-0.1-1.1c-0.2-0.5-0.1-1-0.3-1.5c-0.1-0.3,0-0.6,0.1-0.8
			c0.1-0.3,0.2-0.4,0.6-0.2c0.4,0.1,0.7,0.3,0.9,0.7c0.2,0.3,0.5,0.6,0.8,0.9c0.2,0.2,0.3,0.1,0.5-0.1c0-0.1,0.1-0.1,0.1-0.1
			c0.2-0.2,0.2-0.6,0.3-0.9c0-0.1-0.1-0.2-0.1-0.3c0-0.5-0.3-0.9-0.5-1.3c-0.2-0.4-0.5-0.7-0.6-1.1c-0.1-0.3-0.3-0.6-0.3-1
			c0-0.2,0.1-0.2,0.3-0.2c0.1,0,0.1,0.1,0.2,0.1c0.5,0,0.9,0.3,1.3,0.6c0.4,0.3,0.8,0.7,1.3,0.9c0.2,0.1,0.3,0.1,0.5,0.1
			c0,0,0.1-0.1,0.1-0.1c0-0.1,0-0.2,0-0.2c0.2-0.4,0-0.7-0.1-1c-0.2-0.6-0.5-1.2-0.9-1.7c-0.2-0.3-0.3-0.7-0.4-1c0-0.1,0-0.1,0-0.2
			c0-0.2,0.1-0.2,0.3-0.1c0.3,0.1,0.6,0.2,0.8,0.5c0.1,0.1,0.2,0.2,0.4,0.4c0.3,0.3,0.6,0.2,0.9,0.2c0,0,0.1,0,0.1-0.1
			c0-0.2,0.2-0.4,0.1-0.6c0-0.1-0.1-0.1-0.1-0.2c0-0.4-0.2-0.8-0.4-1.1c-0.3-0.4-0.6-0.7-0.9-1.1c-0.2-0.2-0.4-0.5-0.6-0.7
			c-0.3-0.4-0.6-0.9-0.6-1.4c-0.2-0.2-0.1-0.2,0.1-0.2c0.2-0.1,0.4-0.1,0.7-0.2c0.3,0,0.6,0.1,0.9,0.2c0.6,0.1,1.1,0.5,1.6,0.8
			c0.3,0.1,0.6,0.3,0.8,0.4c0.2,0.1,0.4,0.2,0.6,0.1c0.3-0.1,0.6-0.1,0.9-0.4c0.2-0.2,0.2-0.2,0.1-0.5c-0.1-0.3-0.1-0.6-0.2-0.9
			c-0.2-0.6-0.4-1.2-0.6-1.7c-0.3-0.6-0.6-1.3-1-1.9c-0.3-0.5-0.7-1-1-1.5c-0.1-0.1-0.1-0.1,0-0.1c0.3-0.2,0.6-0.4,1-0.4
			c0.7,0,1.3,0.2,1.9,0.5c0.8,0.4,1.5,0.9,2.4,1.2c0.4,0.1,0.8,0.3,1.2,0.4c0.6,0.1,1.3,0,1.8-0.4c0.5-0.3,0.5-0.3,0.3-0.8
			c0-0.1-0.1-0.1-0.1-0.2c-0.2-0.3-0.4-0.5-0.6-0.7c-0.4-0.4-0.7-0.9-0.7-1.5c0-0.1,0-0.2-0.1-0.3c-0.4-0.2-0.7-0.4-1.1-0.5
			c-0.4-0.2-0.8-0.4-1.1-0.7c-0.2-0.2-0.2-0.3,0-0.5c0.2-0.3,0.4-0.5,0.7-0.8c0.5-0.4,1-0.5,1.6-0.4c0.6,0.1,1,0.4,1.5,0.7
			c0.2,0.1,0.5,0.3,0.7,0.5c0.5,0.4,1.4,0.9,2,1.2c0.4,0.2,0.9,0.3,1.4,0.3c0,0,0.1-0.1,0.1-0.1c0-0.3,0-0.6-0.1-0.9
			c-0.1-0.2-0.1-0.4-0.3-0.5c-0.4-0.5-0.3-1-0.3-1.6c0.1-0.2,0-0.3-0.1-0.4c0-0.1-0.1-0.1-0.2-0.2c-0.4-0.4-0.8-0.7-1.2-1.1
			c-0.4-0.4-0.5-0.8-0.5-1.3c0,0,0.1-0.1,0.1-0.1c0.1,0,0.2,0,0.3,0c0.9,0.3,1.8,0.6,2.7,0.9c0.7,0.3,1.4,0.7,2.2,1
			c0.1,0,0.2,0.1,0.3,0.2c0.1-0.2,0.3-0.1,0.4-0.1c0.7-0.3,1.3-0.5,2-0.8c0.5-0.2,0.9-0.4,1.4-0.5c0.5-0.2,0.9-0.3,1.4-0.5
			c0.3-0.1,0.7-0.2,1.1-0.2c0.3,0,0.6,0.1,0.9-0.1c0.3,0.1,0.5-0.1,0.7-0.2c0.1,0,0.1-0.1,0.2-0.1c0.5-0.3,1-0.5,1.4-0.9
			c0.1-0.1,0.2-0.1,0.3-0.1c0.3,0,0.5-0.1,0.8-0.1c0.3,0,0.5-0.1,0.8-0.1c0.5,0,1.1,0.1,1.6-0.1c0.5-0.1,1-0.3,1.3-0.7
			c0.3-0.4,0.6-0.7,0.9-1c0.2-0.2,0.4-0.3,0.6-0.4c0.3-0.1,0.6-0.1,0.9-0.1c0.2,0,0.5,0.1,0.6,0.3c0.1,0.2,0.3,0.4,0.4,0.6
			c0.2,0.4,0.6,0.6,0.9,0.8c0.9,0.5,1.8,0.8,2.8,1.2c0.6,0.2,1.2,0.5,1.6,0.9c0.6,0.6,0.9,1.2,0.9,2.1c0,0.3,0,0.5,0,0.8
			c0,0,0.1,0.1,0.1,0.1c0.1-0.2,0.3-0.1,0.5-0.2c0.1-0.1,0.3,0,0.5,0c0.6-0.1,1,0.2,1.4,0.6c0.4,0.4,0.6,0.8,0.9,1.3
			c0.2,0.4,0.5,0.8,0.8,1.2c0.6,0.7,1.3,1.1,2.1,1.5c0.7,0.4,1.4,0.7,2,1.1c0.7,0.4,1.3,0.9,1.8,1.5c0.5,0.7,1.1,1.3,1.7,1.9
			c0,0,0.1,0.1,0.1,0.1c0.6,0.3,1.1,0.7,1.7,1c0.6,0.3,1.2,0.6,1.7,1c0.5,0.3,1,0.5,1.6,0.8c0.6,0.3,1.2,0.7,1.8,1
			c0.6,0.4,1.2,0.8,1.8,1.2c0.6,0.4,1.2,0.9,1.7,1.4c0.4,0.5,1,0.8,1.6,1.1c0.7,0.4,1.5,0.7,2.3,1.1c0.5,0.3,1.1,0.4,1.7,0.7
			c0.4,0.2,0.8,0.3,1.1,0.5c0.4,0.2,0.8,0.3,1.1,0.5c0.3,0.2,0.6,0.4,0.8,0.7c0.4,0.6,0.8,1.3,1.3,1.8c0.5,0.6,1,1.2,1.5,1.8
			c0.3,0.3,0.5,0.6,0.7,1c0.4,0.7,0.9,1.4,1.2,2.2c0.3,0.7,0.5,1.4,0.6,2.1c0,0.3,0,0.7-0.1,1.1c-0.1,0.6-0.3,1.2-0.6,1.8
			c-0.1,0.3-0.3,0.5-0.4,0.8c-0.3,0.6-0.7,1.1-1.1,1.5c-0.4,0.4-0.8,0.8-1.2,1.2c-0.3,0.3-0.6,0.5-0.9,0.6c-0.1,0-0.2,0.1-0.2,0
			c-0.3-0.3-0.5-0.7-0.7-1c-0.3-0.6-0.6-1.2-0.9-1.8c-0.1-0.2-0.2-0.4-0.3-0.5c-0.1-0.1-0.4,0.1-0.5,0.1c-0.2,0-0.4,0.1-0.5,0.2
			c-0.3,0.1-0.6-0.1-0.7-0.4c-0.1-0.1-0.1-0.3-0.2-0.4c0-0.1-0.1-0.2-0.2-0.2c-0.1,0-0.3,0-0.3,0.2c0,0.1-0.1,0.2-0.1,0.3
			c-0.1,0.2-0.1,0.3-0.3,0.4c0,0-0.1,0.1-0.2,0.1c-0.2-0.1-0.4,0-0.6,0c-0.2,0-0.3-0.2-0.3-0.4c0-0.1,0-0.2,0-0.3
			c0-0.2-0.1-0.4-0.3-0.4c-0.2-0.1-0.3,0.1-0.4,0.2c-0.2,0.2-0.3,0.4-0.6,0.5c-0.2,0.1-0.4,0-0.5-0.2c-0.1-0.1-0.2-0.3-0.2-0.5
			c-0.1-0.2-0.3-0.5-0.5-0.4c-0.2,0.1-0.4,0-0.6,0.1c-0.2,0.1-0.4,0-0.6,0.1c-0.2,0-0.4,0.1-0.6,0.1c-0.9-0.1-1.9,0.1-2.8-0.1
			c-0.5,0.1-1-0.2-1.5-0.2c-0.3-0.2-0.7-0.2-1-0.3c-0.3-0.1-0.7-0.2-1-0.3c-0.5-0.2-0.9-0.3-1.4-0.5c-0.5-0.2-0.9-0.4-1.4-0.6
			c-0.3-0.1-0.7-0.3-1.1-0.4c-0.4-0.2-0.7-0.3-1.1-0.5c-0.4-0.2-0.8-0.4-1.2-0.6c-0.5-0.2-1-0.4-1.5-0.6c-0.6-0.2-1.1-0.4-1.6-0.6
			c-0.2-0.1-0.3-0.2-0.5-0.2c-0.4-0.1-0.8-0.2-1-0.5c-0.1-0.2-0.3-0.3-0.4-0.5c-0.3-0.3-0.6-0.6-0.9-0.9c-0.4-0.3-0.9-0.6-1.4-0.6
			c-0.4,0-0.7,0.1-1.1,0.2c-0.3,0.1-0.6,0.2-0.9,0.2c-0.1,0-0.2,0-0.3,0.1c0,0-0.2,0-0.2,0c-0.1-0.1-0.2-0.1-0.3-0.1
			c-0.2,0.1-0.4-0.1-0.6-0.1c-0.2,0-0.4-0.1-0.6-0.2c-0.5-0.1-0.9-0.4-1.3-0.6c-0.5-0.3-1.1-0.3-1.6-0.3c-0.1,0-0.1,0-0.2,0.1
			c-0.6,0.2-1,0.6-1.5,1c-0.3,0.2-0.5,0.4-0.8,0.5c-0.4,0.2-0.8,0.3-1.2,0c-0.1-0.1-0.2-0.1-0.3-0.1c-0.1-0.1-0.3-0.1-0.5-0.1
			c-0.2,0-0.3,0.2-0.3,0.5c0,0,0.1,0,0.1,0.1c0.1,0.3,0.4,0.5,0.7,0.7c0.4,0.2,0.9,0.3,1.4,0.4c0.4,0.1,0.8,0.3,1.1,0.5
			c0.3,0.3,0.7,0.6,1,0.9c0.4,0.3,0.7,0.7,1.1,1.1c0.4,0.4,0.7,0.9,0.7,1.6c0,0.3,0.1,0.5,0.2,0.7c0.1,0.4,0.4,0.8,0.5,1.2
			c0.2,0.4,0.2,0.8,0.2,1.2c0,0.1,0,0.1-0.1,0.2c-0.1,0-0.2,0.1-0.3,0.1c-0.3,0-0.5-0.2-0.8-0.4c-0.2-0.2-0.3-0.4-0.5-0.5
			c-0.2-0.1-0.4-0.3-0.6-0.4c-0.3,0-0.5,0-0.8,0c-0.2,0-0.4,0.1-0.4,0.4c0,0.1,0,0.3,0,0.4c0,0.5,0.1,1,0.4,1.4
			c0.2,0.3,0.3,0.5,0.6,0.8c0.1,0.1,0.2,0.1,0.2,0.3c0,0.5,0.1,1,0.2,1.6c0.1,0.6,0.3,1.2,0.5,1.7c0.3,0.7,0.6,1.3,1.1,1.9
			c0.4,0.5,0.8,1,1.2,1.4c0.3,0.4,0.7,0.7,1.1,1c0.5,0.4,0.9,0.8,1.3,1.2c1.5,1.5,3,3,4.6,4.5c0.3,0.3,0.6,0.5,0.8,0.7
			c0.4,0.3,0.8,0.6,1.1,0.9c0.6,0.5,1.2,0.8,1.8,1.2c0.5,0.2,0.9,0.5,1.4,0.7c0.6,0.2,1.2,0.4,1.8,0.5c0.5,0.1,0.9,0.2,1.4,0.5
			c0.7,0.4,1.2,1,1.4,1.7c0,0,0.1,0.1,0,0.1c-0.2,0.2-0.4,0.4-0.7,0.6c-0.6,0.4-1.2,0.5-1.8,0.7c-0.3,0.1-0.6,0-0.8,0.1
			c-0.4,0.1-0.7,0-1.1,0.1c-0.4,0.1-0.7,0.1-1.1,0.1c-0.4,0-0.8,0-1.2-0.1c-0.3-0.1-0.7,0-1-0.1c-0.5-0.1-1-0.2-1.4-0.3
			c-0.7-0.2-1.4-0.4-2-0.7c-0.9-0.4-1.8-0.9-2.6-1.4c-0.3-0.2-0.7-0.5-1-0.8c-0.2-0.2-0.4-0.4-0.7-0.6c-0.2-0.2-0.5-0.4-0.7-0.6
			c-0.3-0.4-0.6-0.7-1-1c-0.6-0.5-1.1-1.1-1.7-1.6c-0.3-0.2-0.5-0.5-0.7-0.7c-0.1-0.1-0.2-0.3-0.3-0.4c-0.2-0.3-0.5-0.6-0.8-0.8
			c-0.6-0.4-1.2-0.7-1.8-1.1c-0.6-0.4-1.3-0.7-2-1.1c-0.3-0.2-0.7-0.3-1.1-0.5c-1.1-0.5-2.1-1.1-3.2-1.5c-0.6-0.3-1.2-0.6-1.9-1
			c-0.7-0.4-1.5-0.8-2.1-1.2c-0.5-0.3-0.9-0.6-1.4-0.9c-0.5-0.3-1-0.7-1.4-1.1c-0.4-0.3-0.7-0.7-1-1.1c-0.4-0.5-0.6-1-0.8-1.6
			c-0.3-0.7-0.5-1.5-0.7-2.2c-0.3-0.8-0.6-1.5-1.2-2.1c-0.2-0.3-0.3-0.2-0.3,0.1c0,0.1,0,0.2,0,0.3c-0.2,0.5-0.3,1.1-0.4,1.6
			c-0.1,0.4-0.2,0.9-0.3,1.3c-0.1,0.3-0.2,0.5-0.4,0.7c0,0,0,0-0.1,0.1c0,0-0.1-0.1-0.1-0.1c0-0.1,0-0.3,0-0.4c0-1.4,0-2.8,0-4.1
			c0-0.1,0.1-0.2-0.1-0.2c-0.1,0-0.2,0-0.3,0.1c-0.2,0.2-0.3,0.4-0.2,0.6c0,0.2-0.1,0.4-0.2,0.6c0,0-0.1,0-0.1,0c0,0,0-0.1,0-0.1
			c0.2-0.1,0-0.3,0.1-0.4c0.2-0.3,0.1-0.7,0.1-1.1c0-0.1-0.1-0.3-0.2-0.4c-0.1-0.1-0.2-0.1-0.3-0.1c0,0-0.1,0-0.1,0.1
			C91.1,45.8,91,46,91,46.2c-0.1,0.6-0.2,1.3-0.3,1.9c-0.1,0.3,0,0.7-0.1,1c-0.1,0.3,0,0.6-0.1,0.9c0,0.5-0.1,1-0.2,1.5
			c-0.1,0.7-0.4,1.3-0.6,1.9c0,0-0.1,0.1-0.1,0.1c-0.1,0,0-0.1,0-0.1c0.1-0.2,0-0.5,0.1-0.7c0.1-0.2,0-0.4,0-0.6
			c0-0.2,0.1-0.4,0.1-0.7c0-0.4,0-0.8-0.1-1.2c-0.1-0.3-0.2-0.6-0.4-0.9c-0.2-0.2-0.3-0.2-0.4,0c-0.5,0.4-0.9,1.2-1.1,1.9
			c-0.2,0.5-0.4,1.1-0.6,1.6c-0.2,0.6-0.4,1.1-0.5,1.7c-0.2,0.6-0.9,2-1.2,2.5c0,0-0.1,0.1-0.1,0c0,0-0.1-0.1-0.1-0.2
			c0-0.1,0.1-0.2,0.1-0.4c0-0.3,0-0.6,0.1-0.8c0.2-0.5,0.3-1,0.4-1.5c0.2-0.5,0.1-0.9,0.3-1.4c0-0.1,0-0.1,0-0.2
			c-0.1,0-0.1,0.1-0.2,0.1c-0.4,0.4-0.7,0.8-1,1.3c-0.4,0.6-0.6,1.4-0.8,2.1c-0.2,0.6-0.2,1.2-0.3,1.8c0,0.2-0.1,0.3-0.3,0.4
			c-0.3,0.1-0.6,0.3-0.8,0.6c-0.2,0.3-0.5,0.5-0.7,0.8c-0.3,0.4-0.6,0.9-0.8,1.4c-0.3,0.6-0.7,1.3-1,1.9c0,0-0.1,0.1-0.1,0.1
			c0-0.1,0-0.1,0-0.2c0,0,0-0.1,0-0.1c0.3-0.8,0.6-1.6,1-2.4c0.4-1,0.9-1.9,1.3-2.9c0.2-0.4,0.3-0.9,0.4-1.3c0.1-0.4,0-0.9,0-1.3
			c0-0.1-0.1-0.1-0.1-0.2c-0.1-0.5-0.4-0.9-0.7-1.3c-0.2-0.3-0.5-0.6-0.9-0.8c-0.1,0-0.1,0-0.1,0c0,0.2-0.2,0.4-0.1,0.6
			c-0.2,0.5-0.2,1.1-0.4,1.6c-0.1,0.3-0.1,0.5-0.2,0.8c-0.1,0.3-0.1,0.5-0.2,0.8C80,56.6,80,57,79.8,57.2c0,0.4-0.3,0.7-0.2,1
			c-0.3,0.7-0.5,1.3-0.8,2c-0.3,0.8-0.8,1.5-1.3,2.1c-0.1,0.1-0.1,0.1-0.2,0.2c0,0-0.1,0-0.1,0c0,0,0,0,0-0.1c0-0.1,0-0.3,0.1-0.4
			c0-0.1,0-0.2,0.1-0.4c0.1-0.5,0.3-0.9,0.4-1.4c0.2-0.6,0.1-1.3,0.2-1.9c0-0.2,0-0.5,0-0.7c0-0.3-0.1-0.5-0.1-0.8
			c0-0.2,0-0.5-0.1-0.7c-0.1-0.3-0.1-0.5-0.2-0.8c-0.1-0.3-0.2-0.5-0.3-0.8c-0.1-0.3-0.3-0.4-0.5-0.6c0,0-0.1-0.1-0.2-0.1
			c-0.2,0-0.4,0.2-0.4,0.4c0,0.9,0,1.8,0,2.6c0,0.1,0,0.2,0,0.3c-0.1,0.2-0.1,0.4-0.4,0.5c-0.5,0.1-1,0.3-1.5,0.3
			c-0.1,0-0.2,0-0.2,0.1c-0.3,0.3-0.5,0.6-0.7,0.9c-0.3,0.6-0.4,1.2-0.5,1.9c0,0.1,0.1,0.3,0.1,0.4c0,0.6,0.2,1.2,0.5,1.7
			c0.2,0.4,0.3,0.9,0.7,1.2c0,0,0,0.1,0,0.1c0,0-0.1,0-0.1,0c0,0,0,0-0.1-0.1c-0.3-0.1-0.6-0.3-0.8-0.4c-0.2-0.1-0.4-0.1-0.6,0
			c-0.2,0.1-0.2,0.3-0.2,0.6c0,1.2,0,2.4,0,3.6c0,0.4,0.1,0.8,0.3,1.2c0.1,0.3,0.3,0.6,0.6,0.9c0.5,0.5,1,0.9,1.7,1.2
			c0.2,0.1,0.4,0.2,0.6,0.3c0.3,0.1,0.3,0.1,0.4-0.2c0.1-0.3,0.2-0.7,0.3-1c0.3-0.7,0.6-1.4,1.5-1.6c0.2-0.1,0.3,0,0.4,0.1
			c0.1,0.2,0.3,0.4,0.4,0.6c0.2,0.4,0.5,0.7,0.9,0.8c0.6,0.2,1.3,0.2,2.1,0.1c0.9-0.2,1.6-0.6,2.4-1c0.3-0.1,0.5-0.3,0.8-0.4
			c0.5-0.2,1.1-0.3,1.6-0.5c0.6-0.2,1.3-0.4,1.8-0.8c0.2-0.2,0.5-0.5,0.6-0.8c0-0.1,0.1-0.1,0.1-0.2c0-0.1-0.1-0.1-0.1-0.2
			c-0.1-0.3-0.2-0.5-0.2-0.8c0-0.3-0.1-0.6,0.1-0.9c0-0.6,0.2-1.1,0.3-1.6c0-0.2,0-0.3,0-0.4c-0.4-0.5-0.5-1-0.5-1.6
			c0-0.5,0.2-0.9,0.5-1.3c0.2-0.3,0.5-0.5,0.7-0.7c0.2-0.2,0.5-0.4,0.8-0.5c0.6-0.3,1.2-0.6,1.8-0.6c0.2-0.2,0.4-0.1,0.6-0.1
			c0.2,0,0.4-0.1,0.6-0.1c0.2,0,0.3,0.1,0.5,0.1c0.3,0,0.5,0,0.8,0.1c0.6,0.1,1,0.4,1.5,0.7c0.1,0.1,0.1,0.2,0.2,0.2
			c-0.1,0-0.2,0-0.3,0c-0.6,0.1-1.2,0-1.9,0.1c-0.6,0.1-1.1,0.3-1.7,0.6c-0.5,0.2-1,0.6-1.5,0.9c0,0-0.1,0.1-0.1,0.2
			c0.2,0.3,0,0.6,0.1,0.9c-0.3,0.2,0,0.5,0,0.7c0,0.2,0.1,0.2,0.4,0.3c0.3,0,0.6-0.1,0.8-0.3c0.3-0.2,0.6-0.5,0.9-0.8
			c0.1-0.1,0.3-0.2,0.4-0.3c0.2-0.1,0.4-0.1,0.5-0.2c0.2-0.1,0.4,0,0.5,0c0.2,0,0.4-0.1,0.6-0.1c0,0,0.1,0,0.1,0
			c0.1,0,0.2,0.1,0.3,0.1c0.6-0.1,1.2,0.2,1.7,0.3c0.6,0.1,1.1,0.5,1.5,0.8c0.3,0.2,0.6,0.5,0.9,0.8c0,0,0,0.1,0,0.2
			c-0.1,0-0.1,0-0.2,0c-0.7-0.4-1.4-0.5-2.2-0.6c-0.7-0.1-1.4,0-2,0c-0.1,0-0.1,0-0.2,0c-0.3,0.3-0.6,0.4-0.8,0.6
			c-0.5,0.5-0.9,1.1-1.4,1.7c-0.5,0.6-1,1.1-1.7,1.4c-0.2,0.1-0.1,0.1,0,0.2c0.2,0.5,0.4,0.9,0.3,1.4c0,0.3,0,0.5,0,0.8
			c0,0.2-0.1,0.3-0.1,0.5c-0.1,0.4-0.2,0.7-0.4,1c-0.2,0.4-0.4,0.7-0.7,1.1c0,0-0.1,0.1-0.1,0.1c-0.2,0-0.3,0.1-0.5,0.1
			c-0.4,0-0.9,0.1-1.3,0.2c-0.5,0.1-1.1,0.2-1.6,0.3c-0.3,0.1-0.6,0.1-1,0.2c-0.3,0.1-0.7,0.1-1,0.2c-0.3,0.1-0.6,0-0.8,0.1
			c-0.3,0.2-0.6,0-0.9,0.2c-0.4,0-0.8,0.1-1.2,0.1c-0.2,0-0.5,0-0.6,0.1c-0.2,0.1-0.4,0.3-0.5,0.6c-0.3,0.5-0.3,1.1-0.4,1.7
			c0,0.2,0,0.5,0,0.7c0,0.3,0.2,0.4,0.5,0.3c0.1,0,0.2-0.1,0.3-0.1c1,0,2,0.1,3-0.1c0.4-0.1,0.9,0,1.3-0.1c0.7-0.1,1.4-0.2,2.1-0.7
			c0.6-0.4,1-1,1.1-1.7c0,0,0.1-0.1,0.1-0.1c0.4,0,0.8-0.1,1.1-0.2c0.7-0.2,1.3-0.3,2.1-0.8c0.8-0.4,1.5-0.9,2-1.7
			c0.3-0.4,0.5-0.8,0.5-1.3c0-0.1,0-0.1,0.1-0.2c0-0.1,0.1-0.2,0-0.2c-0.2-0.2,0-0.3,0.1-0.4c0.6-0.3,1.2-0.4,1.8-0.5
			c0.6,0,1.2-0.1,1.9,0.1c0.4,0.1,0.9,0.1,1.3,0.2c1,0.3,1.9,0.7,2.8,1.3c0.1,0.1,0.2,0.2,0.4,0.4c0,0,0,0.1,0,0.2c0,0-0.1,0-0.1,0
			c-0.1-0.1-0.2-0.2-0.4-0.3c-0.2-0.1-0.5-0.1-0.8-0.2c-0.3-0.1-0.5-0.2-0.8-0.2c-0.7,0-1.5-0.1-2.2,0.1c-0.3,0.1-0.6,0.2-0.9,0.4
			c-0.3,0.2-0.5,0.4-0.7,0.6c-0.1,0.1-0.1,0.2,0.1,0.2c0.3,0.1,0.4,0.2,0.1,0.5c-0.1,0.1-0.3,0.3-0.4,0.4c-0.2,0.2-0.2,0.4-0.2,0.6
			c0,0.1,0.1,0.2,0.2,0.2c0.2,0.1,0.4,0.1,0.6,0.1c0.2,0,0.5,0,0.7-0.1c0.3-0.1,0.7-0.3,1-0.5c0.6-0.4,1.2-0.6,1.9-0.6
			c0.2,0,0.3,0,0.5,0c0.4,0.1,1.1,0.5,1.4,0.8c0.7,0.6,1.1,1.4,1.4,2.3c0.1,0.4,0.3,0.8,0.3,1.3c0,0.5,0,1.1,0,1.6
			c0,0,0,0.1-0.1,0.1c0,0-0.1-0.1-0.1-0.1c-0.1-0.1,0-0.3-0.1-0.4c-0.2-0.6-0.6-1.2-0.9-1.7c-0.4-0.6-1-1.1-1.5-1.6
			c-0.1-0.1-0.3-0.2-0.4-0.2c-0.3,0-0.7,0-1,0c-0.3,0-0.6,0.1-0.9,0.1c-0.4,0.1-1.5,0.7-2,1c-0.4,0.3-0.9,0.5-1.4,0.8
			c-0.2,0.1-0.5,0.2-0.8,0.2c-0.5,0-1,0.1-1.5-0.2c-0.2-0.1-0.4-0.1-0.5-0.3c-0.1-0.1-0.2,0-0.2,0c0,0-0.1,0.1-0.1,0.1
			c-0.3,0.5-0.8,0.8-1.3,1.1c-0.5,0.3-1.1,0.5-1.7,0.7c-0.5,0.2-1,0.3-1.4,0.4c-0.3,0.1-0.6,0.2-0.8,0.3c-0.6,0.2-1,0.6-1.5,1
			c-0.2,0.1-0.3,0.3-0.4,0.5c0,0-0.1,0.1-0.1,0.2c0.1,0,0.1,0.1,0.2,0.1c0.1,0,0.2,0,0.3,0C99.5,79.6,113.2,79.6,126.9,79.6z
			 M109.7,84.9c-0.2,0-0.4,0-0.6,0.1c-0.2,0.1-0.5-0.1-0.7,0.1c-0.3-0.1-0.7,0.1-1,0.1c-0.1,0-0.2,0-0.3,0c-0.5,0.2-1,0.2-1.4,0.3
			c-0.5,0.1-0.9,0.1-1.4,0.2c-0.1,0-0.2,0.1-0.3,0.1c-0.2,0-0.5,0.1-0.7,0.1c-0.2,0-0.3,0.2-0.3,0.4c0.2,0.4,0.2,0.8,0.3,1.2
			c0.1,0.3,0.1,0.6,0.2,0.9c0,0.2,0.1,0.3,0.1,0.5c0,0.4,0.1,0.7,0.2,1.1c0,0.1,0.1,0.1,0.1,0.2c0.1,0.3,0.1,0.6,0.2,0.9
			c0.1,0.2,0.1,0.4,0.1,0.6c0,0.2,0.1,0.4,0.1,0.6c0,0.2,0.2,0.4,0.2,0.5c0,0.6,0.4,1.1,0.3,1.6c0.2,0.5,0.2,1,0.4,1.5
			c0.1,0.4,0.1,0.9,0.4,1.2c0,0,0,0.1,0,0.1c0,0.2,0,0.5,0.1,0.7c0.1,0.2,0.1,0.5,0.2,0.7c0.1,0.2,0,0.5,0.1,0.7
			c0,0.1,0.1,0.2,0.1,0.2c-0.1,0.1,0.1,0.2,0,0.3c0,0.1,0,0.2,0.1,0.3c0,0.1,0,0.2,0,0.3c0.1,0.2,0.2,0.5,0.2,0.7
			c0,0.3,0.1,0.5,0.2,0.8c0.1,0.3,0.1,0.7,0.2,1c0.2,0.5,0.2,1,0.4,1.5c0.1,0.3,0.1,0.6,0.2,0.9c0.1,0.2,0.2,0.4,0.2,0.6
			c0,0.3,0.1,0.5,0.2,0.7c0.1,0.2,0.1,0.5,0.2,0.7c0,0.1,0.1,0.2,0.1,0.3c0,0.2,0.1,0.5,0.2,0.7c0.1,0.3,0.2,0.7,0.2,1
			c0,0.2,0.1,0.3,0.1,0.5c0.2,0.1-0.1,0.3,0.1,0.4c0.1,0.1,0.2,0.3,0.1,0.5c0,0.1,0,0.2,0.1,0.3c0.1,0.5,0.3,1.1,0.4,1.6
			c0.1,0.3,0.1,0.5,0.2,0.8c0.1,0.3,0.1,0.5,0.2,0.8c0.1,0.3,0.2,0.6,0.2,0.9c0,0.2,0.1,0.4,0.1,0.6c0,0.2,0.1,0.5,0.2,0.7
			c0,0.2,0.1,0.2,0.3,0.2c0.8,0,1.7-0.1,2.5,0.1c0.3,0.1,0.6,0,0.8,0c0.2,0,0.4-0.1,0.6,0.1c0.1,0.1,0.4-0.1,0.4-0.2
			c0-0.2,0.1-0.3,0.1-0.5c0-0.3,0.1-0.5,0.2-0.8c0.1-0.3,0.1-0.5,0.2-0.8c0.1-0.4,0.2-0.8,0.3-1.2c0.1-0.4,0.2-0.8,0.3-1.3
			c0.1-0.3,0.2-0.6,0.3-0.9c0-0.3,0.2-0.6,0.2-1c0-0.3,0.1-0.6,0.2-0.9c0.2-0.6,0.3-1.1,0.5-1.7c0.1-0.5,0.3-1,0.4-1.5
			c0,0,0.1-0.1,0.1-0.1c0,0,0.1,0.1,0.1,0.1c0.1,0.4,0.1,0.8,0.3,1.2c0.1,0.1,0.1,0.3,0.1,0.5c0,0.4,0.2,0.7,0.3,1.1
			c0.2,0.7,0.4,1.4,0.6,2.2c0.1,0.3,0.2,0.7,0.3,1c0.1,0.4,0.2,0.8,0.3,1.1c0.1,0.5,0.3,1.1,0.4,1.6c0.1,0.3,0.2,0.6,0.2,1
			c0,0.3,0.1,0.6,0.3,0.9c0,0.1,0.1,0.1,0.2,0.1c0.3,0.1,0.6-0.1,0.9-0.1c0.5,0,0.9-0.2,1.4-0.1c0,0,0,0,0,0
			c0.2-0.2,0.4-0.1,0.7-0.1c0.2,0,0.4-0.1,0.7-0.1c0.3,0,0.5-0.1,0.8-0.1c0,0,0.1-0.1,0.1-0.1c0-0.1,0.1-0.2,0.1-0.3
			c0.1-0.5,0.2-1,0.4-1.4c0.2-0.6,0.3-1.1,0.4-1.7c0.1-0.2,0.1-0.5,0.2-0.7c0.1-0.3,0.1-0.5,0.2-0.8c0.1-0.1,0.1-0.3,0.1-0.5
			c0-0.2,0.1-0.4,0.1-0.6c0.2-0.2,0-0.5,0.2-0.6c0.2-0.5,0.2-1,0.4-1.5c0.1-0.3,0.1-0.6,0.2-0.9c0.1-0.3,0.1-0.6,0.2-0.9
			c0-0.1,0.1-0.2,0.1-0.3c0-0.3,0.1-0.5,0.2-0.7c0.1-0.5,0.2-0.9,0.3-1.4c0.1-0.5,0.3-1.1,0.4-1.6c0.1-0.2,0.2-0.4,0.2-0.6
			c0-0.3,0.1-0.5,0.2-0.8c0.1-0.3,0.1-0.5,0.2-0.8c0.1-0.6,0.3-1.2,0.4-1.8c0.1-0.3,0.1-0.6,0.2-0.9c0.1-0.2,0.1-0.5,0.2-0.7
			c0.1-0.4,0.2-0.8,0.3-1.2c0.1-0.2,0.1-0.5,0.2-0.7c0-0.5,0.3-1,0.3-1.5c0-0.2,0.1-0.4,0.1-0.5c0.2-0.6,0.3-1.1,0.4-1.7
			c0.1-0.3,0.1-0.7,0.2-1c0.1-0.3,0.2-0.6,0.3-0.9c0.1-0.3,0.2-0.7,0.2-1c0.1-0.3,0.1-0.7,0.2-1c0.1-0.2,0-0.3-0.1-0.3
			c-0.2-0.1-0.5-0.3-0.7-0.3c-0.3-0.1-0.7-0.2-1-0.3c-0.3-0.1-0.7-0.2-1-0.3c-0.5-0.2-1.1-0.3-1.6-0.5c-0.6-0.2-1.2-0.4-1.9-0.5
			c-0.6-0.1-0.6-0.1-0.7,0.5c0,0.4,0,0.7-0.1,1.1c-0.1,0.3-0.1,0.5-0.2,0.8c-0.1,0.2,0,0.5-0.1,0.7c-0.2,0.4-0.1,0.9-0.3,1.3
			c-0.1,0.3,0,0.6-0.1,0.8c-0.1,0.3,0,0.6-0.2,0.9c0,0.5-0.2,1-0.2,1.5c0,0,0,0.1,0,0.1c-0.1,0.3-0.2,0.5-0.2,0.8
			c0,0.3-0.1,0.5-0.1,0.8c-0.1,0.5-0.2,1-0.3,1.4c0,0.3-0.1,0.5-0.2,0.8c-0.1,0.4-0.2,0.8-0.2,1.2c0,0.5-0.2,1-0.2,1.5
			c0,0.1-0.1,0.1-0.1,0.2c-0.1-0.1-0.1-0.1-0.2-0.2c0,0,0-0.1,0-0.1c-0.2-0.6-0.5-1.3-0.6-1.9c-0.2-0.7-0.4-1.3-0.6-2
			c-0.1-0.3-0.2-0.5-0.3-0.8c0-0.3-0.2-0.6-0.2-0.9c-0.2-0.9-0.5-1.7-0.6-2.6c0-0.1-0.1-0.2-0.1-0.4c0-0.1-0.2-0.3-0.3-0.3
			c-0.3-0.1-0.5-0.1-0.8-0.1c-1.2,0-2.4,0-3.6,0c-0.1,0-0.2,0-0.3,0c-0.1,0-0.3,0.2-0.3,0.3c0,0.2,0.1,0.4-0.1,0.6
			c-0.1,0.2,0,0.5-0.1,0.6c0,0.5-0.3,1-0.3,1.6c-0.2,0.4-0.3,0.9-0.4,1.3c-0.1,0.4-0.2,0.9-0.3,1.3c-0.1,0.4-0.2,0.9-0.4,1.3
			c0,0.7-0.4,1.3-0.5,2c0,0.1-0.1,0.1-0.1,0.2c0,0-0.1,0-0.1,0c0,0-0.1,0-0.1-0.1c0-0.5-0.2-0.9-0.2-1.4c0-0.2,0-0.5-0.1-0.7
			c-0.1-0.3-0.1-0.5-0.2-0.8c-0.1-0.3-0.1-0.6-0.1-0.9c0-0.1,0-0.1,0-0.2c-0.2-0.5-0.2-1-0.3-1.5c0-0.3-0.2-0.6-0.1-0.9
			c-0.2-0.2,0-0.5-0.1-0.6c-0.1-0.2,0-0.4-0.1-0.5c-0.1-0.2-0.1-0.4-0.1-0.6c0-0.3,0-0.6-0.1-0.9c-0.1-0.2,0-0.4-0.1-0.6
			c-0.1-0.2,0-0.4-0.1-0.5c0-0.2-0.1-0.4-0.1-0.6c0-0.1-0.1-0.3-0.1-0.4c0-0.1,0.1-0.3,0-0.4c-0.1-0.2,0-0.4-0.1-0.6
			c-0.1-0.2-0.1-0.4-0.1-0.7c0,0,0-0.1,0-0.1c-0.2-0.2-0.1-0.5-0.2-0.7c-0.1-0.2-0.1-0.5-0.1-0.8c-0.1-0.4-0.1-0.4-0.4-0.4
			C109.8,84.9,109.8,84.9,109.7,84.9z M116.2,128.5c-0.2,0.2-0.3,0.3-0.4,0.4c-0.2,0.2-0.5,0.4-0.9,0.3c-0.3,0-0.6,0-0.9,0.1
			c0,0-0.1,0.1-0.1,0.1c0,0.1,0,0.1,0.1,0.2c0.3,0.2,0.6,0.4,0.9,0.4c0.4,0.1,0.7,0.3,1,0.4c0.3,0.1,0.7,0.3,1,0.5c0,0,0.1,0,0.1,0
			c0,0-0.1,0.1-0.1,0.1c-0.2,0-0.3,0-0.5,0c-0.2,0-0.4,0-0.5,0c0.1,0.2,0.1,0.3,0.2,0.5c0,0,0,0,0,0c0.1,0.2,0,0.3-0.2,0.3
			c-0.2,0-0.5,0-0.7,0c-0.2,0-0.4,0.2-0.6,0.3c0,0,0,0.1,0,0.1c0.1,0.3,0.1,0.5,0.1,0.8c0,0.1,0.1,0.3,0.2,0.4
			c0.4,0.3,0.8,0.6,1.3,0.9c0.2,0.1,0.4,0.2,0.6,0.1c0,0,0.1-0.1,0.1-0.1c0.5,0,1-0.2,1.6-0.3c0.1,0,0.2-0.1,0.2-0.2
			c0.1-0.2,0.1-0.4,0.2-0.5c0.1-0.2,0-0.3-0.1-0.4c-0.1-0.2-0.2,0-0.3,0c-0.1,0-0.2,0.1-0.3,0.1c-0.2,0.2-0.5,0.3-0.8,0.3
			c-0.1,0-0.1,0-0.2,0c0-0.1,0.1-0.1,0.1-0.2c0.1-0.2,0.2-0.3,0.4-0.5c0.2-0.1,0.3-0.3,0.4-0.5c0.2-0.1,0.3-0.3,0.4-0.4
			c-0.1-0.1-0.3-0.2-0.3-0.4c0-0.3-0.2-0.5-0.3-0.7c0-0.1-0.1-0.3-0.1-0.3c0.1-0.1,0.1-0.3,0.1-0.4c-0.1-0.5,0.1-1,0.1-1.5
			c0-0.1,0-0.1,0.1-0.2c0.2-0.2,0.6-0.3,0.9-0.1c0.1,0.1,0.2,0,0.2-0.1c0-0.3,0.2-0.5,0.2-0.7c0.1-0.4,0.3-0.7,0.6-1
			c0.1,0,0.1-0.1,0.1-0.1c0.1-0.2,0.3-0.2,0.5-0.3c0.2-0.1,0.4,0,0.6,0c0.2,0.1,0.4,0.2,0.6,0.3c0.6,0.2,1,0.5,1.6,0.7
			c0.3,0.1,0.4,0.3,0.6,0.5c0,0,0,0.1,0,0.2c-0.1,0.1,0,0.3-0.2,0.2c-0.1,0-0.3,0.1-0.4,0.1c-0.2,0-0.4,0.2-0.6,0.1
			c-0.4-0.2-0.6,0.2-0.9,0.2c0,0.2,0,0.4,0,0.6c0,0.1,0.1,0.1,0.1,0.2c0,0,0,0.1,0.1,0.1c0.2,0,0.3,0.1,0.5-0.1
			c0.1-0.1,0.1-0.1,0.2-0.1c0.4-0.1,0.7-0.1,1.1-0.2c0.2,0,0.3-0.1,0.5-0.1c0.1,0,0.1,0,0.2,0.1c0.1,0.2,0.3,0.5,0.4,0.7
			c0,0.1,0.1,0.2,0.2,0.3c-0.1,0-0.2,0.1-0.3,0.1c-0.2,0-0.3,0-0.5,0c-0.1,0-0.3,0-0.4,0c-0.2,0.2-0.4,0-0.6,0.2
			c-0.2,0.1-0.4,0.1-0.6,0.1c0,0-0.1,0.1-0.1,0.1c0,0,0.1,0.1,0.1,0.1c0.4,0,0.8,0.2,1.2,0.3c0.3,0,0.5,0.2,0.8,0.1
			c0.3-0.1,0.6-0.1,0.9-0.1c0.2,0,0.4,0.1,0.5,0.2c0.1,0.2,0.2,0.4,0.1,0.6c-0.1,0.1-0.1,0.2-0.1,0.4c0,0.3-0.1,0.6-0.5,0.7
			c-0.3,0.1-0.6,0.3-0.9,0.5c-0.1,0.1-0.1,0.2,0,0.2c0.3,0.1,0.4,0.4,0.6,0.5c0.1,0.1,0,0.1,0,0.1c-0.1,0.2-0.1,0.4-0.1,0.5
			c0,0.1,0,0.2,0.1,0.1c0.1-0.1,0.3,0,0.4-0.1c0.3-0.1,0.5-0.1,0.8-0.2c0.2,0,0.2,0,0.2-0.3c0-0.1,0-0.2,0-0.3c0-0.3,0-0.5,0-0.8
			c0-0.2,0.2-0.3,0.3-0.5c0,0,0.1-0.1,0.1-0.1c0.1-0.3,0.2-0.5,0.3-0.8c0,0,0.1-0.1,0.1-0.1c0,0,0,0.1,0,0.1c0,0.3,0.3,0.6,0.3,1
			c0,0,0.1,0.1,0.1,0.1c0,0,0.1,0,0.1-0.1c0.1-0.1,0.3-0.2,0.4-0.3c0.1-0.1,0.2,0,0.2,0.2c0,0.1,0,0.1,0,0.2c-0.2,0.5-0.2,1-0.2,1.5
			c0,0.2,0.1,0.2,0.2,0.2c0.2,0,0.4-0.2,0.4-0.3c0-0.2,0.1-0.5,0.1-0.7c0-0.2,0.1-0.3,0.1-0.4c0.3-0.7,0.8-1.3,1.4-1.8
			c0.1-0.1,0.3-0.2,0.4-0.3c0,0.1,0,0.3,0,0.4c0,0.1,0,0.2,0,0.3c0,0.3,0.2,0.4,0.3,0.6c0.1,0.1,0.3-0.1,0.4-0.2
			c0.1-0.1,0.2-0.2,0.4-0.3c0.1-0.1,0.3-0.1,0.4-0.3c0.2-0.2,0.3,0.1,0.5,0c0.2-0.1,0.4,0.1,0.6,0.1c0.1,0,0.9,0.3,1,0.3
			c0,0,0,0,0.1,0.1c0,0-0.1,0-0.1,0c-0.5,0.2-0.8,0.5-1.1,0.9c-0.1,0.1-0.1,0.3,0,0.4c0.2,0.2,0.5,0.1,0.7,0.2
			c0.1,0,0.3-0.1,0.4-0.1c0.4-0.3,0.8-0.3,1.2-0.5c0.3-0.1,0.7-0.2,0.9-0.4c0.4-0.3,0.9-0.6,1.4-0.9c0.6-0.4,1.2-0.9,1.8-1.3
			c0.6-0.4,1.2-0.9,1.8-1.4c0.6-0.4,1.1-0.9,1.6-1.3c0.5-0.4,0.9-0.8,1.4-1.2c0.6-0.5,1.2-1.1,1.7-1.6c0.3-0.3,0.6-0.6,0.9-0.9
			c0.1-0.1,0.3-0.2,0.3-0.3c0-0.2-0.2,0-0.4-0.1c0,0-0.1,0-0.1,0c-19.7,0-39.3,0-59,0c-12.7,0-25.4,0-38.1,0c-0.2,0-0.3,0-0.6,0
			c0.8,0.8,1.6,1.5,2.3,2.2c0,0,0,0,0,0c0.3,0.1,0.4,0.4,0.7,0.6c0.2,0.2,0.4,0.4,0.7,0.6c0.3,0.3,0.6,0.6,1,0.8
			c0.2,0.2,0.4,0.4,0.6,0.5c0.4,0.3,0.8,0.7,1.2,1c0.5,0.3,1,0.8,1.4,1.1c0.2,0.2,0.4,0.3,0.7,0.5c0.4,0.3,0.8,0.6,1.2,0.8
			c0,0,0.1,0,0.1,0c0.1-0.1,0.3-0.3,0.3-0.4c0.1-0.6,0.4-1.2,0.5-1.8c0-0.1,0.1-0.1,0.1-0.1c0,0,0.1,0.1,0.1,0.1
			c0.2,0.3,0.4,0.3,0.5,0c0-0.1,0.1-0.2,0.1-0.3c0.3-0.4,0.4-0.9,0.9-1.2c0.1-0.1,0.2-0.1,0.2,0c0.1,0.3,0.3,0.6,0.5,1
			c0.1,0.2,0.1,0.2,0.2,0.1c0.1,0,0.1-0.1,0.2-0.1c0.3-0.3,0.6-0.6,1-0.8c0.2-0.2,0.5-0.4,0.7-0.6c0.1-0.1,0.2-0.1,0.3-0.1
			c0.2,0,0.3-0.1,0.5-0.1c0.1,0,0.3-0.2,0.4,0c0,0.1-0.1,0.2-0.1,0.4c0,0.3-0.2,0.4-0.4,0.6c-0.1,0.2-0.3,0.3-0.4,0.5
			c-0.2,0.6-0.5,1-0.6,1.6c0,0,0,0.1-0.1,0.1c0,0,0.1,0,0.1,0c0.6-0.4,1.3-0.6,2-0.9c0.4-0.2,0.4-0.2,0.5,0.2c0,0.1,0.1,0.2,0.1,0.3
			c0,0.3,0.2,0.5,0.4,0.7c0,0,0.1,0,0.2,0c0.3-0.1,0.6-0.2,1-0.2c0.1,0,0.1,0,0.2,0c0.4,0.1,0.7,0.3,1.1,0.5
			c0.2,0.1,0.4,0.2,0.6,0.4c0.2,0.2,0.2,0.2,0,0.5c0,0.1,0,0.1-0.1,0.2c-0.2,0.1-0.1,0.2,0.1,0.3c0.2,0.2,0.5,0.3,0.7,0.4
			c0.2,0.1,0.3,0.1,0.3-0.1c0.1-0.2,0.1-0.4,0.1-0.6c0.1-0.4,0.2-0.7,0.2-1.1c0-0.2-0.1-0.4-0.3-0.5c-0.1,0-0.2-0.1-0.4-0.2
			c-0.3-0.2-0.4-0.5-0.2-0.7c0.2-0.2,0.2-0.5,0.4-0.7c0.1-0.1,0-0.2-0.2-0.3c-0.3,0-0.6,0-0.7,0.3c0,0-0.1,0.1-0.1,0.1
			c-0.3,0.1-0.4,0.3-0.4,0.6c0,0.1,0,0.3,0,0.4c0,0.1-0.1,0.2-0.1,0.4c0,0.1,0,0.1-0.1,0c-0.1-0.1-0.2-0.1-0.2-0.2
			c-0.1-0.3-0.2-0.5-0.3-0.8c0-0.3,0-0.5,0.1-0.8c0.2-0.4,0.5-0.8,0.8-1.2c0.1-0.2,0.1-0.2-0.1-0.2c0,0-0.1-0.1-0.1-0.1
			c-0.1-0.1-0.4-0.1-0.4-0.3c-0.1-0.2,0.3-0.2,0.4-0.4c0.3-0.3,0.7-0.6,1.2-0.5c0.3,0.1,0.5-0.1,0.6-0.3c0.1-0.2,0.2-0.3,0.4-0.5
			c0.3-0.5,0.5-0.6,0.9-0.8c0,0,0.1,0,0.1,0c0,0,0,0.1,0,0.1c-0.3,0.4-0.4,0.9-0.7,1.2c0,0,0,0.1,0,0.1c0,0,0,0,0.1,0
			c0.1,0,0.1,0,0.2-0.1c0.5-0.5,1.1-0.8,1.6-1.2c0.2-0.1,0.3-0.2,0.5-0.2c0.1,0,0.3,0,0.4,0c0.2,0,0.2,0.1,0.2,0.2
			c0,0.2,0.1,0.3,0.3,0.3c0.4,0.1,0.7,0.2,1.1,0.2c0,0,0.1,0,0.1,0.1c0,0,0,0.1-0.1,0.1c-0.4,0.2-0.7,0.4-1.1,0.6
			c-0.2,0.1-0.1,0.1,0,0.2c0.3,0.2,0.6,0.3,0.9,0.5c0.6,0.3,0.6,0.3,1.3,0.3c0.2,0,0.4,0,0.6,0c0,0,0.1,0,0.1,0c0,0,0,0.1-0.1,0.1
			c-0.1,0.2-0.2,0.3-0.4,0.5c-0.1,0.2-0.1,0.2,0.1,0.3c0.2,0.1,0.4,0.1,0.5,0.3c0.2,0.2,0.4,0.3,0.6,0.4c0,0,0.1,0,0.1,0
			c0.4-0.2,0.9-0.3,1.1-0.7c0-0.1,0.2-0.2,0.2-0.3c0.1-0.1,0.2-0.1,0.3,0c0.1,0.1,0.3,0.3,0.5,0.3c0.2,0,0.4-0.2,0.6-0.3
			c0.2-0.1,0.3-0.3,0.5-0.5c0.1-0.1,0.2-0.1,0.3-0.2c0.4-0.2,0.4-0.2,0.4,0.3c0,0.1,0,0.1,0,0.2c0,0.1,0,0.2,0.1,0.1
			c0.1,0,0.3,0,0.4,0c0.3,0,0.6,0,0.9,0.2c0.1,0.1,0.3,0.1,0.4,0.1c0.3,0,0.6,0,0.8,0c0,0,0.1,0,0.1,0c0,0.1,0,0.1-0.1,0.2
			c-0.1,0.1-0.2,0.2-0.2,0.2c-0.1,0.1-0.2,0.2-0.3,0.3c0,0-0.1,0.1-0.1,0.2c0.1,0,0.1,0.1,0.2,0c0.3,0,0.7,0.1,1-0.1
			c0,0,0.1,0,0.1,0.1c0,0-0.1,0.1-0.1,0.1c-0.2,0-0.4,0-0.6,0.1c-0.3,0.1-0.6,0.1-0.7,0.4c0,0,0,0.1,0,0.1c0,0,0.1,0,0.1,0
			c0.4,0,0.8,0,1.1,0c0.1,0,0.3,0,0.4,0.1c0.2,0.2,0.4,0.2,0.6,0.3c0.2,0.1,0.3,0.2,0.4,0.4c0,0.1,0.2,0.2,0.3,0.3
			c0.3,0,0.6,0.1,0.9,0c0.2-0.1,0.4-0.3,0.5-0.5c0,0,0,0,0,0c0.3-0.3,0.2-0.4-0.1-0.6c0,0-0.1,0-0.1-0.1c0,0-0.1-0.1-0.1-0.2
			c0-0.3,0-0.6,0.2-0.8c0.2-0.2,0.1-0.2,0-0.4c-0.4-0.3-0.8-0.6-1.1-0.9c-0.1-0.1-0.1-0.1,0-0.2c0.1-0.1,0.2-0.1,0.2-0.2
			c0.2-0.1,0.3-0.3,0.3-0.5c0-0.2,0-0.3,0-0.6c0.2,0.3,0.4,0.5,0.5,0.7c0.4,0.3,0.5,0.7,0.8,1.1c0.1,0.2,0.2,0.4,0.3,0.6
			c0,0.1,0.1,0.2,0.1,0.2c0.2,0.1,0.3,0.2,0.5,0.3c0.1,0.1,0.2,0.1,0.3-0.1c0-0.2,0.2-0.3,0.3-0.5c0.1-0.3,0.4-0.5,0.7-0.6
			c0.2,0,0.2-0.1,0.3-0.2c0.1-0.4,0.3-0.8,0.4-1.2c0-0.1,0.1-0.2,0.1-0.2c0.2-0.1,0.4-0.2,0.6-0.4c0.1-0.1,0.1,0,0.1,0.1
			c0,0.2-0.1,0.4-0.1,0.6c0,0.4,0.3,0.6,0.6,0.4c0.1,0,0.1-0.1,0.2-0.1c0.1,0,0.2,0,0.2,0.1c0,0.5,0.2,0.9,0.2,1.3
			c0,0,0,0.1,0.1,0.1c0,0,0.1,0,0.1,0c0-0.1,0.1-0.1,0.1-0.2c0.3-0.3,0.6-0.6,0.9-1c0.3-0.4,0.8-0.5,1.3-0.3
			c0.2,0.1,0.2,0.2,0.1,0.3c-0.2,0.2-0.3,0.3-0.5,0.5c-0.1,0.1-0.1,0.1-0.2,0.2c-0.3,0.7-0.5,1.4-0.9,2c0,0.1-0.1,0.1-0.1,0.2
			c0,0,0.1,0.1,0.1,0.1c0.3,0,0.6,0,0.8,0c0.1,0,0.2-0.1,0.2-0.1c0.1-0.2,0.3-0.3,0.4-0.5c0.1-0.2,0.2-0.1,0.2,0
			c0.2,0.2,0.2,0.4,0,0.5c-0.1,0.1-0.1,0.1-0.2,0.2c-0.1,0.2-0.3,0.3-0.3,0.5c0,0.2,0.2,0.3,0.4,0.4c0,0,0.1,0.1,0.1,0.1
			c0,0,0.1,0,0.1,0c0.3-0.2,0.8-0.2,0.9-0.6c0-0.1,0.1-0.2,0.1-0.2c0,0,0.1-0.1,0.1-0.1c0,0,0,0.1,0,0.1c0,0.3,0.1,0.6,0.3,0.8
			c0,0.1,0.1,0.1,0.2,0c1.1-0.5,2.1-1.1,3.2-1.6c0.2-0.1,0.3-0.2,0.5-0.1c0.2,0,0.3,0,0.5,0c0,0,0.1,0.1,0.1,0.1c0,0,0,0.1-0.1,0.1
			c-0.3,0.1-0.5,0.4-0.6,0.6c-0.1,0.2-0.2,0.4-0.3,0.7c0,0.1,0,0.1-0.1,0.2c0.1,0,0.1-0.1,0.2-0.1c0.4,0,0.7-0.1,1.1-0.2
			c0,0,0.1,0,0.1,0c0,0,0,0.1,0,0.1c-0.1,0.2-0.2,0.4-0.3,0.6c-0.1,0.1-0.1,0.3-0.1,0.5c0,0.1,0.1,0.2,0.1,0.2c0,0,0.2,0,0.2-0.1
			c0.3-0.3,0.5-0.6,0.8-0.9c0.1-0.1,0.2-0.2,0.2-0.3c0.3-0.6,0.7-1.2,1-1.8c0.3-0.5,0.6-1.1,0.9-1.6c0.4-0.5,0.4-0.5,1-0.8
			c0.2-0.1,0.4-0.1,0.6,0c0.3,0.2,0.6,0.2,1,0c0.2-0.1,0.5-0.2,0.7-0.3c0.2,0.2,0.4,0.3,0.5,0.5c0,0,0,0,0,0c0,0.3,0.2,0.3,0.4,0.2
			c0.5,0,1.1,0,1.6,0c0.3,0,0.3,0.1,0.3,0.4c0,0.1,0,0.1,0,0.2c0.2,0.3,0.2,0.6,0.4,0.8c0,0.1,0.1,0.2,0.2,0.2
			c0.4,0,0.7,0.1,1.1,0.1C115.6,128.5,115.8,128.5,116.2,128.5z M34.7,98.3c0,2.4,0,4.8,0,7.1c0,0.2,0.1,0.4-0.1,0.6
			c0,0,0,0.1,0,0.1c0.2,0.1,0.1,0.3,0.1,0.4c0,0.9,0,1.7,0,2.6c0,0.1,0,0.2-0.1,0.4c-0.1,0.2,0,0.4,0,0.6c0,0.1,0.1,0.2,0,0.3
			c-0.2,0.3,0,0.7-0.1,1c0.2,0.4,0,0.9,0.1,1.4c-0.2,0.3-0.1,0.6-0.1,0.9c0,0.2,0.1,0.3,0.3,0.3c1.5,0,3.1,0,4.6,0
			c0.1,0,0.2-0.1,0.2-0.2c0-0.1,0-0.2,0-0.3c0-1.8,0-3.6,0-5.3c0-0.3,0.1-0.4,0.3-0.5c0.1,0,0.2-0.1,0.2-0.1c0.1-0.2,0.2,0,0.3,0.1
			c0.2,0.3,0.3,0.5,0.4,0.8c0.1,0.4,0.3,0.7,0.4,1.1c0.1,0.4,0.4,0.8,0.5,1.1c0.1,0.2,0.2,0.4,0.3,0.6c0.1,0.4,0.3,0.7,0.5,1.1
			c0.1,0.2,0.2,0.4,0.3,0.5c0,0.2,0.2,0.4,0.2,0.6c0.1,0.3,0.2,0.5,0.3,0.8c0.1,0.1,0.1,0.2,0.3,0.1c0.8-0.4,1.7-0.6,2.6-0.9
			c0.1,0,0.1,0,0.2,0c0,0.1,0,0.1,0,0.2c-0.1,0.3-0.1,0.3,0.3,0.4c0.4,0.1,0.8,0.1,1.2,0.1c0.6,0,1.1,0,1.7,0c0.6,0,1.1-0.1,1.7-0.1
			c0.2,0,0.2,0,0.3-0.2c0.1-0.3,0.1-0.5,0.2-0.8c0.1-0.3,0-0.6,0.1-0.9c0.1-0.3,0.1-0.5,0.1-0.8c0-0.3,0.1-0.5,0.1-0.8
			c0.1-0.6,0.2-1.2,0.2-1.8c0-0.2,0.1-0.3,0.3-0.3c0.7,0,1.3,0.1,2-0.1c0.4,0.2,0.8,0,1.2,0.1c0.1,0,0.3-0.1,0.4,0
			c0.2,0.1,0.4,0.1,0.6,0.1c0.2,0,0.4,0.1,0.6,0.1c0.1,0,0.2,0,0.2,0c0.1,0.1,0.1,0.2,0.1,0.2c0,0.2,0.1,0.4,0.1,0.6
			c0,0.2,0.1,0.4,0.1,0.6c-0.1,1.1,0.2,2.2,0.1,3.3c0,0.3,0,0.5,0,0.8c0,0.2,0,0.2,0.2,0.2c1.7,0,3.5,0,5.2,0c0,0,0.1,0,0.1,0
			c0.1,0,0.1-0.1,0.1-0.2c0-0.1-0.1-0.1-0.1-0.2c-0.1-0.3-0.1-0.6-0.2-0.9c-0.1-0.2,0-0.4-0.1-0.6c0-0.1,0-0.2,0-0.2
			c0.1,0,0.1,0,0.2,0.1c0.2,0.1,0.4,0.3,0.6,0.4c0.6,0.4,1.2,0.8,1.8,1.1c0.5,0.3,0.7,0.3,1.1-0.2c0.3-0.5,0.7-0.9,1.1-1.4
			c0.3-0.4,0.7-0.7,0.9-1.2c0.4-0.6,0.9-1.2,1.3-1.9c0.3-0.5,0.6-1,0.9-1.5c0.2-0.3,0.4-0.7,0.5-1.1c0.1-0.2,0.2-0.4,0.2-0.6
			c0-0.2,0.2-0.4,0.2-0.7c0-0.2,0-0.5,0-0.7c0-0.2,0-0.3,0-0.5c0-0.2,0-0.5-0.1-0.7c-0.2-0.4-0.4-0.8-0.6-1.2
			c-0.6-0.9-1.1-1.7-1.7-2.5c-0.4-0.6-0.8-1.2-1.1-1.8c-0.2-0.4-0.4-0.9-0.3-1.4c0-0.1,0-0.2,0-0.3c0-0.3,0.1-0.6,0.2-0.9
			c0.3-0.7,0.7-1.3,1.2-1.8c0.7-0.6,1.3-1.3,2-1.9c0,0,0.1-0.1,0.1-0.1c0.3,0,0.2-0.1,0.1-0.2c-0.4-0.4-0.8-0.7-1.3-1
			c-0.6-0.4-1.2-0.8-1.7-1.2c-0.4-0.3-0.9-0.6-1.3-0.9c-0.1-0.1-0.2-0.2-0.4-0.2c-0.2,0-0.2,0.2-0.4,0.3c-0.2,0-0.2,0.2-0.3,0.4
			c-0.2,0.2-0.5,0.5-0.7,0.7c-0.2,0.2-0.4,0.5-0.7,0.8c-0.3,0.3-0.6,0.6-0.8,1c-0.1,0.2-0.4,0.4-0.5,0.6c-0.2,0.4-0.5,0.8-0.8,1.1
			c-0.2,0.4-0.5,0.8-0.6,1.2c-0.2,0.5-0.4,1-0.4,1.6c0,0.2,0.1,0.5,0.1,0.7c0,0.4,0.2,0.8,0.3,1.1c0.1,0.5,0.4,1,0.6,1.4
			c0.3,0.6,0.7,1.2,1.1,1.8c0.3,0.5,0.7,1,1,1.5c0.3,0.5,0.6,1,0.8,1.5c0.2,0.4,0.3,0.9,0.3,1.3c0,0.2-0.1,0.4-0.1,0.7
			c0,0.4-0.2,0.6-0.2,1c-0.3,0.6-0.6,1.2-1.1,1.7c-0.4,0.5-1,0.8-1.5,1.2c-0.2,0.1-0.3,0.1-0.4-0.1c-0.2-0.3-0.2-0.6-0.3-0.9
			c-0.1-0.3-0.1-0.5-0.2-0.8c-0.1-0.3-0.1-0.6-0.2-0.8c-0.1-0.2-0.1-0.4-0.1-0.7c-0.1-0.2,0-0.5-0.1-0.7c-0.1-0.2-0.1-0.5-0.2-0.7
			c0-0.2-0.1-0.5-0.1-0.8c0-0.1-0.1-0.2-0.1-0.4c0-0.1,0-0.3,0-0.4c-0.2-0.5-0.2-1-0.3-1.5c0-0.3-0.2-0.6-0.1-0.9
			c-0.2-0.2,0-0.4-0.1-0.7c-0.1-0.3-0.2-0.7-0.2-1c0-0.3-0.2-0.6-0.1-0.9c-0.2-0.2,0-0.6-0.2-0.8c0-0.3,0-0.5-0.1-0.8
			c-0.1-0.4-0.1-0.8-0.2-1.2c0-0.3-0.1-0.5-0.1-0.8c0-0.3-0.1-0.6-0.1-0.9c0-0.1,0-0.2,0-0.2c-0.2-0.1-0.1-0.3-0.1-0.5
			c0-0.2-0.1-0.3-0.1-0.5c0-0.4,0-0.7-0.1-1.1c-0.1-0.3,0-0.5-0.1-0.8c-0.1-0.2-0.1-0.3-0.1-0.5c0-0.2-0.1-0.3-0.1-0.5
			c0-0.4-0.1-0.7-0.1-1.1c0-0.4-0.2-0.5-0.6-0.5c-0.1,0-0.1,0-0.2,0c-1.6,0-3.3,0-4.9,0c-0.1,0-0.3,0-0.4,0c-0.4-0.2-0.8,0-1.3-0.1
			c-0.1,0-0.3,0-0.3,0.1c-0.1,0.1,0,0.2,0,0.3c0,0.3-0.2,0.6-0.1,1c0,0,0,0,0,0c-0.2,0.5-0.3,1-0.3,1.6c0,0,0,0.1,0,0.1
			C51.1,91.7,51,92,51,92.3c-0.1,0.5-0.1,0.9-0.2,1.4c0,0.1-0.1,0.2-0.1,0.4c0,0.3-0.2,0.5-0.1,0.8c-0.2,0.1,0,0.4-0.1,0.5
			c-0.2,0.2,0,0.4-0.1,0.6c-0.1,0.1,0,0.4-0.1,0.5c0,0.5-0.2,0.9-0.2,1.4c-0.2,0.2-0.1,0.4-0.1,0.6c-0.1,0.4-0.2,0.8-0.3,1.2
			c0,0.2-0.1,0.5-0.1,0.7c-0.1,0.4-0.2,0.8-0.3,1.2c0,0.1-0.1,0.3-0.1,0.4c0,0.2-0.1,0.3-0.1,0.4c0,0.2-0.1,0.3-0.1,0.5
			c-0.1,0.4-0.2,0.7-0.3,1.1c-0.1,0.4-0.1,0.9-0.3,1.3c0,0,0,0,0,0c0,0.4-0.3,0.8-0.2,1.2c-0.3,0.5-0.2,1.1-0.5,1.6
			c-0.1,0.2-0.1,0.4-0.1,0.6c0,0.4-0.3,0.6-0.3,1c0,0,0,0.1-0.1,0.1c0,0.1-0.1,0.1-0.2,0c-0.1-0.1-0.1-0.1-0.1-0.2
			c-0.2-0.4-0.4-0.8-0.5-1.2c-0.3-0.8-0.6-1.5-0.7-2.3c0-0.2-0.1-0.4-0.2-0.6c-0.1-0.2-0.1-0.3-0.2-0.5c-0.1-0.2,0-0.4-0.1-0.6
			c-0.1-0.2,0-0.4-0.2-0.6c-0.1-0.1,0-0.4,0.1-0.5c0.1-0.2,0.3-0.2,0.4-0.4c0.4-0.5,0.9-0.9,1.3-1.4c0.2-0.3,0.4-0.6,0.6-1
			c0.3-0.6,0.6-1.2,0.8-1.8c0.1-0.3,0.2-0.7,0.2-1c0-0.6,0.1-1.1-0.1-1.7c-0.1-0.5-0.3-1.3-0.5-1.7c-0.4-0.6-0.7-1.3-1.1-1.9
			c-0.4-0.5-0.7-1-1.2-1.5c-0.6-0.6-1.1-1.2-1.8-1.7c-0.2-0.2-0.5-0.3-0.8-0.4c-0.3-0.1-0.6-0.2-0.9-0.2c-0.2-0.2-0.4-0.1-0.6-0.1
			c-0.2,0-0.4-0.1-0.6-0.1c-1.3,0-2.6,0.1-4-0.1c-0.6-0.1-1.2,0-1.7,0c-0.4,0-0.4,0-0.4,0.4c0,0.2,0,0.4,0,0.6s0,0.4,0,0.6
			c0,0.2,0.1,0.4-0.1,0.6c0.2,0.2,0.1,0.4,0.1,0.6C34.7,93.6,34.7,95.9,34.7,98.3z M30.8,88.5c-0.9,0-1.8,0-2.7,0
			c-0.2,0-0.2,0-0.2,0.2c0,0.6,0,1.2,0.1,1.8c0.1,0.6,0,1.2,0,1.7c0,0.6,0.1,1.2,0.1,1.8c0,1.2,0,2.3,0,3.5c0,1.2,0,2.4,0,3.5
			c0,1.2,0.1,2.3-0.1,3.5c0.1,0.9-0.2,1.8-0.1,2.8c0,0,0,0.1,0,0.1c-0.1,0.1-0.1,0.4-0.3,0.4c-0.4,0-0.8,0-1.2,0
			c-0.1-0.2-0.3-0.1-0.5-0.1c-0.2,0-0.4-0.1-0.6-0.1c-0.5,0-0.9-0.2-1.4-0.3c-0.2-0.1-0.4-0.3-0.4-0.6c0-0.6-0.1-1.2,0.1-1.9
			c0.1-0.4,0-0.8,0-1.1c0-0.4,0.1-0.8,0.1-1.2c0-0.5-0.1-1.1,0.1-1.6c0.1-0.3,0-0.7,0-1c0-0.4,0.1-0.7,0.1-1.1c0-0.7,0-1.4,0-2
			c0-0.7,0-1.3-0.1-2c-0.1-0.7,0-1.5-0.1-2.2c-0.1-0.6,0-1.3-0.1-1.9c-0.1-0.3,0-0.7,0-1c0-0.3-0.1-0.7-0.1-1c0-0.1,0-0.1-0.1-0.1
			c-0.6,0-1.2,0-1.8-0.1c-0.6-0.1-1.3,0-1.9-0.1c-0.5-0.1-1.1,0-1.6,0c-0.2,0-0.3,0.1-0.3,0.3c0,0.1,0.1,0.2,0.1,0.3
			c0,0.2,0,0.5,0,0.7c0,0.2,0.1,0.5,0.1,0.7c0,0.3-0.1,0.6,0.1,0.9c-0.1,0.5,0.1,0.9,0.1,1.4c0,0.7,0.1,1.4,0.1,2.2c0,0,0,0,0,0
			c0.1,0.2,0.1,0.4,0.1,0.7c0,0.2,0.1,0.4,0.1,0.7c0,0.3,0,0.7,0,1c0,0.3,0,0.6,0.1,1c0.1,0.3,0,0.7,0,1c0,3.2,0,6.4,0,9.5
			c0,0.3,0.2,0.5,0,0.8c0.2,0.2,0.1,0.4,0.1,0.6c0,0.2,0.1,0.3,0.2,0.5c0.2,0.4,0.6,0.5,0.8,0.8c1,0.6,2,1.2,3,1.8
			c0.6,0.3,1.3,0.6,1.9,0.9c0.2,0.1,0.3,0.1,0.5,0.1c0.1,0,0.3,0,0.4-0.1c0.5-0.3,1-0.6,1.4-0.9c0.3-0.2,0.5-0.3,0.8-0.5
			c0.2-0.1,0.2-0.1,0.2,0.1c0,0.2,0,0.4,0,0.6c0,0.2,0.1,0.4,0.1,0.6c0.2,0,0.4,0.1,0.6,0c0.2-0.1,0.4-0.1,0.6-0.1
			c0.1,0,0.1-0.1,0.2-0.1c0.1,0,0.1,0.2,0.2,0c0.3,0,0.7-0.2,1-0.1c0.1,0,0.2,0,0.2,0c0.2-0.1,0.4-0.1,0.7-0.2
			c0.4-0.1,0.8-0.1,1.2-0.1c0.1,0,0.2,0,0.2-0.1c0-0.1,0-0.3,0-0.4c0-4.1,0-8.2,0-12.3c0-0.7-0.1-1.5,0.1-2.2c0.1-0.3,0-0.7,0-1
			c0-0.4,0.1-0.7,0.1-1.1c0-0.5,0-1,0.1-1.6c0.1-0.6,0-1.2,0.1-1.8c0.1-0.4-0.1-0.9,0.1-1.4c-0.1-0.8,0.1-1.6,0.1-2.4
			c0-0.2-0.1-0.3,0.1-0.5c0.1-0.1-0.1-0.2-0.2-0.2c-0.1,0-0.2,0-0.3,0C32.5,88.5,31.7,88.5,30.8,88.5z M9.3,117.2c0.4,0,0.7,0,1.1,0
			c0.4,0,0.9-0.1,1.3-0.1c0.5-0.3,1.1-0.4,1.7-0.7c1-0.5,1.6-1.4,2.1-2.3c0.2-0.4,0.3-0.8,0.4-1.1c0.1-0.4,0.1-0.8,0.2-1.2
			c0.1-0.2,0-0.5,0-0.7c0-0.3,0.1-0.5,0.1-0.8c0-0.9,0-1.9,0-2.8c0-1,0-1.9,0-2.9c0-0.9-0.1-1.9,0.1-2.8c0-1.6-0.1-3.2,0.1-4.9
			c0.1-0.5,0-1,0-1.5c0-0.5,0-1,0.1-1.5c0.1-0.9,0-1.9,0.1-2.8c0.1-0.5,0-1,0.1-1.6c0.1-0.5,0-1,0.1-1.5c0.1-0.2,0-0.5,0.1-0.7
			c0.1-0.1,0-0.3,0-0.4c0-0.1-0.1-0.2-0.2-0.2c-0.2,0.1-0.4-0.1-0.7-0.1c-0.2,0-0.3-0.1-0.5-0.1c-0.2,0-0.3,0-0.5-0.1
			c-0.2-0.1-0.5-0.1-0.7-0.1c-0.2,0-0.5-0.1-0.7-0.1c-0.3,0-0.5-0.1-0.8-0.1c-0.4-0.1-0.9-0.1-1.3-0.3c-0.3-0.1-0.6,0-0.8-0.1
			c-0.2-0.1-0.5,0-0.7-0.2c-0.4,0-0.7-0.2-1.1-0.2c-0.4,0-0.4,0.1-0.3,0.4c0,0.1,0.1,0.1,0.1,0.2c0,0.2,0,0.5,0,0.7
			c0,0.2,0.1,0.4,0.1,0.7c0,0.7,0,1.4,0.1,2.1c0.1,0.6,0,1.2,0.1,1.9c0.1,0.4,0,0.9,0.1,1.3c0.1,0.4,0,0.8,0,1.2
			c0,0.4,0.1,0.8,0.1,1.2c0,0.4,0,0.9,0.1,1.3c0.1,0.3,0,0.6,0,0.9c0,0.3,0.1,0.6,0.1,0.9c0,0.6-0.1,1.2,0.1,1.8c0.1,0.3,0,0.7,0,1
			c0,0.3,0.1,0.7,0.1,1c0,0.2,0,0.5,0,0.7c0,0.2,0,0.5,0,0.7c0,0.2,0,0.5,0,0.7s0,0.5,0,0.7c0,0.2-0.1,0.5,0.1,0.7
			c-0.1,0.2-0.1,0.4-0.1,0.7c-0.1,0.8,0.1,1.5-0.1,2.3c-0.1,0.4-0.2,0.9-0.2,1.3c0,0.3-0.2,0.5-0.4,0.7c-0.2,0.2-0.5,0.3-0.8,0.4
			c-0.4,0-0.9,0-1.3,0c-0.4,0-0.8-0.2-1.3-0.1c-0.2-0.2-0.6,0-0.8-0.2c-0.2-0.1-0.4-0.1-0.6-0.1c-0.1,0-0.2,0-0.2,0.2
			c0,0,0,0.1,0,0.1c0.2,0.6,0,1.2,0.2,1.7c0,0.1-0.1,0.2-0.1,0.3c0,0.1,0.1,0.2,0.1,0.3c0,0.3,0,0.7,0,1c0,0.3,0.1,0.6,0.1,1
			c0,0.6,0.1,1.2,0.1,1.9c0,0,0.1,0.1,0.1,0.1c0.4,0,0.8,0.2,1.3,0.2c0.1,0,0.2,0,0.2,0c0.1,0.1,0.3,0.1,0.4,0.1
			c0.1,0,0.3,0.1,0.4,0.1c0.7,0,1.3,0.2,2,0.1C8.9,117.2,9.1,117.2,9.3,117.2z M170.1,89.9c0-0.4,0-0.7,0-1.1c0-0.2-0.1-0.3-0.3-0.4
			c-0.4,0-0.9-0.1-1.3-0.1c-0.2,0-0.5,0-0.7,0c-0.4,0-0.8,0-1.2,0c-0.4,0-0.8,0-1.3,0.1c-0.4,0.1-0.8,0-1.2,0c0,0-0.1,0-0.1,0
			c-0.2,0-0.2,0.1-0.1,0.3c0,0.1,0.1,0.3,0.1,0.4c0,0.2,0,0.5,0,0.7c0,0.2,0.1,0.4,0.1,0.7c0,0.5,0,1.1,0.1,1.6
			c0.1,0.4,0,0.9,0.1,1.4c0.1,0.7,0,1.5,0.1,2.3c0.1,0.9,0,1.9,0,2.8c0,0.9,0,1.9,0,2.8c0,0.9,0.1,1.8-0.1,2.8
			c-0.1,0.5,0,1.1-0.1,1.7c-0.1,0.4,0,0.9-0.1,1.3c-0.1,0.7,0,1.5-0.1,2.2c-0.1,0.9,0,1.8-0.1,2.7c-0.1,0.5-0.1,1.1,0.1,1.6
			c0.1,0.2,0.1,0.3,0.3,0.3c0.5,0,1.1,0,1.6,0c0.5,0,1.1,0.1,1.6-0.1c0.7,0.1,1.4-0.1,2.1-0.1c0.7,0,1.3,0,2,0
			c0.3,0,0.6,0.1,0.8-0.1c0,0,0.1,0,0.2,0c0.1,0.1,0.2,0.1,0.3,0.1c0.4,0,0.8,0,1.2,0c0.5,0,0.9,0,1.4,0c0.5,0,0.9,0.1,1.4,0.1
			c0,0,0.1,0,0.1,0c0.4,0.2,0.8,0.1,1.2,0.1c0.2,0,0.3-0.1,0.3-0.2c0-0.3,0-0.6,0-0.9c0-0.3,0.1-0.6,0.1-1c0-0.4,0-0.7,0-1.1
			c0-0.4-0.1-0.7-0.1-1.1c0-0.2,0-0.4-0.1-0.6c-0.1-0.1-0.1-0.2-0.1-0.4c-0.1-0.3-0.1-0.3-0.4-0.3c-0.7,0-1.3-0.1-2,0.1
			c-0.4,0.1-0.8,0-1.1,0c-0.4,0-0.7,0.1-1.1,0.1c-0.3,0-0.6,0-0.9,0c-0.5,0-1.1-0.1-1.6,0.1c-0.1,0-0.2,0-0.2,0
			c-0.1-0.2-0.3-0.1-0.5-0.1c-0.2,0-0.4,0-0.5,0c-0.1,0-0.1,0-0.2-0.1c0-0.1-0.1-0.2-0.1-0.3c0-0.4,0-0.7,0-1.1c0-0.3,0-0.7,0-1
			c0-0.4-0.1-0.7-0.1-1.1c0-0.9,0-1.9,0-2.8c0-0.9,0-1.8,0.1-2.8c0.1-1-0.1-2,0.1-3c0.1-0.6,0-1.2,0.1-1.9c0.1-0.5,0-1,0.1-1.5
			c0.1-0.3,0-0.7,0-1.1c0-0.4,0.1-0.7,0.1-1.1C170.1,90.4,170.1,90.1,170.1,89.9z M149.3,100.9c0-0.6,0-1.1,0-1.7
			c0-0.5,0-0.9-0.1-1.4c-0.1-0.4-0.2-0.9-0.2-1.3c0,0,0-0.1,0-0.1c-0.1-0.3-0.2-0.7-0.3-1c-0.1-0.6-0.3-1.2-0.6-1.8
			c-0.3-0.7-0.6-1.3-0.9-1.9c-0.3-0.5-0.7-1-1-1.5c-0.4-0.4-0.8-0.9-1.3-1.2c-0.6-0.4-1.2-0.8-1.9-1.1c-0.7-0.3-1.5-0.5-2.3-0.4
			c-0.3,0-0.6,0-0.9,0c-0.4,0-0.8,0.1-1.3,0.1c-0.2,0.2-0.4,0.1-0.6,0.1c-0.5,0.2-1.1,0.4-1.6,0.7c-0.2,0.1-0.3,0.2-0.5,0.3
			c-0.6,0.2-1,0.8-1.5,1.2c-0.2,0.3-0.5,0.6-0.7,0.9c-0.2,0.3-0.4,0.6-0.6,0.9c-0.2,0.3-0.4,0.7-0.6,1c-0.1,0.3-0.2,0.6-0.3,0.9
			c-0.1,0.2-0.2,0.4-0.3,0.6c-0.1,0.6-0.4,1.2-0.4,1.8c-0.2,0.1-0.1,0.3-0.1,0.5c0,0.2-0.1,0.3-0.1,0.5c0,0.2-0.1,0.3-0.1,0.5
			c0,0.3,0,0.7-0.1,1c-0.1,0.6-0.1,1.2-0.1,1.9c0,0.2-0.1,0.4,0.1,0.5c0,0.2-0.1,0.3-0.1,0.5c0,0.2,0.1,0.4,0.1,0.6
			c0,0.4,0,0.8,0.1,1.3c0.1,0.4,0.1,0.8,0.1,1.3c0,0,0,0.1,0,0.1c0.2,0.4,0.2,0.8,0.3,1.2c0.1,0.4,0.2,0.8,0.3,1.2
			c0.2,0.7,0.4,1.3,0.7,2c0.3,0.7,0.6,1.3,1,1.9c0.3,0.6,0.8,1.1,1.3,1.6c0.2,0.2,0.5,0.4,0.7,0.6c0.3,0.2,0.6,0.5,0.9,0.6
			c0.7,0.4,1.3,0.7,2.1,0.8c0.2,0.2,0.5,0,0.7,0.1c0.2,0.1,0.5,0.1,0.7,0.1c0.4,0,0.7,0,1.1-0.1c0.2-0.1,0.5-0.1,0.8-0.1
			c0.3,0,0.5-0.1,0.8-0.2c1.1-0.3,2.1-0.9,3-1.7c0.6-0.6,1.1-1.2,1.6-1.9c0.5-0.7,0.9-1.5,1.2-2.4c0.3-0.7,0.6-1.5,0.6-2.3
			c0.2-0.2,0-0.5,0.2-0.6c0-0.2,0.1-0.4,0.1-0.7c0-0.2,0-0.5,0.1-0.7c0-0.7,0.2-1.3,0.1-2C149.3,101.7,149.3,101.3,149.3,100.9z
			 M152.7,113.9c0.7,0,1.5,0,2.2,0c0.2,0,0.2,0,0.2-0.3c0-0.3,0.1-0.5,0.1-0.8c0.1-0.9,0-1.8,0.1-2.7c0.1-0.8-0.1-1.6,0.1-2.4
			c-0.1-0.2,0.1-0.2,0.2-0.3c0,0,0.2,0,0.2,0c0.2-0.2,0.3,0,0.3,0.1c0.1,0.2,0.2,0.4,0.3,0.6c0.2,0.7,0.6,1.3,0.9,1.9
			c0.2,0.6,0.6,1.2,0.8,1.8c0.1,0.4,0.3,0.7,0.5,1.1c0.2,0.4,0.3,0.8,0.5,1.1c0.1,0.2,0.2,0.2,0.3,0.1c0.3-0.1,0.6-0.3,0.9-0.4
			c0.9-0.3,1.9-0.6,2.8-1c0.1,0,0.3,0,0.4-0.2c0-0.1,0-0.3-0.1-0.4c-0.1-0.3-0.3-0.6-0.4-0.9c-0.1-0.3-0.2-0.7-0.4-1
			c-0.3-0.7-0.6-1.4-0.8-2.1c-0.3-0.8-0.6-1.7-0.8-2.6c-0.1-0.4-0.2-0.9-0.3-1.3c-0.1-0.3,0-0.5-0.1-0.8c0-0.3,0.2-0.5,0.4-0.6
			c0.2-0.2,0.4-0.4,0.6-0.6c0.2-0.2,0.5-0.5,0.7-0.8c0.3-0.4,0.6-0.9,0.9-1.4c0.2-0.5,0.5-1,0.5-1.5c0.2-0.1,0.1-0.4,0.2-0.6
			c0.1-0.2,0-0.5,0-0.6c0.1-0.2,0.1-0.4,0.1-0.6c0-0.2-0.1-0.4-0.1-0.7c0-0.3-0.1-0.5-0.2-0.8c-0.2-0.6-0.5-1.2-0.8-1.8
			c-0.5-0.8-1-1.6-1.7-2.3c-0.6-0.7-1.2-1.3-1.9-1.9c-0.3-0.2-0.5-0.4-0.8-0.5c-0.3-0.2-0.6-0.2-1-0.2c-0.6-0.1-1.3-0.1-2-0.1
			c-1.1,0-2.3,0-3.4,0c-0.5,0-1.1,0.2-1.6,0.1c0,0-0.1,0-0.1,0c-0.1,0-0.1,0.1,0,0.2c-0.1,0.1,0,0.2,0,0.4c0,0.2,0,0.3,0,0.5
			c0,1,0,2,0,3c0,0.3,0.1,0.5-0.1,0.8c-0.1,0.1-0.1,0.3,0,0.3c0.1,0.2,0.1,0.3,0.1,0.5c0,1.9,0,3.8-0.1,5.7c-0.1,2.7,0,5.3,0,8
			c0,0.2,0.1,0.3-0.1,0.5c0,0,0,0.1,0,0.1c0.2,0.2,0.1,0.4,0.1,0.6c-0.1,0.3-0.1,0.7-0.1,1c0,1,0,1.9,0,2.9c0,0.1,0,0.2,0,0.3
			c0,0.3,0.2,0.4,0.5,0.4C151.4,113.9,152,113.9,152.7,113.9z M195.9,100.1c-0.1-0.5,0-1-0.1-1.5c-0.1-0.5-0.2-1-0.3-1.5
			c-0.1-0.6-0.4-1.2-0.6-1.7c-0.2-0.3-0.4-0.7-0.6-1c-0.4-0.7-0.8-1.3-1.3-1.8c-0.6-0.6-1.2-1.3-1.9-1.8c-0.2-0.1-0.4-0.3-0.6-0.4
			c-0.4-0.2-0.7-0.4-1.1-0.7c-0.4-0.3-0.9-0.5-1.4-0.7c-0.6-0.3-1.3-0.5-2-0.6c-0.7-0.2-1.4-0.4-2.1-0.4c-0.5,0-1,0-1.5,0
			c-0.8,0-1.6,0.1-2.5,0.1c-0.1,0-0.1,0-0.1,0.1c0,0.1,0,0.2,0,0.3c0.2,0.2,0.1,0.3,0.1,0.5c0,0.2,0.1,0.4,0.1,0.6
			c0.1,0.8-0.1,1.7,0.1,2.5c0.1,0.5,0,1,0,1.5c0,0.5,0.1,1,0.1,1.5c0,1.8,0,3.6,0,5.4c0,1,0,2.1,0,3.1c0,1,0.1,2.1-0.1,3.1
			c-0.1,0.6,0.1,1.2-0.1,1.9c0.1,1.3-0.2,2.5-0.1,3.8c0,0.1,0,0.2,0,0.3c-0.1,0.1,0.1,0.2,0.1,0.3c0,0.1,0,0.2,0,0.3
			c0,0.1,0,0.2,0,0.3c-0.1,0.2,0.1,0.2,0.1,0.2c0.3,0,0.6,0.1,0.9,0.1c0.5,0,0.9,0,1.4-0.1c0.4-0.1,0.9,0,1.3-0.1
			c0.5,0,0.9-0.2,1.4-0.3c0.4-0.1,0.9-0.2,1.3-0.4c0.5-0.2,1.1-0.3,1.6-0.6c0.6-0.3,1.1-0.5,1.7-0.9c0.5-0.3,0.9-0.6,1.4-0.9
			c0.5-0.3,0.8-0.9,1.3-1.1c0.1-0.3,0.3-0.4,0.5-0.6c0.2-0.2,0.4-0.4,0.5-0.6c0.4-0.5,0.7-0.9,1-1.5c0.5-0.8,0.8-1.7,1.1-2.6
			c0.1-0.4,0.3-0.9,0.3-1.4c0-0.1,0.1-0.2,0.1-0.3c0-0.1,0-0.3,0-0.4c0.1-0.5,0.2-1,0.2-1.5C195.9,100.6,195.9,100.4,195.9,100.1z
			 M76.8,87.8c-0.1,0.1-0.2,0.1-0.2,0.2c-0.5,0.5-1,1-1.5,1.6c-0.5,0.5-0.9,1.1-1.4,1.7c-0.1,0.2-0.3,0.3-0.4,0.5
			c-0.2,0.2-0.3,0.5-0.5,0.8c-0.2,0.3-0.4,0.6-0.6,0.9c-0.4,0.7-0.6,1.4-0.6,2.1c0,0.6,0.1,1.1,0.2,1.7c0.1,0.6,0.3,1.1,0.6,1.7
			c0.3,0.6,0.6,1.2,1,1.7c0.2,0.3,0.4,0.7,0.6,1c0.2,0.3,0.4,0.6,0.6,0.9c0.1,0.1,0.1,0.2,0.1,0.3c0.1,0.1,0.1,0.2,0.2,0.3
			c0,0.1,0.1,0.2,0.1,0.3c0,0.1,0.1,0.2,0.1,0.3c0,0.1,0.1,0.3,0.1,0.3c0.2,0.1-0.2,0.2,0,0.3c0.1,0.3,0,0.6,0.1,0.8
			c-0.2,0.3-0.1,0.6-0.2,0.9c-0.2,0.7-0.5,1.3-1,1.8c-0.3,0.3-0.5,0.6-0.9,0.8c-0.6,0.5-1.3,0.9-1.9,1.3c-0.3,0.2-0.6,0.5-0.9,0.7
			c-0.1,0.1-0.1,0.1,0,0.2c0.3,0.2,0.6,0.5,1,0.7c0.4,0.3,0.9,0.6,1.3,0.9c0.3,0.2,0.7,0.4,0.9,0.6c0.5,0.4,1,0.7,1.5,1.1
			c0,0,0.1,0,0.2,0c0.2-0.1,0.3-0.2,0.5-0.4c0.1-0.1,0.2-0.3,0.4-0.5c0.6-0.6,1.1-1.3,1.7-2c0.5-0.6,0.9-1.2,1.3-1.8
			c0.5-0.6,0.9-1.3,1.2-2c0.2-0.4,0.3-0.7,0.5-1.1c0.3-0.5,0.3-1.1,0.4-1.7c0-0.2,0-0.5-0.1-0.7c-0.1-0.4-0.2-0.8-0.4-1.1
			c-0.2-0.3-0.4-0.7-0.5-1c-0.2-0.3-0.4-0.6-0.6-0.9c-0.4-0.6-0.9-1.2-1.3-1.9c-0.3-0.6-0.7-1.1-0.8-1.8c-0.1-0.6-0.1-1.4,0.2-2
			c0.3-0.6,0.6-1.1,1-1.5c0.5-0.5,0.9-1,1.4-1.4c0.2-0.2,0.4-0.4,0.7-0.5c0.1-0.1,0.2-0.2,0.4-0.3c0.1-0.1,0-0.1,0-0.2
			c-0.5-0.4-0.9-0.7-1.4-1.1c-0.3-0.3-0.7-0.6-1-0.8c-0.6-0.5-1.2-1-1.8-1.5C77.1,87.9,76.9,87.9,76.8,87.8z M95.3,88.3
			c-0.1,0-0.1,0-0.1,0.1c-0.2,0.2-0.5,0.3-0.7,0.5c-0.3,0.3-0.7,0.5-1,0.8c-0.6,0.5-1.1,1-1.6,1.5c-0.4,0.5-0.8,1-1.2,1.5
			c-0.2,0.3-0.4,0.5-0.5,0.8c-0.2,0.3-0.4,0.5-0.5,0.8c-0.2,0.5-0.4,0.9-0.6,1.4c-0.2,0.4-0.3,0.8-0.4,1.2c-0.1,0.3-0.2,0.7-0.2,1
			c-0.3,0.6-0.2,1.3-0.4,1.9c0,0.1,0,0.3,0,0.4c0,0.2,0,0.3,0,0.5c0,0.1,0,0.3,0,0.4c0,0.2,0,0.3,0,0.4c0,0.2,0.1,0.4,0,0.5
			c-0.1,0.2,0,0.3,0,0.4c0,0.5,0.1,1.1,0.1,1.6c0,0,0,0,0,0c0.2,0.5,0.2,1,0.3,1.5c0.1,0.4,0.2,0.8,0.3,1.2c0.2,0.5,0.4,1,0.6,1.5
			c0.4,0.8,0.8,1.5,1.4,2.2c0.3,0.4,0.7,0.7,1,1.1c0,0,0,0.1,0.1,0.1c0.2,0,0.3,0.2,0.4,0.3c0.3,0.3,0.6,0.5,0.9,0.8
			c0.2,0.1,0.3,0.2,0.5,0.4c0.4,0.3,0.9,0.6,1.3,0.8c0.2,0.1,0.3,0.1,0.6,0c0.2-0.2,0.5-0.4,0.7-0.6c0.2-0.2,0.5-0.3,0.7-0.5
			c0.2-0.2,0.5-0.4,0.7-0.6c0.1-0.1,0.3-0.3,0.4-0.4c0.3-0.2,0.5-0.5,0.8-0.7c0.3-0.2,0.5-0.5,0.8-0.7c0.1-0.1,0-0.1,0-0.2
			c-0.2-0.1-0.3-0.1-0.5-0.2c-0.5-0.3-1-0.5-1.6-0.8c-0.7-0.4-1.2-0.9-1.8-1.3c-0.5-0.5-0.9-1-1.3-1.6c-0.3-0.4-0.6-0.9-0.7-1.4
			c-0.2-0.6-0.5-1.3-0.5-1.9c-0.1-0.5-0.2-1-0.2-1.5c0-0.2,0-0.4,0-0.6c0-0.6,0.1-1.2,0.2-1.9c0.1-0.6,0.3-1.2,0.6-1.8
			c0.5-1,1.1-1.9,1.9-2.8c0.3-0.3,0.6-0.6,0.9-0.8c0.6-0.5,1.2-1,2-1.3c0.2-0.1,0.3-0.1,0.5-0.2c0.2-0.1,0.2-0.2,0-0.3
			c-0.3-0.3-0.7-0.7-1-1c-0.3-0.3-0.6-0.7-1-1c-0.3-0.3-0.6-0.7-0.9-1c-0.3-0.2-0.5-0.4-0.7-0.7C95.4,88.3,95.3,88.3,95.3,88.3z
			 M83.2,88.5c-0.5,0-1,0-1.5,0c-0.1,0-0.1,0-0.2,0c0,0-0.1,0.1-0.1,0.1c0.1,0.3,0.1,0.6,0.2,0.9c0.1,0.1,0.1,0.2,0.1,0.3
			c-0.1,0.2,0,0.3,0,0.5c-0.1,0.7,0.2,1.4,0.1,2.1c0,0.1,0,0.3,0,0.4c0,0.1,0.2,0.3,0,0.4c0.2,0.2,0.1,0.4,0.1,0.6
			c0,0.2,0,0.4,0,0.5c0,0.2,0.1,0.4,0.1,0.6c0,0.7,0,1.4,0,2c0,0.7,0.1,1.4,0.1,2.1c0,1.1,0,2.1,0,3.2c0,1.1,0.1,2.1-0.1,3.2
			c-0.1,0.5,0,1,0,1.5c0,0.5-0.1,1-0.1,1.5c0,0.2,0,0.3,0,0.5c0,0.2-0.1,0.4,0,0.5c0.1,0.2-0.1,0.3-0.1,0.4c0,0.3,0,0.6,0,0.9
			c0,0.3-0.2,0.6-0.1,0.9c0.1,0.6-0.1,1.2-0.1,1.9c0,0.1-0.1,0.1-0.1,0.2c0,0.1,0,0.3,0.2,0.3c0.2,0,0.4-0.1,0.6,0
			c0.1-0.2,0.3-0.1,0.4-0.1c0.2,0,0.5,0,0.7,0c0.3-0.1,0.5,0,0.7,0c0.3,0,0.6,0,0.9-0.1c0.3-0.1,0.6,0,0.9,0c0.3,0,0.6,0,0.9,0
			c0.1,0,0.2,0,0.2-0.2c0-0.4,0-0.8-0.1-1.3c-0.1-0.7,0-1.4,0-2.1c0-0.7-0.1-1.4-0.1-2.1c0-1.3,0-2.6,0-3.9c0-1.3,0-2.6,0-3.9
			c0-1.3-0.1-2.6,0.1-3.9c0.1-0.5,0-1,0-1.5c0-0.5,0-1,0.1-1.6c0.1-0.8,0-1.6,0.1-2.4c0.1-0.6-0.1-1.3,0.1-1.9c0-0.1,0-0.3-0.2-0.3
			c-0.2-0.1-0.3-0.1-0.5-0.1c-0.3,0-0.7,0-1,0c-0.4,0-0.7-0.1-1.1-0.1C84.1,88.5,83.7,88.5,83.2,88.5z M124.6,22.8
			c-0.5-0.2-0.7,0.2-0.9,0.6c-0.1,0.2-0.2,0.4-0.2,0.7c0,0.4-0.1,0.7,0,1.1c0.1,0.6,0.3,1.1,0.6,1.6c0.3,0.7,0.6,1.4,0.8,2.1
			c0.1,0.4,0,0.9-0.2,1.2c-0.1,0.2-0.4,0.4-0.6,0.6c-0.3,0.3-0.7,0.6-0.8,1c-0.1,0.3-0.1,0.7,0.1,0.9c0.2,0.2,0.4,0.5,0.7,0.6
			c0.5,0.3,0.8,0.6,1,1.1c0,0.1,0,0.1,0.1,0.2c0.3,0.3,0.5,0.6,0.8,0.9c0.1,0.1,0.2,0.3,0.3,0.4c0.1,0.1,0.2,0.3,0.4,0.4
			c0.3,0.4,0.6,0.6,1,0.8c0.5,0.2,1.1,0.2,1.6,0c0.5-0.2,1-0.4,1.4-0.8c0.6-0.5,1.1-1,1.6-1.6c0.4-0.5,0.8-1,0.7-1.7
			c0,0,0.1,0,0.1-0.1c0-0.1,0.1-0.3,0-0.3c-0.1-0.1-0.1-0.3-0.1-0.5c0-0.1,0-0.2-0.1-0.3c-0.2-0.7-0.6-1.2-1-1.7
			c-0.4-0.4-0.8-0.8-1.2-1.1c0,0,0,0,0,0c-0.2,0-0.3-0.2-0.5-0.4c-0.2-0.1-0.3-0.2-0.5-0.4c-0.5-0.5-1.1-1-1.5-1.6
			c-0.3-0.4-0.5-0.8-0.8-1.1c-0.5-0.7-0.9-1.5-1.5-2.1C125.5,23,125.1,22.8,124.6,22.8z M120.2,23.2c0-0.4,0-0.8-0.1-1.2
			c-0.2-0.6-0.3-1.3-0.6-2c-0.4-1-0.8-1.9-1.6-2.6c-0.3-0.2-0.5-0.4-0.9-0.4c-0.5,0-1,0.1-1.5,0.4c-0.7,0.4-0.9,0.6-1.2,1.5
			c-0.1,0.3-0.1,0.7-0.1,1c0.1,0.3,0.1,0.6,0.4,0.9c0.3,0.3,0.5,0.6,0.7,0.9c0.2,0.3,0.4,0.5,0.5,0.7c0.2,0.4,0.3,0.8,0.5,1.3
			c0,0.1,0,0.2-0.1,0.3c-0.2,0.4-0.6,0.7-0.9,1c-0.5,0.3-1,0.6-1.5,0.9c-0.3,0.2-0.5,0.4-0.7,0.6c-0.2,0.3-0.4,0.6-0.4,1
			c-0.1,0.2-0.1,0.4,0,0.6c0.1,0.2,0.1,0.4,0.2,0.6c0.4,0.7,0.9,1.2,1.7,1.6c0.3,0.1,0.8,0.2,1.2,0.1c0.4-0.1,0.8-0.4,1.1-0.6
			c0.8-0.6,1.4-1.4,2-2.2c0.4-0.6,0.8-1.3,1.1-1.9c0-0.1,0.1-0.2,0.1-0.3c0-0.2,0.2-0.4,0.1-0.7c0-0.2,0-0.4,0.1-0.7
			c0,0,0-0.1,0-0.1C120.1,23.7,120.2,23.4,120.2,23.2z M64.9,79.6c0.8,0,1.7,0,2.5,0c0.2,0,0.2-0.1,0.2-0.2c0-0.1,0-0.3,0-0.4
			c0-0.2-0.1-0.3-0.1-0.5c0-0.5-0.2-0.9-0.4-1.3c-0.2-0.3-0.4-0.6-0.6-0.9c-0.2-0.4-0.6-0.5-1-0.6c-0.2,0-0.4-0.1-0.6-0.2
			c-0.7-0.3-1.3-0.8-1.8-1.2c-0.4-0.4-1-0.8-1.8-1.2c-0.2-0.1-0.2,0-0.2,0.1c0,0,0,0.1,0,0.2c0,0.6-0.1,1.3,0.1,1.9
			c0.1,0.4-0.1,0.9,0.1,1.4c-0.1,0.3,0.1,0.5,0.1,0.8c0,0.3,0.1,0.5,0.2,0.8c0.2,0.4,0.2,0.9,0.6,1.3c0.1,0.1,0.1,0.2,0.3,0.2
			C63.3,79.6,64.1,79.6,64.9,79.6z M57.7,79.6c0.8,0,1.6,0,2.4,0c0.3,0,0.3,0,0.2-0.3c-0.2-0.4-0.4-0.9-0.6-1.3
			c-0.1-0.4-0.3-0.8-0.3-1.3c-0.3-0.5-0.2-1.1-0.5-1.5c-0.1-0.9-0.5-1.6-0.9-2.4c-0.1-0.1-0.1-0.1-0.2,0c-0.1,0.2-0.4,0.3-0.5,0.4
			c0,0-0.1,0.1-0.1,0.1c-0.3,0.2-0.7,0.4-1,0.6c-0.4,0.2-0.8,0.5-1.1,0.8c-0.1,0.1-0.2,0.3-0.2,0.5c0,1.1,0,2.2,0,3.3
			c0,0.2,0,0.3,0.1,0.5c0.1,0.1,0.1,0.4,0.1,0.6c0,0.2,0.1,0.2,0.3,0.2C56.1,79.6,56.9,79.6,57.7,79.6z M136.9,38.8
			c0.4,0,0.9,0,1.3,0c0.1,0,0.3,0,0.4,0c0.1-0.1,0.1-0.3,0.1-0.4c0,0,0-0.1,0-0.1c0.2-0.6,0.1-1.2-0.3-1.6c-0.8-0.9-1.8-1.2-2.9-1.3
			c-0.3,0-0.5,0-0.8,0c-0.4,0-0.8,0.1-1.1,0.3c-0.6,0.3-1,0.7-1.3,1.3c-0.1,0.3-0.1,0.5,0,0.7c0.1,0.2,0.3,0.3,0.5,0.4
			c0.5,0.4,1.1,0.5,1.7,0.7c0.4,0.1,0.8,0.1,1.2,0.1C136,38.8,136.4,38.8,136.9,38.8z M76.3,130.2c0,0.1,0,0.2,0,0.3
			c0,0.4-0.1,0.7-0.3,1c-0.2,0.3-0.4,0.6-0.6,0.9c-0.1,0.2-0.1,0.3-0.2,0.5c0,0-0.1,0.1-0.1,0.1c-0.2-0.1-0.3-0.2-0.5-0.4
			c-0.2-0.2-0.4-0.4-0.6-0.6c0,0-0.1,0-0.1,0c-0.2,0.2-0.4,0.4-0.6,0.5c-0.1,0.1-0.1,0.2-0.1,0.3c0,0.1,0,0.1,0.1,0.2
			c0.1,0.2,0.1,0.5,0.3,0.7c0.2,0.2,0.4,0.4,0.6,0.6c0.1,0.1,0.2,0.1,0.3,0.1c0.3,0,0.5,0,0.8,0.1c0.4,0.2,0.8,0.1,1.1,0
			c0.3-0.1,0.6-0.1,0.8-0.3c0.2-0.1,0.3,0,0.4,0.2c0.1,0.1,0.2,0.3,0.2,0.5c0,0.1,0.1,0.2,0.2,0.2c0.1,0,0.3,0,0.3,0
			c0.3-0.2,0.6-0.1,1-0.1c0.2,0,0.2,0,0.3,0.1c0.1,0.1,0.2,0.2,0.2,0.2c0.1,0.1,0.1,0.1,0.3,0.1c0.2,0,0.4,0,0.6,0
			c0-0.2,0-0.4,0-0.5c0-0.2,0-0.4,0-0.6c0-0.1,0-0.2-0.1-0.2c-0.3-0.1-0.5-0.4-0.7-0.6c-0.1-0.1-0.2-0.1-0.3-0.1c-0.3,0-0.5,0-0.8,0
			c-0.2,0-0.3-0.1-0.3-0.3c0-0.2-0.1-0.4,0.2-0.6c0.1-0.1,0.1-0.3,0.3-0.5c0,0,0-0.1,0-0.1c0,0-0.1,0-0.1,0
			c-0.2-0.2-0.4-0.1-0.6-0.1c-0.2,0-0.2,0-0.5,0.3c0,0,0,0,0,0c-0.1,0.1-0.3,0.3-0.4,0.4c-0.1-0.1-0.2-0.3-0.4-0.4
			c-0.2-0.2-0.2-0.3,0-0.5c0-0.1,0.1-0.1,0.1-0.2c0.1-0.2,0.1-0.3,0-0.4C76.8,130.6,76.6,130.4,76.3,130.2z M70.4,63.7
			c0-0.1,0-0.1,0-0.2c0-0.3,0-0.6,0-0.8c0-0.1-0.2-0.3-0.2-0.2c-0.1,0.1-0.3,0-0.3,0.2c0,0.1-0.1,0.2-0.2,0.4c0,0-0.1,0.1-0.1,0.1
			c0,0-0.1-0.1-0.1-0.1c0-0.3,0.1-0.5-0.1-0.8c0-0.4-0.2-0.7-0.3-1c-0.1-0.3-0.4-0.6-0.7-0.9c-0.1-0.1-0.3-0.2-0.4-0.4
			c-0.2-0.1-0.3-0.3-0.5-0.4c-0.3-0.2-0.7-0.5-1-0.7c0,0-0.1,0-0.1,0c0,0-0.1,0.1,0,0.1c0.1,0.2,0.1,0.4,0.1,0.6
			c0.2,0.5,0.4,1,0.7,1.4c0.3,0.4,0.6,0.9,0.8,1.3c0.1,0.2,0.2,0.4,0.2,0.6c0,0,0,0,0,0c0,0-0.1,0-0.1,0c-0.1-0.2-0.4-0.2-0.5-0.5
			c-0.2-0.3-0.5-0.6-0.7-0.8c-0.1-0.1-0.3-0.1-0.5-0.2c0,0.2,0,0.3,0,0.5c0,0.2-0.1,0.5,0.1,0.7c0.2,0.2,0.2,0.5,0.2,0.7
			c0,0.3,0.1,0.3,0.3,0.2c0.1,0,0.1,0,0.2,0c0.2,0.1,0.3,0.2,0.4,0.3c0.3,0.6,0.8,1.1,1.3,1.6c0.2,0.2,0.4,0.3,0.6,0.5
			c0.2,0.2,0.4,0.3,0.6,0.4c0.2,0.1,0.4,0.2,0.5,0.1c0.1-0.1,0-0.3,0-0.5c0-0.1,0-0.2,0-0.2c-0.2-0.3-0.1-0.5-0.1-0.8
			c0-0.3-0.2-0.5-0.1-0.8C70.4,64.1,70.4,63.9,70.4,63.7z M67.3,70.5c0,0.4,0,0.8,0.1,1.3c0.1,0.5,0.4,1.3,0.7,1.6
			c0.7,0.9,1.7,1.4,2.7,1.9c0.1,0,0.1,0,0.2,0c0.1,0,0.2,0,0.2-0.2c0-0.5,0-1-0.1-1.5c-0.1-0.5-0.3-1-0.4-1.4
			c-0.4-0.5-0.7-1-1.2-1.5c-0.5-0.4-1.1-0.8-1.5-1.3c-0.1-0.1-0.3-0.2-0.4-0.3c0,0-0.1,0-0.1,0c0,0.1-0.1,0.2-0.1,0.4
			C67.3,69.9,67.3,70.2,67.3,70.5z M52.7,79.6c0.2,0,0.4,0,0.5,0c0.2,0,0.3-0.1,0.2-0.3c-0.1-0.3-0.3-0.7-0.3-1.1
			c-0.2-0.1,0-0.4-0.1-0.5c-0.1-0.2-0.1-0.4-0.1-0.6c0-0.2-0.1-0.3-0.1-0.5c0-0.4-0.1-0.8-0.1-1.2c0-0.1-0.1-0.3-0.1-0.4
			c0-0.2-0.1-0.3-0.1-0.5c-0.1-0.2-0.1-0.5-0.2-0.7c0-0.1,0-0.1,0-0.2c-0.1,0.1-0.1,0.1-0.2,0.2c-0.2,0.4-0.4,0.7-0.6,1.1
			c-0.1,0.3-0.4,0.4-0.7,0.6c-0.3,0.1-0.5,0-0.7,0c-0.1,0-0.2-0.2-0.2,0.1c0,0.2,0.1,0.4,0.1,0.6c0,0.2,0,0.4,0.1,0.6
			c0.2,0.5,0.3,0.9,0.5,1.3c0.2,0.4,0.5,0.7,0.8,1C51.9,79.4,52.3,79.7,52.7,79.6z M65.9,70.1c-0.1-0.2,0.1-0.5-0.1-0.7
			c-0.1-0.2,0-0.5-0.1-0.8c0-0.5-0.2-0.8-0.4-1.2c-0.1-0.1-0.1-0.2-0.2-0.1c-0.3,0.1-0.5,0.2-0.8,0.4c-0.4,0.2-0.6,0.6-0.9,0.9
			c-0.1,0.1-0.1,0.2-0.1,0.3c0,0.1,0.1,0.2,0.2,0.3c0.1,0.1,0.2,0.2,0.3,0.3c0.3,0.5,0.7,0.8,1.1,1.1c0.2,0.2,0.5,0.2,0.8,0.2
			c0.2,0,0.2-0.1,0.2-0.2C65.9,70.4,65.9,70.3,65.9,70.1z M47.5,79.6c0.4,0,0.9,0,1.3,0c0.1,0,0.2,0,0.2,0c0.1,0,0.1-0.1,0.1-0.2
			c0-0.1-0.1-0.2-0.1-0.2c-0.2-0.2-0.4-0.5-0.6-0.8c-0.2-0.3-0.4-0.7-0.7-1c-0.1-0.1-0.3-0.3-0.4-0.3c-0.2,0-0.4,0-0.5,0.1
			c-0.3,0.2-0.5,0.5-0.7,0.8c-0.2,0.5-0.4,0.9-0.3,1.5c0,0.1,0,0.2,0.2,0.2C46.6,79.6,47.1,79.6,47.5,79.6z M72.1,75
			c0,0.4,0,0.9,0,1.3c0,0.3,0.1,0.4,0.2,0.7c0,0.1,0.1,0.1,0.2,0.1c0.1,0.1,0.1,0,0.2-0.1c0.2-0.1,0.3-0.2,0.5-0.4
			c0.3-0.3,0.5-0.7,0.9-0.8c0.2-0.1,0.1-0.1,0.1-0.2c-0.1-0.2-0.2-0.5-0.3-0.7c-0.2-0.4-0.4-0.8-0.7-1.1c-0.2-0.2-0.5-0.3-0.8-0.4
			c-0.1,0-0.2,0-0.2,0.2C72.1,74,72.1,74.5,72.1,75z M71.9,134.2c0-0.1,0-0.1,0-0.1c0-0.3,0-0.2-0.3-0.4c-0.3-0.1-0.6-0.1-0.8-0.3
			c0,0-0.1,0-0.2,0c-0.1,0-0.1,0.1-0.2,0.2c-0.1,0.1-0.1,0.1,0,0.3c0.2,0.3,0.2,0.3-0.1,0.5c-0.1,0.1-0.2,0.1-0.3,0.2
			c-0.2,0.1-0.4,0.3-0.5,0.4c0.1,0.2,0.3,0.3,0.4,0.5c0,0,0.1,0.1,0.1,0.1c0.2,0.1,0.3,0.1,0.5,0.2c0.1,0,0.2,0,0.4-0.1
			c0.2-0.1,0.3-0.2,0.5-0.3c0.1,0,0.2-0.2,0.3-0.3C71.8,134.8,71.9,134.5,71.9,134.2z M69.8,79.6c0.3,0,0.5,0,0.8,0
			c0.1,0,0.3,0,0.4,0c0.1-0.2-0.1-0.2-0.2-0.3c-0.4-0.7-0.7-0.8-1.3-1.1c-0.4-0.2-0.8-0.2-1.2-0.3c0,0-0.1,0.1-0.1,0.1
			c0,0.2,0,0.4,0.1,0.7c0.1,0.2,0,0.5,0.1,0.7c0.1,0.1,0,0.3,0.1,0.4c0.1,0.1,0.3,0,0.4,0C69.3,79.6,69.5,79.6,69.8,79.6z
			 M112.5,135.8c0.2,0,0.3,0,0.4,0c0.2,0,0.3-0.2,0.4-0.4c0.1-0.2,0-0.2-0.1-0.3c-0.1-0.1-0.2-0.3-0.2-0.4c0-0.1-0.1-0.1-0.2-0.1
			c-0.1,0-0.2,0-0.3,0c-0.1,0-0.3,0-0.3-0.1c0-0.3-0.2-0.2-0.3-0.1c-0.1,0-0.2,0.1-0.3,0.1c-0.1,0-0.1,0-0.2-0.1
			c0-0.1-0.1-0.3-0.2-0.3c-0.2,0-0.5,0-0.7,0c-0.1,0-0.2,0.1-0.3,0.2c0,0,0,0.2,0.1,0.2c0.1,0.2,0.2,0.3,0.4,0.4
			c0.3,0.2,0.6,0.3,0.9,0.5C111.9,135.7,112.2,135.9,112.5,135.8z M70.2,58.2c0,0.2,0,0.5,0,0.7c0,0.1,0,0.2,0,0.2
			c0.1,0,0.1-0.1,0.2-0.1c0.1,0,0.1-0.1,0.1-0.1c0.3-0.6,0.7-1.2,0.6-1.9c0-0.1,0-0.3,0-0.4c0-0.2,0-0.4-0.1-0.6
			c-0.1-0.3-0.3-0.5-0.5-0.6c-0.1-0.1-0.2,0-0.3,0.2c-0.1,0.2,0,0.5-0.1,0.7c-0.1,0.3-0.1,0.5-0.1,0.8
			C70.2,57.4,70.2,57.8,70.2,58.2C70.2,58.2,70.2,58.2,70.2,58.2z M107.8,134.2c-0.3-0.1-0.5,0.2-0.8,0.3c-0.1,0.1-0.2,0.2-0.4,0.3
			c-0.1,0-0.2,0.2-0.1,0.3c0.1,0.1,0,0.3,0.3,0.3c0.3,0,0.7,0.1,1,0.3c0,0,0.1,0,0.1,0c0,0-0.1,0.1-0.1,0.1
			c-0.3-0.1-0.5,0.2-0.7,0.3c-0.1,0-0.1,0.1,0,0.2c0.1,0,0.1,0.1,0.1,0.1c0.2,0.2,0.2,0.2,0.3,0c0.2-0.2,0.5-0.5,0.7-0.7
			c0.2-0.2,0.2-0.4,0.1-0.7c-0.1-0.2-0.2-0.4-0.2-0.6c0-0.1-0.1-0.2-0.2-0.2C108,134.2,107.9,134.2,107.8,134.2z M106.6,132.1
			c0,0.1,0,0.2,0,0.3c0,0,0,0.1,0.1,0.1c0.4,0.2,0.8,0.5,1.3,0.7c0.1,0,0.2,0,0.2,0c0.2-0.1,0.4-0.3,0.6-0.5c0.1-0.1,0.1-0.2,0-0.3
			c-0.3-0.4-0.6-0.8-1.1-1c-0.1,0-0.2-0.2-0.2,0.1c0,0.1-0.1,0.1-0.2,0.1c-0.1,0-0.2,0-0.3,0c-0.2,0-0.2,0.1-0.2,0.2
			C106.6,131.9,106.6,132,106.6,132.1z M86.8,132c0,0.2,0,0.4,0.1,0.5c0.1,0.1,0.3,0,0.4,0c0.1,0,0.2,0.1,0.3,0.1
			c0.2,0,0.4,0,0.5-0.1c0.1-0.2,0.3-0.4,0.4-0.6c-0.1-0.1-0.2-0.3-0.3-0.4c0,0,0-0.1,0-0.1c-0.2-0.3-0.5-0.3-0.7-0.5
			c-0.2,0.1-0.2,0.3-0.3,0.4C86.8,131.4,86.8,131.7,86.8,132z M95.3,133.2c0-0.1,0-0.1,0-0.2c0-0.4-0.1-0.5-0.4-0.4
			c-0.2,0-0.4,0-0.5-0.2c0,0-0.1-0.1-0.1-0.1c-0.1-0.1-0.3-0.1-0.4,0c-0.2,0.3-0.3,0.6-0.3,0.9c0,0.1,0.1,0.1,0.1,0.1
			c0.3,0.1,0.5,0.4,0.9,0.4c0.1,0.2,0.3,0.1,0.4,0c0.2-0.1,0.2-0.2,0.2-0.4C95.3,133.3,95.3,133.3,95.3,133.2z M110,137
			c0.2,0,0.3,0,0.5,0c0.2,0,0.3-0.1,0.5-0.2c0,0,0.1-0.1,0.1-0.2c-0.1-0.2-0.2-0.4-0.3-0.6c-0.1-0.1-0.1-0.2-0.3-0.2
			c-0.2,0-0.4-0.1-0.5-0.2c0-0.1-0.1-0.1-0.1-0.1c-0.1-0.1-0.1-0.1-0.2,0.1c-0.1,0.3-0.2,0.7-0.4,0.9c-0.1,0-0.1,0.2,0,0.3
			c0.1,0.3,0.2,0.3,0.5,0.3C109.7,137,109.9,137,110,137z M83.3,53.8c0,0.2,0,0.3,0,0.4c0,0.1,0.1,0.2,0.2,0.1
			c0.4-0.2,0.6-0.5,0.6-1c0-0.1,0-0.3,0-0.4c0.1-0.2,0.1-0.5,0-0.7c-0.1-0.6-0.1-1,0-1.5c0,0,0-0.1,0-0.1c0,0-0.1,0-0.1,0
			c-0.1,0.2-0.2,0.5-0.3,0.7C83.4,52.2,83.4,53.1,83.3,53.8z M78.8,130.2c0.2,0,0.4-0.1,0.6-0.1c0,0,0.1,0,0.1-0.2
			c-0.1-0.1-0.1-0.3-0.2-0.5c-0.1-0.3-0.3-0.5-0.5-0.8c0,0-0.2-0.1-0.2-0.1c-0.1,0-0.2,0.1-0.4,0.2c-0.1,0-0.2,0-0.2,0.1
			c0,0.1,0,0.2,0,0.2c0.1,0.1,0.1,0.2,0,0.3c-0.2,0.2-0.2,0.3,0,0.4C78.2,129.9,78.5,130,78.8,130.2
			C78.7,130.2,78.8,130.2,78.8,130.2z M89.7,132.6c-0.2,0-0.3,0-0.3,0.2c-0.1,0.2-0.2,0.3-0.3,0.5c-0.1,0.1-0.2,0.2-0.2,0.4
			c-0.1,0.2,0.2,0.2,0.3,0.3c0.1,0.1,0.2,0.2,0.3,0.2c0.1,0,0.2-0.2,0.3-0.2c0.2-0.2,0.3-0.3,0.5-0.5c0-0.1,0.1-0.1,0.1-0.2
			C90.4,132.9,90,132.6,89.7,132.6z M69.2,57.9C69.2,57.9,69.3,57.9,69.2,57.9c0.3,0,0.3,0,0.3-0.2c0-0.2,0-0.3-0.1-0.5
			c-0.1-0.2-0.2-0.4-0.3-0.6c-0.1-0.2-0.4-0.2-0.5-0.3c-0.1-0.1-0.2-0.1-0.3,0c-0.1,0.1-0.1,0.1,0,0.2c0,0.1,0,0.2,0,0.2
			c0,0.2,0.1,0.3,0.1,0.5C68.5,57.6,68.9,57.9,69.2,57.9z M83.1,134.2c-0.4,0-0.5,0.2-0.7,0.4c-0.1,0.1-0.1,0.2-0.2,0.3
			c-0.3,0.3-0.3,0.3-0.1,0.6c0,0,0,0.1,0.1,0.1c0,0,0.1,0,0.1,0c0.4-0.1,0.8-0.2,1-0.7c0-0.1,0.1-0.2,0.2-0.3c0,0,0.1-0.1,0-0.1
			c-0.1-0.1-0.2-0.2-0.3-0.3C83.1,134.2,83,134.2,83.1,134.2z M119.9,133.4C119.9,133.4,119.9,133.4,119.9,133.4c0.1,0,0.3,0,0.4,0
			c0.2-0.1,0.3-0.2,0.5-0.4c0,0,0-0.1,0-0.2c-0.1-0.1-0.3-0.2-0.5-0.3c-0.2-0.2-0.5-0.1-0.7,0c-0.1,0.1-0.1,0.1-0.2,0.2
			c-0.2,0.1-0.1,0.3,0,0.5c0.1,0.2,0.2,0.2,0.3,0.2C119.8,133.4,119.9,133.4,119.9,133.4z M68.8,134.9c0-0.1,0-0.2,0-0.2
			c-0.2-0.3-0.3-0.6-0.4-0.9c-0.1-0.3-0.2-0.3-0.4-0.1c-0.1,0.1-0.1,0.1-0.2,0.2c-0.4,0.4-0.4,0.4,0.1,0.7c0.1,0,0.1,0.1,0.2,0.1
			c0.1,0.2,0.4,0.2,0.5,0.3C68.7,135,68.8,135,68.8,134.9z M84.7,130.1c0-0.1,0-0.2,0-0.3c0,0-0.1-0.1-0.1-0.1
			c-0.2,0.1-0.4,0.1-0.6,0.3c-0.2,0.1-0.3,0.4-0.5,0.5c-0.1,0.1,0,0.4,0.1,0.4c0.2,0,0.3,0.1,0.5,0c0.1-0.1,0.1-0.2,0.2-0.2
			C84.7,130.6,84.7,130.4,84.7,130.1z M65.5,133.3C65.5,133.3,65.5,133.3,65.5,133.3c-0.3-0.3-0.5-0.6-0.8-0.8c0,0-0.1,0-0.1,0.1
			c0,0.3,0,0.5-0.1,0.8c0,0,0,0.1,0,0.1c0.2,0.2,0.3,0.5,0.5,0.7c0,0,0.2,0.1,0.3-0.1C65.5,133.8,65.3,133.5,65.5,133.3z
			 M112.3,133.7c0,0,0.1-0.1,0.1-0.1c0.1-0.2,0.2-0.3,0.3-0.5c0.1-0.2,0.2-0.4,0.2-0.5c0,0,0-0.1-0.1-0.2c0,0-0.1-0.1-0.2-0.1
			c-0.1-0.1-0.3-0.2-0.4-0.2c-0.2,0-0.3,0.2-0.4,0.4c-0.1,0.1-0.1,0.2-0.1,0.3C112,133,112,133.4,112.3,133.7
			C112.2,133.7,112.2,133.7,112.3,133.7z M104.4,132.4c-0.2,0-0.3,0-0.4,0c-0.2,0-0.3,0.1-0.3,0.2c-0.1,0.2,0,0.4,0.2,0.4
			c0.3,0.1,0.5,0.1,0.8,0.2c0.3,0.1,0.4-0.2,0.6-0.2c0,0,0-0.1,0-0.1c-0.1-0.1-0.2-0.1-0.3-0.2C104.8,132.4,104.6,132.3,104.4,132.4
			z M75.2,130.2c0-0.3,0-0.3-0.3-0.6c-0.1-0.1-0.1-0.2-0.2-0.2c-0.1-0.1-0.2-0.1-0.3-0.1c-0.1,0-0.1,0.1-0.2,0.2
			c-0.1,0.1-0.2,0.3-0.3,0.4c-0.1,0.1,0,0.2,0.1,0.2c0.3,0,0.5,0.1,0.6,0.3c0.1,0.2,0.3,0.1,0.5,0.1c0,0,0.1-0.1,0.1-0.1
			C75.2,130.3,75.2,130.3,75.2,130.2z M68.2,132.2c0,0,0-0.1,0-0.1c0-0.2,0-0.3-0.3-0.2c-0.1,0-0.1,0.1-0.2,0.1
			c-0.4,0.1-0.7,0.3-1.1,0.4c-0.1,0-0.2,0-0.3,0.1c0,0,0,0,0,0.1c0,0,0,0,0,0c0.4,0,0.7,0.2,1,0.1c0.2-0.1,0.4-0.1,0.7-0.1
			c0.1,0,0.2,0,0.1-0.1C68.2,132.3,68.2,132.2,68.2,132.2z M98.4,132.1c0-0.3,0-0.3-0.3-0.3c-0.3,0-0.6,0-0.8,0.2
			c-0.1,0.1-0.3,0-0.3,0.2c0,0.1,0.2,0.2,0.3,0.3c0,0,0.1,0.1,0.2,0.1c0.1,0.1,0.2,0.1,0.3,0.1c0.2,0,0.4-0.1,0.6-0.2
			c0,0,0.1-0.1,0.1-0.2C98.4,132.2,98.4,132.1,98.4,132.1z M98.4,133.8c0.1-0.2-0.1-0.3-0.2-0.4c-0.1-0.2-0.2,0.1-0.3,0.1
			c-0.1,0-0.3,0.2-0.4,0.2c-0.2,0-0.2,0.2-0.1,0.2c0.1,0.2,0.2,0.3,0.2,0.5c0,0,0.1,0,0.1,0c0.2-0.2,0.4-0.3,0.6-0.3
			C98.4,134.1,98.4,134,98.4,133.8z M93.7,135c0,0,0,0.1,0,0.1c0,0.1,0.1,0.2,0.2,0.2c0.1-0.1,0.3-0.2,0.5-0.2c0,0,0.1-0.1,0.1-0.1
			c-0.1-0.1-0.1-0.3-0.2-0.4c0,0-0.1,0-0.2,0c0,0-0.1,0-0.1,0c-0.2-0.2-0.2,0-0.3,0.1C93.7,134.8,93.7,134.9,93.7,135z M84,133.3
			c0.3,0,0.5-0.1,0.6-0.3c0.1-0.2-0.1-0.3-0.1-0.4c0-0.1,0-0.2,0-0.2c0,0-0.1-0.1-0.1,0c0,0-0.1,0.1-0.1,0.1
			c0.1,0.2,0.1,0.2-0.1,0.3c-0.1,0-0.2,0.1-0.3,0.2c0,0.1,0,0.2,0,0.3C83.9,133.3,84,133.3,84,133.3z M119.8,127.6
			c0,0.1,0,0.2,0,0.3c0,0,0.1,0.1,0.1,0.1c0.1-0.1,0.3-0.2,0.4-0.3c0.1-0.1,0-0.2,0-0.4c0-0.1,0-0.1-0.1-0.2c0,0-0.1-0.1-0.1-0.1
			c0,0-0.1,0.1-0.1,0.1C119.9,127.3,119.7,127.4,119.8,127.6z M86.3,132.9c-0.1,0,0.1-0.2-0.1-0.3c-0.1,0-0.2,0-0.3,0.1
			c-0.1,0.1-0.1,0.3-0.2,0.4c0,0,0,0.1,0,0.1c0.2,0,0.3,0,0.5,0C86.4,133.2,86.3,133,86.3,132.9z M106.7,137.4
			c0.2,0,0.5-0.1,0.4-0.1c-0.1-0.1-0.2-0.1-0.4-0.2c-0.1,0-0.2-0.1-0.2-0.1c-0.1,0.1-0.1,0.2-0.1,0.2c0,0,0.1,0.1,0.1,0.1
			C106.6,137.4,106.7,137.4,106.7,137.4z"/>
		<path id="XMLID_281_" class="st0" d="M130.4,65.8c-0.2-0.1-0.5-0.1-0.7-0.2c0.1-0.2,0.2-0.4,0.3-0.7c0.2-0.3,0.4-0.7,0.7-1
			c0,0,0-0.1,0.1-0.1c0.3-0.4,0.6-0.7,1-1.1c0.5-0.6,1.1-1.1,1.4-1.9c0-0.1,0.1-0.1,0.1-0.1c0,0.1,0.1,0.2,0,0.2
			c-0.1,0.3-0.1,0.6-0.2,0.9c-0.1,0.5-0.3,1.1-0.4,1.6c-0.2,0.5-0.4,1-0.8,1.5C131.5,65.5,131,65.8,130.4,65.8z"/>
		<path id="XMLID_280_" class="st0" d="M141.9,52.5c-0.1,0-0.1,0-0.1,0c0,0,0-0.1,0-0.1c0.4-0.5,0.5-1.1,0.7-1.6
			c0.1-0.3,0.3-0.7,0.4-1c0.1-0.4,0.3-0.6,0.5-0.9c0.2-0.2,0.6-0.6,0.8-0.5c0.2,0,0.4,0.1,0.6,0.2c0.1,0,0.2,0.1,0.2,0.1
			c0.1,0.1-0.1,0.2-0.1,0.2c-0.1,0.6-0.3,1.1-0.7,1.5c-0.7,1.1-0.6,0.8-1.6,1.5c-0.2,0.2-0.5,0.3-0.8,0.4
			C142.1,52.5,142,52.5,141.9,52.5z"/>
		<path id="XMLID_279_" class="st0" d="M130.1,58.1c-0.1,0.4-0.1,0.9-0.2,1.4c-0.1,0.3-0.1,0.6-0.3,0.9c-0.2,0.3-0.2,0.6-0.3,0.9
			c-0.1,0.3-0.4,0.6-0.5,0.8c-0.3,0.4-0.7,0.7-1.1,1c0,0-0.1,0.1-0.1,0.1c-0.1,0-0.3,0.1-0.4,0.1c0-0.1,0-0.3-0.1-0.4
			c0-0.4,0.1-0.7,0.2-1c0.3-0.6,0.6-1.2,1-1.7c0.6-0.7,1.1-1.4,1.5-2.2c0.1-0.1,0.1-0.3,0.1-0.4c0,0,0-0.1,0-0.1c0,0,0.1,0,0.1,0.1
			C130.1,57.8,130.1,57.9,130.1,58.1z"/>
		<path id="XMLID_278_" class="st0" d="M133.7,46.4c0,0.1,0,0.2-0.1,0.3c-0.2,0.3-0.4,0.7-0.6,1c-0.4,0.6-0.9,1.1-1.4,1.6
			c-0.4,0.4-0.9,0.6-1.4,0.9c0,0,0,0-0.1,0c0,0,0-0.1,0-0.1c0.3-0.5,0.7-1,1-1.5c0.2-0.4,0.3-0.8,0.5-1.2c0.1-0.3,0.1-0.7,0.2-1
			c0-0.1,0.1-0.2,0.2-0.3c0.4-0.3,1.1-0.3,1.5,0C133.7,46.2,133.7,46.3,133.7,46.4z"/>
		<path id="XMLID_277_" class="st0" d="M141.1,48.8c-0.1,0.3-0.1,0.6-0.3,0.9c-0.3,0.7-0.7,1.3-1.1,1.9c-0.3,0.3-0.5,0.7-0.8,1
			c0,0-0.1,0-0.1,0c0,0,0-0.1,0-0.1c0.2-0.4,0.2-0.8,0.3-1.2c0.1-0.2,0.1-0.5,0.2-0.7c0-0.2,0.1-0.4,0.2-0.7
			c0.2-0.7,0.4-1.4,0.8-2.1c0.1-0.2,0.2-0.2,0.4,0C141,48.1,141.1,48.3,141.1,48.8z"/>
		<path id="XMLID_276_" class="st0" d="M135.6,46.9c0.1,0,0.2,0,0.3,0c0.2,0,0.3,0.2,0.2,0.3c-0.3,0.5-0.4,1-0.8,1.3
			c-0.2,0.2-0.4,0.4-0.5,0.6c-0.1,0.2-0.4,0.3-0.5,0.4c-0.3,0.3-0.7,0.6-0.9,1c0,0.1-0.1,0.1-0.2,0.2c0,0-0.1,0-0.1,0
			c0,0,0-0.1,0-0.1c0.2-0.3,0.1-0.7,0.3-1c0.1-0.3,0.2-0.6,0.3-0.9c0.2-0.6,0.5-1.1,0.9-1.5C134.8,47.1,135.1,46.9,135.6,46.9z"/>
		<path id="XMLID_275_" class="st0" d="M131.2,45.7c-0.1,0.2-0.1,0.6-0.2,0.9c-0.2,0.7-0.6,1.2-1.1,1.8c-0.3,0.4-0.6,0.8-1,1.2
			c-0.1,0.1-0.1,0.2-0.2,0.3c0,0.1-0.1,0.2-0.2,0.1c0,0-0.1-0.2-0.1-0.2c0.1-0.3,0.2-0.7,0.3-1.1c0.1-0.3,0.3-0.7,0.5-1
			c0.2-0.3,0.2-0.6,0.4-0.9c0.1-0.3,0.2-0.6,0.3-0.9c0,0,0-0.1,0-0.1c0-0.1,0-0.3,0.1-0.4c0.1-0.1,0.3,0,0.4,0c0.1,0,0.2,0,0.3,0
			C131.2,45.3,131.2,45.2,131.2,45.7z"/>
		<path id="XMLID_274_" class="st0" d="M123.3,62.5C123.3,62.5,123.3,62.4,123.3,62.5c-0.3-0.5-0.4-1.1,0-1.4
			c0.4-0.5,0.9-0.9,1.5-1.3c0.3-0.2,0.6-0.6,0.8-0.8c0,0,0-0.1,0.1-0.1c0,0,0,0.1,0,0.1c0,0.1-0.1,0.3-0.1,0.4
			c-0.2,0.6-0.4,1.3-0.7,1.9c-0.2,0.4-0.6,0.8-1,1C123.8,62.4,123.6,62.4,123.3,62.5z"/>
		<path id="XMLID_273_" class="st0" d="M126.9,60.1c0,0.7-0.2,1.3-0.4,2c-0.2,0.6-0.6,1-1,1.4c-0.1,0.1-0.2,0.1-0.3,0.2
			c-0.2,0.1-0.3,0.1-0.3-0.2c0-0.1,0-0.3-0.1-0.4c-0.1-0.2,0-0.4,0.1-0.6c0.2-0.4,0.4-0.8,0.7-1.1c0.4-0.4,0.8-0.9,1.1-1.4
			c0,0,0-0.1,0-0.2c0,0,0-0.1,0.1-0.1c0,0,0,0.1,0,0.1C126.9,59.8,126.9,60,126.9,60.1z"/>
		<path id="XMLID_272_" class="st0" d="M138.5,47.4c0,0-0.1,0.1-0.1,0.1c-0.2,0.3-0.3,0.6-0.5,0.8c-0.4,0.5-0.8,0.9-1.2,1.3
			c-0.3,0.3-0.7,0.6-1,0.9c0,0-0.1,0-0.1,0c0,0,0-0.1,0-0.1c0.3-0.5,0.5-1,0.7-1.6c0.2-0.5,0.4-0.9,0.6-1.3c0.2-0.1,0.4-0.3,0.6-0.3
			c0.3-0.1,0.5,0.1,0.8,0C138.4,47.3,138.4,47.4,138.5,47.4z"/>
		<path id="XMLID_271_" class="st0" d="M123.5,58.3c-0.1,0.7-0.3,1.4-0.9,1.9c-0.5,0.5-1,0.2-1.3-0.2c0-0.1,0-0.3,0.1-0.4
			c0.2-0.3,0.4-0.6,0.7-0.8c0.4-0.3,0.8-0.7,1-1.2c0,0,0.1-0.1,0.1-0.1c0,0,0.1,0,0.1,0.1C123.5,57.9,123.5,58.1,123.5,58.3z"/>
		<path id="XMLID_270_" class="st0" d="M118.1,56.8c0-0.5,0.3-0.8,0.5-1.1c0.3-0.3,0.6-0.5,0.9-0.7c0.2-0.1,0.3-0.3,0.5-0.4
			c0.3-0.2,0.4-0.5,0.6-0.8c0,0,0.1,0,0.1-0.1c0,0,0,0.1,0,0.1c0,0.4-0.1,0.7-0.3,1c-0.3,0.6-0.6,1.2-1.1,1.7
			c-0.3,0.3-0.6,0.4-1,0.5C118.1,57.1,118.1,57,118.1,56.8C118.1,56.8,118.1,56.8,118.1,56.8z"/>
		<path id="XMLID_269_" class="st0" d="M149.6,51.3c0,0.1-0.1,0.3-0.2,0.5c-0.2,0.2-0.4,0.5-0.7,0.6c-0.6,0.3-1.3,0.5-1.9,0.9
			c0,0-0.1,0-0.1,0c0,0,0-0.1,0-0.1c0.6-0.6,1-1.4,1.7-2c0.2-0.2,0.4-0.3,0.6-0.4c0.4-0.2,0.5-0.1,0.5,0.3
			C149.6,51.1,149.6,51.2,149.6,51.3z"/>
		<path id="XMLID_268_" class="st0" d="M146.9,49.2c-0.1,0.6-0.3,1.2-0.8,1.7c-0.4,0.4-0.8,0.7-1.3,1.1c0,0-0.1,0-0.1,0
			c0,0,0-0.1,0-0.1c0.3-0.5,0.4-1,0.6-1.6c0.2-0.5,0.4-0.9,0.8-1.2c0.1-0.1,0.3-0.1,0.5-0.2C146.9,48.9,146.9,48.9,146.9,49.2z"/>
		<path id="XMLID_267_" class="st0" d="M127.8,65.2c-0.3,0-0.6-0.2-0.8-0.3c0,0,0-0.1,0-0.2c0.1-0.3,0.3-0.5,0.6-0.6
			c0.4-0.2,0.8-0.3,1.1-0.5c0.3-0.1,0.7-0.3,1-0.5c0,0,0,0,0,0c0.1-0.1,0.1-0.2,0.2-0.3c0.1,0.2,0,0.3-0.1,0.4
			c-0.3,0.6-0.6,1.1-1.1,1.5c-0.2,0.2-0.5,0.3-0.8,0.5C127.9,65.2,127.8,65.2,127.8,65.2z"/>
		<path id="XMLID_266_" class="st0" d="M133.8,63.8c-0.1,0.3-0.2,0.6-0.2,0.9c-0.2,0.7-0.6,1.3-1,1.9c0,0,0,0,0,0
			c-0.1,0.1-0.2,0.2-0.3,0.2c-0.2,0-0.2-0.2-0.3-0.4c-0.1-0.3,0-0.7,0.2-1c0.2-0.3,0.4-0.5,0.6-0.7c0.3-0.4,0.6-0.7,0.9-1.2
			c0,0,0-0.1,0-0.1c0,0,0,0.1,0.1,0.1C133.8,63.7,133.8,63.8,133.8,63.8C133.8,63.8,133.8,63.8,133.8,63.8z"/>
		<path id="XMLID_265_" class="st0" d="M135.1,65.6c0,0.8-0.3,1.6-0.8,2.2c-0.1,0.2-0.3,0.3-0.5,0.4c0,0-0.1,0-0.1-0.1
			c0-0.3-0.2-0.6-0.1-0.9c0.2-0.3,0.3-0.7,0.6-1c0.1-0.1,0.2-0.3,0.3-0.4c0.1-0.1,0.2-0.2,0.3-0.3c0.1-0.1,0.2-0.3,0.3-0.5
			C135.1,65.3,135.1,65.5,135.1,65.6z"/>
		<path id="XMLID_264_" class="st0" d="M127.3,47.5c0.1-0.3,0.1-0.5,0.2-0.7c0.2-0.4,0.4-0.9,0.6-1.3c0.1-0.2,0.2-0.4,0.2-0.6
			c0-0.2,0-0.3,0.2-0.2c0.1,0,0.2,0,0.3,0c0.2,0,0.2,0.1,0.2,0.2c-0.1,0.5-0.2,1-0.5,1.5c-0.2,0.2-0.3,0.4-0.5,0.6
			c-0.2,0.2-0.4,0.5-0.6,0.8c0,0-0.1,0.1-0.1,0.1c0-0.1,0-0.1-0.1-0.2C127.3,47.6,127.3,47.6,127.3,47.5
			C127.3,47.5,127.3,47.5,127.3,47.5z"/>
		<path id="XMLID_263_" class="st0" d="M142.4,49.1c0,0.5-0.2,0.9-0.5,1.3c-0.3,0.5-0.6,0.9-1,1.3c-0.1,0.1-0.2,0.2-0.4,0.3
			c-0.1,0-0.1,0.2-0.2,0.1c0,0,0.1-0.1,0.1-0.2c0.6-1.1,1.2-2.1,1.7-3.2c0.1-0.2,0.1,0,0.1,0C142.3,48.8,142.4,48.9,142.4,49.1z"/>
		<path id="XMLID_262_" class="st0" d="M138.9,49.2c0,0.3-0.1,0.6-0.2,0.8c-0.2,0.4-0.3,0.8-0.7,1.1c-0.2,0.2-0.4,0.3-0.6,0.4
			c0,0-0.1,0-0.1,0c0,0,0-0.1,0-0.1c0.2-0.3,0.3-0.6,0.5-0.9c0.2-0.5,0.5-0.9,0.7-1.4c0.1-0.1,0.1-0.2,0.2-0.4c0,0,0,0,0.1,0
			c0,0,0,0.1,0,0.1C138.8,48.9,138.9,49,138.9,49.2z"/>
		<path id="XMLID_261_" class="st0" d="M119.8,58.3c0-0.3,0.1-0.5,0.3-0.7c0.2-0.3,0.5-0.5,0.8-0.7c0.2-0.1,0.3-0.3,0.4-0.5
			c0,0,0.1-0.1,0.1-0.1c0,0.1,0,0.1,0,0.2c-0.1,0.2-0.1,0.5-0.2,0.7c-0.2,0.6-0.5,1.1-1.2,1.4C119.8,58.6,119.8,58.6,119.8,58.3
			C119.8,58.4,119.8,58.3,119.8,58.3z"/>
		<path id="XMLID_260_" class="st0" d="M146.9,51.2c-0.1-0.4,0.2-0.6,0.3-0.8c0.2-0.3,0.5-0.6,0.8-0.9c0.1-0.1,0.2-0.1,0.3,0
			c0.1,0.1,0.1,0.2,0.1,0.4c-0.2,0.4-0.5,0.9-0.9,1.1c-0.1,0.1-0.2,0.2-0.3,0.3c-0.1,0.1-0.1,0.1-0.2,0.2
			C146.9,51.4,146.9,51.3,146.9,51.2z"/>
		<path id="XMLID_259_" class="st0" d="M127.6,44.2c-0.1,0.5-0.3,0.9-0.7,1.2c-0.1,0.1-0.3,0.2-0.4,0.3c0,0-0.1,0-0.1,0
			c0,0,0-0.1,0.1-0.1c0.2-0.2,0.2-0.5,0.3-0.8c0.1-0.1,0-0.3,0.1-0.4c0.1-0.2,0.2-0.3,0.3-0.5c0.1-0.1,0.3-0.1,0.4-0.1
			C127.6,43.9,127.6,44,127.6,44.2z"/>
		<path id="XMLID_258_" class="st0" d="M116.4,54.9c0.2-0.3,0.2-0.6,0.6-0.8c0.3-0.2,0.6-0.2,0.9-0.4c0,0,0.1,0,0.1,0
			c0,0,0,0.1,0,0.1c-0.2,0.3-0.4,0.6-0.6,0.9c-0.2,0.3-0.6,0.4-0.9,0.3C116.5,55,116.4,54.9,116.4,54.9z"/>
		<path id="XMLID_257_" class="st0" d="M116.9,52.2c0,0.4-0.3,0.7-0.6,1c-0.1,0.1-0.2,0.1-0.3,0.2c-0.1,0-0.3,0.1-0.4-0.1
			c-0.1-0.1-0.1-0.3,0-0.4c0.2-0.3,0.5-0.5,0.8-0.7c0.1,0,0.1-0.1,0.2-0.1c0.1,0,0.1,0,0.2-0.1C116.9,52.1,116.9,52.1,116.9,52.2
			C116.9,52.2,116.9,52.2,116.9,52.2z"/>
		<path id="XMLID_256_" class="st0" d="M126.3,43.5c-0.1,0.2-0.1,0.3-0.2,0.5c-0.1,0.1-0.2,0.2-0.3,0.3c-0.1,0.1-0.2,0.1-0.3,0.1
			c-0.1-0.1,0-0.2,0-0.3c0.1-0.3,0.3-0.5,0.5-0.7c0.1-0.2,0.1-0.2,0.3,0C126.2,43.4,126.3,43.4,126.3,43.5z"/>
		<path id="XMLID_255_" class="st0" d="M107.1,88.4c0-0.1,0.1-0.2,0.1-0.3c0.1-0.2,0.2-0.2,0.3,0c0.1,0.3,0.2,0.6,0.3,0.9
			c0.1,0.2,0,0.4,0.1,0.6c0.1,0.2,0,0.5,0.1,0.6c0.1,0.2-0.1,0.4,0.2,0.6c0,0.6,0.2,1.1,0.3,1.7c0,0.4,0.2,0.7,0.2,1.1
			c0.1,0.3,0.1,0.7,0.2,1c0.2,0.6,0.3,1.2,0.4,1.8c0.1,0.4,0.1,0.7,0.2,1.1c0.1,0.3,0.1,0.7,0.3,1c0,0.4,0.1,0.8,0.2,1.3
			c0.1,0.4,0.1,0.8,0.3,1.2c0.1,0.2,0,0.4,0.1,0.6c0.1,0.2,0,0.5,0.1,0.7c0.1,0.2,0,0.5,0.2,0.7c0,0.6,0.2,1.1,0.3,1.7
			c0.1,0.5,0.2,1.1,0.4,1.6c0.1,0.5,0.2,0.9,0.3,1.4c0.1,0.4,0.2,0.9,0.3,1.3c0.1,0.4,0.1,0.7,0.3,1.1c0.1,0.3,0.1,0.7,0.2,1.1
			c0,0,0,0.1,0.1,0.1c0,0,0.1,0.1,0.1,0.1c0,0,0-0.1,0-0.1c0.1-0.4,0.2-0.8,0.4-1.2c0.1-0.4,0.2-0.8,0.3-1.2
			c0.1-0.4,0.2-0.8,0.3-1.3c0.1-0.4,0.2-0.8,0.4-1.2c0.1-0.4,0.2-0.8,0.3-1.3c0.1-0.4,0.2-0.8,0.3-1.2c0.1-0.5,0.2-0.9,0.4-1.4
			c0.2-0.5,0.3-1,0.4-1.5c0.2-0.6,0.3-1.1,0.5-1.7c0.1-0.4,0.2-0.7,0.3-1.1c0.1-0.3,0.2-0.6,0.3-0.9c0.1-0.3,0.2-0.6,0.2-0.9
			c0.1-0.4,0.3-0.8,0.4-1.2c0.1-0.5,0.3-0.9,0.4-1.4c0-0.1,0.1-0.2,0.2-0.2c0.2,0,0.2,0.1,0.3,0.2c0,0.1,0.1,0.2,0.1,0.3
			c0.2,0.6,0.4,1.2,0.5,1.9c0.3,0.4,0.3,0.9,0.5,1.4c0.1,0.5,0.3,1,0.4,1.5c0.2,0.7,0.4,1.5,0.7,2.2c0.1,0.4,0.2,0.8,0.3,1.2
			c0.1,0.4,0.3,0.8,0.4,1.2c0.2,0.7,0.4,1.4,0.5,2.1c0.2,0.9,0.4,1.8,0.7,2.7c0.1,0.4,0.2,0.8,0.3,1.2c0,0.4,0.2,0.8,0.2,1.3
			c0,0.1,0.1,0.1,0.1,0.2c0,0.1-0.1,0.2,0.1,0.3c0.2,0,0.2-0.2,0.2-0.2c0.1-0.4,0.2-0.8,0.3-1.3c0.1-0.5,0.2-1.1,0.4-1.6
			c0.1-0.3,0.1-0.7,0.2-1c0.1-0.3,0.2-0.5,0.2-0.8c0-0.3,0.1-0.5,0.2-0.8c0.1-0.3,0.2-0.5,0.2-0.8c0.1-0.6,0.3-1.1,0.3-1.6
			c0-0.4,0.2-0.9,0.3-1.3c0.1-0.2,0-0.4,0.1-0.6c0.1-0.3,0.1-0.7,0.2-1c0.1-0.4,0.2-0.8,0.3-1.1c0.2-0.6,0.3-1.2,0.4-1.9
			c0.2-0.1,0-0.4,0.2-0.6c0.1-0.1,0.1-0.4,0.1-0.5c0-0.2,0-0.4,0.1-0.6c0.2-0.6,0.3-1.2,0.5-1.9c0.1-0.3,0.2-0.7,0.2-1.1
			c0.1-0.5,0.2-1,0.3-1.4c0.1-0.4,0.2-0.9,0.4-1.3c0.1-0.4,0.3-0.8,0.2-1.2c0-0.1,0.1-0.3,0.2-0.4c0-0.1,0.2-0.1,0.2-0.1
			c0.1,0,0.2,0.1,0.2,0.2c0.1,0.3-0.1,0.5-0.1,0.8c-0.2,0.6-0.3,1.3-0.5,1.9c-0.1,0.2-0.1,0.4-0.1,0.6c-0.1,0.4-0.2,0.9-0.3,1.3
			c-0.1,0.3-0.1,0.7-0.2,1c-0.1,0.3-0.1,0.7-0.2,1c-0.1,0.3-0.2,0.7-0.3,1c-0.1,0.5-0.2,0.9-0.3,1.4c0,0.2-0.1,0.3-0.1,0.5
			c0,0.2,0,0.4-0.1,0.5c-0.1,0.2,0,0.4-0.2,0.5c0,0.4-0.2,0.7-0.2,1.1c-0.1,0.5-0.3,0.9-0.3,1.4c-0.1,0.5-0.3,1-0.3,1.5
			c0,0.3-0.1,0.6-0.2,0.9c-0.1,0.4-0.2,0.8-0.3,1.1c-0.1,0.3-0.2,0.6-0.2,1c-0.1,0.2-0.1,0.5-0.2,0.7c-0.2,0.5-0.3,1.1-0.4,1.6
			c-0.1,0.5-0.2,0.9-0.3,1.4c-0.1,0.5-0.2,0.9-0.4,1.4c-0.1,0.6-0.4,1.1-0.4,1.7c0,0,0,0.1-0.1,0.1c-0.1,0.1-0.1,0.1-0.2,0
			c-0.1-0.2-0.2-0.4-0.3-0.6c-0.2-0.6-0.4-1.3-0.5-1.9c-0.1-0.5-0.2-0.9-0.4-1.3c-0.1-0.2,0-0.4-0.1-0.6c-0.1-0.2-0.2-0.5-0.2-0.8
			c-0.1-0.3-0.1-0.5-0.2-0.8c-0.1-0.7-0.4-1.4-0.5-2.1c-0.1-0.7-0.4-1.3-0.5-1.9c-0.1-0.6-0.3-1.1-0.5-1.7c0-0.2-0.1-0.3-0.2-0.5
			c-0.2-0.8-0.4-1.5-0.7-2.3c0.1-0.3-0.2-0.6-0.2-0.9c-0.1-0.3-0.2-0.5-0.3-0.8c0-0.4-0.2-0.7-0.3-1.1c0-0.1,0-0.1-0.1-0.2
			c0,0,0,0-0.1-0.1c0,0,0,0.1,0,0.1c0,0.3-0.2,0.6-0.2,1c0,0.2-0.1,0.4-0.1,0.5c-0.1,0.3-0.2,0.7-0.3,1c-0.1,0.3-0.2,0.7-0.3,1
			c-0.1,0.4-0.2,0.7-0.3,1.1c-0.2,0.7-0.4,1.3-0.6,2c-0.1,0.4-0.3,0.9-0.4,1.3c-0.2,0.7-0.4,1.4-0.6,2.1c-0.1,0.4-0.2,0.8-0.4,1.2
			c-0.2,0.6-0.3,1.1-0.5,1.7c-0.1,0.3-0.2,0.6-0.3,0.9c-0.2,0.8-0.5,1.5-0.7,2.3c-0.1,0.4-0.2,0.8-0.4,1.1c-0.1,0.2-0.2,0.2-0.3,0.1
			c-0.1-0.1-0.1-0.2-0.2-0.4c-0.2-0.5-0.3-1.1-0.4-1.6c-0.1-0.5-0.2-1-0.3-1.6c-0.1-0.5-0.2-1.1-0.4-1.6c-0.1-0.3-0.1-0.5-0.2-0.8
			c-0.1-0.3-0.1-0.5-0.2-0.8c-0.2-0.5-0.2-1.1-0.4-1.6c-0.1-0.3-0.2-0.6-0.2-0.9c0-0.3-0.2-0.6-0.2-0.9c0-0.6-0.2-1.1-0.3-1.7
			c-0.1-0.5-0.2-1.1-0.4-1.6c-0.1-0.3-0.1-0.6-0.2-0.8c-0.1-0.3-0.1-0.6-0.1-0.8c-0.1-0.4-0.2-0.7-0.3-1.1c-0.1-0.2-0.1-0.4-0.1-0.7
			c-0.1-0.4-0.2-0.8-0.3-1.2c-0.1-0.2-0.1-0.5-0.1-0.7c-0.1-0.4-0.2-0.8-0.3-1.2c-0.1-0.2-0.1-0.4-0.1-0.6c-0.1-0.2,0-0.5-0.1-0.6
			c-0.2-0.2,0-0.5-0.2-0.6c0.1-0.2-0.1-0.5-0.1-0.7c-0.1-0.4-0.2-0.8-0.2-1.1C107.1,88.7,107.1,88.6,107.1,88.4z"/>
		<path id="XMLID_252_" class="st0" d="M61.2,112.1c0,0.1,0,0.2,0,0.2c0,0.1-0.1,0.2-0.2,0.2c-0.1,0-0.1-0.1-0.2-0.2
			c-0.1-0.3-0.1-0.5-0.2-0.8c0-0.2-0.1-0.3-0.1-0.5c0-0.2,0-0.3-0.1-0.5c-0.1-0.1,0-0.3,0-0.4c0-0.1-0.1-0.2-0.1-0.4
			c0-0.3-0.2-0.6-0.1-1c-0.2-0.5-0.1-1-0.3-1.5c0-0.1,0-0.1,0-0.2c0-0.3,0-0.7-0.1-1c0-0.2-0.1-0.3-0.3-0.4
			c-0.1-0.1-0.2-0.1-0.3-0.1c-2.5,0-5.1,0-7.6,0c-0.2,0-0.3,0-0.5-0.1c-0.1-0.1-0.3,0-0.3,0.2c0,0.2-0.1,0.4-0.1,0.7
			c0,0.2-0.1,0.4-0.1,0.7c-0.2,0.2,0,0.5-0.2,0.6c0,0.4-0.1,0.8-0.2,1.3c-0.1,0.4-0.1,0.8-0.3,1.2c0.1,0.4-0.2,0.8-0.2,1.3
			c0,0.1,0,0.3-0.1,0.4c0,0.1-0.1,0.1-0.2,0.1c0-0.1-0.3,0-0.2-0.2c0,0,0-0.1,0-0.1c0.1-0.4,0.3-0.9,0.4-1.3
			c0.1-0.3,0.2-0.7,0.2-1.1c0-0.2,0-0.5,0.1-0.7c0.1-0.2,0-0.5,0.2-0.7c0.1-0.1,0-0.4,0.1-0.6c0.1-0.2,0-0.5,0.1-0.7
			c0.1-0.2,0-0.5,0.2-0.7c0-0.6,0.2-1.1,0.3-1.7c0.1-0.5,0.2-0.9,0.3-1.4c0.1-0.4,0.2-0.7,0.3-1.1c0.1-0.5,0.2-1.1,0.3-1.6
			c0-0.2,0-0.3,0.1-0.5c0-0.1,0.1-0.3,0.1-0.4c0.1-0.4,0.1-0.8,0.3-1.2c0.1-0.2,0.1-0.4,0.1-0.6c0.1-0.3,0.1-0.6,0.2-0.9
			c0-0.3,0.1-0.6,0.2-0.9c0.2-0.5,0.2-1.1,0.4-1.6c0.1-0.3,0.1-0.6,0.2-0.9c0-0.3,0.1-0.6,0.2-0.8c0.1-0.5,0.2-0.9,0.4-1.4
			c0.1-0.3,0.2-0.4,0.6-0.4c0.3,0,0.6-0.1,1-0.1c0.3,0,0.7,0,1,0c0.3,0,0.6,0,0.9,0.1c0.2,0,0.3,0.3,0.4,0.4c0,0.6,0.2,1.1,0.3,1.7
			c0.1,0.5,0.3,1.1,0.4,1.6c0.1,0.6,0.3,1.1,0.3,1.7c0,0.3,0.1,0.6,0.2,0.9c0.1,0.3,0.2,0.6,0.2,0.8c0,0.4,0.2,0.8,0.2,1.2
			c0.1,0.4,0.1,0.9,0.3,1.3c0.1,0.2,0,0.4,0.1,0.7c0.1,0.2,0.1,0.5,0.1,0.7c0,0.2,0.1,0.5,0.1,0.7c0,0.3,0.1,0.6,0.2,0.9
			c0.1,0.3,0.1,0.6,0.2,0.9c0.1,0.3,0.1,0.5,0.1,0.8c0,0.3,0.2,0.6,0.1,1c0.1,0.1,0.1,0.3,0.1,0.5c0,0.2,0.1,0.3,0.1,0.5
			c0,0.2,0,0.4,0.1,0.6c0.1,0.3,0.1,0.6,0.1,1c0,0.2,0.1,0.3,0.1,0.5c0,0.2,0,0.3,0.1,0.5c0.1,0.3,0.1,0.6,0.1,0.9
			c0.1,0.4,0,0.7,0.2,1.1c0,0,0,0,0,0c0,0.1,0,0.3,0,0.4C61.1,111.9,61.2,112,61.2,112.1z M55.2,105.2c1.2,0,2.5,0,3.7,0
			c0.1,0,0.2,0,0.3,0c0.1,0,0.2-0.1,0.2-0.2c0-0.2-0.1-0.3-0.1-0.5c-0.1-0.4-0.1-0.9-0.2-1.3c-0.1-0.4-0.2-0.9-0.2-1.3
			c-0.1-0.5-0.2-1-0.2-1.5c-0.2-0.2,0-0.5-0.1-0.7c-0.2-0.5-0.2-1-0.3-1.5c0-0.3-0.2-0.6-0.1-0.9c-0.2-0.2-0.1-0.5-0.2-0.7
			c-0.1-0.2,0-0.6-0.1-0.8c-0.1-0.2,0-0.4-0.1-0.6c-0.2-0.3-0.1-0.7-0.3-1.1c-0.1-0.2,0-0.5-0.1-0.6c-0.1-0.2,0-0.5-0.2-0.6
			c0-0.4-0.2-0.7-0.2-1.1c0-0.3-0.1-0.5-0.2-0.8c0-0.1-0.1-0.2-0.3-0.2c-0.2,0-0.4,0-0.5,0c-0.2,0-0.4-0.1-0.6-0.1
			c-0.4,0-0.8,0.1-1.2,0.1c-0.1,0-0.1,0-0.2,0.1c-0.1,0.1-0.3,0.3-0.3,0.5c0,0.2-0.1,0.4-0.2,0.6c-0.1,0.5-0.2,1-0.3,1.6
			c0,0.2,0,0.5-0.1,0.7c-0.2,0.5-0.2,1.1-0.4,1.6c-0.1,0.4-0.2,0.8-0.3,1.2c-0.1,0.4-0.2,0.7-0.2,1.1c-0.1,0.4-0.3,0.8-0.2,1.2
			c-0.2,0.1,0,0.4-0.1,0.5c-0.1,0.2-0.2,0.4-0.1,0.5c0,0.2-0.1,0.4-0.1,0.6c0,0.1-0.1,0.2-0.1,0.4c0,0.1-0.1,0.3-0.1,0.4
			c-0.1,0.5-0.2,0.9-0.3,1.4c-0.1,0.2-0.1,0.4-0.1,0.6c0,0.2-0.1,0.4-0.2,0.6c-0.1,0.2,0,0.4-0.1,0.5c-0.1,0.2,0.2,0.3,0.4,0.3
			C52.7,105.2,53.9,105.2,55.2,105.2z"/>
		<path id="XMLID_249_" class="st0" d="M37.3,107.1c0,0.5,0,0.9,0,1.4c0,0.4-0.1,0.7-0.1,1.1c0,0.4,0,0.8,0,1.1c0,0.4,0,0.7,0,1.1
			c0,0.2-0.2,0.1-0.2,0.2c-0.1,0-0.1,0-0.2-0.1c-0.1-0.2-0.2-0.4-0.1-0.7c0.1-0.1,0-0.3,0-0.4c0-1.2,0-2.4,0-3.5
			c0-0.4,0.1-0.7,0.1-1.1c0-0.4,0-0.8,0-1.1c0-0.4,0-0.7,0-1.1c0-0.4-0.1-0.8,0-1.1c0.2-0.9,0.1-1.7,0.1-2.6c0-0.9-0.1-1.7,0-2.6
			c0.1-1.2,0.1-2.4,0.1-3.7c0-1.2,0-2.4,0-3.6c0-0.3,0-0.4,0.4-0.4c0.3,0,0.5,0.1,0.8,0.1c0.3,0,0.6-0.1,0.8,0
			c0.5,0.1,1.1,0.1,1.6,0.4c0.9,0.1,1.5,0.6,2.2,1c0.6,0.4,1.1,0.9,1.6,1.4c0.5,0.5,1.1,1.7,1.2,2.5c0.2,0.2,0,0.4,0.1,0.6
			c0.1,0.2,0,0.4,0.1,0.6c0,0.1,0.1,0.3,0.1,0.4c0,0.1,0,0.3,0,0.4c0,0.4-0.1,0.7-0.2,1.1c-0.1,0.7-0.4,1.3-0.6,1.8
			c-0.2,0.4-0.5,0.8-0.8,1.2c-0.3,0.3-0.7,0.7-1,1c-0.2,0.2-0.4,0.3-0.6,0.5c-0.2,0.1-0.2,0.3-0.1,0.5c0.2,0.7,0.4,1.4,0.7,2
			c0.4,0.9,0.6,1.8,0.9,2.6c0.2,0.4,0.3,0.8,0.4,1.3c0.2,0.6,0.4,1.3,0.7,1.9c0.1,0.2,0,0.2-0.1,0.3c-0.1,0.1-0.2,0-0.2-0.1
			c-0.2-0.3-0.3-0.6-0.4-1c-0.2-0.4-0.3-0.9-0.4-1.3c-0.1-0.4-0.2-0.7-0.4-1.1c-0.1-0.3-0.2-0.5-0.3-0.8c-0.1-0.3-0.2-0.5-0.3-0.8
			c-0.2-0.5-0.3-1-0.5-1.5c-0.2-0.5-0.3-1.1-0.6-1.6c-0.1-0.1-0.1-0.1-0.2-0.1c-0.1,0-0.1,0-0.2,0.1c-0.2,0.3-0.6,0.3-0.9,0.5
			c-0.3,0.1-0.6,0.3-1,0.4c-0.3,0.1-0.7,0.2-1,0.3c-0.4,0.1-0.8,0.3-1.3,0.2c-0.2,0-0.2,0.1-0.2,0.3
			C37.3,105.9,37.3,106.5,37.3,107.1z M37.3,102c0,0.8,0,1.5,0,2.3c0,0.3,0.1,0.3,0.3,0.4c0.5,0,1-0.2,1.5-0.3
			c0.7-0.2,1.4-0.4,2-0.7c1-0.5,1.9-1.1,2.7-1.8c0.5-0.5,0.8-1,1.1-1.5c0.4-0.6,0.6-1.3,0.6-2.1c0-0.7,0.1-1.3-0.1-2
			c-0.1-0.3-0.1-0.7-0.3-1c-0.2-0.4-0.3-0.8-0.5-1.2c-0.2-0.4-0.5-0.9-0.9-1.2c-0.1-0.1-0.3-0.2-0.4-0.3c-0.3-0.3-0.6-0.5-1-0.8
			c-0.5-0.4-1.1-0.7-1.7-0.9c-0.2-0.1-0.4,0-0.6-0.1c-0.2-0.1-0.4,0-0.6-0.1c-0.2-0.1-0.4-0.1-0.6-0.1c-0.4,0-0.8-0.1-1.3-0.1
			c-0.2,0-0.2,0.1-0.2,0.2c0,0.7,0,1.4,0,2c0,0.7,0,1.3-0.1,2c-0.1,0.9,0,1.9,0,2.8c0,0.9-0.1,1.9-0.1,2.8
			C37.3,100.9,37.3,101.4,37.3,102z"/>
		<path id="XMLID_248_" class="st0" d="M66.1,111c-0.1,0-0.3-0.3-0.2-0.4c0.1-0.1,0.2-0.2,0.2-0.3c0.4-0.5,0.8-1,1.2-1.5
			c0.6-0.7,0.9-1.5,1.3-2.3c0.1-0.2,0.1-0.5,0.1-0.7c0-0.2,0-0.4,0.1-0.5c0,0,0-0.1,0-0.2c-0.1-0.3-0.1-0.5-0.1-0.8
			c0-0.2-0.3-1.5-0.4-1.6c-0.4-0.5-0.6-1-0.9-1.6c-0.4-0.7-0.8-1.3-1.2-2c-0.2-0.3-0.3-0.5-0.5-0.8c-0.1-0.1-0.2-0.3-0.2-0.4
			c-0.1-0.3-0.1-0.6-0.1-0.9c0-0.3,0-0.6,0-0.8c0-0.6,0.1-1.2,0.3-1.8c0.3-0.8,0.7-1.5,1.2-2.1c0.2-0.3,0.4-0.5,0.6-0.8
			c0.1-0.1,0.2-0.3,0.3-0.4c0.1-0.1,0.1,0,0.2,0c0.1,0.1,0.1,0.1,0,0.2c-0.3,0.3-0.6,0.7-0.8,1c-0.1,0.2-0.2,0.3-0.3,0.5
			c-0.4,0.6-0.7,1.3-0.9,2c-0.1,0.2-0.1,0.5-0.1,0.8c0,0.4,0,0.9,0,1.3c0,0.7,0.2,1.3,0.6,1.8c0.3,0.5,0.6,0.9,0.9,1.4
			c0.3,0.5,0.6,0.9,0.8,1.3c0.3,0.6,0.6,1.1,0.8,1.7c0.2,0.2,0.1,0.4,0.2,0.6c0.1,0.3,0.1,0.6,0.1,0.9c0,0.3,0.1,0.6,0,0.9
			c-0.1,0.4-0.1,0.9-0.3,1.3c-0.2,0.4-0.3,0.8-0.6,1.2c-0.5,0.7-1,1.4-1.5,2.1c-0.2,0.3-0.3,0.6-0.6,0.8C66.2,111,66.1,111,66.1,111
			z"/>
		<path id="XMLID_247_" class="st0" d="M30.6,103.5c0-1.3,0.1-2.5,0-3.8c-0.1-1.5-0.1-3-0.1-4.5c0-1.5,0-3,0-4.5c0-0.1,0-0.2,0-0.3
			c0-0.1,0.1-0.2,0.2-0.3c0.1,0.1,0.1,0.1,0.2,0.2c0.2,0.2,0.2,0.4,0.1,0.6C31,91,31,91.3,31,91.5c0,2.7,0,5.3,0,8
			c0,0.6-0.2,1.2-0.1,1.8c0.1,0.9,0.1,1.7,0.1,2.6c0,0.9-0.1,1.7,0,2.6c0.1,0.6,0.1,1.1,0.1,1.7c0,0.2-0.1,0.4-0.1,0.7
			c0,0.2,0,0.5,0,0.6c0.1,0.4,0.1,0.8,0.1,1.2c0,0.1,0,0.1,0,0.2c0,0.1-0.1,0.2-0.2,0.2c-0.2,0-0.1-0.1-0.2-0.2
			c-0.1-0.1-0.1-0.2-0.1-0.4c0-0.5,0-1.1,0-1.6c0-0.1,0-0.3-0.1-0.4c-0.1-0.1-0.1-0.1-0.2,0c-0.8,0.6-1.6,1.2-2.4,1.7
			c-0.4,0.3-0.9,0.5-1.2,0.9c-0.3,0.3-0.6,0.2-1,0.1c-0.9-0.2-1.7-0.6-2.5-1.1c-0.5-0.3-1-0.5-1.4-0.8c-0.2-0.1-0.3-0.3-0.5-0.5
			c0-0.1-0.1-0.1-0.1-0.2c0-0.5-0.1-1-0.1-1.5c0-0.5,0-1,0-1.4c0-1-0.1-2-0.1-3c0-1,0-2,0-3c0-1,0.1-2,0-3C21,96,21,95.2,21,94.5
			c0-0.7,0.1-1.5,0-2.2c-0.1-0.7-0.1-1.4-0.1-2.1c0-0.1-0.1-0.2,0.1-0.2c0.2,0,0.4,0,0.5,0.1c0.1,0.3,0.1,0.5,0.1,0.8
			c0,0.1-0.1,0.2-0.1,0.3c0,0.4,0,0.8,0,1.1c0.2,1.2,0.1,2.4,0.1,3.7c0,1.2,0,2.5,0,3.7c0,1.2-0.1,2.5,0,3.7c0.1,1.5,0,2.9,0.1,4.4
			c0,0.2,0,0.5,0.1,0.7c0.1,0.2,0.3,0.5,0.5,0.6c0.6,0.3,1.2,0.7,1.8,1c0.5,0.3,1.1,0.4,1.7,0.7c0.3,0.1,0.6-0.1,0.8-0.2
			c0.6-0.4,1.2-0.9,1.9-1.3c0.3-0.2,0.5-0.4,0.7-0.6c0.3-0.2,0.6-0.5,0.9-0.6c0.3-0.1,0.4-0.3,0.4-0.6
			C30.6,106.1,30.6,104.8,30.6,103.5z"/>
		<path id="XMLID_246_" class="st0" d="M13.1,100.6c0,1.9,0,3.8,0,5.7c0,0.5,0.1,1,0.1,1.6c0,0.5-0.1,0.9-0.1,1.4c0,0.4,0,0.9,0,1.3
			c0,0.4-0.2,0.8-0.4,1.2c-0.3,0.5-0.6,1-1.2,1.2c-0.2,0.1-0.5,0.2-0.7,0.4c0,0-0.1,0-0.1,0c-0.3,0-0.5,0.1-0.7,0.2
			c-0.3,0.1-0.5,0-0.8,0.1c-0.6,0.2-1.2,0.1-1.9,0.1c-0.1,0-0.2,0-0.2,0c-0.1,0-0.2-0.1-0.2-0.2c0-0.1,0.1-0.2,0.2-0.2
			c0,0,0.1,0,0.1,0c0.3,0,0.6,0,0.9,0c0.3,0,0.6,0.1,0.8-0.1c0,0,0.1,0.1,0.2,0.1c0.3,0,0.7-0.1,1-0.2c0.1,0,0.2-0.1,0.3-0.1
			c0.7,0,1.2-0.5,1.6-1c0.3-0.4,0.4-0.8,0.5-1.3c0.1-0.5,0.2-1,0.2-1.5c0.1-0.4,0.1-0.8,0.1-1.3c0-0.4,0.1-0.8,0-1.2
			c-0.2-0.8-0.1-1.6-0.1-2.5c0-0.8,0-1.6,0-2.4c0-0.8,0.1-1.7,0-2.5c-0.2-1.7,0-3.5-0.1-5.2c-0.2-1.1,0-2.2-0.1-3.4
			c-0.1-0.8,0-1.6-0.1-2.4c0-0.2,0.2-0.2,0.2-0.2c0.1,0,0.2,0,0.3,0.1c0,0,0,0.1,0,0.2c0,1.8,0,3.7,0,5.5c0.2,1.1,0.1,2.2,0.1,3.4
			C13.1,98.4,13.1,99.5,13.1,100.6z"/>
		<path id="XMLID_245_" class="st0" d="M167.1,101.7c0-2.9,0-5.7,0-8.6c0-0.4-0.2-0.8-0.1-1.2c0-0.4,0-0.8,0-1.2
			c0-0.2,0-0.3,0.2-0.4c0.1-0.1,0.3,0,0.3,0.1c0,0.3,0.1,0.6,0.1,1c0,3.2,0,6.3,0,9.5c0,2.2,0,4.4,0,6.5c0,0.5-0.1,1-0.1,1.5
			c0,0.2,0,0.5,0.1,0.7c0.1,0.2,0,0.4-0.1,0.7c-0.1,0.3,0,0.4,0.3,0.4c1.1,0,2.3-0.1,3.4,0c1.1,0.1,2.2,0.1,3.4,0.1c0.7,0,1.3,0,2,0
			c0.2,0,0.2,0.1,0.1,0.2c0,0.1,0,0.2-0.2,0.2c-0.7,0-1.5,0.1-2.2,0c-1.1-0.1-2.2-0.1-3.4-0.1c-1.1,0-2.2,0-3.3,0
			c-0.1,0-0.2,0-0.2,0c-0.1,0-0.3-0.2-0.3-0.4c0-0.1,0-0.2,0-0.3C167.1,107.5,167.1,104.6,167.1,101.7z"/>
		<path id="XMLID_242_" class="st0" d="M140,112c-0.2,0-0.4,0-0.5,0c-0.3,0-0.7-0.1-1-0.2c-0.7-0.3-1.4-0.7-1.9-1.3
			c-0.5-0.5-0.8-1.1-1.1-1.7c-0.4-0.7-0.6-1.5-0.9-2.2c-0.1-0.3-0.2-0.7-0.3-1.1c-0.1-0.5-0.2-0.9-0.2-1.4c-0.2-0.2-0.1-0.5-0.1-0.8
			c0-0.2-0.1-0.4-0.1-0.7c0-0.2,0-0.5,0-0.7c-0.2-0.7-0.1-1.3-0.1-2c0-0.3,0-0.7,0-1c0-0.2,0-0.4,0.1-0.6c0.1-0.2-0.1-0.4,0.1-0.6
			c0.1-0.1,0-0.3,0-0.4c0-0.1,0.1-0.2,0.1-0.4c0.2-1,0.5-2,0.9-2.9c0.3-0.7,0.7-1.3,1.1-1.9c0.2-0.3,0.5-0.5,0.7-0.8
			c0.6-0.6,1.3-1.1,2.1-1.4c0.2-0.1,0.5-0.1,0.7-0.2c0.3,0,0.7,0,1,0c0.6,0.1,1.3,0.2,1.9,0.5c0.2,0.1,0.5,0.3,0.7,0.4
			c0.6,0.5,1.1,1.1,1.5,1.8c0.4,0.6,0.6,1.4,0.9,2c0,0.5,0.3,1,0.3,1.5c0.1,0.5,0.3,1,0.3,1.5c0.2,0.3,0,0.6,0.2,0.9
			c0.1,0.3,0,0.7,0.1,1c0.1,0.6,0.1,1.2,0.1,1.8c0,0.3-0.1,0.5-0.1,0.8c0,0.3,0.1,0.5,0,0.8c-0.1,0.3,0,0.6-0.1,0.8
			c-0.1,0.5-0.1,1-0.3,1.5c-0.1,0.4-0.2,0.9-0.3,1.3c-0.1,0.7-0.4,1.4-0.7,2c-0.2,0.4-0.4,0.9-0.7,1.3c-0.1,0.1-0.2,0.2-0.3,0.4
			c-0.5,0.7-1,1.3-1.9,1.6c-0.3,0.1-0.6,0.2-0.9,0.3c-0.2,0.1-0.4,0.1-0.7,0.1C140.5,112,140.3,112,140,112z M146.1,98.9
			c0.1-0.7-0.2-1.3-0.2-2c-0.2-0.2-0.1-0.4-0.1-0.5c-0.1-0.3-0.2-0.7-0.3-1c-0.1-0.6-0.3-1.2-0.6-1.8c-0.3-0.8-0.8-1.6-1.5-2.2
			c-0.5-0.4-1.2-0.9-1.9-1.1c-0.2-0.2-0.4-0.1-0.6-0.1c-0.6-0.1-1.1-0.1-1.6,0.1c-0.7,0.2-1.3,0.6-1.8,1.1c-0.1,0.1-0.2,0.3-0.4,0.3
			c-0.4,0.1-0.5,0.5-0.7,0.8c-0.3,0.4-0.5,0.9-0.7,1.3c-0.2,0.3-0.4,0.7-0.5,1c-0.3,0.9-0.5,1.7-0.6,2.6c0,0.3,0,0.5-0.1,0.8
			c-0.1,0.2-0.1,0.4-0.1,0.6c0,0.2-0.1,0.4-0.1,0.6c0,0.4,0,0.8,0,1.2c0,0.4-0.1,0.8,0.1,1.3c0.1,0.3-0.1,0.6,0.1,1
			c0.1,0.3,0.1,0.6,0.1,0.9c0.1,0.5,0.1,0.9,0.2,1.4c0.1,0.5,0.2,0.9,0.3,1.3c0.2,0.6,0.4,1.2,0.7,1.8c0.2,0.3,0.3,0.6,0.5,0.9
			c0.3,0.5,0.5,0.9,0.9,1.3c0.4,0.5,0.9,0.7,1.5,1c0.4,0.2,0.8,0.3,1.2,0.3c0.6,0.1,1.3-0.1,1.9-0.3c0.4-0.1,0.7-0.3,1-0.5
			c0.7-0.6,1.2-1.2,1.6-2c0.3-0.5,0.5-1.1,0.7-1.6c0.1-0.3,0.1-0.6,0.3-0.8c0.1-0.3,0.1-0.6,0.3-0.9c0.1-0.2,0.1-0.5,0.1-0.8
			c0-0.3,0.1-0.5,0.1-0.8c0-0.1,0-0.2,0-0.2c0.1-0.2,0.1-0.3,0.1-0.5c0-0.2,0.1-0.4,0.1-0.6c0-0.7,0-1.3,0.1-2
			C146.3,100,146,99.5,146.1,98.9z"/>
		<path id="XMLID_239_" class="st0" d="M152.5,99.3c0-0.7,0-1.3,0-2c0.2-2.3,0-4.7,0.1-7c0-0.3,0.1-0.3,0.3-0.3c0.5,0,1,0,1.5,0
			c0.6,0.1,1.2,0.2,1.8,0.3c0.5,0.1,0.9,0.3,1.4,0.5c0.3,0.2,0.6,0.4,0.9,0.6c0.3,0.2,0.6,0.5,1,0.8c0.4,0.4,0.7,0.9,1,1.4
			c0,0.3,0.3,0.4,0.3,0.7c0.3,0.3,0.3,0.8,0.4,1.2c0,0,0,0.1,0.1,0.1c0.1,0.5,0.1,1.1,0.1,1.6c0,0.5,0,0.9-0.1,1.4
			c-0.2,0.7-0.4,1.4-0.8,2c-0.3,0.5-0.6,0.9-1,1.3c-0.3,0.4-0.6,0.8-1.1,1c-0.1,0.1-0.2,0.2-0.3,0.3c0,0.1-0.1,0.2-0.1,0.3
			c0.2,0.5,0.3,1,0.4,1.5c0.2,0.5,0.2,1,0.5,1.4c0.4,0.8,0.5,1.6,0.9,2.3c0.2,0.5,0.3,1,0.5,1.5c0.1,0.4,0.3,0.9,0.4,1.3
			c0.1,0.2,0,0.3-0.1,0.3c-0.1,0.1-0.2-0.1-0.3-0.2c-0.1-0.3-0.3-0.5-0.3-0.8c-0.1-0.4-0.3-0.9-0.5-1.3c-0.3-0.8-0.6-1.6-0.9-2.3
			c-0.3-0.8-0.6-1.7-0.8-2.6c-0.1-0.2-0.1-0.4-0.2-0.6c0-0.1-0.1-0.2-0.1-0.3c-0.1-0.2-0.2-0.2-0.4-0.1c-0.2,0.1-0.5,0.2-0.7,0.4
			c-0.9,0.4-1.2,0.5-2.2,0.7c-0.3,0.2-0.7,0-1.1,0.2c-0.1,0.1-0.3,0-0.5,0.1c0,0.2,0,0.4,0,0.5c0,0.7,0,1.5,0,2.2
			c0,0.4-0.1,0.8-0.1,1.3c0,0.4,0,0.9,0,1.3c0,0.4,0,0.9,0,1.3c0,0.1,0,0.1-0.1,0.2c0,0.1-0.1,0.2-0.2,0.2c-0.1,0-0.2-0.2-0.2-0.3
			c0-0.1,0-0.2,0-0.3c-0.1-2.5,0.2-5.1,0.1-7.6c0-0.4,0-0.7,0-1.1c0-0.6,0.1-1.1,0.1-1.7C152.5,100.4,152.5,99.8,152.5,99.3z
			 M152.8,101.8c0,0.8,0,1.6,0,2.4c0,0.3,0,0.2,0.3,0.3c0.5,0,0.9,0,1.4-0.1c0.4-0.1,0.8-0.2,1.1-0.4c0.4-0.1,0.8-0.3,1.1-0.5
			c0.5-0.2,1-0.4,1.4-0.8c0.3-0.1,0.4-0.4,0.7-0.6c0.2-0.1,0.3-0.2,0.4-0.4c0.1-0.1,0.2-0.3,0.3-0.4c0.4-0.3,0.6-0.8,0.8-1.2
			c0.3-0.5,0.3-1,0.5-1.5c0.1-0.3,0.2-0.7,0.2-1c0-0.6,0.1-1.2-0.1-1.8c-0.1-0.4-0.2-0.9-0.4-1.2c-0.5-1.1-1-2.1-2-2.8
			c-0.5-0.4-1-0.8-1.7-1.1c-0.7-0.3-1.5-0.4-2.3-0.5c-0.4-0.1-0.9,0-1.3,0c-0.2,0-0.3,0.1-0.4,0.3c0,0.1,0,0.1,0,0.2
			c0,1.5,0,3,0,4.4c0,1.5,0.1,3-0.1,4.5C152.7,100.4,152.8,101.1,152.8,101.8z"/>
		<path id="XMLID_236_" class="st0" d="M182.9,102c0-1,0.1-2.1,0-3.1c-0.2-2.7,0-5.3-0.1-8c0,0,0,0,0,0c0-0.2-0.1-0.5,0.2-0.6
			c0.2-0.1,0.4-0.1,0.6,0c0.3,0.1,0.5,0.1,0.8,0.1c0.4,0,0.9,0,1.3,0.1c0.5,0.1,1,0.2,1.4,0.4c0.5,0.2,1,0.4,1.5,0.7
			c0.9,0.5,1.7,1,2.3,1.8c0.4,0.5,0.8,1,1.1,1.6c0.2,0.3,0.3,0.6,0.5,0.9c0.3,0.6,0.5,1.2,0.6,1.9c0.1,0.3,0.1,0.6,0.2,0.9
			c0.1,0.3,0,0.6,0,0.9c0,0.1,0,0.3,0.1,0.4c0.1,0.1,0.1,0.3,0,0.3c-0.2,0.2-0.1,0.5-0.1,0.8c0.1,0.6-0.1,1.2-0.1,1.8
			c-0.1,0.6-0.2,1.2-0.4,1.7c-0.3,1.1-0.7,1.9-1.4,2.7c-0.6,0.8-1.3,1.4-2,1.9c-0.4,0.2-0.8,0.4-1.2,0.6c-0.3,0.1-0.6,0.2-0.9,0.3
			c-0.5,0.1-1,0.3-1.5,0.4c-0.4,0.1-0.9,0.1-1.3,0.3c-0.1,0-0.3,0-0.4,0c-0.2,0-0.3,0-0.5,0.1c-0.2,0.1-0.5-0.1-0.7-0.1
			c-0.1,0-0.1-0.1-0.1-0.2c0,0,0-0.1,0-0.1c0-1.4,0-2.7,0-4.1c0.2-0.7,0.1-1.4,0.1-2.1C182.9,103.4,182.9,102.7,182.9,102z
			 M183.3,100.5c0,3.1,0,6.2,0,9.3c0,0.1,0,0.2,0,0.3c0,0.1,0.1,0.2,0.2,0.2c0.3,0,0.6,0.1,0.9,0c0.4-0.1,0.9-0.2,1.3-0.3
			c0.7-0.2,1.3-0.3,2-0.5c0.8-0.3,1.5-0.7,2.1-1.3c0.1-0.1,0.2-0.2,0.3-0.3c0.6-0.3,0.9-0.9,1.3-1.3c0.4-0.5,0.5-1,0.8-1.6
			c0.1-0.2,0.2-0.4,0.2-0.7c0.1-0.6,0.3-1.1,0.3-1.7c0.2-0.3,0-0.6,0.1-0.9c0.1-0.3,0.1-0.6,0.1-1c0-0.8,0.1-1.6-0.1-2.5
			c-0.1-0.4-0.2-0.8-0.3-1.2c-0.1-0.4-0.3-0.8-0.4-1.2c-0.3-0.9-0.7-1.6-1.3-2.2c-0.1-0.1-0.1-0.1-0.2-0.2c-0.3-0.6-0.9-0.9-1.4-1.4
			c-0.5-0.2-0.9-0.6-1.4-0.8c-0.6-0.2-1.1-0.5-1.8-0.6c-0.1-0.2-0.4,0-0.5-0.1c-0.2-0.1-0.4,0-0.6-0.1c-0.1,0-0.1,0-0.2,0
			c-0.4-0.2-0.8,0-1.3-0.1c-0.1,0-0.1,0.1-0.1,0.2c0,0.1,0,0.2,0,0.3C183.3,94.3,183.3,97.4,183.3,100.5z"/>
		<path id="XMLID_235_" class="st0" d="M75.2,110.9c-0.3,0-0.3-0.1-0.3-0.2c0-0.1,0.1-0.2,0.2-0.3c0.2-0.3,0.5-0.6,0.7-0.8
			c0.4-0.5,0.9-1,1.3-1.6c0.2-0.3,0.3-0.7,0.5-1c0.1-0.3,0.3-0.7,0.4-1c0-0.1,0-0.2,0-0.3c0-0.5,0-1,0-1.5c0-0.2-0.2-1-0.3-1.2
			c-0.3-0.7-0.7-1.3-1.1-2c-0.2-0.3-0.4-0.7-0.6-1c-0.3-0.6-0.6-1.2-1-1.8c-0.1-0.3-0.2-0.6-0.3-0.8c-0.1-0.4,0-0.7-0.2-1.1
			c-0.1-0.1,0-0.4,0.1-0.6c0.1-0.2,0.1-0.4,0.1-0.7c0.2-0.8,0.6-1.7,1.1-2.3c0.3-0.5,0.7-0.9,1-1.4c0.1-0.2,0.3-0.3,0.4-0.4
			c0,0,0.1,0,0.1,0c0,0,0,0.1,0,0.1c0,0.1,0,0.2-0.1,0.4c-0.6,0.6-1,1.2-1.4,1.9c-0.3,0.5-0.6,1-0.7,1.6c-0.1,0.3-0.2,0.5-0.2,0.8
			c0,0.4,0,0.8,0,1.1c0.1,0.7,0.3,1.4,0.6,1.9c0.2,0.3,0.3,0.6,0.5,0.9c0.3,0.5,0.6,1,0.9,1.5c0.4,0.7,0.8,1.4,1.1,2.2
			c0.1,0.3,0.1,0.5,0.1,0.8c0,0.3,0,0.6,0,0.9c0,1.1-0.3,2.1-1,2.9c-0.3,0.5-0.7,0.9-1,1.3c-0.3,0.5-0.8,0.9-1,1.4
			C75.3,110.8,75.2,110.9,75.2,110.9z"/>
		<path id="XMLID_234_" class="st0" d="M95.7,91.2C95.7,91.2,95.8,91.3,95.7,91.2c0,0.2,0,0.4-0.1,0.5c-0.1,0.2-0.3,0.3-0.4,0.4
			c-0.3,0.2-0.5,0.4-0.7,0.7c-0.2,0.3-0.4,0.5-0.6,0.7c-0.3,0.4-0.7,0.9-1,1.3c-0.3,0.4-0.6,0.9-0.9,1.3c-0.3,0.6-0.6,1.2-0.8,1.8
			c-0.2,0.5-0.3,1-0.4,1.5c0,0.3,0,0.6-0.1,0.9c-0.2,0.7-0.1,1.4-0.1,2.1c0,0.2,0.1,0.4,0.1,0.6c0,0.2,0,0.3,0.1,0.5
			c0.1,0.2,0.1,0.5,0.1,0.7c0,0.3,0.1,0.7,0.3,1c0.1,0.2,0.1,0.4,0.2,0.6c0.3,0.6,0.7,1.2,1,1.8c0.4,0.8,1,1.5,1.7,2.1
			c0.4,0.4,0.8,0.8,1.4,1.1c0.1,0,0.2,0.1,0.2,0.2c0,0.1,0,0.2,0,0.3c0,0.1-0.1,0.2-0.2,0.1c-0.1-0.1-0.3-0.1-0.4-0.2
			c-0.8-0.8-1.7-1.6-2.4-2.4c-0.5-0.5-0.8-1.1-1.1-1.7c-0.3-0.6-0.6-1.1-0.7-1.7c0-0.2-0.1-0.4-0.2-0.5c0-0.2-0.1-0.3-0.1-0.5
			c-0.1-0.4-0.2-0.9-0.2-1.4c-0.1-0.4-0.1-0.8-0.1-1.2c0-0.4-0.1-0.8,0-1.2c0-0.3,0-0.5,0.1-0.8c0.1-0.2,0-0.5,0.2-0.7
			c0.1-0.2,0-0.5,0.1-0.7c0.3-0.9,0.6-1.8,1.2-2.6c0.3-0.5,0.7-1.1,1-1.6c0.1-0.2,0.2-0.4,0.4-0.6c0.4-0.4,0.8-0.8,1.2-1.3
			c0.2-0.2,0.4-0.5,0.6-0.7C95.3,91.4,95.5,91.3,95.7,91.2C95.7,91.2,95.7,91.2,95.7,91.2z"/>
		<path id="XMLID_233_" class="st0" d="M84.9,92.5c0,0.2,0,0.4,0,0.6c-0.2,1.2-0.1,2.4-0.1,3.7c0,1.2,0,2.5,0,3.7s0,2.5,0,3.7
			s0,2.5,0,3.7c0,1.2,0,2.5,0,3.7c0,0.1,0,0.2,0,0.3c0,0.1-0.1,0.2-0.1,0.2c-0.1,0-0.1,0-0.2-0.1c-0.1-0.1-0.2-0.2-0.2-0.3
			c0-0.1,0-0.2-0.1-0.3c0,0,0-0.2,0-0.2c0.2-0.3,0.1-0.6,0.1-1c0-1.3-0.1-2.6,0-3.9c0.1-2.2,0-4.4,0.1-6.7c0.2-0.6,0.1-1.1,0.1-1.7
			c0-0.6,0.1-1.2,0-1.7c-0.2-1.5-0.1-2.9-0.1-4.4c0-0.1-0.1-0.2-0.1-0.3c-0.1-0.3,0-0.6,0.2-0.7c0.1,0,0.2,0,0.2,0.1
			c0,0.2,0,0.4,0,0.5c0.1,0.2,0,0.3,0.1,0.5C84.9,92.1,84.9,92.3,84.9,92.5z"/>
		<path id="XMLID_232_" class="st0" d="M55.4,103.4c-0.4,0-0.9,0-1.3,0c-0.2,0-0.3-0.1-0.5-0.2c-0.1,0,0-0.1,0-0.2
			c-0.1-0.3,0.1-0.5,0.1-0.8c0-0.3,0-0.6,0.1-0.9c0.1-0.4,0.2-0.8,0.3-1.2c0.1-0.4,0.2-0.8,0.2-1.2c0.1-0.5,0.2-0.9,0.3-1.4
			c0.1-0.5,0.2-0.9,0.4-1.4c0.1-0.4,0.3-0.8,0.3-1.2c0-0.1,0-0.1,0.1-0.2c0,0,0-0.1,0-0.1c0,0,0.1,0,0.1,0.1c0,0,0,0.1,0.1,0.1
			c0.1,0.3,0.1,0.7,0.2,1c0.1,0.3,0.1,0.6,0.3,0.9c0.1,0.2,0.1,0.5,0.1,0.8c0,0.2,0,0.4,0.1,0.6c0.1,0.3,0.2,0.7,0.2,1
			c0.1,0.3,0.1,0.7,0.2,1c0,0.1,0,0.3,0.1,0.4c0,0.1,0.1,0.3,0.1,0.4c0,0.4,0.1,0.7,0.2,1.1c0.1,0.3,0,0.6,0,0.9
			c0,0.2-0.1,0.2-0.3,0.2C56.4,103.4,55.9,103.4,55.4,103.4z"/>
		<path id="XMLID_231_" class="st0" d="M42.8,97.2c0,0,0,0.1,0,0.1c0,0.1-0.2,0.3-0.1,0.4c0.1,0.2-0.1,0.3-0.1,0.4
			c0,0.1,0,0.1,0,0.2c0,0.1-0.1,0.2-0.2,0.2c0,0.1,0,0.2,0,0.2c0,0.1-0.1,0.1-0.1,0.2c-0.1,0.1-0.2,0.2-0.3,0.3
			c-0.1,0.1,0,0.3-0.2,0.4c-0.2,0.2-0.3,0.4-0.5,0.5c-0.1,0-0.1,0.1-0.1,0.1c-0.2,0.4-0.5,0.6-0.9,0.8c-0.2,0.1-0.3,0.4-0.6,0.4
			c-0.1,0-0.1,0.1-0.1,0.1c-0.1-0.1-0.1-0.1-0.1-0.2c0-0.1,0-0.1,0-0.2c0-0.1,0.1-0.2,0-0.3c-0.2-0.3-0.1-0.6-0.1-1
			c0-1.4,0-2.9,0-4.3c0-0.2-0.1-0.3,0.1-0.5c0-0.1,0-0.2,0-0.3c0-0.1-0.1-0.1-0.1-0.2c0.2-0.5,0.1-1,0.1-1.5c0-0.1,0-0.2,0.2-0.1
			c0.3,0.2,0.7,0.4,0.9,0.6c0.2,0.2,0.4,0.3,0.6,0.5c0.5,0.5,0.9,1,1.2,1.7c0.1,0.3,0.2,0.6,0.2,0.8C42.7,96.9,42.8,97,42.8,97.2z"
			/>
		<path id="XMLID_230_" class="st0" d="M137.5,103.1c0-0.4-0.1-0.9-0.1-1.4c0-0.3,0.1-0.7,0.1-1c0-0.3-0.1-0.7,0-1
			c0.1-0.5,0-1.1,0.1-1.6c0.1-0.6,0-1.3,0.1-1.9c0.1-0.7,0.2-1.4,0.6-2c0.3-0.5,0.7-0.8,1.1-1c0.1,0,0.2,0,0.2,0
			c0.4,0,0.8,0,1.2,0.1c0.1,0.1,0.3,0.1,0.4,0.2c0.4,0.3,0.6,0.8,0.9,1.3c0.2,0.5,0.2,1,0.4,1.4c0,0,0,0.1,0,0.1
			c0,0.6,0.1,1.2,0.1,1.9c0,0.6,0,1.2,0,1.8c0,0.4,0.1,0.7,0.1,1.1c0,0.4-0.1,0.8-0.1,1.2c0,0.4,0,0.8,0,1.2c0,0.1-0.1,0.2-0.1,0.3
			c0,0.2,0,0.3,0,0.5c0,0.1,0,0.3,0,0.4c-0.2,0.4,0,0.9-0.3,1.3c0.1,0.5-0.3,0.9-0.3,1.3c-0.3,0.7-0.6,1.3-1.3,1.6
			c-0.5,0.2-1.1,0.1-1.5-0.2c-0.4-0.3-0.6-0.7-0.8-1.2c-0.2-0.5-0.3-1-0.5-1.5c-0.1-0.2-0.1-0.4-0.1-0.6c-0.1-0.4-0.1-0.8-0.1-1.2
			C137.5,104,137.5,103.6,137.5,103.1z"/>
		<path id="XMLID_229_" class="st0" d="M155,98.4c0-0.7,0-1.4,0-2.1c0-0.3-0.1-0.5,0.1-0.8c0,0,0-0.1,0-0.2c0-0.1-0.1-0.2-0.1-0.3
			c0-0.6,0-1.2,0-1.8c0-0.1,0.1-0.2,0.2-0.2c0.1,0,0.2,0,0.2,0.1c0.6,0.2,1,0.6,1.5,1c0.5,0.4,0.8,0.9,1.2,1.5
			c0.1,0.2,0.2,0.4,0.2,0.7c0.1,0.3,0.2,0.7,0.1,1.1c-0.1,0.5-0.2,1-0.4,1.5c-0.3,0.6-0.6,1.1-1.1,1.5c-0.5,0.4-0.9,0.7-1.4,1
			c-0.3,0.1-0.4,0.1-0.4-0.3C155,100.2,155,99.3,155,98.4z"/>
		<path id="XMLID_228_" class="st0" d="M185.5,105.8c0-0.4-0.1-0.8-0.1-1.2c0-0.4,0-0.8,0-1.2c0-0.2,0-0.4,0-0.6
			c0-0.2-0.1-0.4,0-0.6c0.2-1.7,0.1-3.4,0.1-5.2c0.2-0.8,0.1-1.6,0.1-2.4c0-0.1,0-0.1,0.1-0.2c0-0.1,0.1-0.2,0.2-0.2
			c0.6,0,1,0.1,1.5,0.4c0.3,0.2,0.6,0.4,0.8,0.6c0.8,0.8,1.3,1.8,1.7,2.9c0.1,0.4,0.2,0.8,0.3,1.2c0,0.3,0.1,0.7,0.1,1
			c-0.1,0.7-0.1,1.4-0.3,2c-0.2,0.7-0.4,1.3-0.8,1.9c-0.1,0.2-0.2,0.5-0.4,0.7c-0.3,0.3-0.5,0.7-0.9,0.9c-0.4,0.3-0.7,0.6-1.1,0.8
			c-0.2,0.1-0.3,0.2-0.5,0.3c-0.1,0-0.2,0.1-0.3,0.1c-0.1-0.1-0.2-0.2-0.3-0.4C185.5,106.4,185.5,106.1,185.5,105.8z"/>
	</g>
</g>
</svg>
