<svg class="hexagon-button" viewBox="0 0 38 44" xmlns="http://www.w3.org/2000/svg" aria-hidden="true">
	<style>
		.hexagon-button-border {
			fill: #00b7e4;
		}

		hexagon-button-fill {
			fill: #142b43;
			opacity: 0.5;
		}

		.hexagon-button-icon {
			fill: #FFF;
		}
	</style>
			<path class="hexagon-button-icon" d="M28.625 17.652c-.1-.11-.232-.188-.39-.198-.14-.008-.3.053-.41.15l-8.726 7.75-8.726-7.75c-.11-.1-.27-.158-.41-.15-.158.01-.293.087-.39.198l-.82.922c-.098.11-.16.27-.15.41.01.14.087.292.198.39l8.758 7.78 1.115.993c.02.02.045.04.07.06.105.075.235.124.355.124s.25-.048.353-.124c.025-.018.05-.037.07-.06l1.116-.993 8.758-7.778c.11-.1.19-.25.198-.39.007-.14-.054-.3-.152-.41l-.82-.923z"></path>
	</svg>