<?xml version="1.0" encoding="utf-8"?>
<!-- Generator: Adobe Illustrator 19.0.0, SVG Export Plug-In . SVG Version: 6.00 Build 0)  -->
<svg version="1.1" id="Layer_1" xmlns="http://www.w3.org/2000/svg" xmlns:xlink="http://www.w3.org/1999/xlink" x="0px" y="0px"
	 viewBox="0 0 394.1 305.9" style="enable-background:new 0 0 394.1 305.9;" xml:space="preserve">
<style type="text/css">
	.st0{opacity:0.5;fill:#132B43;}
	.st1{fill:#00B7E3;}
	.st2{opacity:0.18;}
	.st3{opacity:0.5;}
	.st4{opacity:0.3;}
</style>
<g id="XMLID_21_">
	<polygon id="XMLID_1_" class="st0" points="227.6,287 172.5,193.5 227.6,100 337.8,100 393,193.5 337.8,287 	"/>
	<path id="XMLID_18_" class="st1" d="M338.4,288H227l-55.7-94.5l0.3-0.5L227,99h111.4l55.7,94.5l-0.3,0.5L338.4,288z M228.2,286
		h109.1l54.5-92.5L337.3,101H228.2l-54.5,92.5L228.2,286z"/>
</g>
<g id="XMLID_17_" class="st2">
	<polygon id="XMLID_2_" class="st0" points="56.3,188 1.2,94.5 56.3,1 166.5,1 221.7,94.5 166.5,188 	"/>
	<path id="XMLID_14_" class="st1" d="M167.1,189H55.7L0,94.5L55.7,0h111.4l55.7,94.5l-0.3,0.5L167.1,189z M56.9,187H166l54.5-92.5
		L166,2H56.9L2.3,94.5L56.9,187z"/>
</g>
<g id="XMLID_13_" class="st3">
	<polygon id="XMLID_3_" class="st0" points="227.9,91 203.9,50.2 227.9,9.4 276,9.4 300.1,50.2 276,91 	"/>
	<path id="XMLID_10_" class="st1" d="M276.6,92h-49.2l-24.6-41.8l24.6-41.8h49.2l24.6,41.8L276.6,92z M228.5,90h47l23.5-39.8
		l-23.5-39.8h-47l-23.5,39.8L228.5,90z"/>
</g>
<g id="XMLID_9_" class="st4">
	<polygon id="XMLID_4_" class="st0" points="101.2,304.9 69.1,250.4 101.2,196 165.4,196 197.5,250.4 165.4,304.9 	"/>
	<path id="XMLID_6_" class="st1" d="M165.9,305.9h-65.3l-32.7-55.4l32.7-55.4h65.3l32.7,55.4L165.9,305.9z M101.8,303.9h63
		l31.5-53.4L164.8,197h-63l-31.5,53.4L101.8,303.9z"/>
</g>
</svg>
