<?xml version="1.0" encoding="utf-8"?>
<!-- Generator: Adobe Illustrator 19.0.0, SVG Export Plug-In . SVG Version: 6.00 Build 0)  -->
<svg version="1.1" id="Layer_1" xmlns="http://www.w3.org/2000/svg" xmlns:xlink="http://www.w3.org/1999/xlink" x="0px" y="0px"
	 viewBox="0 0 394.5 312" style="enable-background:new 0 0 394.5 312;" xml:space="preserve">
<style type="text/css">
	.st0{opacity:0.5;fill:#132B42;}
	.st1{fill:#00B6E3;}
	.st2{opacity:0.5;}
	.st3{opacity:0.2;}
	.st4{opacity:0.4;}
</style>
<g id="XMLID_21_">
	<polygon id="XMLID_2_" class="st0" points="228,213.4 172.8,119.9 228,26.4 338.2,26.4 393.3,119.9 338.2,213.4 	"/>
	<path id="XMLID_18_" class="st1" d="M338.8,214.4H227.4l-55.7-94.5l0.3-0.5l55.4-94h111.4l55.7,94.5l-0.3,0.5L338.8,214.4z
		 M228.5,212.4h109.1l54.5-92.5l-54.5-92.5H228.5L174,119.9L228.5,212.4z"/>
</g>
<g id="XMLID_17_" class="st2">
	<polygon id="XMLID_3_" class="st0" points="99.2,116.1 65.3,58.5 99.2,1 167.1,1 201,58.5 167.1,116.1 	"/>
	<path id="XMLID_14_" class="st1" d="M167.6,117.1h-69L64.2,58.5L98.7,0h69l34.5,58.5L167.6,117.1z M99.8,115.1h66.7l33.3-56.5
		L166.5,2H99.8L66.5,58.5L99.8,115.1z"/>
</g>
<g id="XMLID_13_" class="st3">
	<polygon id="XMLID_4_" class="st0" points="56.3,311 1.2,217.5 56.3,124.1 166.5,124.1 221.7,217.5 166.5,311 	"/>
	<path id="XMLID_10_" class="st1" d="M167.1,312H55.7L0,217.5l55.7-94.5h111.4l55.7,94.5l-0.3,0.5L167.1,312z M56.9,310H166
		l54.5-92.5L166,125.1H56.9L2.3,217.5L56.9,310z"/>
</g>
<g id="XMLID_9_" class="st4">
	<polygon id="XMLID_5_" class="st0" points="227.2,296.3 205.2,259 227.2,221.6 271.2,221.6 293.2,259 271.2,296.3 	"/>
	<path id="XMLID_6_" class="st1" d="M271.8,297.3h-45.2L204,259l22.6-38.3h45.2l22.6,38.3L271.8,297.3z M227.7,295.3h42.9l21.4-36.3
		l-21.4-36.3h-42.9L206.3,259L227.7,295.3z"/>
</g>
</svg>
