<?xml version="1.0" encoding="utf-8"?>
<!-- Generator: Adobe Illustrator 19.0.0, SVG Export Plug-In . SVG Version: 6.00 Build 0)  -->
<svg version="1.1" id="Layer_1" xmlns="http://www.w3.org/2000/svg" xmlns:xlink="http://www.w3.org/1999/xlink" x="0px" y="0px"
	 viewBox="0 0 300.5 43" style="enable-background:new 0 0 300.5 43;" xml:space="preserve">
<style type="text/css">
	.st0{fill:#FFFFFF;}
</style>
<g id="XMLID_1_">
	<path id="XMLID_88_" class="st0" d="M177,0c0.7,4.4,1.3,8.8,2,13.2c0.3,1.7,0.7,3.5,1.7,5.2c0.7-3.2,1.4-6.3,2.1-9.9
		c2.6,0.2,5,0.3,7.4,0.5c0.8,3.4,1.5,6.5,2.2,9.6c0.4,0,0.8-0.1,1.1-0.1c0.9-5.7,1.9-11.5,2.8-17.6c3,0.5,5.9,1,9,1.5
		c-2.5,13.7-5,27.2-7.4,40.6c-3,0-6,0-9,0c-0.8-4.5-1.6-9-2.5-13.4c-0.3,0-0.6,0-0.9,0c-1.2,4.5-2.5,9-3.7,13.4c-2.3,0-4.7,0-7,0
		c-2.4-13.5-4.8-26.9-7.3-40.7c2.4-0.8,4.9-1.6,7.3-2.3C175.7,0,176.3,0,177,0z"/>
	<path id="XMLID_87_" class="st0" d="M8,0c2.5,0.5,5,1.1,8.6,1.8c0,9.6-0.1,19.4,0,29.3C16.8,35.8,15.9,40,12,43c-3.7,0-7.3,0-11,0
		c-0.3-0.3-0.7-0.7-1-1c0-3,0-6,0-9c1.8,0.3,3.5,0.7,5.8,1.1C8.8,22.5,5.8,11.2,6,0C6.7,0,7.3,0,8,0z"/>
	<path id="XMLID_86_" class="st0" d="M105,43c-2.1-1.8-4.6-4.2-6.6-6c0.6-0.5,0.6-0.5,0.8-0.6c8.4-6.5,8.4-6.5,2.8-16
		c-0.8-1.3-1.3-2.6-2.5-5c2.3-3.8,4.8-8.1,7.6-12.8c3.7,2.7,6.3,4.7,8.8,6.6c-2.2,2.6-4.3,5.1-6.2,7.3c1.7,5.6,7.7,8.4,6.3,14.4
		C114.8,36.3,105.7,43,105,43z"/>
	<path id="XMLID_85_" class="st0" d="M122,43c-2-1.9-4-3.7-6.4-5.9c1.1-0.9,2.1-1.7,3.1-2.4c5.1-4,5.5-6.4,2-11.7
		c-5-7.7-3.6-13.7,4.6-19.4c2.5,1.9,5.1,3.8,7.5,5.7c-2.3,2.7-4.4,5.2-6.5,7.8c1.4,2,2.4,3.5,3.4,5c4.5,6,4.3,10.7-0.6,16.4
		C127.9,39.9,123,43,122,43z"/>
	<path id="XMLID_84_" class="st0" d="M158,43c-14.4-9.7-12.5-26.5-5.5-34.5c1.7-1.9,3.8-3.5,6.5-5.9c2.3,2.4,4.3,4.4,6.7,6.8
		c-5.7,3.7-9.8,7.7-9.6,14.2c0.2,6.4,3.9,10.3,10.6,12.5c-2.9,2.7-5.3,4.8-7.6,6.9C158.7,43,158.3,43,158,43z"/>
	<path id="XMLID_80_" class="st0" d="M30.3,5c0,8.9,0,17.3,0,26.1c1.3,0.3,2.7,0.7,4.8,1.3c0-9.4,0-18.3,0-27.4
		c3.2-0.3,6.2-0.6,9.4-0.9c0,12.3,0,24.3,0,37.1c-3.1,0-5.8,0-8.4,0c0-0.3-0.1-0.6-0.1-0.9c-1.3,0.6-2.7,1.2-4.6,2
		c-3.3-1.9-6.8-3.9-10-5.8c0-11,0-21.3,0-32.1C23.9,4.6,26.7,4.8,30.3,5z"/>
	<path id="XMLID_77_" class="st0" d="M81.4,34.7c-0.6,2.3-1.1,4.1-1.7,6.1c-2.5,0-4.8,0-7.8,0c2.1-12.1,4.3-24.2,6.5-36.6
		c3.9,0,7.8,0,12.3,0c2.1,12.2,4.3,24.4,6.6,37.1c-3.3,0.2-6,0.3-8.8,0.5c-0.6-2.5-1.1-4.5-1.6-6.8C85.2,35,83.5,34.9,81.4,34.7z
		 M86.1,26.7c-0.5-3.2-0.9-6-1.4-8.9c-0.2,0-0.5-0.1-0.7-0.1c-0.6,2.9-1.3,5.8-1.9,9C83.5,26.7,84.6,26.7,86.1,26.7z"/>
	<path id="XMLID_74_" class="st0" d="M49.1,5.1C56,4.2,63,2.2,67.8,9.9c3.4,5.6,3.1,9.5-1.9,16.1c1.4,4.3,2.8,8.8,4.4,13.8
		c-2.2,0.8-4.3,1.5-6.8,2.4c-1.8-3.9-3.4-7.6-5.1-11.2c-0.4,0.1-0.7,0.1-1.1,0.2c0,3,0,6,0,9.4c-2.9,0-5.3,0-8.2,0
		C49.1,29.1,49.1,17.3,49.1,5.1z M57.3,11.3c0,4.7,0,7.9,0,11c0.5,0.1,0.9,0.3,1.4,0.4c0.8-2.2,2.1-4.4,2.3-6.7
		C61.1,14.9,59.1,13.5,57.3,11.3z"/>
	<path id="XMLID_73_" class="st0" d="M136.1,4.4c3,0.2,5.6,0.4,8.5,0.6c0,12,0,23.7,0,36c-2.8,0.2-5.4,0.3-8.5,0.5
		C136.1,29,136.1,16.9,136.1,4.4z"/>
	<path id="XMLID_70_" class="st0" d="M230.4,23.4c0,1.5-0.4,6.6-1.3,9.8c-1.8,7-4.9,9-12.3,8.8c-5.7-0.1-9.7-3-10.4-9.3
		c-0.7-6.3-0.6-13,0.6-19.2c1.3-7.1,6.4-10.2,13-9.5c5.7,0.6,9.4,4.9,9.9,11.8C230.1,18.4,230.4,21.9,230.4,23.4z M217.9,34
		c4.9-4.7,4.6-17.6-0.2-20.9C213.8,17.8,213.7,29,217.9,34z"/>
	<path id="XMLID_67_" class="st0" d="M277.2,41.8c0-12.6,0-24.5,0-36.7c7.7-0.6,15-0.6,19.7,6.6c4.9,7.5,4.6,15.6,0.7,23.2
		C293.3,43,285.1,41.6,277.2,41.8z M286.4,14.1c0,6.1,0,12.1,0,18.6c4.8-3.5,6.1-7.8,5.4-12.6C291.4,17.4,290.4,14.3,286.4,14.1z"/>
	<path id="XMLID_64_" class="st0" d="M232.5,5.1c10.5-2.2,15.2-1,18.9,5.1c3.1,5,2.5,9.7-2.2,15.5c1.4,4.5,2.9,9,4.4,14
		c-2.2,0.8-4.3,1.5-6.8,2.4c-1.7-3.7-3.2-7.2-4.8-10.8c-0.3,0-0.7,0.1-1,0.1c-0.2,3-0.4,5.9-0.6,9.2c-2.6,0-5,0-8,0
		C232.5,29,232.5,17.3,232.5,5.1z M241.1,12c0,3.9,0,6.8,0,9.7c0.4,0.1,0.7,0.2,1.1,0.4c1.1-2,2.3-3.9,3.5-6.1
		C244.1,14.6,242.9,13.6,241.1,12z"/>
	<path id="XMLID_63_" class="st0" d="M256.8,5.1c3.4,0,6,0,8.9,0c0,9.1,0,18.2,0,27.9c2.4,0.1,4.6,0.3,7.1,0.4c0,2.8,0,5.3,0,8.2
		c-5.4,0-10.6,0-16,0C256.8,29.5,256.8,17.6,256.8,5.1z"/>
</g>
</svg>
