<?xml version="1.0" encoding="utf-8"?>
<!-- Generator: Adobe Illustrator 19.0.0, SVG Export Plug-In . SVG Version: 6.00 Build 0)  -->
<svg version="1.1" id="Layer_1" xmlns="http://www.w3.org/2000/svg" xmlns:xlink="http://www.w3.org/1999/xlink" x="0px" y="0px"
	 viewBox="0 0 512 512" style="enable-background:new 0 0 512 512;" xml:space="preserve">
<path d="M420,113.8l-13.7-48.5L81.1,157.2l11.9,42h-0.3v247.5h337.9V199.2H117.8L420,113.8L420,113.8z M400.4,77.3l8.6,30.3
	l-30.3,8.6L400.4,77.3L400.4,77.3z M300.1,104.5l41.5-11.7l-22.5,40.2l-41.5,11.7L300.1,104.5L300.1,104.5z M194.3,134.4l46.1-13
	L218,161.7l-46.1,13L194.3,134.4L194.3,134.4z M92.1,163.4l42.6-12.1l-22.5,40.3l-11.3,3.2L92.1,163.4L92.1,163.4z M421.7,209.4
	v31.3h-31.3L421.7,209.4z M317.9,208.1h43.1l-32.6,32.6h-43.2L317.9,208.1L317.9,208.1z M208.1,208.1H256l-32.6,32.6h-47.9
	L208.1,208.1z M146.1,208.1l-32.6,32.6h-11.9v-32.6H146.1z"/>
</svg>
