<?xml version="1.0" encoding="utf-8"?>
<!-- Generator: Adobe Illustrator 19.0.0, SVG Export Plug-In . SVG Version: 6.00 Build 0)  -->
<svg version="1.1" xmlns="http://www.w3.org/2000/svg" xmlns:xlink="http://www.w3.org/1999/xlink" x="0px" y="0px"
	 viewBox="0 0 40 40" style="enable-background:new 0 0 40 40;" xml:space="preserve">
<g id="Layer_1">
	<g>
		<g id="XMLID_10_">
			<path id="XMLID_33_" d="M36.7,23.3c0.1-0.5,0.2-0.9,0.4-1.3c0.1-0.4,0.2-0.9,0.2-1.3l0.1,0.1c-0.6,0.5-0.9,1.4-1.2,2.1
				c-0.2,0.4-0.3,0.8-0.6,1.1c-0.1,0.2-0.3,0.4-0.4,0.5c-0.2,0.1-0.4,0.2-0.6,0.3l-0.3,0.1l0.1-0.3c0.3-0.7,0.4-1.4,0.3-2.2
				c0-0.7-0.2-1.5-0.3-2.2l0.4,0.1c-0.2,0.2-0.3,0.5-0.5,0.7c-0.2,0.3-0.4,0.6-0.7,0.8l0.1-0.2c-0.1,0.6-0.3,1.1-0.6,1.7
				c-0.3,0.5-0.8,1-1.3,1.3l-0.6,0.3l0.2-0.6c0.2-0.6,0.3-1.3,0.4-2c0-0.7-0.1-1.3-0.4-1.8l0.4,0.1c-0.1,0.1-0.3,0.3-0.4,0.6
				c-0.1,0.1-0.2,0.3-0.3,0.4c-0.1,0.1-0.4,0.3-0.7,0.2l-0.5-0.1l0.3-0.4c0.2-0.2,0.3-0.6,0.3-1l0.3,0.4c-0.1,0-0.1,0-0.2,0.1
				c0,0.1-0.1,0.2-0.1,0.4c0,0.1,0,0.2-0.1,0.3l-0.1,0.3c-0.1,0.2-0.2,0.4-0.3,0.5c-0.4,0.7-1,1.3-1.7,1.6l-0.7,0.4l0.2-0.8
				c0.2-0.5,0.4-1,0.5-1.5c0.1-0.5,0.2-0.9,0.1-1.4l0.7,0.2c-0.3,0.4-0.5,0.8-0.8,1.3c-0.3,0.4-0.8,0.9-1.3,1.1L26,23.4l0.4-0.8
				c0.4-0.8,0.7-1.7,0.4-2.4l0.7,0.1c-0.1,0.2-0.2,0.4-0.4,0.7c-0.1,0.2-0.2,0.3-0.4,0.5c-0.2,0.1-0.4,0.3-0.6,0.3L25.3,22l0.3-0.7
				c0.1-0.3,0.2-0.5,0.3-0.8c0-0.1,0-0.2,0-0.3c0-0.1,0-0.1-0.1-0.1l0.6-0.1c-0.2,0.3-0.4,0.8-0.7,1.2c-0.3,0.4-0.8,0.9-1.3,1
				l-0.9,0.2l0.4-0.8c0.4-0.7,0.6-1.5,0.5-2.2l0.2,0.3c-0.1,0-0.1-0.1-0.2-0.1c0,0-0.1,0-0.1,0c-0.1,0.1-0.3,0.2-0.4,0.4
				c-0.2,0.2-0.4,0.4-0.6,0.6c-0.3,0.2-0.6,0.3-1,0.3l-0.6,0l0.2-0.6c0.1-0.3,0.2-0.5,0.3-0.6c0.1-0.2,0.2-0.3,0.3-0.4
				c0.1-0.1,0.1-0.3,0.1-0.3c0-0.1,0-0.1-0.1-0.2l0.3,0.1c0,0,0,0-0.1,0.1c-0.1,0.1-0.2,0.1-0.3,0.3c-0.2,0.2-0.7,0.5-1.1,0.4
				l-0.6,0l0.2-0.6c0.1-0.3,0.3-0.5,0.4-0.6c0.1-0.2,0.2-0.3,0.2-0.4l0.3,0.6c-1-0.3-1.7-0.8-2.5-1.1c-0.4-0.2-0.8-0.3-1.1-0.3
				c-0.4,0-0.7,0-1.1,0.2c-0.3,0.2-0.7,0.4-1,0.7c-0.3,0.3-0.6,0.6-1,0.9l-2,1.7l0-0.6c0.9,0.9,1.8,1.7,3,2l0.1,0l0.1,0.1
				c1.4,1.9,2.7,3.8,4.3,5.4l-0.2-0.1c0,0,0,0,0,0s0,0,0.1-0.1c0-0.1,0.1-0.2,0.1-0.3c0.1-0.1,0.2-0.2,0.4-0.3l0.3-0.1l0.1,0.3
				c0.1,0.3,0,0.6-0.1,0.9c0,0.1-0.1,0.2-0.1,0.3c0,0.1,0,0,0,0L21,28.2c0.1,0,0.2-0.1,0.3-0.2c0.1-0.1,0.2-0.3,0.3-0.5l0.3-0.5
				l0.3,0.5c0.2,0.3,0.1,0.7,0,1c-0.1,0.3-0.2,0.5-0.2,0.7l-0.3-0.3c0.2,0,0.4-0.2,0.6-0.4c0.2-0.2,0.3-0.5,0.5-0.8l0.1-0.1l0.2,0
				c0.1,0,0.3,0.1,0.3,0.2c0.1,0.1,0.1,0.2,0.1,0.3l0,0.3l-0.2-0.2c0,0,0,0-0.1,0C23,28,23,28.1,23,28c0,0,0-0.2,0.2-0.3
				c0.2-0.1,0.2,0,0.3,0l0.1,0l0.1,0.1c0.4,0.8,0.5,1.8,0.2,2.7l-0.3-0.3c0.4-0.1,0.7-0.4,0.9-0.8c0.2-0.4,0.3-0.8,0.4-1.3l0.1-0.4
				l0.3,0.2c0.3,0.2,0.4,0.6,0.4,0.9c0,0.3,0,0.6,0,0.9c-0.1,0.3-0.2,0.6-0.3,0.9c-0.1,0.1-0.1,0.3-0.1,0.4c0,0.1,0,0.1,0.1,0.2
				l-0.2,0c0.7-0.6,1.2-1.4,1.3-2.3l0-0.4l0.3,0.2c0.4,0.3,0.4,0.8,0.4,1.2c0,0.4-0.1,0.8-0.2,1.2l-0.2-0.2c0.5-0.1,0.6-0.8,0.8-1.4
				l0.1-0.3l0.2,0.2c0.2,0.2,0.3,0.4,0.4,0.7c0,0.2,0,0.5,0,0.7c-0.1,0.4-0.2,0.9-0.3,1.3l-0.2-0.2c0.9-0.6,1.5-1.7,1.7-2.8l0.1-0.3
				l0.2,0.3c0.4,0.6,0.4,1.3,0.3,1.9c-0.1,0.6-0.2,1.2-0.5,1.8l-0.2-0.2c0.8-0.5,1.2-1.5,1.4-2.5l0.1-0.3l0.2,0.2
				c0.2,0.2,0.3,0.5,0.4,0.7c0,0.3,0,0.5,0,0.8l-0.1,0.7c0,0.2,0,0.5,0,0.6L30.7,33c0.3-0.2,0.5-0.5,0.6-0.9
				c0.1-0.4,0.2-0.8,0.3-1.3l0.1-0.3l0.2,0.2c0.3,0.2,0.3,0.5,0.4,0.8l0.1,0.7l0-0.1c0,0,0,0-0.1,0c-0.1,0-0.1,0,0,0
				c0,0,0.1-0.1,0.1-0.1c0,0,0.1-0.1,0.2,0c0.1,0,0.1,0.1,0.2,0.1c0.1,0.2,0.1,0.2,0.1,0.3c0,0.1,0.1,0.2,0.1,0.3
				c0.1,0.4,0.1,0.7,0.2,1.1c0,0.7,0,1.4,0.1,2l0,0.2L33.2,36c-0.7,0.4-1.2,1.1-1.9,1.7c-0.3,0.3-0.8,0.5-1.2,0.7
				c-0.5,0.1-0.9,0.1-1.4,0c-0.9-0.1-1.7-0.4-2.5-0.6c-0.8-0.2-1.7-0.5-2.5-0.8c-1.6-0.6-3.2-1.4-4.8-2l-2.4-0.9
				c-0.8-0.3-1.6-0.6-2.4-0.8c-1.6-0.5-3.3-0.6-5-1.1c-0.9-0.2-1.7-0.5-2.5-1.1c-0.8-0.6-1.3-1.5-1.5-2.3c-0.3-0.9-0.4-1.7-0.7-2.4
				c-0.3-0.7-0.9-1.4-1.4-2.1c-0.5-0.8-0.8-1.6-1.2-2.3c-0.1-0.2-0.2-0.4-0.3-0.5c-0.1-0.1-0.2-0.2-0.4-0.4c-0.3-0.3-0.7-0.4-1.1-1
				L0,19.9l0-0.2c0.2-0.7,0.3-1.4,0.8-2.1c0.2-0.3,0.5-0.7,0.8-0.9c0.3-0.2,0.7-0.4,1.1-0.5l-0.3,0.7c-0.3-0.7-0.2-1.3-0.1-1.8
				c0.1-0.5,0.3-1,0.4-1.5c0-0.1,0-0.2,0-0.3c0-0.1,0-0.1,0-0.3c0-0.1-0.1-0.2-0.1-0.4c0-0.1,0-0.4,0-0.6C2.7,11.5,3,11.2,3.4,11
				c0.2-0.1,0.4-0.1,0.7-0.1c0.2,0,0.5,0.2,0.6,0.3l-0.8,0.1c0.4-0.5,0.8-0.9,1.3-1.1c0.5-0.3,1-0.4,1.5-0.6
				c0.5-0.1,1.1-0.2,1.6-0.2c0.3,0,0.5,0,0.8,0.1c0.3,0.1,0.6,0.2,0.9,0.4c0.1,0.1,0.3,0.2,0.4,0.4c0.1,0.1,0.1,0.2,0.2,0.3l0,0.1
				l0,0l0,0l0,0.1l0,0.1l0,0.2c0,0.1,0,0.2-0.1,0.3c-0.1,0.2-0.2,0.3-0.3,0.5c-0.4,0.5-0.8,0.8-1.2,1.1c-0.2,0.2-0.4,0.3-0.5,0.5
				c-0.2,0.2-0.3,0.3-0.4,0.5c-0.1,0.1-0.1,0.2,0,0.4c0,0.1,0.1,0.1,0.1,0.2l0.2,0.2l-0.3-0.2c0.5,0,1,0.1,1.4,0.1
				c0.4,0,0.8,0,1-0.2c0,0,0.1-0.1,0.1-0.1c0,0,0,0,0-0.1c0-0.1,0.1-0.1,0.1-0.2c0.1-0.2,0.2-0.4,0.2-0.6c0.1-0.4,0.2-0.9,0.2-1.3
				c0-0.5,0-0.9,0-1.3c0-0.4-0.1-0.9-0.2-1.3c-0.2-0.9-0.4-1.8-0.7-2.6l0.5,0.3c-0.1,0-0.2,0-0.3,0c-0.1,0-0.3,0.1-0.5,0.1l0.4-0.2
				c-0.1,0.2-0.2,0.3-0.3,0.6c-0.1,0.1-0.3,0.3-0.3,0.3C9.7,8.4,9.5,8.5,9.4,8.5C8.8,8.8,8.3,8.8,7.9,8.8c-0.2,0-0.4,0-0.6,0
				c-0.1,0-0.2,0-0.3,0l-0.1,0l0,0l0,0c0,0,0,0,0,0l0,0l0,0c0,0-0.1,0-0.1,0c0,0-0.1,0-0.1,0.1L6.3,9.2C6.2,9.3,6.1,9.4,6,9.5
				C5.8,9.6,5.6,9.6,5.3,9.6l0.5-0.4c-0.1,0.4-0.2,0.7-0.5,1c-0.3,0.3-0.6,0.5-0.9,0.7c-0.7,0.3-1.4,0.3-2,0.3l-0.2,0l-0.1-0.1
				c-0.8-0.6-0.9-1.3-1-2c-0.1-0.7-0.1-1.3,0-2c0-0.1,0-0.2,0-0.3c0-0.2,0.1-0.2,0.1-0.3l0.2-0.3c0-0.2,0-0.5-0.1-0.8
				c0-0.2,0-0.4,0-0.6c0-0.2,0.2-0.5,0.4-0.7C1.9,4.2,2,4.2,2.1,4.1L2.2,4C2.3,4,2.3,4,2.4,4c0.5,0,0.3,0,0.4,0
				C4,3.7,5.2,3.3,6.2,2.7c1.1-0.6,2.3-1.1,3.7-1.2c0.7,0,1.3,0,2,0.2C12.6,2,13,2.1,13.6,2.1c0.3,0,0.7,0,1,0.2
				c0.4,0.2,0.6,0.4,0.9,0.5c0.5,0.4,0.9,0.5,1.6,0.7c0.7,0.2,1.2,0.5,1.8,0.7c0.6,0.3,1.1,0.5,1.7,0.9c1.1,0.6,2.2,1.3,3.1,2.2
				l-0.1-0.1c1.5,0.4,3,0.9,4.5,1.3c1.5,0.4,3,0.7,4.5,0.8l0,0l0,0c1.1,0.3,2.2,0.8,3.1,1.5c0.9,0.7,1.8,1.4,2.8,2l0,0l0,0
				c0.4,0.4,0.7,0.9,0.9,1.4c0.2,0.5,0.4,1,0.5,1.5c0.1,0.5,0.2,1.1,0.1,1.6c0,0.3-0.1,0.5-0.2,0.8c-0.1,0.3-0.2,0.5-0.4,0.7l0-0.1
				c0,0.5-0.1,1-0.3,1.5c-0.2,0.5-0.5,1-1,1.2l0,0c-0.1,0.4-0.3,0.8-0.5,1.1C37.5,22.9,37.2,23.3,36.7,23.3L36.7,23.3L36.7,23.3z
				 M36.9,23.3c0.3-0.1,0.6-0.4,0.8-0.7c0.2-0.3,0.4-0.7,0.5-1.1l0,0l0,0c0.4-0.3,0.7-0.7,0.9-1.1c0.2-0.5,0.2-1,0.2-1.5l0,0l0,0
				c0.1-0.2,0.3-0.4,0.3-0.7c0.1-0.2,0.1-0.5,0.1-0.7c0-0.5,0-1-0.2-1.5c-0.1-0.5-0.3-1-0.5-1.4c-0.2-0.5-0.5-0.9-0.9-1.2l0,0
				c-1-0.6-1.9-1.3-2.8-1.9c-0.9-0.6-1.9-1.1-3-1.4l0,0c-1.6-0.1-3.1-0.4-4.6-0.8c-1.5-0.4-3-0.8-4.5-1.2l-0.1,0l-0.1-0.1
				c-0.9-0.8-1.9-1.5-3-2.1c-0.5-0.3-1.1-0.6-1.6-0.8c-0.6-0.2-1.1-0.5-1.7-0.7C16.6,4.2,16.3,4.1,16,4c-0.3-0.1-0.6-0.3-0.9-0.5
				c-0.3-0.2-0.5-0.4-0.7-0.4c-0.2-0.1-0.5-0.1-0.8-0.1c-0.3,0-0.7,0-1-0.1c-0.3-0.1-0.6-0.2-0.9-0.3c-0.5-0.2-1.1-0.2-1.7-0.1
				C8.8,2.5,7.7,3,6.6,3.5c-1.1,0.6-2.3,1-3.6,1.3c-0.1,0.1-0.7,0-0.5,0c0.1,0,0,0,0,0l-0.1,0c0,0-0.1,0-0.1,0.1
				C2.4,5.1,2.3,5.2,2.4,5.5c0,0.3,0.1,0.6,0.1,1.1C2.3,6.9,2.2,7,2.2,7.1l0,0.1c0,0.1,0,0.1,0,0.2C2,7.9,2.1,8.5,2.1,9.1
				c0.1,0.5,0.3,1.1,0.6,1.3l-0.3-0.1c0.6,0,1.2-0.1,1.6-0.3c0.5-0.2,0.7-0.5,0.8-1l0.1-0.3l0.5-0.1c0,0,0,0,0,0
				c0,0,0.1-0.1,0.2-0.1c0.1-0.1,0.2-0.2,0.3-0.2C6,8.1,6.1,8,6.3,7.9l0.1,0l0.1,0l0,0l0.2,0c0.1,0,0.3,0,0.4,0c0.2,0,0.5,0,0.7,0
				c0.5,0,0.9,0,1.1-0.1c0.1,0,0.1-0.1,0.2-0.1c0.1-0.1,0.1-0.1,0.1-0.1C9.4,7.3,9.5,7,9.6,6.8l0.1-0.2l0.3,0c0.1,0,0.2,0,0.3-0.1
				c0.2,0,0.4-0.1,0.6-0.1l0.4,0l0.1,0.3c0.3,0.9,0.6,1.8,0.7,2.8c0.1,0.5,0.1,1,0.2,1.4c0,0.5,0,1,0,1.5c0,0.5-0.1,1-0.3,1.5
				c-0.1,0.2-0.1,0.5-0.3,0.7c-0.1,0.1-0.1,0.3-0.2,0.4c0,0.1-0.1,0.1-0.2,0.2c-0.1,0.1-0.1,0.1-0.2,0.2c-0.6,0.4-1.2,0.4-1.7,0.4
				c-0.5,0-1-0.1-1.4-0.1l-0.2,0l-0.1-0.1l-0.3-0.4c-0.1-0.1-0.2-0.3-0.2-0.5c-0.1-0.4-0.1-0.8,0.1-1.1c0.2-0.3,0.4-0.5,0.6-0.7
				c0.2-0.2,0.4-0.4,0.6-0.5c0.4-0.3,0.8-0.6,1-0.9c0-0.1,0.1-0.2,0.1-0.2c0,0,0,0,0,0c0,0,0-0.1,0-0.2c0,0,0-0.1-0.2-0.2
				c-0.1-0.1-0.3-0.2-0.5-0.2c-0.2,0-0.4-0.1-0.7-0.1c-0.5,0-0.9,0-1.4,0.1c-0.5,0.1-0.9,0.3-1.3,0.5c-0.4,0.2-0.8,0.5-1,0.8
				l-0.3,0.4l-0.5-0.3c-0.1-0.1-0.1-0.1-0.2,0c-0.1,0-0.2,0.2-0.2,0.2c0,0.1,0,0.1,0,0.2l0.1,0.4c0,0.1,0.1,0.3,0.1,0.5
				c0,0.2,0,0.3-0.1,0.5c-0.1,0.6-0.3,1-0.4,1.5c-0.1,0.5-0.1,0.9,0,1.2L3.5,17l-0.6,0.1c-0.6,0.1-1,0.5-1.3,1
				c-0.3,0.5-0.5,1.1-0.6,1.8l0-0.3C1,19.8,1.4,20,1.7,20.3c0.1,0.1,0.2,0.2,0.3,0.2c0,0,0.1,0.1,0.1,0.2c0.1,0.1,0.1,0.1,0.1,0.2
				c0.1,0.2,0.2,0.4,0.4,0.6C3,22.2,3.4,23,3.8,23.7c0.4,0.7,1,1.4,1.4,2.2c0.4,0.9,0.5,1.7,0.7,2.5c0.2,0.8,0.6,1.5,1.2,1.9
				c0.6,0.5,1.4,0.8,2.2,1c0.8,0.2,1.6,0.4,2.5,0.5c0.8,0.2,1.7,0.4,2.5,0.6c0.8,0.3,1.6,0.6,2.5,0.9l2.4,0.9
				c1.6,0.7,3.1,1.4,4.7,2.1c0.8,0.3,1.6,0.6,2.4,0.8c0.8,0.2,1.7,0.5,2.5,0.6c0.8,0.2,1.6,0,2.2-0.6c0.6-0.5,1.1-1.3,1.9-1.7
				l-0.1,0.2c-0.1-0.7-0.1-1.4-0.1-2.1c0-0.3,0-0.7-0.1-1c0-0.1,0-0.1-0.1-0.2c0-0.1-0.1-0.2-0.1-0.2c0,0,0.1,0.1,0.2,0l-0.1,0.1
				c0,0-0.1,0.1-0.3,0.1c-0.2,0-0.2-0.1-0.3-0.2l0,0l0,0c-0.1-0.5-0.1-1-0.4-1.3l0.3-0.1c-0.1,0.4-0.2,0.8-0.3,1.3
				c-0.1,0.4-0.3,0.9-0.8,1.2l-0.2,0.1l-0.1-0.2c-0.1-0.3-0.1-0.5,0-0.8l0.1-0.7c0-0.5,0-1-0.3-1.2l0.3-0.1c-0.1,0.5-0.3,1-0.5,1.5
				c-0.2,0.5-0.6,0.9-1,1.2l-0.5,0.3l0.2-0.5c0.3-0.5,0.4-1.1,0.5-1.7c0.1-0.6,0.1-1.2-0.2-1.7l0.3,0c-0.2,1.1-0.8,2.2-1.8,2.9
				l-0.4,0.3l0.2-0.5c0.1-0.4,0.2-0.8,0.3-1.2c0-0.4,0-0.8-0.2-1l0.3-0.1c-0.1,0.3-0.1,0.6-0.2,0.9c-0.1,0.3-0.4,0.6-0.8,0.7
				l-0.3,0.1l0.1-0.3c0.1-0.3,0.2-0.7,0.2-1.1c0-0.4-0.1-0.7-0.3-0.9l0.3-0.1c-0.1,1-0.7,1.9-1.4,2.5l-0.1,0.1L25,31.7
				c-0.1-0.1-0.2-0.1-0.2-0.2c-0.1-0.1-0.1-0.2,0-0.3c0-0.2,0.1-0.3,0.1-0.5c0.1-0.3,0.2-0.5,0.3-0.8c0-0.3,0.1-0.6,0-0.8
				c0-0.3-0.1-0.5-0.3-0.6l0.4-0.1c-0.1,0.5-0.2,1-0.4,1.4c-0.2,0.5-0.6,0.9-1.1,1l-0.5,0.2l0.1-0.5c0.2-0.7,0.1-1.6-0.2-2.3
				l0.1,0.1c0,0,0,0,0.1,0c0.1-0.1,0.1-0.1,0.1-0.1c0,0,0,0,0,0.1c0,0-0.1,0.1-0.2,0.2c-0.2,0.1-0.2,0-0.3,0l-0.2,0l0-0.2
				c0-0.1,0-0.2,0-0.3c0,0,0-0.1,0,0c0,0,0.1,0.1,0.1,0.1l0.3-0.2c-0.1,0.3-0.3,0.6-0.5,1c-0.2,0.3-0.5,0.6-1,0.7l-0.4,0l0.1-0.4
				c0.1-0.3,0.2-0.6,0.2-0.8c0.1-0.2,0.1-0.4,0-0.5l0.5,0c-0.1,0.2-0.2,0.4-0.3,0.6c-0.1,0.2-0.4,0.4-0.7,0.5l-0.1,0l-0.1-0.1
				c-0.2-0.1-0.2-0.4-0.2-0.6c0-0.2,0.1-0.3,0.1-0.4c0.1-0.2,0.1-0.3,0.1-0.5l0.4,0.2c0,0,0,0,0,0c0,0,0,0.1-0.1,0.2
				c0,0.1-0.1,0.2-0.2,0.3c-0.1,0.1-0.3,0.2-0.4,0.2l-0.1,0l-0.1-0.1c-1.7-1.6-3-3.6-4.5-5.4l0.2,0.1c-0.7-0.2-1.3-0.5-1.8-0.9
				c-0.5-0.4-1-0.9-1.5-1.3l-0.4-0.3l0.4-0.3l2-1.7c0.3-0.3,0.6-0.6,1-0.9c0.3-0.3,0.7-0.6,1.2-0.8c0.2-0.1,0.5-0.2,0.7-0.2
				c0.3,0,0.5-0.1,0.8,0c0.5,0,1,0.2,1.4,0.4c0.8,0.4,1.6,0.9,2.3,1.1l0.5,0.1l-0.2,0.5c-0.1,0.3-0.3,0.5-0.4,0.6
				c-0.1,0.2-0.2,0.3-0.3,0.4l-0.4-0.6c0.2,0,0.3-0.1,0.5-0.2c0.1-0.1,0.2-0.2,0.4-0.3c0.2-0.1,0.4-0.2,0.7-0.2l0.2,0l0.1,0.1
				c0.1,0.1,0.2,0.2,0.2,0.4c0.1,0.2,0.1,0.3,0.1,0.5c0,0.3-0.2,0.5-0.3,0.7c-0.2,0.3-0.5,0.6-0.6,0.8l-0.4-0.6c0.2,0,0.3,0,0.5-0.2
				c0.2-0.1,0.3-0.3,0.5-0.4c0.2-0.2,0.4-0.4,0.7-0.6c0.2-0.1,0.4-0.1,0.6-0.1c0.2,0,0.4,0.1,0.5,0.2l0.2,0.1l0,0.2
				c0,0.5,0,0.9-0.1,1.4c-0.1,0.5-0.3,0.9-0.5,1.3l-0.5-0.6c0.4-0.1,0.6-0.3,0.9-0.7c0.2-0.3,0.4-0.8,0.7-1.2l0.2-0.3l0.3,0.2
				c0.2,0.1,0.4,0.4,0.4,0.6c0,0.2,0,0.4,0,0.6c-0.1,0.4-0.2,0.7-0.3,1l-0.4-0.6c0.2,0,0.3-0.1,0.4-0.4c0.1-0.2,0.2-0.6,0.5-0.9
				l0.4-0.5l0.2,0.6c0.2,0.5,0.2,1.1,0.1,1.6c-0.1,0.5-0.3,1-0.5,1.4l-0.5-0.5c0.4-0.1,0.7-0.4,0.9-0.8c0.3-0.4,0.5-0.8,0.8-1.3
				l0.6-0.9l0.1,1c0.1,0.6,0,1.1-0.2,1.7c-0.2,0.5-0.4,1-0.5,1.5l-0.5-0.4c0.6-0.3,1.1-0.8,1.5-1.3c0.1-0.1,0.2-0.3,0.2-0.4l0.1-0.2
				c0,0,0-0.1,0.1-0.2c0-0.2,0.1-0.4,0.2-0.6c0.1-0.1,0.2-0.2,0.4-0.3c0.2-0.1,0.3-0.1,0.4,0l0.3,0L31,20.4
				c-0.1,0.4-0.1,0.8-0.4,1.2l-0.2-0.5c0.1,0,0.1,0,0.1-0.1c0.1-0.1,0.1-0.2,0.2-0.3c0.2-0.2,0.3-0.6,0.7-0.8l0.2-0.1l0.1,0.2
				c0.4,0.7,0.5,1.5,0.5,2.2c0,0.7-0.2,1.5-0.4,2.1l-0.4-0.3c0.9-0.5,1.5-1.5,1.7-2.6l0-0.1l0.1,0c0.5-0.2,0.6-0.9,1.1-1.4l0.3-0.3
				l0.1,0.4c0.2,0.8,0.3,1.5,0.3,2.3c0,0.8-0.1,1.6-0.4,2.3l-0.2-0.2c0.2-0.1,0.4-0.1,0.5-0.3c0.2-0.1,0.3-0.3,0.4-0.4
				c0.2-0.3,0.4-0.7,0.6-1.1c0.3-0.8,0.6-1.6,1.3-2.2l0.1-0.1l0,0.2c0,0.5-0.1,0.9-0.2,1.4C37.1,22.5,36.9,22.9,36.9,23.3z"/>
			<path id="XMLID_30_" d="M16.3,11.5c0.2-0.6,0.3-1.2,0.4-1.8c0.1-0.3,0.1-0.6,0.1-0.9l0-0.8c0-0.5-0.1-1.1-0.5-1.4
				c-0.4-0.3-1.1-0.2-1.7,0l0.1-0.1c-0.1,0.1-0.1,0.2-0.1,0.4c0,0.1,0,0.2,0.1,0.4c0.1,0.2,0.3,0.4,0.5,0.7c0.2,0.2,0.4,0.4,0.6,0.7
				C15.8,8.9,15.9,9,16,9.2c0.1,0.2,0.1,0.4,0.1,0.5c0,0.2,0,0.4,0,0.5c0,0.2,0,0.3,0,0.5c0,0.3-0.1,0.6-0.1,0.9
				c-0.1,0.6-0.2,1.1-0.2,1.7l-0.3-0.3c0.1,0,0.1,0.1,0.1,0.1c0,0,0.1,0,0.1,0c0.1-0.1,0.2-0.2,0.3-0.4
				C16.1,12.3,16.2,11.9,16.3,11.5z M16.4,11.5c-0.1,0.4-0.1,0.8-0.1,1.2c0,0.2,0,0.4-0.2,0.7c-0.1,0.1-0.2,0.3-0.4,0.3
				c-0.2,0-0.3,0-0.5,0l-0.2,0L15,13.5c-0.2-0.7-0.1-1.3-0.1-2l0.1-0.9c0-0.1,0-0.3,0.1-0.4c0-0.1,0-0.2,0-0.4c0-0.2,0-0.2,0-0.3
				c0-0.1-0.1-0.2-0.1-0.3c-0.1-0.2-0.3-0.5-0.4-0.8c-0.1-0.3-0.3-0.6-0.4-1c0-0.2,0-0.4,0-0.5c0.1-0.2,0.1-0.3,0.2-0.5l0-0.1l0.1,0
				c0.3-0.1,0.6-0.2,0.9-0.2c0.3,0,0.7-0.1,1,0.1c0.4,0.1,0.7,0.4,0.9,0.7c0.2,0.3,0.3,0.7,0.3,1c0,0.2,0,0.4,0,0.5l0,0.2
				c0,0.1,0,0.2,0,0.3c-0.1,0.3-0.2,0.6-0.4,0.9l-0.5,0.8C16.6,11,16.5,11.2,16.4,11.5z"/>
			<path id="XMLID_27_" d="M24.7,10.4c-0.2-0.2-0.4-0.3-0.6-0.5c-0.2-0.1-0.4-0.3-0.6-0.3c-0.1,0-0.2,0-0.3,0.1c-0.1,0-0.3,0-0.4,0
				c-0.2,0-0.5-0.1-0.8-0.2c-0.5-0.2-0.9-0.5-1.3-0.7c-0.4-0.2-0.8-0.3-1.2-0.3l0.4-0.4c0,0.2-0.2,0.3-0.2,0.3c0,0,0,0,0-0.1l0-0.2
				c0.1,0.5,0,1-0.2,1.5c-0.2,0.4-0.5,0.8-0.7,1.2c-0.2,0.4-0.3,0.8-0.2,1.2c0,0.4,0.2,0.8,0.5,1.1c0.2,0.1,0.2,0.1,0.4,0
				c0.2-0.1,0.3-0.2,0.7-0.3c0.4-0.1,0.9-0.2,1.4-0.2c0.9,0,1.8,0.1,2.7,0.3l0.2,0.1l0.1,0.3c0.1,0.3,0.3,0.4,0.7,0.6
				c0.4,0.2,0.8,0.3,1.3,0.6l-0.7,0.1c0.2-0.3,0.4-0.6,0.5-1c0.1-0.4,0-0.8-0.1-1.2c-0.1-0.4-0.3-0.8-0.6-1.2
				C25.4,11,25,10.7,24.7,10.4z M24.8,10.3c0.4,0.3,0.7,0.6,1,0.9c0.3,0.3,0.7,0.7,0.9,1.1c0.3,0.4,0.5,0.9,0.5,1.5
				c0,0.1,0,0.3,0,0.4c0,0.1,0,0.3-0.1,0.4c-0.1,0.3-0.2,0.5-0.4,0.7l-0.2,0.4L26,15.5c-0.3-0.2-0.8-0.3-1.2-0.5
				c-0.2-0.1-0.5-0.3-0.7-0.5c-0.2-0.2-0.4-0.5-0.5-0.8l0.3,0.3c-0.8-0.3-1.6-0.4-2.5-0.5c-0.4,0-0.8-0.1-1.3,0
				c-0.1,0-0.3,0.1-0.6,0.2c-0.1,0-0.3,0.1-0.4,0c-0.2,0-0.3-0.2-0.4-0.3c-0.2-0.2-0.3-0.4-0.3-0.6c-0.1-0.2-0.2-0.4-0.2-0.7
				c-0.1-0.5,0-1,0.2-1.4c0.2-0.4,0.4-0.8,0.4-1.2C19,9.3,19,9.1,19,8.9c0-0.2,0-0.4-0.1-0.6l0-0.1l0-0.1c0-0.2,0.2-0.3,0.2-0.3
				c0,0-0.1,0-0.1,0.1l0.4-0.4c0.6-0.1,1.2,0.2,1.7,0.4c0.5,0.3,0.8,0.6,1.2,0.9c0.2,0.1,0.4,0.3,0.6,0.3c0.2,0.1,0.4,0,0.7,0.1
				c0.3,0.1,0.5,0.3,0.7,0.5C24.4,10,24.6,10.2,24.8,10.3z"/>
			<path id="XMLID_24_" d="M36.3,14.2c0.1,0,0.2,0,0.4,0c0.1,0,0.3,0.1,0.4,0.2c0.2,0.1,0.4,0.3,0.6,0.4c0.2,0.1,0.3,0.2,0.5,0.3
				c0.2,0,0.4,0,0.6,0l-0.4,0.5c0-0.2-0.1-0.5-0.1-0.7c-0.1-0.2-0.1-0.5-0.3-0.7c-0.2-0.4-0.7-0.8-1.1-1c-0.5-0.2-1-0.4-1.5-0.6
				c-0.5-0.2-1-0.3-1.5-0.5l0.7-0.7c0.1,0.2,0.2,0.4,0.3,0.6c0.1,0.2,0.3,0.4,0.5,0.6C35.9,13,36.3,13.6,36.3,14.2z M36.2,14.2
				c-0.2-0.2-0.4-0.4-0.6-0.6c-0.2-0.2-0.4-0.3-0.7-0.5c-0.2-0.2-0.5-0.3-0.7-0.6c-0.2-0.2-0.5-0.5-0.6-0.9l-0.4-1.1l1.1,0.4
				c0.5,0.2,1,0.4,1.5,0.7c0.5,0.3,0.9,0.6,1.4,1c0.2,0.2,0.4,0.4,0.6,0.6c0.2,0.2,0.4,0.4,0.6,0.6c0.2,0.2,0.4,0.4,0.5,0.7
				c0.2,0.2,0.3,0.5,0.4,0.8l0.1,0.5L38.9,16c-0.3,0-0.6,0-0.9-0.1c-0.3-0.1-0.6-0.3-0.7-0.5c-0.2-0.2-0.3-0.4-0.4-0.6
				C36.6,14.6,36.5,14.4,36.2,14.2L36.2,14.2L36.2,14.2z"/>
			<path id="XMLID_21_" d="M30.8,12.9c0-0.2-0.2-0.4-0.4-0.4c-0.2-0.1-0.4-0.1-0.5,0c-0.1,0-0.2,0-0.2,0c0,0-0.1,0-0.1,0
				c0,0-0.1,0-0.1,0c0,0-0.2,0.1-0.4,0.2c-0.3,0.2-0.7,0.5-0.7,0.9c-0.1,0.4,0,0.8,0.2,1.1l-0.2-0.2c0.1,0,0.2,0.1,0.4,0.1
				c0.1,0,0.2,0,0.3,0c0.2-0.1,0.4-0.2,0.7-0.3c0.1-0.1,0.2-0.1,0.3-0.2c0.1-0.1,0.2-0.2,0.4-0.3c0.1-0.1,0.2-0.2,0.3-0.4
				C30.8,13.3,30.8,13.1,30.8,12.9z M30.9,12.9c0.1,0.3,0.1,0.7,0,1.1c-0.1,0.4-0.3,0.8-0.6,1c-0.3,0.3-0.7,0.4-1.2,0.5
				c-0.2,0-0.4,0-0.7-0.1c-0.2-0.1-0.4-0.2-0.6-0.3L27.8,15l0-0.1c-0.1-0.6,0.1-1,0.3-1.4c0.2-0.4,0.3-0.8,0.5-1.3
				c0.1-0.2,0.3-0.4,0.6-0.5c0.1,0,0.1,0,0.2,0c0.1,0,0.2,0,0.2,0c0.1,0,0.3,0,0.4,0.1C30.5,12,30.8,12.5,30.9,12.9z"/>
			<path id="XMLID_18_" d="M27.4,15.8L27.4,15.8c0.1-0.3,0.2-0.3,0.2-0.4c0-0.1,0-0.1,0.1-0.1c0,0,0.1,0.2,0.2,0.1
				c0.1,0,0.1-0.1,0-0.2l0.1,0.2c-0.1,0.1-0.1,0.2-0.1,0.2c0,0,0,0.1,0,0.1C27.9,15.8,27.8,15.6,27.4,15.8L27.4,15.8z M27.4,15.8
				c-0.3-0.2-0.3-0.6,0-0.8c0.1-0.1,0.3-0.1,0.5-0.1c0.2,0,0.3,0.2,0.4,0.3l0.1,0.2c-0.1,0.1-0.1,0.2-0.2,0.3c0,0.1,0,0.3-0.1,0.4
				c-0.1,0.1-0.3,0.1-0.4,0.1C27.6,16.1,27.5,16,27.4,15.8L27.4,15.8L27.4,15.8z"/>
			<path id="XMLID_15_" d="M5.9,17.5c0.8,0,1.7,0,2.5,0.2c0.4,0.1,0.8,0.2,1.2,0.3c0.2,0.1,0.4,0.2,0.6,0.3c0.2,0.1,0.4,0.3,0.6,0.4
				c0.3,0.3,0.6,0.6,0.9,0.8c0.1,0.1,0.3,0.1,0.4,0c0.1-0.1,0.3-0.2,0.4-0.4c0.3-0.3,0.5-0.7,0.7-1c0.2-0.3,0.3-0.7,0.3-1l0.4,0.4
				c-0.7,0.2-1.4,0.2-2.1,0.3c-0.7,0-1.4,0.1-2,0l-2-0.1C7.3,17.6,6.6,17.6,5.9,17.5L5.9,17.5z M5.9,17.5c0.6-0.3,1.3-0.5,2-0.6
				c0.7-0.1,1.4-0.2,2.1-0.2c0.7,0,1.4,0,2,0c0.7,0,1.3,0,2,0l0.6,0l-0.1,0.5c-0.1,0.5-0.4,0.9-0.7,1.2c-0.3,0.3-0.6,0.6-0.8,0.9
				c-0.1,0.2-0.3,0.3-0.5,0.4c-0.2,0.2-0.5,0.1-0.7,0.1c-0.5-0.1-0.8-0.4-1.2-0.6c-0.2-0.1-0.3-0.2-0.5-0.2l-0.5-0.2
				c-0.4-0.1-0.7-0.2-1.1-0.4C7.5,18.2,6.7,18,5.9,17.5L5.9,17.5L5.9,17.5z"/>
			<path id="XMLID_12_" d="M6.4,21.3c-0.1,0.2,0,0.3,0.2,0.4c0.1,0.1,0.3,0.1,0.4,0.1c0.1,0.1,0.2,0.1,0.3,0.3
				c0.1,0.1,0.2,0.3,0.3,0.3l-0.2,0c0,0,0.1-0.1,0.2-0.2c0.1-0.1,0.2,0,0.3,0l-0.2,0.1c0-0.1,0-0.2,0-0.3c0-0.1-0.1-0.2-0.1-0.2
				c-0.1-0.1-0.2-0.2-0.3-0.3c-0.1-0.1-0.2-0.2-0.3-0.3c-0.1-0.1-0.2-0.1-0.3-0.1C6.6,21.1,6.5,21.2,6.4,21.3z M6.4,21.3
				c0-0.1,0.1-0.3,0.2-0.4c0.1-0.1,0.3-0.3,0.4-0.3c0.2-0.1,0.4-0.1,0.5,0c0.2,0.1,0.3,0.1,0.5,0.2c0.1,0.1,0.2,0.3,0.3,0.4
				c0.1,0.2,0.1,0.3,0.2,0.5c0,0.2,0,0.4-0.1,0.5c-0.1,0.2-0.2,0.3-0.3,0.4L8,22.7l-0.1,0c-0.1,0-0.1-0.1-0.2,0.1l0,0l-0.1,0
				c-0.2,0-0.4,0-0.6,0c-0.2,0-0.4-0.1-0.5-0.3c-0.1-0.2-0.2-0.4-0.2-0.6C6.2,21.6,6.3,21.4,6.4,21.3z"/>
		</g>
	</g>
</g>
<g id="Layer_2">
</g>
</svg>
