<?xml version="1.0" encoding="utf-8"?>
<!-- Generator: Adobe Illustrator 19.0.0, SVG Export Plug-In . SVG Version: 6.00 Build 0)  -->
<svg version="1.1" id="Layer_1" xmlns="http://www.w3.org/2000/svg" xmlns:xlink="http://www.w3.org/1999/xlink" x="0px" y="0px"
	 viewBox="0 0 40 40" style="enable-background:new 0 0 40 40;" xml:space="preserve">
<style type="text/css">
	.st0{fill:#020202;}
</style>
<path id="XMLID_54_" class="st0" d="M33.7,1.5V1.2h-0.6c-4.8-1.2-10-1.5-14.8-0.9c-4.5,0.6-8.8,2.1-13,4.5c-0.3,0-0.6,0.3-0.9,0.3
	L4,5.5l0,0l0,0v0.3c0.3,3.3,0.6,7,0.9,10.6s0.9,7,2.1,10.3c0.3,0.9,0.6,1.5,1.2,2.4c0.3,0.9,0.9,1.5,1.5,2.4
	c0.6,0.9,1.2,1.5,1.8,2.1c0.6,0.6,1.2,1.2,2.1,1.8c1.5,1.2,3,2.1,4.5,2.7c1.5,0.6,2.7,0.9,4.2,1.5l0.6,0.3h0.3h0.3l2.1-1.2
	c0.3-0.3,0.6-0.3,0.9-0.6c0.3-0.3,0.9-0.6,1.2-0.9c1.5-1.2,2.7-2.4,3.9-3.6c0.6-0.6,1.2-1.5,1.5-2.1c0.3-0.9,0.9-1.5,1.2-2.4
	c0.6-1.8,1.2-3.3,1.2-5.2c0.3-3.6,0.3-7.3-0.3-10.6C34.9,8.5,34.3,5.2,33.7,1.5z M24.9,37l-1.8,1.2L21,37.6
	c-0.9-0.3-1.5-0.6-2.4-0.9c-1.5-0.6-3-1.5-4.2-2.4c-0.6-0.6-1.2-1.2-1.8-1.8c-0.3-0.3-0.3-0.6-0.6-0.6c-0.3-0.3-0.6-0.9-0.9-1.2
	c-0.6-0.6-0.9-1.5-1.2-2.1c0-0.3-0.3-0.3-0.3-0.6c-0.3-0.6-0.6-1.2-0.9-1.8c-0.9-3.3-1.5-6.7-1.8-10l-0.9-5.5c0-1.5-0.3-3-0.6-4.8
	c2.4-1.5,5.2-2.7,7.9-3.6c3-0.9,6.1-1.2,9.1-1.5c0,0,0,0,0.3,0c3.3,0,6.4,0.6,9.4,1.2h0.3c0.3,0.9,0.3,2.1,0.3,3l0.6,7
	c0.3,3.3,0.6,6.7,0.3,10c-0.3,1.5-0.6,3.3-1.2,4.8c-0.3,0.9-0.6,1.5-0.9,2.1c-0.3,0.6-0.9,1.5-1.2,2.1c-0.9,1.2-2.1,2.4-3.3,3.6
	C26.1,35.8,25.5,36.4,24.9,37z"/>
<path id="XMLID_57_" class="st0" d="M16.1,17.9L16.1,17.9l1.5,0.3L16.7,17c0,0,0,0-0.3-0.3c0-0.9-0.3-1.5-0.9-2.1
	c-0.3-0.6-0.9-0.9-1.2-1.2C13.7,13,13.1,13,12.5,13c-1.2,0-2.4,0.6-3,1.5c0,0.3-0.3,0.3-0.3,0.6l-0.3,0.3c-0.3,0.3-0.6,0.6-0.6,0.9
	l-0.9,1.5l1.2-0.3l0,0l0,0l0,0c1.2-0.3,2.4,0,3.6,0C13.7,17.6,14.9,17.9,16.1,17.9z M15.2,16.4L15.2,16.4L15.2,16.4
	c-0.3,0-0.3,0-0.3,0l0,0c-0.3,0-0.3,0-0.6,0c-0.3,0-0.3,0-0.6,0c-0.3,0-0.6,0-0.9,0c-0.6,0-0.9,0-1.5,0c-0.3,0-0.6,0-0.6,0
	c0.3-0.3,0.3-0.6,0.6-0.6c0.6-0.3,1.2-0.6,1.8-0.9c0.3,0,0.3,0,0.6,0H14c0.3,0,0.6,0.3,0.9,0.6c0,0,0,0,0,0.3
	C15.2,15.8,15.2,16.1,15.2,16.4z"/>
<path id="XMLID_60_" class="st0" d="M31,23.3v-0.6h-0.3l0,0l0,0l0,0l0.3-1.5l-1.5,1.2c-1.2,0.9-2.4,1.5-3.6,2.1
	c-0.9,0.3-2.1,0.6-3.3,0.9c-0.3,0-0.6,0-0.9,0.3c-1.2,0.3-2.4,0.3-3.6,0.3c-0.3,0-0.6,0-0.9,0c-1.5-0.3-3-0.6-4.2-1.2l-0.3-0.3
	l-0.3,0.3l-0.3,0.3l-0.3,0.3v0.3c0.6,1.8,1.8,3.6,3.6,4.5c0.9,0.6,1.8,0.9,3,1.2c0.6,0.3,1.2,0.3,1.8,0.3c0.6,0,0.9,0,1.5,0
	c0.6,0,0.9,0,1.5-0.3h0.3c1.5-0.3,3-0.9,4.2-1.8C29.7,28.2,30.7,25.8,31,23.3z M22.8,30.6c-0.3,0-0.9,0-1.2,0c-0.6,0-0.9,0-1.2,0
	c-0.9,0-1.5-0.3-2.4-0.3c-0.9-0.3-1.5-0.6-2.1-0.9c-0.9-0.9-1.5-1.8-2.1-2.7c1.2,0.3,2.4,0.9,3.6,0.9c1.5,0.3,3,0.3,4.5,0
	c2.7-0.3,5.2-1.2,7.6-2.4c0,0.6-0.3,0.9-0.6,1.5c-0.3,0.9-0.9,1.8-1.5,2.4C25.8,29.7,24.3,30.3,22.8,30.6z"/>
<path id="XMLID_63_" class="st0" d="M24.3,17L24.3,17L24.3,17L24.3,17L24.3,17h0.3l0,0c1.2-0.6,2.1-0.9,3.3-0.9
	c0.6,0,1.2-0.3,1.8-0.3h0.9c0.3,0,0.6,0,0.6,0h0.6v-0.3v-0.3h0.9l-0.9-0.9c-0.6-0.9-1.5-1.5-2.4-1.8c-0.9-0.6-2.1-0.9-3.3-0.6
	c-0.6,0-1.2,0.3-1.8,0.6L24,12.7C23.7,13,23.7,13,23.7,13c-0.3,0.3-0.3,0.6-0.3,0.9c-0.3,0.9,0,2.1,0.3,2.7L24.3,17z M26.4,12.4
	c0.3-0.3,0.6-0.3,0.9-0.3c0.9,0,1.5,0.6,1.8,0.9c0,0.3,0.3,0.3,0.3,0.6c-0.6,0-1.5,0.3-2.1,0.6c-0.9,0.3-1.8,0.9-2.4,1.2l0.3-0.9
	c0-0.3,0.3-0.9,0.6-1.2l0,0C25.8,13,26.1,12.7,26.4,12.4L26.4,12.4z"/>
</svg>
