<?xml version="1.0" encoding="utf-8"?>
<!-- Generator: Adobe Illustrator 19.0.0, SVG Export Plug-In . SVG Version: 6.00 Build 0)  -->
<svg version="1.1" id="Layer_2" xmlns="http://www.w3.org/2000/svg" xmlns:xlink="http://www.w3.org/1999/xlink" x="0px" y="0px"
	 viewBox="-3 5 32 32" style="enable-background:new -3 5 32 32;" xml:space="preserve">
<path d="M21,7.1H5L-3,21l8,13.9h16L29,21L21,7.1z M5.6,8.1h5.6c0,0.1,0,0.1,0,0.2c0,0,0,0,0,0c0.1,0.3,0.2,0.6,0.3,0.9
	c0.2,0.8,0.5,1.6,0.6,2.5c0.2,1.9-0.1,3.7-0.3,5.5c-0.3,1.1-0.6,2.3-0.9,3.4c-0.2,0.6-0.4,1.3-0.8,1.9C10,22,9.8,21.6,9.6,21.3
	c-0.1-0.1-0.2-0.2-0.2-0.3c0-0.1,0-0.3,0.1-0.5c0-0.1,0.1-0.1,0.2-0.2c0.1-0.1,0.1-0.1,0.1-0.2c0.1,0,0.2-0.1,0.2-0.1
	c-0.1,0-0.2,0-0.3,0c-0.2,0-0.3,0.2-0.4,0.3c0-0.1,0-0.2,0-0.3c0-0.1,0-0.1,0.1-0.2c0.1-0.1,0.2-0.2,0.2-0.3
	c0.1-0.1,0.2-0.1,0.3-0.1c-0.2-0.1-0.2-0.1-0.4,0c0,0-0.1,0-0.2,0c0,0-0.1,0.1-0.1,0.1c0,0.1,0,0.1,0,0.2c0,0.1-0.1,0.1-0.1,0.2
	c0-0.1,0-0.3,0-0.4c0-0.2,0.1-0.2,0.2-0.4c0,0,0.1-0.1,0-0.2c0.1-0.1,0.1-0.1,0.2-0.1c-0.1-0.1-0.2-0.1-0.3-0.1
	c-0.2,0-0.3,0.1-0.3,0.2l-0.2,0.6c-0.2-0.2-0.3-0.4-0.4-0.5c-0.4-0.5-0.8-1.1-1.2-1.5C6.4,17,5.9,16.5,5.3,16
	c-0.4-0.3-0.7-0.7-1.1-1c-0.6-0.4-1.1-0.8-1.7-1.2c0,0,0,0,0,0c-0.1,0-0.1-0.1-0.2-0.1L5.6,8.1z M20.4,33.9H5.6L-1.9,21l4.1-7.2
	c0,0,0.1,0.1,0.1,0.1c0,0,0,0,0,0c0.5,0.4,0.9,1,1.3,1.6c0.3,0.4,0.5,0.8,0.8,1.2c0.4,0.6,0.8,1.3,1.2,1.9c0.4,0.7,0.8,1.4,1.1,2.1
	c0.3,0.6,0.5,1.2,0.7,1.8c0.4,1,0.7,1.8,0.7,2.9c0,0.2-0.2,0.3-0.2,0.6c-0.4,0.1-0.8,0.3-1.2,0.4c-0.2,0-0.3,0-0.4,0
	c-0.1,0-0.2-0.1-0.3-0.2c-0.1,0-0.3,0-0.4,0c-0.1,0-0.1,0-0.2,0c-0.1,0-0.1-0.1-0.2-0.1c0,0-0.1-0.1-0.1-0.1c0-0.1,0,0,0-0.1
	c0,0,0-0.1,0-0.1c0-0.1,0.1-0.1,0.1-0.2c-0.1,0-0.2,0-0.3,0.1C5,25.7,5,25.8,5,25.9c0,0.1,0,0.1,0.1,0.2c0,0.1,0.1,0.1,0.2,0.2
	c-0.1,0-0.1,0-0.2,0c-0.1,0-0.1,0-0.2-0.1c0,0-0.1-0.1-0.1-0.1c0,0,0-0.1,0-0.1c0,0-0.1,0-0.1,0c0-0.1-0.1-0.1-0.1-0.2
	c0,0.1-0.1,0.2,0,0.3c0,0,0,0,0,0.1c0,0,0,0.1,0,0.1c0,0,0.1,0,0.1,0.1c0,0,0,0.1,0.1,0.1c0,0,0.1,0.1,0.2,0.1c0,0,0,0,0,0.1
	c0,0-0.1,0-0.1,0c-0.1,0-0.2,0-0.2-0.1c-0.1,0-0.1-0.1-0.1-0.1c0,0-0.1,0-0.1,0C4.3,26.1,4.3,26,4.3,26c0,0.1,0,0.2,0,0.2
	c0,0.1,0,0.1,0.1,0.2c0,0,0.1,0,0.1,0c0.1,0,0.1,0,0.2,0c-0.1,0-0.2,0-0.3,0c0,0,0,0-0.1,0.1c-0.1,0-0.1,0-0.1-0.1
	c0,0.1,0,0.1,0.1,0.1c0,0,0,0.1,0,0.1c0,0,0.1,0,0.1,0c0.1,0,0.2,0,0.2,0c0.2,0,0.3,0,0.4,0c0.1,0,0.2,0,0.3,0c0.1,0,0.3,0,0.4,0.1
	c0.1,0,0.2,0,0.2,0c0.1,0,0.2-0.1,0.4-0.1c0.2,0,0.4,0,0.6-0.1c0.2,0,0.5-0.1,0.7-0.1c0.2,0,0.4-0.1,0.6-0.1
	c-0.1,0.1-0.2,0.2-0.3,0.2c-0.1,0.1-0.2,0.2-0.3,0.2c-0.1,0.1-0.3,0.2-0.4,0.2c-0.1,0-0.1,0-0.2,0c-0.1,0-0.1,0-0.2,0
	c-0.2,0-0.3,0.1-0.4,0.2c0.1,0,0.2,0,0.3,0c0.2,0.1-0.3,0.5-0.4,0.6c-0.1,0.1-0.1,0.2-0.2,0.2c-0.1,0-0.1,0-0.2,0
	c-0.1,0-0.1-0.1-0.3,0C5.7,28,5.7,28,5.7,27.9c0,0.1,0,0.1,0.1,0.2c0,0.1,0,0.1,0,0.1c0,0,0.1,0,0.1,0l-0.1,0c0,0-0.1,0-0.1,0
	c0,0-0.1-0.1-0.2-0.1c-0.1,0-0.1,0-0.1,0c-0.1,0-0.1-0.1-0.2-0.2c0,0.1,0,0.2,0.1,0.2c0,0.1,0.1,0.1,0.2,0.2c0,0,0.1,0,0.1,0
	c0,0-0.1,0-0.1,0c0,0-0.1,0-0.2,0c-0.1,0-0.1-0.1-0.2-0.1C5,28.3,5,28.3,5,28.2c0,0.1,0,0.1,0,0.2c0,0.1,0,0.1,0,0.1
	c0,0,0.1,0,0.1,0c0,0,0.1,0,0.2,0c-0.1,0-0.1,0-0.1,0c-0.1,0-0.1,0-0.1,0c-0.1,0-0.1,0-0.1,0c-0.1,0-0.1,0-0.1-0.1
	c0,0.1,0,0.1,0.1,0.2c0,0.1,0.1,0.1,0.1,0.1c0.1,0,0.2,0,0.2,0c0.1,0,0.2,0,0.3,0c0.1,0,0.2,0,0.3,0c0.1,0,0.2,0,0.2-0.1
	c0.1-0.1,0.1-0.1,0.2-0.2c0,0,0.1-0.1,0.1-0.1c0.1,0,0.2,0,0.3-0.1c0.1-0.1,0.1-0.1,0.2-0.2C6.9,28,6.9,27.9,7,27.8
	c0.1-0.1,0.2-0.3,0.3-0.4c0.1-0.1,0.2-0.2,0.3-0.2C7.8,27.1,7.9,27.1,8,27c0.1,0,0.1-0.1,0.2-0.1l0,0c0.1-0.1,0.3-0.2,0.4-0.2
	c0.1-0.1,0.3-0.2,0.4-0.2c0.3-0.1,0.6,0,0.9,0.1c0.5,0.1,1.1,0.3,1.6,0.3c0.3,0,0.6-0.1,0.9-0.2c0.4-0.1,0.7-0.1,1.1-0.1
	c0.5,0,0.9,0,1.4,0.1c0.2,0,0.4,0.1,0.6,0.2c0.2,0,0.3,0,0.5,0c0.2,0,0.3,0,0.5,0c0.2,0,0.3,0.2,0.4,0.2c0.2,0.1,0.5,0.2,0.7,0.2
	c0.1,0,0.3,0,0.4,0c0.2,0.1,0.3,0.2,0.5,0.3c0.1,0.1,0.2,0.2,0.4,0.3c0.2,0.1,0.3,0.3,0.5,0.4c0.2,0.1,0.3,0.3,0.5,0.4
	c0.2,0.1,0.4,0.3,0.6,0.3c0.1,0,0.2,0,0.3,0c0.1,0,0.2,0,0.3-0.1c-0.2-0.1-0.3-0.3-0.4-0.4c-0.3-0.2-0.5-0.3-0.8-0.5
	c-0.3-0.2-0.7-0.5-1-0.7c-0.1-0.1-0.2-0.2-0.4-0.3c0.2,0.1,0.5,0.2,0.7,0.3c0.3,0.2,0.7,0.4,1.1,0.5c0.2,0.1,0.4,0.2,0.5,0.2
	c0.1,0.1,0.3,0.1,0.4,0.1c0.1,0,0.2,0.1,0.3,0.1c0-0.1-0.1-0.2-0.2-0.3C21.3,28,21.1,28,21,27.9c-0.1-0.1-0.1-0.2-0.1-0.3
	c-0.1-0.1-0.2-0.1-0.4-0.2c-0.3-0.1-0.6-0.2-0.8-0.4c-0.2-0.1-0.4-0.3-0.6-0.4c-0.6-0.4-1-0.7-1.3-1.2c-0.3-0.5-0.6-1.1-1-1.6
	c-0.2-0.1-0.5-0.3-0.7-0.5c0,0.2,0.1,0.3,0.2,0.5c0.1,0.2,0.2,0.5,0.3,0.7c0.1,0.2,0.2,0.3,0.3,0.5c0.1,0.2,0.1,0.4,0.2,0.5
	c0,0.1,0,0.2,0,0.3c0,0.1-0.1,0.2-0.2,0.2c-0.2,0.1-0.3,0.1-0.5,0.1c-0.3,0-0.5-0.1-0.8-0.2c-0.2-0.1-0.5-0.1-0.7-0.2
	c-0.2-0.1-0.5-0.2-0.7-0.2c-0.3-0.1-0.7-0.1-1-0.2c0-0.2,0-0.4,0-0.6c0-0.3,0.1-0.6,0.2-0.9c0.1-0.3,0.3-0.5,0.4-0.8
	c0.1-0.2,0.2-0.5,0.2-0.8c0.1-0.3,0.2-0.7,0.3-1c0.1-0.4,0.1-0.9,0.2-1.3c0-0.1,0-0.2,0.1-0.3c0,0,0,0,0-0.1
	c0.2-0.4,0.2-0.4,0.6-0.5c0.1,0,0.2,0,0.2-0.2c0.2,0,0.2,0,0.4,0c-0.1-0.1-0.2-0.2-0.4-0.2c-0.1-0.1-0.1-0.1-0.2,0
	c-0.1,0.1-0.2,0.1-0.2,0.1c0-0.1,0.1-0.1,0.1-0.2c0-0.1,0.1-0.1,0.1-0.2c0,0,0.1,0,0.2-0.1c0.1,0,0.1,0,0.2-0.1c0.1,0,0.2,0,0.3,0.1
	c-0.1-0.1-0.2-0.1-0.3-0.2c-0.1-0.1-0.1-0.1-0.2-0.1c-0.2,0-0.2,0.1-0.2,0.1c-0.1,0.1-0.1,0.1-0.2,0.2c0-0.1,0.1-0.2,0.2-0.3
	C14.9,18,15,18,15,18c0.1-0.1,0.2,0,0.3-0.2c0.1,0,0.2-0.1,0.3-0.1c-0.1-0.1-0.2-0.1-0.3,0c-0.3-0.2-0.5,0.4-0.6,0.5
	c0,0-0.1,0.1-0.1,0.1c0-0.7,0.1-1.4,0-2.1c0-0.7-0.1-1.4-0.3-2c-0.3-1.2-0.7-2.4-1.3-3.5c-0.4-0.8-0.9-1.6-1.4-2.3c0,0,0,0,0,0
	c0,0,0-0.1,0-0.1h8.8L27.9,21L20.4,33.9z"/>
</svg>
