<?xml version="1.0" encoding="utf-8"?>
<!-- Generator: Adobe Illustrator 19.0.0, SVG Export Plug-In . SVG Version: 6.00 Build 0)  -->
<svg version="1.1" id="Layer_1" xmlns="http://www.w3.org/2000/svg" xmlns:xlink="http://www.w3.org/1999/xlink" x="0px" y="0px"
	 viewBox="0 0 40 40" style="enable-background:new 0 0 40 40;" xml:space="preserve">
<g id="XMLID_59_">
	<path id="XMLID_4_" d="M16.5,20.1L16.5,20.1c0,0.1,0,0.2,0,0.2s0,0,0.1-0.1c0,0,0.1-0.1,0.1-0.1c0,0,0,0,0-0.1c0,0,0,0-0.1,0
		C16.7,20.1,16.6,20.1,16.5,20.1c0.1,0,0.1,0,0.1,0c0,0,0.1-0.1,0.1-0.1c0,0,0,0,0-0.1c0,0,0-0.1,0-0.1c0-0.1,0-0.1,0-0.1
		c0,0,0,0,0,0.1c0,0.1,0,0.1,0,0.2C16.6,20,16.6,20.1,16.5,20.1c0.1-0.1,0.1-0.1,0.1-0.1c0,0,0-0.1,0-0.1c0-0.1,0,0,0,0
		c0,0,0,0,0,0.1C16.5,20,16.5,20,16.5,20.1C16.5,20.1,16.5,20.1,16.5,20.1z"/>
	<polygon id="XMLID_114_" points="21.1,22 21.1,22 21.1,22 	"/>
	<path id="XMLID_115_" d="M17.9,20.3C17.9,20.3,18,20.3,17.9,20.3C18,20.2,18,20.2,17.9,20.3c0.1-0.1,0.1-0.1,0.1-0.1c0,0,0,0,0,0
		C18,20.2,18,20.2,17.9,20.3C18,20.2,17.9,20.2,17.9,20.3C17.9,20.3,17.9,20.3,17.9,20.3C17.9,20.3,17.8,20.3,17.9,20.3
		c-0.1,0-0.1,0-0.1,0C17.8,20.4,17.8,20.4,17.9,20.3C17.8,20.3,17.9,20.3,17.9,20.3L17.9,20.3C17.9,20.3,17.9,20.3,17.9,20.3
		C17.9,20.3,17.9,20.3,17.9,20.3z"/>
	<path id="XMLID_116_" d="M21.4,20.9L21.4,20.9c-0.1,0-0.1,0-0.1,0.1c0,0,0,0,0,0.1c0,0-0.1,0-0.1,0.1c0,0,0,0,0,0c0,0,0,0,0,0
		c0,0,0,0.1,0,0.1c0,0,0,0,0,0c0,0,0,0-0.1,0c0,0-0.1,0-0.1,0c0,0-0.1,0-0.1,0.1c0,0,0,0,0,0c0,0,0,0,0,0c0,0,0,0,0,0c0,0,0,0,0,0
		c0,0,0,0,0,0c0,0,0,0,0,0c0,0,0,0,0,0c0,0,0,0,0,0c0,0,0,0,0,0c0,0,0,0,0,0c0,0,0,0,0,0c0,0,0,0,0,0c0,0,0,0,0,0l0,0c0,0,0,0,0,0.1
		c0,0,0,0,0,0.1c0,0,0.1,0.1,0.3,0.1c0.2,0,0.2-0.1,0.2-0.2c0-0.1,0-0.1,0-0.3c0-0.2,0-0.1,0-0.3C21.5,20.9,21.5,20.9,21.4,20.9z"/>
	<polygon id="XMLID_117_" points="34.6,10.7 34.6,10.7 34.6,10.7 	"/>
	<path id="XMLID_118_" d="M17,19.7C16.9,19.7,16.9,19.7,17,19.7c0,0.1,0,0.1,0,0.1C16.9,19.8,17,19.8,17,19.7L17,19.7
		C17,19.7,17,19.7,17,19.7z"/>
	<path id="XMLID_119_" d="M16.9,19.9L16.9,19.9C16.9,19.9,16.9,19.9,16.9,19.9c0.1-0.1,0.1,0,0.2-0.1c0,0,0.1-0.1,0-0.1
		c0,0,0,0-0.1,0C17,19.8,17,19.8,16.9,19.9C16.9,19.9,16.9,19.9,16.9,19.9z"/>
	<path id="XMLID_122_" d="M16.7,22.4l-0.4-0.4l-1.7,1.6l0.4,0.4L16.7,22.4z M16.3,22.4L16.3,22.4L16.3,22.4l-1.1,1.3l-0.1-0.1
		L16.3,22.4z"/>
	<path id="XMLID_123_" d="M15.6,20L15.6,20C15.6,20,15.6,20,15.6,20c-0.1,0-0.2,0-0.2,0c0,0-0.1,0-0.1,0c0,0-0.1,0.1-0.1,0.1
		c0,0.1,0,0-0.1,0.1c0,0-0.1,0.1-0.1,0.1c0,0,0.3,0.3,0.3,0.3s0-0.1,0-0.2c0-0.1,0-0.1,0.1-0.1C15.5,20.2,15.6,20.1,15.6,20
		C15.6,20,15.6,20,15.6,20z"/>
	<path id="XMLID_124_" d="M15.8,20.8L15.8,20.8c0,0,0-0.1,0.1-0.1c0-0.1,0-0.1,0-0.1c0,0,0-0.1,0-0.1c0,0,0,0,0-0.1c0,0,0-0.1,0-0.1
		c0,0,0-0.2,0-0.2c0,0-0.1,0-0.1,0.1c0,0-0.1,0.1-0.1,0.1c0,0,0,0-0.1,0.1c0,0.1,0,0.1,0,0.1L15.8,20.8
		C15.8,20.8,15.8,20.8,15.8,20.8z"/>
	<path id="XMLID_133_" d="M15.4,17.8L15.4,17.8C15.4,17.8,15.4,17.8,15.4,17.8c0,0.1,0,0.1,0,0.1c0,0,0,0.1,0,0.1c0,0,0,0,0,0
		c0,0,0,0,0,0.1c0,0,0,0,0,0c0,0,0,0,0.1,0c0,0,0.1,0,0.1,0c0,0,0.1,0,0.1-0.1c0-0.1,0.1-0.1,0.2-0.1c0.1,0,0.2,0.1,0.2,0.2
		c0,0.1-0.1,0.1-0.1,0.1c0,0.1,0.1,0,0.1,0c0,0,0.1,0,0.1-0.1c0-0.1,0.1-0.1,0.2-0.1c0.1,0,0.1,0.1,0.1,0.2c0,0.1-0.1,0.2,0,0.2
		c0.1,0,0.1,0,0.1-0.1c0,0,0.1-0.1,0.1-0.1c0,0,0,0.1,0,0.1c0,0,0,0.1,0,0.1c0,0.1,0,0.1,0,0.1c0,0,0.1,0,0.1,0
		c0.1,0,0.1-0.1,0.1-0.1c0.1-0.1,0.1-0.1,0.1,0c0,0.1,0,0.1,0,0.2c0,0.1-0.1,0.1,0,0.1c0,0,0.1,0,0.1,0c0,0,0.1,0,0.1-0.1
		c0.1-0.1,0.1-0.1,0.1-0.1c0,0,0,0.1,0,0.1c0,0.1,0,0.1,0,0.1c0,0,0,0,0,0.1c0,0,0.1,0,0.1,0c0,0,0-0.1,0.1-0.1c0,0,0,0,0,0
		c0,0,0,0,0,0.1c0,0.1,0,0.1,0,0.2c0.1,0,0.1,0,0.1-0.1c0,0,0-0.1,0-0.1c0,0,0,0,0,0c0,0,0,0,0,0.1c0,0.1,0,0.1,0,0.1c0,0,0,0,0.1,0
		c0.1,0,0.1,0,0.1-0.1c0,0,0-0.1,0.1-0.1c0,0,0-0.1,0.1-0.1c0,0,0.1,0,0.1,0.1c0,0,0,0.1,0,0.1c0,0,0.1,0,0.1,0c0,0,0-0.1,0.1-0.1
		c0-0.1,0-0.1,0.1-0.1c0,0,0.1,0.1,0.1,0.1c0,0,0,0.1,0,0.2c0,0,0.1,0,0.1,0c0-0.1,0,0,0-0.1c0-0.1,0-0.1,0-0.1c0,0,0,0,0,0.1
		c0,0.1,0,0.1,0,0.1c0,0,0,0,0-0.1c0,0,0,0,0-0.1c0-0.1,0-0.2,0.1-0.2c0.1,0,0.1,0.1,0.1,0.1c0,0,0,0.2,0.1,0.2c0.1,0,0.1,0,0.1-0.1
		c0,0,0-0.1,0.1-0.1c0,0,0-0.1,0-0.1c0,0,0-0.1,0-0.1c0.1,0,0.1,0,0.1,0.1c0,0.1,0,0.2,0.1,0.2c0.1,0.1,0.1,0.1,0.1,0.1
		c0,0,0.1,0,0.1,0c0,0,0,0,0-0.1c0,0,0-0.1,0-0.1c0,0,0-0.1,0-0.1c0-0.1-0.1-0.2,0-0.2c0.1,0,0.1,0,0.2,0.1c0,0,0,0.1,0,0.2
		c0,0,0,0.1,0,0.1c0,0,0,0.1,0,0.1c0,0,0,0,0,0c0,0,0,0,0,0c0,0,0,0,0-0.1c0,0,0-0.1,0-0.1c0-0.1,0-0.1,0-0.1c0.1,0,0.1,0,0.1,0.1
		c0,0,0,0.1,0,0.1c0,0,0.1,0.1,0.1,0.1c0,0,0,0.1,0.1,0.1c0,0,0,0,0.1,0c0,0,0.1,0,0.1,0c0.1,0,0.1,0,0.2,0.1c0.1,0,0.1,0.1,0.1,0.1
		c0.1,0,0.1,0,0.2,0.1c0,0,0.1,0.1,0.1,0.1c0,0,0,0,0.1,0.1c0,0,0,0,0.1,0c0,0,0,0,0.1,0c0.1,0,0.1,0,0.1,0c0,0,0.1,0.1,0,0.1
		c0,0,0,0.1,0,0.1c0,0.1,0,0.1,0,0.1c0,0,0.1,0,0.1,0.1c0,0,0,0,0,0.1c0,0.1,0,0.1,0,0.1c0,0,0,0.1,0,0.1c0,0-0.1,0,0,0.1
		c0,0,0.1,0,0.1,0.1c0,0,0,0.1,0,0.1c0,0.1,0,0.1,0,0.1c0,0.1,0,0.1,0,0.1c0,0,0,0,0,0.1c0,0.1,0,0.1,0,0.1c0,0,0,0.1,0,0.2
		c0,0,0,0.1,0,0.2c0,0.1,0,0.2,0.1,0.2c0,0.1,0,0.1,0,0.2c0,0.1,0.1,0.2,0.1,0.3c0,0.1,0,0.1,0,0.2c0,0,0.1,0.2,0.1,0.3
		c0,0.2,0.1,0.2,0.1,0.3c0,0.1,0,0.1,0,0.1c0,0.1,0,0.1,0,0.1c0,0,0,0,0,0.1c0,0,0,0,0,0.1c0,0,0,0.1,0,0.2c0,0.1,0,0.1-0.1,0.2
		c0,0.1-0.1,0.1-0.2,0.1c-0.1,0-0.1,0-0.2,0c0,0-0.1,0-0.1,0c0,0-0.1,0-0.1-0.1c0,0,0-0.1,0-0.1c0,0,0-0.1,0-0.1c0,0,0,0,0-0.1
		c0,0,0,0,0,0c0,0-0.1,0-0.1,0c0,0,0,0,0,0c0,0,0,0,0,0c0,0,0,0-0.1,0c0,0,0,0-0.1,0c0,0,0,0,0-0.1c0,0,0,0,0,0c0,0,0,0-0.1,0
		c0,0,0,0,0-0.1c0,0,0,0,0-0.1c0,0,0,0-0.1,0c0,0-0.1-0.1-0.1-0.1c0,0-0.1-0.1-0.1-0.1c0,0-0.1-0.2-0.1-0.2c0-0.1-0.1-0.1-0.1-0.2
		c0-0.1,0-0.1-0.1-0.2c0-0.1,0-0.1-0.1-0.2c0-0.1,0-0.1-0.1-0.2c0,0-0.1-0.1-0.1-0.1c0,0,0-0.2,0-0.2c-0.1-0.1-0.1-0.1-0.1-0.1
		c0,0-0.1-0.1-0.1-0.2c0-0.1-0.1-0.1-0.1-0.1c-0.1,0-0.1,0-0.1,0c0,0-0.1-0.1-0.1-0.1c0,0,0,0,0,0.1c0,0.1,0.1,0,0.1,0.2
		c0,0.1,0,0.1,0,0.2c0,0,0,0.1,0,0.1c0,0-0.1,0.1-0.1,0.1c0,0,0,0.1-0.1,0.1c0,0,0,0,0-0.1c0,0,0-0.1,0-0.1c0,0,0-0.1-0.1-0.1
		c0,0,0,0-0.1,0c0,0,0,0.1,0,0.1c0,0,0,0,0,0.1c0,0.1,0,0.1-0.1,0.1c0,0.1,0,0.1-0.1,0.1c0,0,0,0.1,0,0.1c0,0,0,0.1,0,0.2
		c0,0.1,0,0.2,0,0.3c0,0.1,0,0.3,0,0.3c0,0.2,0.1,0.3,0.1,0.3c0,0.1,0,0.1,0,0.1c0,0,0.1,0.1,0.1,0.2c0,0,0,0.1,0,0.1
		c0,0,0,0.1,0,0.1c0,0-0.1,0-0.1,0c0,0,0,0-0.1,0c0,0,0-0.1-0.1-0.1c-0.1,0-0.1-0.1-0.1-0.1c0,0-0.1-0.2-0.2-0.3c0-0.1,0-0.1,0-0.2
		c0-0.1,0-0.2,0-0.3c0-0.1,0-0.2,0-0.2c0-0.1,0-0.2-0.1-0.3c0-0.1-0.2-0.4-0.2-0.5c0-0.1,0-0.2-0.1-0.3c0-0.1,0-0.2,0-0.3
		c0-0.1,0-0.1,0.1-0.2c0.1-0.1,0.1-0.2,0.1-0.2c0,0,0-0.1,0-0.1c0,0,0,0-0.1,0c-0.1,0-0.1,0.1-0.1,0.1c0,0,0,0-0.1,0c0,0,0,0-0.1,0
		c0,0-0.1,0-0.1,0s0.1-0.1,0.2-0.2c0.1,0,0.2-0.1,0.1-0.1c0,0-0.1,0-0.1,0c0,0-0.1,0.1-0.1,0.1c0,0,0.1-0.1,0.1-0.1
		c0,0,0.1-0.1,0.1-0.1c0,0,0,0-0.1,0.1c-0.1,0.1-0.1,0.1-0.2,0.1c0,0,0,0-0.1,0c0,0,0,0-0.1,0.1c0,0,0,0-0.1,0c0,0-0.1,0-0.1,0
		s0.1-0.1,0.2-0.2c0.1-0.1,0.1-0.1,0.1-0.2c0,0-0.1,0-0.1,0c0,0,0,0-0.1,0c0,0-0.1,0.1-0.1,0.1c0,0,0,0-0.1,0c0,0-0.1,0-0.1,0.1
		c0,0,0,0-0.1,0c0,0-0.1,0-0.1,0s0.1-0.1,0.2-0.1c0.1,0,0.1-0.1,0.1-0.1c0,0-0.1,0-0.2,0.1c-0.1,0-0.1,0-0.1,0.1l-0.1,0.1
		c0,0,0.1-0.1,0-0.1c-0.2,0-0.5,0.1-0.5,0.1c0.2-0.1,0.4-0.2,0.5-0.2c0.1,0,0.1,0,0.2-0.1c0,0,0-0.1,0-0.1c0-0.1,0-0.1,0-0.1
		c0,0,0,0-0.1,0c-0.1,0-0.1,0.1-0.2,0.1c-0.1,0-0.1,0.1-0.2,0.1c-0.1,0-0.1,0-0.1,0c0,0-0.1,0-0.1,0c0,0-0.1,0.1-0.1,0.1
		s0.1-0.1,0.2-0.2c0.1-0.1,0.1-0.1,0.2-0.2c0.1-0.1,0.1-0.1,0.1-0.1c0,0,0,0,0,0c0,0,0,0-0.1,0c0,0-0.1,0.1-0.1,0.1c0,0-0.1,0-0.1,0
		c0,0,0,0-0.1,0c0,0-0.1,0-0.1,0c-0.1,0-0.2,0.1-0.2,0.1c0,0.1,0,0.2,0,0.2c0-0.1-0.1-0.2-0.1-0.2c-0.1,0.1-0.2,0.1-0.2,0.2
		c0,0,0,0,0,0.1c0,0,0,0,0,0.1c0,0,0,0,0,0c0,0,0,0,0,0c0,0,0,0,0,0c0,0,0,0,0,0c0,0,0,0,0,0.1c0,0,0,0,0.1,0c0,0,0.1,0,0.1,0
		c0,0,0.1,0,0.1,0c0,0,0,0,0,0.1c0,0,0,0,0,0.1c0,0,0.1,0.1,0.1,0.1c0,0,0,0,0.1,0c0,0,0,0.1,0.1,0.1c0.1,0,0.1,0,0.1,0
		c0,0,0,0,0.1,0.1c0,0,0.1,0,0.1,0c0,0,0,0,0.1,0c0.1,0,0.1,0,0.1,0c0,0,0,0,0-0.1c0-0.1,0.1-0.1,0.1-0.1c0,0,0.1,0,0.1,0
		c0,0,0,0,0-0.1c0,0,0.1-0.1,0.1-0.1c0,0,0.1,0,0.1,0c0,0,0,0,0,0c0,0,0,0,0,0c0.1,0,0.1,0,0.2,0.1c0.2,0.2,0.1,0.3,0.1,0.3
		c0-0.1-0.1-0.1-0.1-0.1c0,0,0,0-0.1-0.1c0,0-0.1,0-0.1,0c0,0,0,0,0,0c0,0,0,0-0.1,0.1c0,0-0.1,0,0,0.1c0,0,0,0,0.1,0
		c0,0,0.1,0,0.1,0c0.1,0,0.1,0.1,0.1,0.1c0.1,0.2,0.1,0.3,0.1,0.3c0-0.1-0.1-0.2-0.1-0.3c0,0,0-0.1-0.1-0.1c-0.1,0-0.1,0-0.1,0
		c0,0,0,0-0.1,0c0,0-0.1,0-0.1,0c0,0,0,0,0,0c0,0,0,0,0,0c0,0,0,0,0,0.1s0,0.1-0.1,0.1c0,0,0,0,0,0c0,0,0,0,0,0c0,0,0,0-0.1,0
		c0,0-0.1,0-0.1,0c0,0,0,0,0,0c0,0,0,0-0.1,0c0,0,0,0,0-0.1c0,0-0.1,0-0.1,0c0,0,0-0.1-0.1-0.1c0,0,0,0-0.1,0c0,0,0-0.1-0.1-0.1
		c0,0-0.1,0-0.1,0c0,0,0,0-0.1,0c-0.1,0-0.1,0.1-0.1,0.1s0.1,0,0.1,0c0,0,0.1,0,0.1,0.1c0,0.1,0,0.1,0.1,0.1s0,0,0.1,0
		c0,0,0,0.1,0.1,0.1c0.1,0,0.1,0,0.1,0c0,0,0,0,0.1,0c0,0,0,0,0.1,0c0,0,0,0,0.1,0c0,0,0,0,0.1,0c0,0,0.1,0.1,0.1,0.1c0,0,0,0,0,0
		c0,0,0,0,0.1,0c0,0,0,0,0.1,0c0,0,0,0,0.1,0c0,0,0,0,0.1,0c0,0,0,0,0,0c0,0,0-0.1,0.1,0c0,0,0.1,0,0.2,0.1C18,22,18,22.2,18,22.2
		c0-0.1-0.1-0.3-0.2-0.4c-0.1,0-0.1,0-0.1,0c0,0,0,0-0.1,0c0,0,0,0,0,0c0,0,0,0,0,0c0,0,0,0-0.1,0c0,0-0.1,0-0.1,0c0,0,0,0,0.1,0.1
		c0,0,0,0,0,0c0,0,0,0,0,0c0,0,0,0,0.1,0c0,0,0.1,0,0.1,0.1c0,0.1,0,0.2,0,0.2c0,0.1,0,0.1,0,0.2c0,0.1-0.1,0.1-0.1,0.1c0,0,0,0,0,0
		s0-0.1,0.1-0.2c0-0.1,0-0.2,0-0.2c0,0,0,0,0-0.1c0,0,0,0,0-0.1c0,0,0,0,0,0c0,0,0,0,0,0c0,0,0,0-0.1,0c0,0,0,0,0,0c0,0,0,0-0.1,0
		c0,0-0.1,0-0.1,0c0,0,0,0-0.1-0.1c0,0,0-0.1,0-0.1c0,0,0,0,0,0c0,0,0,0,0,0c0,0,0,0,0,0c0,0,0,0-0.1,0c0,0,0,0,0,0c0,0,0,0-0.1,0
		c0,0,0,0-0.1,0c0,0,0,0,0,0c0,0,0,0-0.1,0c0,0-0.1,0-0.1,0c0,0,0,0,0,0c0,0,0,0-0.1,0c0,0,0,0-0.1,0l4.2,4.2
		c0.1-0.1,0.2-0.2,0.3-0.3c1.9-1.9,1.9-5.1,0-7c-1.6-1.6-4-1.9-5.8-0.9l0,0C15.3,17.7,15.4,17.8,15.4,17.8z M19.8,22.7
		c0,0-0.2,0.1-0.2,0.1c-0.1,0-0.2,0.1-0.2,0v0c0-0.1,0-0.1,0.1-0.1C19.6,22.7,19.7,22.7,19.8,22.7C19.8,22.7,19.8,22.7,19.8,22.7z
		 M19.5,22.4C19.5,22.4,19.4,22.4,19.5,22.4C19.4,22.4,19.5,22.3,19.5,22.4C19.5,22.3,19.5,22.3,19.5,22.4c0.1-0.1,0.2-0.1,0.2-0.1
		s-0.1,0-0.1,0v0C19.6,22.4,19.6,22.4,19.5,22.4z M19.5,22.5C19.5,22.5,19.5,22.5,19.5,22.5c0.1,0,0.2,0,0.2,0l0,0
		c0,0-0.1,0-0.1,0.1c0,0-0.1,0-0.1,0C19.5,22.6,19.4,22.6,19.5,22.5C19.4,22.5,19.5,22.5,19.5,22.5z M19.6,21.6L19.6,21.6
		C19.6,21.6,19.7,21.6,19.6,21.6C19.7,21.6,19.6,21.6,19.6,21.6C19.6,21.6,19.6,21.6,19.6,21.6C19.6,21.6,19.6,21.6,19.6,21.6z
		 M19.6,21.7L19.6,21.7C19.6,21.7,19.7,21.7,19.6,21.7C19.7,21.7,19.7,21.7,19.6,21.7C19.6,21.7,19.6,21.7,19.6,21.7
		C19.6,21.7,19.6,21.7,19.6,21.7z M19.6,21.8L19.6,21.8C19.6,21.8,19.6,21.8,19.6,21.8c0.1,0,0.2,0,0.2,0s0,0,0,0
		C19.7,21.8,19.7,21.8,19.6,21.8C19.6,21.8,19.5,21.8,19.6,21.8z M19.5,21.9C19.5,21.9,19.5,21.9,19.5,21.9c0.1,0,0.2,0,0.2,0
		s0,0,0,0C19.6,21.9,19.6,21.9,19.5,21.9C19.5,22,19.5,21.9,19.5,21.9C19.5,21.9,19.5,21.9,19.5,21.9z M19.5,22L19.5,22
		C19.5,22,19.5,22,19.5,22c0.1,0,0.2,0,0.2,0s0,0-0.1,0C19.6,22.1,19.6,22.1,19.5,22C19.5,22.1,19.4,22.1,19.5,22
		C19.4,22,19.5,22,19.5,22z M19.5,22.2L19.5,22.2c0.1,0,0.1,0,0.1,0c0,0,0.1,0,0.2,0c0,0,0,0-0.1,0.1C19.7,22.2,19.6,22.2,19.5,22.2
		C19.4,22.3,19.4,22.2,19.5,22.2C19.4,22.2,19.5,22.2,19.5,22.2z M19.4,22.9L19.4,22.9c0-0.1,0.1-0.1,0.2-0.1c0.1,0,0.2-0.1,0.2-0.1
		c0,0,0,0-0.1,0.1c0,0-0.1,0.1-0.1,0.1C19.5,22.9,19.4,22.9,19.4,22.9z M19.5,23.1L19.5,23.1C19.5,23.1,19.5,23.1,19.5,23.1
		c0-0.1,0.1,0,0.1,0c0,0,0.1,0,0.2,0c0,0-0.1,0-0.2,0C19.5,23.2,19.5,23.2,19.5,23.1z M19.9,23.5L19.9,23.5c0,0-0.1,0-0.1,0.1
		c0,0-0.1,0-0.1,0C19.6,23.5,19.7,23.5,19.9,23.5C19.8,23.5,20,23.5,19.9,23.5L19.9,23.5z M19.8,23.4L19.8,23.4c-0.1,0-0.1,0-0.1,0
		C19.6,23.4,19.7,23.4,19.8,23.4c0-0.1,0.2-0.1,0.2-0.1S19.9,23.4,19.8,23.4z M19.9,23.2L19.9,23.2c-0.1,0-0.2,0.1-0.2,0.1
		c0,0-0.1,0-0.1,0c0,0,0-0.1,0-0.1c0,0,0.1,0,0.1,0C19.8,23.2,19.9,23.2,19.9,23.2c0.1-0.1,0.2-0.1,0.2-0.1S20,23.2,19.9,23.2z
		 M20.1,22.8c0,0-0.1,0.1-0.1,0.1c0,0-0.1,0.1-0.2,0.1c-0.1,0-0.2,0-0.2,0c0,0,0-0.1,0.1-0.1c0,0,0.1,0,0.2,0
		C20,22.9,20.1,22.8,20.1,22.8L20.1,22.8z M20.5,21.8L20.5,21.8C20.5,21.8,20.5,21.8,20.5,21.8C20.4,21.8,20.4,21.8,20.5,21.8
		C20.4,21.8,20.5,21.8,20.5,21.8z M20.5,21.8L20.5,21.8C20.5,21.8,20.5,21.8,20.5,21.8C20.5,21.9,20.5,21.9,20.5,21.8
		C20.5,21.9,20.4,21.9,20.5,21.8C20.4,21.9,20.5,21.9,20.5,21.8z M20.5,21.9C20.5,21.9,20.5,21.9,20.5,21.9
		C20.5,22,20.5,22,20.5,21.9C20.5,22,20.4,22,20.5,21.9C20.4,22,20.4,22,20.5,21.9z M20.5,22L20.5,22C20.5,22,20.6,22,20.5,22
		C20.6,22.1,20.5,22.1,20.5,22c-0.1,0.1-0.1,0-0.1,0C20.4,22.1,20.5,22,20.5,22z M20.5,22.1L20.5,22.1
		C20.6,22.1,20.6,22.1,20.5,22.1C20.6,22.2,20.6,22.2,20.5,22.1c-0.2,0.1-0.2,0.1-0.2,0.1C20.4,22.2,20.5,22.2,20.5,22.1z
		 M20.2,22.4c0.1,0,0.2-0.1,0.2-0.1l0,0c0.1,0,0.1,0,0.1-0.1c0,0,0.1,0,0.1,0c0,0,0,0.1-0.1,0.1c0,0-0.1,0-0.2,0
		C20.3,22.4,20.2,22.4,20.2,22.4z M20.5,22.4L20.5,22.4c0.1,0,0.1,0,0.1-0.1c0,0,0,0,0.1,0c0,0,0,0.1-0.1,0.1c-0.1,0-0.2,0-0.2,0
		c0,0-0.1,0-0.1,0S20.4,22.5,20.5,22.4z M20.4,22.6c0,0,0.1,0,0.2,0c0.1,0,0.1,0,0.2-0.1c0,0,0,0,0.1,0c0,0,0,0.1-0.1,0.1
		C20.6,22.7,20.5,22.7,20.4,22.6C20.5,22.7,20.4,22.6,20.4,22.6z M20.6,22.8c0,0,0.1,0,0.2-0.1c0.1,0,0.1,0,0.1,0c0,0,0,0,0.1,0
		c0,0.1,0,0.1-0.1,0.1c-0.1,0-0.1,0-0.1,0C20.7,22.8,20.7,22.8,20.6,22.8C20.6,22.8,20.6,22.8,20.6,22.8z M20.8,22.9L20.8,22.9
		c0.1,0,0.1,0,0.1,0c0,0,0,0,0,0C20.9,22.9,20.9,22.9,20.8,22.9C20.8,22.9,20.7,22.9,20.8,22.9c-0.1,0.1-0.1,0.1-0.1,0c0,0,0,0,0,0
		S20.7,22.9,20.8,22.9z M20.6,23L20.6,23c0,0,0.1,0,0.2,0c0.1,0,0.1,0,0.1-0.1c0.1-0.1,0.1-0.1,0.1,0c0,0.1,0,0.1-0.1,0.1
		c0,0-0.1,0-0.1,0C20.8,23.1,20.7,23.1,20.6,23C20.7,23,20.6,23,20.6,23z M20.7,23.1L20.7,23.1c0,0,0,0,0.1,0c0.1,0,0.1,0,0.1,0
		c0,0,0.1,0,0.1,0c0,0,0,0-0.1,0.1c0,0-0.1,0-0.1,0C20.8,23.1,20.8,23.1,20.7,23.1C20.7,23.1,20.7,23.1,20.7,23.1z M20.8,23.2
		c0.1,0,0.2,0,0.2,0c0.1,0,0.1,0,0.1,0c0,0,0.1,0,0.1,0c0,0,0,0.1-0.1,0.1c-0.1,0-0.1,0-0.2,0C20.9,23.2,20.9,23.2,20.8,23.2
		C20.8,23.2,20.8,23.2,20.8,23.2z M21.1,23.3L21.1,23.3c0,0,0.1,0,0.1,0c0,0,0.1,0,0.1,0c0,0,0,0,0,0.1
		C21.2,23.3,21.1,23.3,21.1,23.3C21.1,23.3,21,23.3,21.1,23.3c-0.1,0-0.1,0-0.1,0C20.9,23.3,21,23.3,21.1,23.3z M21.3,23.5
		L21.3,23.5c0,0-0.1,0-0.1,0s0,0-0.1,0c0,0-0.1,0-0.1,0s0.1,0,0.1,0C21.2,23.5,21.2,23.5,21.3,23.5C21.3,23.4,21.3,23.4,21.3,23.5
		C21.3,23.5,21.3,23.5,21.3,23.5z M21.3,23.4C21.2,23.4,21.2,23.4,21.3,23.4c-0.1,0-0.2,0-0.2,0S21.2,23.4,21.3,23.4
		C21.3,23.3,21.3,23.3,21.3,23.4C21.3,23.3,21.3,23.3,21.3,23.4C21.3,23.4,21.3,23.4,21.3,23.4z"/>
	<path id="XMLID_191_" d="M15.8,20.9L15.8,20.9l0.1,0.1c0,0,0-0.1,0-0.1c0,0,0-0.1,0-0.1c0,0,0-0.1,0-0.1
		C15.9,20.8,15.8,20.8,15.8,20.9C15.8,20.9,15.8,20.9,15.8,20.9z"/>
	<path id="XMLID_194_" d="M15.9,23.3c-0.5,0.5-0.4,1.4-0.3,1.4c0,0,0.6-0.2,0.6-0.2s-0.2-0.6,0.1-0.8c0.3-0.3,0.8-0.1,0.8-0.1l0,0
		l0.2-0.6C16.9,22.8,16.4,22.8,15.9,23.3z M16.9,23.2c-0.4,0-0.6,0-0.9,0.3l0,0c-0.3,0.3-0.2,0.8-0.2,0.8l-0.1,0
		c0-0.1-0.1-0.6,0.2-0.9C16.3,23.2,16.6,23.1,16.9,23.2L16.9,23.2z"/>
	<path id="XMLID_195_" d="M21.1,22c0,0,0,0.1,0,0.1c0,0,0.1,0.1,0.2,0.2c0.1,0.1,0.1,0,0.1,0c0-0.1,0-0.2,0-0.2
		C21.4,22,21.1,21.8,21.1,22z"/>
	<polygon id="XMLID_196_" points="16.7,22.4 16.7,22.4 16.7,22.4 	"/>
	<path id="XMLID_197_" d="M16.1,20L16.1,20C16.1,20,16.1,20.1,16.1,20C16.1,20.1,16.1,20.1,16.1,20c0,0.1-0.1,0.2,0,0.2
		c0,0,0,0.1,0,0.1s0,0,0,0c0,0,0,0,0.1-0.1c0,0,0-0.1,0-0.1C16.3,20.1,16.2,20.1,16.1,20C16.2,20,16.1,20,16.1,20z"/>
	<path id="XMLID_200_" d="M15,22.2L15,22.2c-0.1,0.2-0.1,0.5-0.3,0.6c-0.3,0.2-0.5,0.1-0.5,0.1l0.1,0.5c0,0,0.2,0,0.4,0
		c0.1,0,0.4-0.2,0.5-0.4c0.1-0.2,0.2-0.4,0.3-0.5c0.1-0.1,0.2-0.3,0.3-0.3c0.1,0,0.4-0.1,0.4-0.1L16,21.7c0,0-0.1,0-0.4,0.1
		C15.3,21.8,15.1,22,15,22.2z M15.9,22L15.9,22c-0.2,0-0.4,0.1-0.5,0.2c-0.1,0.1-0.1,0.2-0.2,0.3c-0.1,0.2-0.2,0.3-0.2,0.4
		c-0.1,0.1-0.3,0.2-0.4,0.2l0,0l0-0.1l0,0c0.1,0,0.2,0,0.4-0.2c0.1-0.1,0.1-0.2,0.2-0.4c0.1-0.1,0.1-0.3,0.2-0.4
		C15.5,22,15.6,21.9,15.9,22L15.9,22z"/>
	<path id="XMLID_201_" d="M16.3,20.3c0,0-0.1,0.1-0.1,0.2c0,0,0,0.1,0,0.1c0,0,0,0.1,0,0.1c0,0,0,0,0,0.1c0,0,0,0.1,0,0.1l0.2-0.2
		c0,0,0,0,0,0c0,0,0,0,0-0.1c0,0,0-0.1,0-0.1l0,0C16.3,20.4,16.3,20.3,16.3,20.3z"/>
	<path id="XMLID_202_" d="M16.1,20.9C16.1,20.9,16.1,20.9,16.1,20.9c0.1,0,0.1,0,0.1,0c0,0,0,0,0,0c0,0,0,0,0-0.1c0,0,0,0,0-0.1
		c0,0,0-0.1,0,0c0,0,0,0.1-0.1,0.1C16.2,20.9,16.2,20.9,16.1,20.9L16.1,20.9C16.2,20.9,16.1,20.9,16.1,20.9z"/>
	<polygon id="XMLID_203_" points="12.9,23.4 12.9,23.4 12.9,23.4 	"/>
	<path id="XMLID_204_" d="M15.2,25.7L15.2,25.7C15.2,25.7,15.2,25.7,15.2,25.7C15.2,25.8,15.2,25.8,15.2,25.7
		C15.2,25.8,15.2,25.8,15.2,25.7C15.2,25.8,15.2,25.8,15.2,25.7C15.3,25.8,15.3,25.8,15.2,25.7C15.2,25.7,15.2,25.7,15.2,25.7z"/>
	<path id="XMLID_205_" d="M15.6,26.1L15.6,26.1C15.6,26.1,15.6,26.1,15.6,26.1C15.6,26.1,15.5,26.1,15.6,26.1
		C15.5,26.1,15.5,26.1,15.6,26.1C15.6,26.2,15.6,26.2,15.6,26.1C15.6,26.2,15.6,26.2,15.6,26.1C15.6,26.1,15.6,26.1,15.6,26.1z"/>
	<path id="XMLID_206_" d="M21.3,20.2L21.3,20.2c-0.1,0-0.1,0-0.1,0c0,0-0.1,0-0.1,0.1c0,0.1,0,0.1,0,0.2c0,0,0,0.1-0.1,0.1
		c-0.1,0-0.1,0-0.1,0c0,0-0.1,0-0.1,0c-0.1,0-0.1,0-0.1,0.1c0,0.1,0,0.2,0.1,0.2c0.1,0,0.1,0,0.3,0c0.2,0,0.2-0.1,0.3-0.2
		c0.1-0.1,0.1-0.2,0.1-0.3C21.4,20.2,21.4,20.2,21.3,20.2z"/>
	<path id="XMLID_207_" d="M15.2,25.8L15.2,25.8C15.1,25.8,15.1,25.8,15.2,25.8C15.1,25.8,15.1,25.8,15.2,25.8c0-0.1,0-0.1-0.1-0.1
		C15.1,25.8,15.1,25.8,15.2,25.8C15.1,25.8,15.1,25.8,15.2,25.8C15.1,25.8,15.1,25.9,15.2,25.8C15.1,25.9,15.1,25.9,15.2,25.8
		C15.1,25.9,15.1,25.9,15.2,25.8c-0.1,0.1,0,0.1,0,0.1c0,0,0,0,0,0C15.2,26,15.2,26,15.2,25.8C15.2,25.9,15.2,25.9,15.2,25.8
		C15.2,25.9,15.2,25.9,15.2,25.8C15.2,25.9,15.2,25.9,15.2,25.8z"/>
	<path id="XMLID_208_" d="M12.9,23.4C12.9,23.4,12.9,23.4,12.9,23.4c0.1-0.1,0.1-0.1,0.1-0.1s-0.1,0.1,0,0.1c0.1,0,0.1,0,0.1,0
		s-0.1,0.1-0.1,0.1c0,0,0,0,0.1,0c0,0,0.1,0,0.2,0c0,0,0.1,0,0.1,0s-0.1,0-0.1,0c0,0,0,0-0.1,0c0,0,0,0,0,0c0,0,0,0,0,0
		c0,0,0,0-0.1,0c0,0,0,0,0,0c0,0,0.1,0,0.1,0c0,0,0.1,0,0.1,0s-0.1,0-0.1,0c0,0,0,0.1,0.1,0.1c0,0,0,0,0,0c0,0,0,0,0,0s0,0,0,0
		c0,0,0,0,0,0c0,0,0,0,0,0c0,0,0,0,0,0c0,0,0,0,0,0c0,0,0,0,0,0c0,0,0,0,0,0s0,0,0,0c0,0,0,0,0,0l0.1-0.1c0,0,0,0,0,0c0,0,0,0,0,0
		s0,0,0,0c0,0,0,0,0.1,0c0,0,0,0,0,0c0,0,0,0,0,0c0,0,0,0,0,0c0,0,0,0,0,0c0,0,0,0,0,0c0,0,0,0,0,0c0,0,0,0,0,0s0,0,0,0
		c0,0,0,0,0-0.1c0,0,0.1,0,0.1,0c0,0,0,0,0,0c0,0,0,0,0,0c0,0,0,0,0,0s0,0,0,0c0,0,0,0,0.1,0c0,0,0,0,0,0c0,0,0,0,0,0c0,0,0,0,0,0
		c0,0,0,0,0,0c0,0,0,0,0.1,0c0,0,0,0,0.1,0c0,0,0,0,0,0s0,0,0,0c0,0,0,0,0,0s0,0,0,0c0,0,0,0,0,0c0,0,0,0,0,0c0,0,0,0,0.1,0
		c0,0,0,0,0.1,0c0,0,0,0,0,0c0,0,0,0,0,0s0,0-0.1,0c0,0,0,0,0,0c0,0,0,0,0,0c0,0,0,0,0,0c0,0,0,0,0,0c0,0,0,0,0,0s0,0-0.1,0
		c0,0,0,0,0,0c0,0,0,0,0,0c0,0,0,0,0,0c0,0,0,0,0,0c0,0,0,0,0,0c0,0,0,0,0.1,0.1c0,0,0,0,0,0l0,0c0,0,0,0,0,0c0,0,0,0,0,0
		c0,0,0,0,0,0c0,0,0,0,0,0c0,0,0,0,0,0c0,0,0,0,0,0c0,0,0,0,0,0c0,0,0.1,0,0.1,0s0,0,0,0c0,0,0,0,0,0c0,0,0,0,0.1,0c0,0,0,0,0.1,0
		c0,0,0.1,0,0.1,0s-0.1,0-0.1,0c0,0,0,0,0,0c0,0,0,0,0,0c0,0,0.1,0,0.1,0s0,0,0,0c0,0,0,0,0,0c0,0,0,0,0,0c0,0,0.1,0.1,0.1,0.1
		c0,0-0.1,0-0.1,0c0,0,0,0,0,0.1c0,0,0,0,0,0s-0.1,0-0.1,0c0,0,0,0,0,0c0,0,0,0,0,0c0,0,0,0,0,0c0,0,0,0,0,0c0,0,0,0,0,0
		c0,0,0,0,0,0c0,0,0,0,0,0c0,0,0,0,0,0c0,0,0,0,0,0c0,0,0,0,0,0c0,0,0,0,0,0c0,0,0,0,0,0l0,0c0,0,0,0,0,0c0,0,0,0,0,0c0,0,0,0,0-0.1
		c0,0,0,0,0,0s0,0,0,0c0,0,0,0,0,0c0,0,0,0,0,0c0,0,0,0,0-0.1c0,0,0,0,0,0s0,0,0,0c0,0,0,0,0,0c0,0,0,0,0,0s0,0,0,0c0,0,0,0,0,0
		c0,0,0,0,0,0c0,0,0,0,0,0.1c0,0,0,0,0,0.1c0,0,0,0,0,0c0,0,0,0,0,0c0,0,0,0,0.1,0c0,0,0.1,0,0.1,0s0,0,0,0c0,0,0,0,0.1,0
		c0,0,0.1,0,0.1,0c0,0,0,0,0,0s0,0-0.1,0c0,0,0,0,0,0c0,0,0,0,0,0c0,0,0,0,0,0s0,0-0.1,0c0,0,0,0,0,0c0,0,0,0,0.1,0c0,0,0.1,0,0.1,0
		c0,0,0.1,0,0.1,0c0,0,0,0,0,0s0,0-0.1,0c0,0-0.1,0-0.1,0c0,0,0,0-0.1,0c0,0-0.1,0-0.1,0c0,0,0,0,0,0c0,0,0.1,0,0.1,0s0,0-0.1,0
		c0,0,0,0,0,0c0,0,0,0,0,0c0,0,0,0,0,0c0,0,0,0,0.1,0c0,0,0,0,0,0s0,0,0,0c0,0,0,0,0,0c0,0,0,0,0,0c0,0,0,0,0.1,0c0,0,0,0,0,0
		c0,0,0,0,0.1,0c0,0,0,0,0.1,0c0,0,0,0,0,0c0,0,0,0,0,0c0,0,0,0,0,0c0,0,0-0.3,0-0.3l0-0.3c0,0,0,0,0,0c0,0,0,0.3,0,0.3
		c0,0,0,0.2,0,0.2c0,0,0,0.1,0,0.1c0,0,0,0,0,0c0,0,0,0,0,0c0,0,0,0,0,0c0,0,0,0,0,0c0,0,0,0,0,0c0,0,0,0,0,0c0,0,0,0,0,0
		c0,0,0,0,0,0c0,0,0,0,0,0c0,0,0,0,0,0c0,0,0,0,0,0c0,0,0,0,0,0c0,0,0,0,0,0c0,0,0,0,0,0c0,0,0,0,0,0c0,0,0,0,0,0c0,0,0,0,0,0
		c0,0,0,0,0,0c0,0,0,0,0,0c0,0,0,0,0,0c0,0,0,0,0,0c0,0,0,0,0.1,0c0,0,0,0,0,0c0,0,0.1,0,0.1,0c0,0,0,0-0.1,0c0,0,0,0,0,0
		c0,0,0.1,0,0.1,0c0,0,0,0,0,0c0,0,0,0,0,0s-0.1,0-0.1,0c0,0,0,0,0,0c0,0,0,0,0,0c0,0,0,0,0.1,0c0,0,0,0,0,0c0,0,0.1,0.1,0.1,0.1
		s0,0-0.1,0c0,0-0.1,0,0,0.1c0,0,0.1,0.1,0.1,0.1c0,0,0,0,0,0c0,0,0,0,0,0c0,0,0,0,0,0c0,0,0,0,0,0c0,0,0,0,0,0c0,0,0,0,0,0
		c0,0,0,0,0,0c0,0,0,0,0,0c0,0,0,0,0,0c0,0,0,0,0,0c0,0,0,0,0,0c0,0,0,0,0,0c0,0,0,0,0,0c0,0,0,0,0,0c0,0,0,0,0,0c0,0,0,0,0,0
		c0,0,0,0,0,0c0,0,0,0,0,0c0,0,0,0,0,0c0,0,0,0,0,0c0,0,0,0,0,0c0,0,0,0,0,0c0,0,0,0,0,0c0,0,0,0,0,0c0,0,0,0,0,0c0,0,0,0,0,0
		c0,0,0,0,0,0.1c0,0,0.4,0,0.4,0c0,0,0.3,0,0.3,0c0,0,0,0,0,0c0,0,0,0,0,0c0,0,0,0,0,0c0,0-0.3,0-0.3,0c0,0-0.1,0-0.1,0
		c0,0-0.1,0,0,0c0,0,0,0,0,0c0,0-0.1,0-0.1,0c0,0,0,0,0,0c0,0,0,0,0,0c0,0,0,0,0,0c0,0,0,0,0.1,0c0,0,0,0,0,0s0,0,0-0.1
		c0,0,0,0,0-0.1c0,0,0,0,0.1-0.1c0,0,0,0,0.1,0c0,0,0,0,0.1,0c0,0,0,0,0,0c0,0,0,0,0,0c0,0,0,0,0.1,0c0,0,0,0,0,0c0,0,0,0,0,0
		c0,0,0,0,0,0c0,0,0,0,0,0.1c0,0,0,0,0,0c0,0,0,0,0,0.1c0,0,0,0,0,0s0,0,0,0c0,0,0,0,0,0c0,0,0,0,0,0s0,0,0,0c0,0,0,0,0,0
		c0,0-0.1,0-0.1,0c0,0,0,0,0,0c0,0,0,0,0,0c0,0,0,0,0,0c0,0,0,0,0,0s0,0,0,0.1c0,0,0,0.1,0,0.1s0,0,0,0c0,0,0,0,0,0c0,0,0,0,0,0
		s0,0,0-0.1c0,0,0,0,0-0.1c0,0,0,0,0,0c0,0,0,0,0,0.1c0,0,0,0,0.1,0.1c0,0,0,0,0,0c0,0,0,0,0,0c0,0,0,0-0.1,0c0,0,0,0,0,0
		c0,0,0,0,0,0s0,0,0,0c0,0,0,0,0,0c0,0,0,0,0,0c0,0,0,0,0,0c0,0,0,0,0,0c0,0,0,0,0,0s0,0,0,0c0,0,0,0,0,0c0,0,0,0,0,0c0,0,0,0,0.1,0
		c0,0,0,0,0,0s0,0,0,0c0,0,0,0,0,0c0,0,0.1,0,0.1,0c0,0,0,0.1,0,0.1c0,0,0,0,0,0c0,0,0.1,0,0.1,0c0,0,0,0-0.1,0c0,0,0,0,0,0
		c0,0,0,0.1,0,0c0.1,0,0.1-0.1,0.1-0.1s0,0,0.1,0c0,0,0.1,0,0.1,0s-0.1,0-0.1,0.1c0,0,0,0,0.1,0c0,0,0.1,0,0.1,0s0,0,0,0
		c0,0,0.1,0.1,0.1,0.1l0,0c0,0,0,0,0,0c0,0,0,0,0,0c0,0,0,0,0,0c0,0,0,0,0,0c0,0,0,0,0,0c0.1,0,0.2,0.1,0.2,0.1
		c0.3,0.1,0.7,0.2,1,0.2l-4.6-4.6C12.7,22.7,12.8,23.1,12.9,23.4z"/>
	<path id="XMLID_209_" d="M15.8,26.2C15.8,26.2,15.8,26.2,15.8,26.2C15.8,26.2,15.8,26.2,15.8,26.2C15.8,26.2,15.8,26.2,15.8,26.2
		C15.7,26.2,15.7,26.2,15.8,26.2C15.7,26.2,15.7,26.2,15.8,26.2z"/>
	<path id="XMLID_210_" d="M15.2,25.4C15.2,25.4,15.2,25.4,15.2,25.4C15.2,25.4,15.2,25.4,15.2,25.4C15.2,25.5,15.2,25.5,15.2,25.4
		L15.2,25.4C15.2,25.4,15.2,25.4,15.2,25.4z"/>
	<path id="XMLID_211_" d="M14.8,25.7L14.8,25.7C14.8,25.7,14.8,25.7,14.8,25.7C14.8,25.8,14.8,25.8,14.8,25.7
		C14.8,25.8,14.8,25.8,14.8,25.7C14.8,25.8,14.8,25.8,14.8,25.7C14.8,25.7,14.8,25.7,14.8,25.7z"/>
	<path id="XMLID_212_" d="M14.9,25.5L14.9,25.5C14.9,25.5,14.9,25.5,14.9,25.5C14.9,25.4,14.9,25.4,14.9,25.5c0-0.1,0-0.1,0-0.1
		C14.9,25.4,14.9,25.4,14.9,25.5C14.8,25.4,14.9,25.5,14.9,25.5C14.9,25.5,14.9,25.5,14.9,25.5z"/>
	<path id="XMLID_213_" d="M14.5,25.1L14.5,25.1C14.6,25.1,14.6,25.1,14.5,25.1C14.6,25.2,14.6,25.1,14.5,25.1c0.1,0,0.1,0,0.1,0
		C14.7,25.1,14.6,25.1,14.5,25.1C14.5,25.1,14.5,25.1,14.5,25.1z"/>
	<path id="XMLID_214_" d="M14.5,25.2L14.5,25.2C14.5,25.2,14.5,25.2,14.5,25.2C14.5,25.2,14.5,25.2,14.5,25.2
		C14.5,25.2,14.5,25.2,14.5,25.2C14.6,25.2,14.6,25.2,14.5,25.2C14.6,25.2,14.6,25.2,14.5,25.2z"/>
	<path id="XMLID_215_" d="M14.9,25.8L14.9,25.8C14.9,25.9,14.9,25.9,14.9,25.8C14.9,25.9,14.9,25.9,14.9,25.8
		C15,25.9,15,25.9,14.9,25.8C15,25.9,15,25.9,14.9,25.8C15,25.9,15,25.9,14.9,25.8C15,25.8,15,25.8,14.9,25.8z"/>
	<path id="XMLID_216_" d="M15,25.7L15,25.7C15,25.7,15,25.7,15,25.7C15,25.7,15,25.7,15,25.7C15,25.6,15,25.6,15,25.7
		C14.9,25.6,14.9,25.6,15,25.7C14.9,25.6,14.9,25.7,15,25.7C14.9,25.7,14.9,25.7,15,25.7C14.9,25.7,14.9,25.7,15,25.7
		C14.9,25.7,14.9,25.7,15,25.7C14.9,25.8,14.9,25.8,15,25.7C14.9,25.7,14.9,25.7,15,25.7z"/>
	<path id="XMLID_217_" d="M15.1,25.6C15.1,25.6,15.1,25.6,15.1,25.6C15.1,25.6,15.1,25.6,15.1,25.6c0-0.1,0-0.1,0-0.1c0,0,0,0,0,0
		c0,0,0,0,0,0c0,0,0,0,0,0c0,0,0,0,0,0.1C15,25.5,15,25.6,15.1,25.6C15,25.6,15,25.6,15,25.6C15,25.6,15,25.6,15.1,25.6
		C15,25.6,15,25.6,15.1,25.6C15.1,25.6,15.1,25.6,15.1,25.6L15.1,25.6z"/>
	<path id="XMLID_220_" d="M19.4,28.3l0.6,0.6l0.4-0.4l-0.2-0.2l1.2-1.2L21,26.8C21,26.8,19.4,28.3,19.4,28.3z M19.9,28.3L19.9,28.3
		l0.3,0.3l-0.1,0.1l-0.4-0.4L21,27l0.1,0.1L19.9,28.3z"/>
	<polygon id="XMLID_221_" points="19.4,28.3 19.4,28.3 19.4,28.3 	"/>
	<path id="XMLID_224_" d="M20.8,29.1L20.8,29.1c0.3,0.1,0.5,0,0.7-0.2c0,0,0,0,0.1,0c0.1-0.1,0.3-0.2,0.3-0.5
		c0.1-0.3-0.1-0.5-0.2-0.6l-1.2,1.1C20.5,29,20.6,29.1,20.8,29.1z M21.6,28.1c0.1,0.1,0.2,0.3-0.2,0.7c-0.3,0.3-0.6,0.1-0.6,0.1
		L21.6,28.1z"/>
	<path id="XMLID_227_" d="M20.1,29L20.1,29l0.4,0.4c0.1,0.1,0.6,0.5,1.3-0.2c0.7-0.7,0.5-1.3-0.1-1.8L20.1,29L20.1,29z M21.6,27.6
		L21.6,27.6L21.6,27.6L21.6,27.6c0.2,0.2,0.4,0.4,0.3,0.8c-0.1,0.3-0.2,0.4-0.4,0.6c0,0,0,0-0.1,0c-0.2,0.2-0.5,0.3-0.8,0.2
		c-0.2-0.1-0.3-0.2-0.4-0.2l-0.1-0.1L21.6,27.6z"/>
	<path id="XMLID_5_" d="M34.6,10.7c-1.3,1-3.4,1.2-5-0.1c-0.6-0.5-1-1.2-1.2-1.9c-0.3-1.3,0-2.5,0.7-3.5l-4-4l-6.3,6.3
		c0.5,0.5,1.1,1.1,1.6,1.6c0.2,0.2,0.2,0.3,0,0.5c-0.3,0.3-0.6,0.6-0.9,0.9c-0.2,0.2-0.3,0.2-0.5,0c-0.5-0.6-1.1-1.1-1.6-1.7
		L1.9,24.5l4,4c1.9-1.1,3.7-0.6,4.8,0.4c0.7,0.7,1.2,1.6,1.2,2.6c0.1,0.9-0.2,1.7-0.6,2.4l4,4c5.2-5.2,10.4-10.4,15.6-15.6
		c-0.5-0.5-1.1-1.1-1.7-1.7c-0.1-0.1-0.2-0.2,0-0.4c0.3-0.3,0.7-0.6,1-1c0.2-0.2,0.3-0.2,0.5,0c0.5,0.6,1.1,1.1,1.6,1.6
		c2.1-2.1,4.2-4.2,6.3-6.3L34.6,10.7z M20.9,31L20.9,31l-3.3-3.3c-1.4,0-2.8-0.6-3.8-1.6c-1-1-1.6-2.3-1.6-3.8l-3.3-3.3l2.8-2.8
		l2.1,2.1c0,0,0.1-0.1,0.1-0.1c1-1,2.4-1.6,3.9-1.6c1.5,0,2.9,0.6,3.9,1.6c1.1,1.1,1.6,2.4,1.6,3.9c0,1.5-0.6,2.9-1.6,3.9
		c0,0-0.1,0.1-0.1,0.1l2.1,2.1L20.9,31z M24.4,13.5L24.4,13.5c-0.4,0.4-0.7,0.7-1.1,1.1c-0.1,0.1-0.2,0.1-0.3,0
		c-0.6-0.6-1.1-1.1-1.7-1.7c-0.1-0.1-0.1-0.2,0-0.3c0.4-0.3,0.7-0.7,1.1-1.1c0.1-0.1,0.3-0.1,0.4,0c0.5,0.6,1.1,1.1,1.6,1.6
		c0.1,0.1,0.1,0.1,0.1,0.2C24.5,13.4,24.4,13.4,24.4,13.5z M28.3,17.4L28.3,17.4c-0.3,0.3-0.7,0.7-1,1c-0.1,0.1-0.1,0.1-0.2,0.2
		c-0.1-0.1-0.1-0.1-0.2-0.1c-0.5-0.5-1.1-1.1-1.6-1.6c-0.1-0.1-0.1-0.2,0-0.3c0.4-0.3,0.7-0.7,1-1c0.2-0.2,0.3-0.1,0.4,0
		c0.5,0.5,1.1,1.1,1.6,1.6C28.4,17.1,28.4,17.2,28.3,17.4z"/>
	<path id="XMLID_235_" d="M21.4,26.1L21.4,26.1c0,0,0.1-0.1,0.1-0.1c1-1,1.6-2.4,1.6-3.8c0-1.5-0.6-2.8-1.6-3.9
		c-1-1-2.4-1.6-3.9-1.6c-1.5,0-2.8,0.6-3.8,1.6c0,0-0.1,0.1-0.1,0.1l0,0l-2.1-2.1l-2.7,2.6l3.2,3.3v0c0,1.4,0.7,3.3,1.7,4.3
		c1,1,2.4,2.2,3.8,2.2h0l3.3,2.7l2.6-2.9l-2.1-2.2L21.4,26.1z M23.1,28.2L23.1,28.2l-2.3,2.3l-3.2-3.2c-1.3,0-2.6-0.5-3.6-1.5
		c-1-1-1.5-2.3-1.5-3.6l-3.2-3.2l2.3-2.3l2.1,2.1c0.1-0.1,0.2-0.2,0.3-0.3c2-2,5.3-2,7.4,0c2,2,2.1,5.3,0,7.4
		c-0.1,0.1-0.2,0.2-0.3,0.3L23.1,28.2z"/>
	<polygon id="XMLID_236_" points="22.6,28.2 22.6,28.1 22.5,28.1 	"/>
	<polygon id="XMLID_237_" points="22.6,28.2 22.6,28.2 22.8,28.1 22.8,28.1 22.6,28.2 22.7,28.3 22.8,28.1 22.8,28.1 22.6,28.2 
		22.6,28.2 22.7,28.1 22.7,28 22.6,28.1 	"/>
	<polygon id="XMLID_238_" points="22.6,28.1 22.6,28.1 22.6,28.1 22.6,28.1 	"/>
	<path id="XMLID_241_" d="M20.2,27L20.2,27L20.2,27c0.1-0.1,0.2-0.2,0.2-0.4c0,0,0,0,0,0c0-0.1-0.1-0.2-0.1-0.2c0,0-0.1-0.1-0.2-0.1
		l-0.4,0.4l-0.3,0.3l0.1,0.1l0.2,0.2c0,0,0.2,0,0.3,0C20,27.1,20.1,27.1,20.2,27z M19.6,26.9C19.6,26.9,19.6,26.9,19.6,26.9
		c0.1-0.1,0.4-0.4,0.5-0.5c0,0.1,0.1,0.2,0,0.3h0c0,0-0.1,0.1-0.1,0.2C19.8,27,19.6,26.9,19.6,26.9z"/>
	<path id="XMLID_244_" d="M19,26.7L19,26.7c0.2-0.2,0.6-0.5,0.7-0.8c0.1-0.2,0-0.5-0.2-0.7c-0.2-0.1-0.3-0.2-0.5-0.2l0.3-0.2
		l-0.4-0.5l-1.1,0.8l0.5-0.7L18,24.1l-0.7,0.5l0.8-1l-0.5-0.5l-1.5,2.2l0.4,0.4l0.8-0.6c0,0-0.3,0.6-0.6,0.8l0.4,0.4l1-0.7
		c-0.3,0.3-0.6,0.8-0.2,1.2c0,0,0.1,0.1,0.1,0.1c0.3,0.2,0.6,0,0.8-0.1C18.9,26.8,19,26.8,19,26.7z M17.2,26L17.2,26L17.2,26
		l0.6-1.3l0,0c-0.1,0.1-0.3,0.2-0.5,0.3c-0.2,0.1-0.7,0.3-0.7,0.4l-0.1-0.1v0c0-0.1,0.5-0.7,0.6-0.9c0.3-0.4,0.6-0.9,0.7-0.9
		l0.1,0.1c-0.3,0.4-0.9,1.2-1.1,1.6c0.3-0.1,0.8-0.4,1.2-0.6l0.1,0.1l-0.6,1.2l1.6-1.1l0.1,0.1L17.2,26z M18.1,26.7L18.1,26.7
		C18.1,26.7,18.1,26.7,18.1,26.7c-0.4-0.4,0-0.8,0.2-1c0.2-0.2,0.7-0.7,1-0.4c0,0,0,0,0,0c0.2,0.2,0.2,0.5-0.1,0.8l0,0
		c-0.3,0.3-0.6,0.6-0.9,0.7C18.3,26.8,18.2,26.8,18.1,26.7z"/>
	<path id="XMLID_248_" d="M20.3,27.2L20.3,27.2c0.2-0.2,0.3-0.4,0.3-0.5c0-0.1,0-0.2-0.1-0.3c0-0.1-0.1-0.1-0.1-0.2c0,0,0,0,0,0
		c-0.2-0.3-0.4-0.4-0.4-0.4l-1,1l-0.4,0.4l-0.2,0.2l0.3,0.3l0.5-0.5l0.1,0C19.2,27.6,19,28,19,28l0.4,0.2c0.3-0.5,0.4-0.9,0.4-0.9
		S20.1,27.5,20.3,27.2z M19.6,27.2l-0.3,0.6l-0.1,0C19.3,27.8,19.5,27.3,19.6,27.2L19.3,27l-0.1,0l-0.1,0.1l-0.3,0.3l-0.1-0.1
		l0.2-0.2l0.4-0.4l0.6-0.6c0,0,0.1,0.1,0.2,0.2c0.1,0.1,0.1,0.2,0.1,0.2c0,0,0,0,0,0c0,0.2-0.1,0.4-0.2,0.5l0,0
		c-0.1,0.1-0.2,0.2-0.3,0.2C19.8,27.2,19.6,27.2,19.6,27.2L19.6,27.2z"/>
	<polygon id="XMLID_249_" points="22.5,28.1 22.6,28 22.6,28 22.7,28 22.6,27.9 22.6,27.9 22.6,28 22.5,28.1 	"/>
	<path id="XMLID_252_" d="M19.2,26.1L19.2,26.1c0.3-0.3,0.2-0.6,0.1-0.6c0,0,0,0,0,0c-0.2-0.2-0.5-0.1-0.9,0.3
		c-0.4,0.5-0.4,0.7-0.2,0.8c0,0,0,0,0,0c0.1,0.1,0.2,0.1,0.2,0.1C18.7,26.7,19,26.4,19.2,26.1L19.2,26.1z M18.9,26.2
		c-0.3,0.3-0.5,0.4-0.6,0.3c-0.1-0.1,0.1-0.3,0.3-0.5c0.2-0.2,0.5-0.4,0.6-0.3C19.3,25.7,19.2,25.9,18.9,26.2z"/>
	<path id="XMLID_253_" d="M15.9,25.9L15.9,25.9C15.9,25.9,15.9,25.9,15.9,25.9C15.8,25.9,15.8,25.8,15.9,25.9
		C15.8,25.8,15.8,25.9,15.9,25.9C15.8,25.9,15.8,25.9,15.9,25.9C15.8,25.9,15.9,25.9,15.9,25.9z"/>
	<path id="XMLID_256_" d="M13,20.5c0.1,0,0.2,0,0.3,0c0.1,0,0.1,0,0.3-0.2c0.2-0.2,0.1-0.3,0-0.5c-0.1-0.1-0.2-0.2-0.2-0.2l-0.2,0.2
		l-0.5,0.5L13,20.5L13,20.5z M13.4,19.9c0.1,0.1,0.1,0.1,0.1,0.2c0,0.1-0.1,0.2-0.2,0.2c-0.1,0-0.2,0-0.2,0L13.4,19.9z"/>
	<path id="XMLID_257_" d="M13.3,23.7L13.3,23.7C13.2,23.7,13.2,23.7,13.3,23.7C13.2,23.7,13.2,23.7,13.3,23.7
		C13.2,23.7,13.2,23.6,13.3,23.7C13.2,23.7,13.2,23.7,13.3,23.7C13.2,23.7,13.2,23.8,13.3,23.7C13.2,23.8,13.2,23.8,13.3,23.7
		C13.2,23.8,13.2,23.8,13.3,23.7C13.3,23.8,13.3,23.8,13.3,23.7C13.3,23.8,13.3,23.8,13.3,23.7C13.3,23.8,13.3,23.8,13.3,23.7
		C13.3,23.8,13.3,23.8,13.3,23.7C13.3,23.8,13.3,23.7,13.3,23.7z"/>
	<path id="XMLID_258_" d="M14.5,25L14.5,25C14.4,25,14.4,25,14.5,25C14.4,25,14.4,25,14.5,25C14.4,25,14.5,25,14.5,25
		C14.5,24.9,14.4,24.9,14.5,25C14.3,24.9,14.4,25,14.5,25C14.4,25,14.4,25,14.5,25C14.4,25.1,14.4,25.1,14.5,25
		C14.4,25.1,14.5,25.1,14.5,25C14.5,25,14.5,25,14.5,25z"/>
	<path id="XMLID_259_" d="M13.2,23.9L13.2,23.9C13.1,23.8,13.1,23.9,13.2,23.9C13.1,23.9,13.1,23.9,13.2,23.9
		C13.2,24,13.2,23.9,13.2,23.9C13.2,23.9,13.2,23.9,13.2,23.9C13.2,23.9,13.2,23.9,13.2,23.9z"/>
	<path id="XMLID_260_" d="M13.1,23.7C13.1,23.7,13,23.7,13.1,23.7C13.1,23.8,13.1,23.7,13.1,23.7C13.1,23.7,13.1,23.7,13.1,23.7
		C13.1,23.7,13.1,23.6,13.1,23.7C13.1,23.6,13.1,23.7,13.1,23.7z"/>
	<path id="XMLID_263_" d="M14.5,20.8L14.5,20.8l-1.1,0.6l0.5,0.5L14.5,20.8z M13.6,21.4L13.6,21.4l0.4-0.3l-0.3,0.4L13.6,21.4z"/>
	<path id="XMLID_266_" d="M12.9,21.9L12.9,21.9l0.3-0.2l0.3,0.3l-0.1,0.3l0.3,0.3l0.1-0.1l0.1,0.5c0,0,0,0,0.4-0.1
		c0.3-0.1,0.5-0.4,0.6-0.6c0.1-0.2,0.2-0.4,0.3-0.5c0.1-0.1,0.5-0.2,0.5-0.2l-0.2-0.4c0,0-0.2,0-0.5,0.1c-0.3,0.1-0.4,0.3-0.5,0.4
		c-0.1,0.1-0.1,0.3-0.3,0.5c-0.1,0.1-0.3,0.2-0.4,0.2l1.1-1.8l-0.4-0.4l-1.6,1l0.2-0.4c0,0,0.2,0,0.4-0.1c0.1,0,0.2,0,0.4-0.3
		c0.2-0.3,0.2-0.6,0.1-0.7c-0.1-0.1-0.3-0.3-0.5-0.5c-0.1-0.1-0.1-0.1-0.1-0.1l-0.3,0.3l-1.3,1.3l0.4,0.3l0.4-0.4l0.1-0.1l-0.2,0.6
		l-0.1,0.2l0,0l0.3,0.3L12.9,21.9z M14.6,22.2L14.6,22.2L14.6,22.2c0.1-0.2,0.2-0.4,0.3-0.5c0.2-0.2,0.3-0.2,0.4-0.2c0,0,0,0,0,0
		l0,0.1c0,0,0,0,0,0c-0.1,0-0.3,0.1-0.4,0.2C14.8,21.8,14.7,22,14.6,22.2L14.6,22.2c-0.1,0.4-0.5,0.5-0.5,0.5l0-0.1
		C14.1,22.6,14.4,22.5,14.6,22.2z M14.4,20.6L14.4,20.6l0.1,0.1l-0.9,1.6l-0.1-0.1l0.2-0.3l-0.5-0.5l-0.3,0.2l-0.1-0.1L14.4,20.6z
		 M12.9,20.6L12.9,20.6l-0.2-0.2l0,0l-0.4,0.4l-0.1-0.1l0.6-0.6l0.6-0.6l0,0c0.1,0,0.2,0.1,0.3,0.3c0.1,0.1,0.2,0.4,0,0.6
		c-0.2,0.2-0.2,0.2-0.4,0.2C13.2,20.6,13.1,20.6,12.9,20.6l-0.2,0.7l0,0.1l-0.1-0.1L12.9,20.6z"/>
	<path id="XMLID_269_" d="M14.9,19.8L14.9,19.8c0-0.1,0.1-0.1,0-0.1c-0.1,0-0.1,0-0.1,0c0,0,0,0-0.1,0l0.2,0.2
		C14.8,19.9,14.8,19.8,14.9,19.8z"/>
	<path id="XMLID_270_" d="M15.1,20L15.1,20C15.1,19.9,15.1,20,15.1,20c0-0.1,0.1-0.1,0.1-0.2c0.1-0.1,0.1-0.1,0.1-0.1s-0.1,0-0.1,0
		c-0.1,0-0.1,0-0.1,0c0,0,0-0.1,0,0c0,0,0,0,0,0.1c0,0.1,0,0.1,0,0.2l0.1,0.1C15.1,20.1,15.1,20,15.1,20z"/>
	<path id="XMLID_273_" d="M11.1,19.4c0.1-0.1,1.4-1.4,1.4-1.4h0l-0.5-0.5c0,0-0.6,0.7-0.9,1c-0.3,0.3-0.3,0.3-0.4,0.3
		c-0.1,0-0.2,0-0.3-0.1c-0.1-0.1-0.2-0.2-0.2-0.2L9.7,19c0,0,0.1,0.3,0.2,0.4s0.2,0.2,0.5,0.2C10.8,19.6,11,19.5,11.1,19.4z
		 M10.1,18.9L10.1,18.9c0.4,0.2,0.6,0.2,0.8,0.1c0.1-0.1,0.3-0.3,0.5-0.5c0.2-0.3,0.5-0.5,0.6-0.6l0.1,0.1c-0.1,0.1-0.4,0.4-0.6,0.6
		c-0.2,0.2-0.4,0.4-0.5,0.5C10.8,19.2,10.4,19.3,10.1,18.9z"/>
	<path id="XMLID_276_" d="M13.3,19.1L13.3,19.1L13.3,19.1L13,18.8c0,0-1,0.9-1.1,1c-0.1,0.1-0.2,0-0.3,0s-0.1-0.1-0.1-0.1
		c0,0,1.1-1.1,1.1-1.1l-0.4-0.4l-1.2,1.2c-0.3,0.3-0.2,0.3-0.2,0.4c0,0.1,0.1,0.3,0.1,0.4c0.1,0.1,0.4,0.1,0.4,0.1l-0.1,0.2l0.4,0.3
		L13.3,19.1L13.3,19.1z M11.9,20.3L11.9,20.3L11.9,20.3l0-0.1c-0.1-0.1-0.4-0.2-0.4-0.2l0,0c0,0-0.1-0.1-0.1-0.1
		c0,0-0.1-0.1-0.1-0.1c0-0.2,0-0.2,0.1-0.3l0,0c0.1-0.1,0.8-0.8,1-1l0.1,0.1c-0.2,0.2-0.9,0.9-1,1l0,0c-0.1,0.1-0.1,0.1-0.1,0.2
		c0,0.1,0,0.1,0.1,0.1l0,0c0.1,0.1,0.3,0.2,0.4,0.2l1.1-1l0.1,0.1L11.9,20.3z"/>
	<path id="XMLID_277_" d="M14.1,24.4C14.1,24.4,14.1,24.4,14.1,24.4C14,24.4,14,24.4,14.1,24.4c-0.1,0-0.1,0-0.1,0
		C14,24.4,14,24.4,14.1,24.4C14.1,24.5,14.1,24.5,14.1,24.4C14.1,24.4,14.1,24.4,14.1,24.4z"/>
	<path id="XMLID_278_" d="M14.2,24.7L14.2,24.7C14.2,24.7,14.2,24.6,14.2,24.7C14.2,24.6,14.2,24.6,14.2,24.7
		C14.1,24.6,14.1,24.6,14.2,24.7C14.1,24.6,14.1,24.6,14.2,24.7c-0.1,0-0.1,0-0.1,0c0,0,0,0,0,0c0,0,0,0,0,0
		C14.1,24.7,14.1,24.7,14.2,24.7C14.2,24.7,14.2,24.7,14.2,24.7z"/>
	<polygon id="XMLID_279_" points="14.1,24.4 14.1,24.4 14.1,24.4 	"/>
	<path id="XMLID_280_" d="M14.3,25L14.3,25C14.3,25,14.3,25,14.3,25C14.3,25.1,14.3,25.1,14.3,25C14.3,25.1,14.4,25.1,14.3,25
		C14.3,25,14.3,25,14.3,25z"/>
	<path id="XMLID_281_" d="M14,24.6L14,24.6C14,24.6,14,24.6,14,24.6C14,24.6,14,24.6,14,24.6C14.1,24.7,14.1,24.7,14,24.6
		C14.1,24.7,14.1,24.7,14,24.6C14.1,24.7,14.1,24.6,14,24.6C14.1,24.6,14.1,24.6,14,24.6z"/>
	<path id="XMLID_282_" d="M14.2,24.7L14.2,24.7C14.2,24.8,14.2,24.8,14.2,24.7C14.1,24.8,14.1,24.8,14.2,24.7
		c-0.1,0.1-0.1,0.1,0,0.1c0,0,0,0,0,0C14.2,24.9,14.2,24.9,14.2,24.7C14.2,24.8,14.2,24.8,14.2,24.7C14.2,24.8,14.2,24.8,14.2,24.7
		C14.2,24.8,14.2,24.8,14.2,24.7C14.2,24.8,14.2,24.7,14.2,24.7z"/>
	<path id="XMLID_283_" d="M13.8,24.5L13.8,24.5C13.8,24.6,13.8,24.6,13.8,24.5C13.8,24.5,13.8,24.5,13.8,24.5c-0.1,0-0.1,0-0.1,0
		C13.7,24.6,13.7,24.6,13.8,24.5C13.8,24.6,13.8,24.6,13.8,24.5C13.8,24.6,13.9,24.6,13.8,24.5C13.9,24.5,13.9,24.5,13.8,24.5
		C13.9,24.5,13.9,24.5,13.8,24.5z"/>
	<path id="XMLID_284_" d="M13.8,24.5L13.8,24.5C13.8,24.5,13.8,24.4,13.8,24.5C13.8,24.4,13.8,24.4,13.8,24.5
		C13.8,24.4,13.8,24.4,13.8,24.5C13.7,24.4,13.8,24.4,13.8,24.5c0-0.1,0-0.1,0-0.1c0,0,0,0,0,0c0,0,0,0,0,0c0,0,0,0,0,0c0,0,0,0,0,0
		c0,0,0,0,0,0c0,0,0,0,0,0c0,0,0,0,0,0c0,0,0,0,0,0c0,0,0,0,0,0c0,0,0,0,0,0c0,0-0.1,0-0.1,0c0,0,0,0,0,0c0,0,0,0,0,0c0,0,0,0,0,0
		c0,0,0,0,0,0c0,0,0,0,0,0c0,0,0,0,0,0c0,0,0,0,0,0c0,0,0,0,0,0c0,0,0,0,0,0c0,0,0,0,0,0c0,0,0,0,0,0c0,0,0,0,0,0c0,0,0,0,0,0
		c0,0,0,0,0,0.1c0,0,0,0,0,0c0,0,0,0,0,0c0,0,0,0,0,0c0,0,0,0,0,0c0,0,0,0,0-0.1c0,0,0,0,0,0c0,0-0.1,0.1-0.1,0.1c0,0,0,0,0,0.1
		c0,0,0,0,0,0c0,0,0,0,0,0c0,0,0,0,0,0c0,0,0,0,0,0c0,0,0.1,0,0.1,0c0,0,0,0,0,0c0,0,0.1,0,0.1,0c0,0,0,0,0,0c0,0-0.1,0,0,0.1
		c0,0,0,0,0.1,0C13.7,24.4,13.7,24.4,13.8,24.5C13.7,24.4,13.7,24.4,13.8,24.5C13.7,24.4,13.7,24.4,13.8,24.5c-0.1,0-0.1,0-0.1,0
		C13.6,24.5,13.7,24.5,13.8,24.5C13.7,24.5,13.7,24.5,13.8,24.5C13.7,24.5,13.7,24.5,13.8,24.5C13.7,24.5,13.8,24.5,13.8,24.5z"/>
	<path id="XMLID_285_" d="M13.7,24L13.7,24C13.7,24,13.7,24,13.7,24C13.7,24,13.7,24,13.7,24c0.1-0.1,0.1-0.1,0-0.1
		C13.7,23.9,13.7,23.9,13.7,24C13.7,24,13.7,24,13.7,24C13.7,24,13.7,24,13.7,24C13.6,23.9,13.6,23.9,13.7,24
		C13.6,23.9,13.6,23.9,13.7,24C13.6,24,13.6,24,13.7,24z"/>
	<path id="XMLID_286_" d="M13.9,24.1L13.9,24.1C13.9,24.1,13.9,24.1,13.9,24.1C13.8,24.1,13.8,24.1,13.9,24.1
		C13.8,24.1,13.8,24.1,13.9,24.1C13.8,24.2,13.8,24.2,13.9,24.1c-0.1,0.1,0,0.1,0,0.1c0,0,0,0,0,0C13.9,24.2,13.9,24.2,13.9,24.1
		C13.9,24.2,13.9,24.1,13.9,24.1C13.9,24.1,13.9,24.1,13.9,24.1z"/>
	<path id="XMLID_287_" d="M14,24.5L14,24.5C14,24.5,14,24.5,14,24.5C13.9,24.5,13.9,24.5,14,24.5C13.9,24.6,13.9,24.6,14,24.5
		C14,24.6,14,24.6,14,24.5C14,24.6,14,24.6,14,24.5z"/>
	<path id="XMLID_288_" d="M13.3,24L13.3,24C13.3,24,13.3,23.9,13.3,24C13.3,23.9,13.3,23.9,13.3,24C13.3,24,13.3,24,13.3,24
		C13.3,24,13.3,24,13.3,24c-0.1,0-0.1,0-0.1,0c0,0,0,0,0,0c0,0,0,0,0,0c0,0,0,0,0,0c0,0,0,0,0,0c0,0,0,0,0,0c0,0,0,0,0.1,0
		C13.4,24,13.4,24,13.3,24C13.3,24,13.3,24,13.3,24z"/>
</g>
</svg>
