<?xml version="1.0" encoding="utf-8"?>
<!-- Generator: Adobe Illustrator 19.0.0, SVG Export Plug-In . SVG Version: 6.00 Build 0)  -->
<svg version="1.1" id="Layer_2" xmlns="http://www.w3.org/2000/svg" xmlns:xlink="http://www.w3.org/1999/xlink" x="0px" y="0px"
	 viewBox="-3 5 32 32" style="enable-background:new -3 5 32 32;" xml:space="preserve">
<path d="M21,7.1H5L-3,21l8,13.9h16L29,21L21,7.1z M-1.9,21L5.6,8.1h14.9L27.9,21l-1.5,2.6c-0.2,0.1-0.3,0.1-0.5,0.1
	c-0.1,0.1-0.3,0.1-0.5,0.1c0,0-0.1,0-0.1,0c0,0-0.1,0-0.1,0c0,0,0,0,0,0c-0.2,0.1-0.4,0.1-0.6,0.2c-0.6,0.1-1.1,0.3-1.7,0.4
	c-0.2,0-0.4,0.1-0.6,0.1c-0.5,0.1-0.9,0.2-1.4,0.2c-0.2,0-0.5,0-0.7,0c-0.2,0-0.4,0-0.6,0.1c-0.2,0.1-0.4,0-0.5,0
	c-0.2-0.1-0.4-0.2-0.5-0.2c0,0-0.1,0-0.1,0c-0.2-0.1-0.4-0.1-0.6-0.2c-0.2,0-0.3-0.1-0.5-0.1c-0.1,0-0.2,0-0.3-0.1
	c-0.4-0.1-0.8-0.3-1.1-0.5c-0.2-0.1-0.3-0.2-0.5-0.3c-0.2-0.1-0.4-0.2-0.6-0.3c-0.2-0.1-0.3-0.2-0.5-0.3c-0.1,0-0.2-0.1-0.3-0.1
	c-0.3-0.1-0.6-0.2-0.9-0.3c-0.1-0.1-0.2-0.1-0.4-0.1c-0.2,0-0.3-0.1-0.5-0.1c-0.1,0-0.2,0-0.2,0c-0.2,0-0.4,0-0.7,0
	c-0.2,0-0.5,0-0.7,0c-0.2,0.1-0.5,0-0.7,0c-0.2,0-0.3,0-0.5,0C9.2,22,9,22,8.9,22c-0.1-0.1-0.2-0.1-0.4-0.1c-0.1,0-0.2,0-0.3-0.1
	c-0.2-0.2-0.3-0.3-0.5-0.5c-0.1-0.1-0.1-0.2-0.2-0.3c-0.1-0.1-0.2-0.3-0.3-0.4c0-0.1-0.1-0.1-0.1-0.2c0-0.2,0-0.4,0-0.6
	c0-0.1-0.1-0.2-0.1-0.2C7,19.3,7,19,7,18.8c0-0.1,0-0.3,0.2-0.3c0.1,0,0.2-0.1,0.3-0.1c0.1-0.1,0.3-0.2,0.4-0.2
	C8,18.1,8.1,18,8.2,18c0.1,0,0.2-0.1,0.3-0.1c0.1,0,0.3-0.1,0.3-0.2c0,0,0.1,0,0.1,0c0.2,0,0.4,0,0.7,0c0.5,0,0.8-0.4,1.2-0.6
	c0.3-0.2,0.6-0.3,0.8-0.4c0.2-0.1,0.5-0.1,0.7-0.3c0.1-0.1,0.3-0.2,0.5-0.2c0.1,0,0.2-0.1,0.2-0.1c0.1-0.1,0.2-0.3,0.3-0.4
	c0,0,0,0,0.1-0.1c0-0.1,0.1-0.2,0.1-0.2c0-0.1,0-0.1,0-0.2c0-0.1,0-0.2-0.1-0.2c-0.1,0-0.2,0-0.4,0c-0.1,0-0.3,0-0.4,0l0,0l0.3-0.2
	c0.2-0.1,0.4-0.2,0.6-0.4c0.1-0.2,0.1-0.3,0.1-0.5c-0.1-0.1-0.1-0.3-0.2-0.4c0-0.1-0.1-0.2-0.1-0.3c0-0.1-0.1-0.2-0.1-0.3
	c-0.1-0.2-0.3-0.3-0.5-0.3c-0.2-0.1-0.4-0.1-0.7-0.1c-0.2,0-0.4,0-0.6,0c-0.2,0-0.3,0-0.5,0c-0.2,0-0.3,0-0.5-0.1
	c-0.2,0-0.4-0.1-0.5-0.1c-0.3,0-0.6-0.1-0.9,0c-0.2,0.1-0.5,0-0.8-0.1c-0.1,0-0.2-0.1-0.3-0.1c-0.2,0-0.3-0.1-0.5-0.1c0,0,0,0,0,0
	c-0.2-0.1-0.3,0-0.4,0.1c-0.1,0.1-0.2,0.1-0.4,0.2c-0.1,0.1-0.2,0.3-0.4,0.4l0,0.1c-0.1,0.2-0.2,0.2-0.3,0.2c0,0.1,0,0.1-0.1,0.1
	c-0.1,0-0.1,0-0.2,0c0,0.1-0.2,0.4-0.4,0.4c0,0.1,0,0.2-0.1,0.3c-0.3,0.1-0.4,0.4-0.6,0.6c0,0,0,0,0,0c-0.1,0.2-0.3,0.4-0.4,0.6
	C4.1,14.7,4,14.8,3.9,15c-0.2,0.2-0.2,0.5-0.3,0.8c0,0,0,0.1,0,0.1c-0.1,0.1-0.2,0.3-0.2,0.4c-0.1,0.4-0.1,0.9-0.1,1.3
	c0,0.2,0,0.5-0.1,0.7c0,0.3,0,0.5,0,0.8c0,0.1,0,0.2,0,0.4c0,0.1,0,0.3,0,0.4c0,0.2,0.1,0.4,0.1,0.6c0,0.3,0,0.5,0.1,0.8
	c0.1,0.3,0.1,0.5,0.2,0.8c0,0.2,0.1,0.3,0.1,0.5c0,0.1,0.1,0.2,0.1,0.2C3.9,23,3.9,23.2,4,23.4c0.1,0.3,0.2,0.7,0.4,1
	c0,0.1,0.1,0.3,0.1,0.4c0.1,0.2,0.2,0.4,0.3,0.6c0.2,0.4,0.4,0.8,0.4,1.2c0,0.2,0.1,0.4,0.2,0.6c0.1,0.2,0.2,0.4,0.3,0.6
	c0.1,0.2,0.3,0.4,0.4,0.6c0.1,0.1,0.2,0.2,0.3,0.3c0,0,0,0.1,0,0.1c-0.1,0.1-0.3,0.3-0.5,0.4c-0.1,0.1-0.2,0.2-0.2,0.4
	c0,0.3-0.1,0.6-0.2,0.9c-0.1,0.3-0.2,0.5-0.1,0.8c0,0,0,0,0,0.1c0,0.2,0,0.3,0.1,0.4c0.1,0.1,0.2,0.1,0.2,0.2c0,0.2,0.1,0.3,0.2,0.4
	c0.1,0.1,0.2,0.3,0.2,0.4C6.4,32.9,6.5,33,6.8,33c0.2,0,0.5,0,0.7,0c0.1,0,0.1,0,0.2,0c0.3-0.1,0.6-0.2,0.9-0.3l0,0.1
	c0.1,0.2,0.1,0.3,0.2,0.5c0.1,0.2,0.2,0.3,0.3,0.4c0,0.1,0.1,0.1,0.1,0.2c0,0,0,0,0,0c0,0,0,0,0,0H5.6L-1.9,21z M9.3,30.6
	c0.1-0.1,0.2-0.1,0.3-0.1c0.5,0.2,1,0.3,1.5,0.5c0,0,0.1,0.1,0.1,0.1c0,0.2-0.1,0.3-0.1,0.5c0,0.2-0.2,0.4-0.3,0.5
	c-0.1,0.1-0.3,0.2-0.4,0.3c-0.1,0-0.1,0.1-0.2,0.1c-0.1-0.2-0.3-0.3-0.4-0.5c-0.1-0.1-0.1-0.2-0.1-0.4c0-0.3-0.1-0.5-0.3-0.8
	C9.3,30.7,9.3,30.7,9.3,30.6z M10.9,33.9C10.9,33.9,10.9,33.9,10.9,33.9L10.9,33.9C10.8,33.9,10.8,33.9,10.9,33.9z M15.1,33.8
	L15.1,33.8c-0.1-0.2-0.2-0.4-0.4-0.6c-0.1-0.1-0.2-0.2-0.3-0.3c0.2-0.2,0.3-0.4,0.5-0.5c0.1,0,0.3,0,0.5,0c0.3,0,0.6-0.1,0.9-0.2
	c0.1,0,0.2,0,0.3,0.1c0.1,0.2,0.3,0.3,0.5,0.5c0.1,0.1,0.1,0.1,0.2,0.2c0.1,0.1,0.2,0.1,0.3,0.2c0,0,0,0,0,0
	c0.3,0.1,0.7,0.5,0.8,0.8L15.1,33.8C15.1,33.9,15.1,33.8,15.1,33.8C15.1,33.8,15.1,33.8,15.1,33.8z M20.6,32.1
	c-0.2-0.3-0.3-0.6-0.2-0.9c0-0.2,0-0.4,0-0.7c0-0.3,0.1-0.5,0.1-0.8c0-0.1,0.1-0.2,0.1-0.2c0.2-0.2,0.5-0.3,0.7-0.4
	c0.2-0.1,0.4-0.1,0.5-0.2c0.2-0.1,0.4-0.1,0.6-0.2c0.1,0,0.2-0.1,0.3-0.1c0.2-0.1,0.4-0.1,0.6-0.1c0.1,0,0.1,0,0.1,0l-2.4,4.2
	C20.9,32.5,20.7,32.2,20.6,32.1z M7.5,29.9L7.5,29.9c0,0.2-0.1,0.4-0.2,0.5c-0.1,0.1-0.1,0.1-0.2,0c0,0-0.1,0-0.1-0.1
	c0-0.3,0-0.5,0-0.8l0.5-0.2c0.2,0.1,0.4,0.2,0.5,0.3c0.1,0.1,0.1,0.1,0,0.2C8.1,29.9,8,30,8,30.1c-0.1,0.2,0,0.3,0.1,0.5
	c0,0.1,0.1,0.3,0.1,0.4c-0.1-0.1-0.2,0-0.3,0c-0.2,0.2-0.4,0.4-0.7,0.6c0,0-0.1-0.1-0.1-0.1c0.1-0.2,0.2-0.3,0.2-0.4
	c0.1-0.3,0.4-0.5,0.3-0.9C7.6,30.2,7.6,30,7.5,29.9z"/>
</svg>
