<?xml version="1.0" encoding="utf-8"?>
<!-- Generated by IcoMoon.io -->
<!DOCTYPE svg PUBLIC "-//W3C//DTD SVG 1.1//EN" "http://www.w3.org/Graphics/SVG/1.1/DTD/svg11.dtd">
<svg version="1.1" xmlns="http://www.w3.org/2000/svg" xmlns:xlink="http://www.w3.org/1999/xlink" width="1024" height="1024" viewBox="0 0 1024 1024">
<g id="icomoon-ignore">
</g>
<path d="M256 487.2c1.2 0.2 2.4 0.4 3.6 0.4-1.2 1-2.4 2-3.6 2.6v65.2h151v25.2c0.4 0.4 0.6 1 1 1.4-0.4 0.2-0.6 0.4-1 0.6v52.8c0.2 0.2 0.6 0.4 0.8 0.6-0.2 0.6-0.6 1-0.8 1.6v65.2c1.2 0.4 2.4 0.8 3.6 1.2-0.4 1.4-0.6 3-1 4.4-0.8-0.2-1.6-0.4-2.6-0.4v150c0.6-0.6 1.6-1.2 2.2-1.4 1-0.2 2.6 1.6 5 3.2-2.8 2-4.6 3.2-6.6 4.4-0.2-0.4-0.6-0.8-0.8-1.2v140.4c1.4 1 2.8 2 4.2 3.2-1.4 1.6-2.8 3.4-4.2 5v12.4h108c-0.8-0.6-1.4-1.2-2.2-1.6 0.2-1.6 0.4-3.4 0.8-5 4.8-0.8 9.8-3 14-2 2.8 0.8 4.8 5.4 7 8.6h54.4v-237.6c-2.2 2-6.4 1.6-15.8 0.6 1-12.6 8-12 15.8-10.6v-218.4h151l11.2-88.6c-13 0.8-19.4 9.6-23.2 22.2-0.8 2.4-2.4 4.6-5.4 9.8-6.6-5.6-11.2-9.6-17.6-15 10.2-5.8 17.8-10 26.8-15.2-3.6-6.4-6.2-11.2-9-16.2-8.2-0.6-18 5.8-23.2-5.6 11-18.2 25.6 3.2 37-4.6 5 11.6 6.4 14.4 15.8 16.8l10.8-85.4h-1.2c-0.8 0.4-1.8 0.8-2.6 1.2-0.2-0.4-0.2-0.8-0.4-1.2h-39c0.6 0.8 1.2 1.4 1.6 2.2-3.2 1.6-6.2 3.2-9.4 5-0.6-1.2-1.4-2.2-2-3.4 1.8-1.2 3.8-2.4 5.6-3.8h-126.8v-77.8c-7.8 2.8-9.8-4-12-10-4.8-13.2-4-15.2 12-30.8 0.2-12.6 1.2-24.2 3.8-34.6-1.8 1.8-3.8 3.6-5.6 5.4-1.2-1.2-2.4-2.4-3.6-3.6 2.4-2.4 4.6-4.8 7.2-7 0.2-0.2 1.6 1.2 2.8 2.4 8.6-30.2 31-48.8 82.4-48.8h92.2v-163.8c-7.4-1.2-24-3-46.2-4.6-1 0-2 0-3.4-0.2-24-1.6-54.2-2.8-86.2-2.8-133.2 0-225.2 84.4-225.2 240.6v133.2h-151v113.4zM705.8 410c1.6-0.2 3.6 0.6 8.2 1.8-6.8 3-8.6 4.6-9.8 4.2-1.2-0.2-2-2.4-2.8-3.8 1.4-0.6 2.8-2 4.4-2.2zM685 511.8c2.2-0.4 5 2.2 9.4 4.4-3.8 3-6 6.2-8.2 6.4-2.2 0-4.4-3-6.8-4.8 1.8-2 3.4-5.6 5.6-6zM676.6 388.6c1 0.2 1.8 0.2 2.8 0.4-0.4 3.2-0.8 6.6-1.2 9.8-1.2 0-2.4 0-3.8-0.2 0.6-3.2 1.4-6.6 2.2-10zM640.4 549.4c0.8-0.2 2 1 3 1.6-0.4 1.2-1 2.2-1.4 3.4-1.4-0.8-2.8-1.6-4-2.4 0.6-1 1.4-2.4 2.4-2.6zM728.4 101c-0.4-0.8-1.4-2-1-2.4 0.6-0.8 1.8-1.2 2.8-1.8 0.4 0.8 0.8 1.8 1.2 2.6-1.2 0.6-2.2 1.2-3 1.6zM756.6 120.6c1-1.4 4-1.4 6-2 0.6 0.8 1.2 1.6 1.6 2.4-2.4 2.6-4.8 5.2-7.2 7.8-0.8-0.4-1.8-0.8-2.6-1.4 0.8-2.2 0.8-5 2.2-6.8zM741.6 54.4c2 2.8 6.6 9 12.2 16.8-8 3-14 5.2-21 7.8-3-5.4-5.4-9.8-8.8-16 5.8-2.8 11.2-5.4 17.6-8.6zM619.8 131c2.2-4 6.2-0.4 5.2 5.2-0.4 1.8-1.4 3.4-2 5-1.4-0.2-2.6-0.4-4-0.4 0.2-3.4-0.6-7.2 0.8-9.8zM418.2 666c-1.4-3.6-4-7.2-3.2-8.8 4.8-9 13.4-5.6 21-3-5.4 3.6-10.8 7.2-17.8 11.8zM440.8 315.8c-1.6-1.2-3-2.6-4.6-3.8-0.6-10 5.8-12.6 17.4-9.8-4.4 4.4-8.6 9-12.8 13.6zM456 456.8c0.4 0 1 2 1.6 3.4-1.6 0.8-3.2 1.8-4.8 1.8-0.6 0-1.2-2.6-1.8-4 1.6-0.4 3.4-1 5-1.2zM443.4 607c11.6-3.4 21.4-7.8 28.6-19.2 6.2-9.8 17-16.8 26.2-25.2 4.8 4.2 10.8 9.2 17.8 15.2-11 13.8-27.4 20.6-44.6 25.4-6.8 2-11.6 5-14.6 12-4.6 10.6-14 15-25.2 15.8-2.8-17.6-1.8-20 11.8-24zM463 555c0-1.6 0-3.2 0.2-4.8 2.8 0.2 5.4 0.4 8.2 0.6-0.2 1.6-0.2 3.2-0.4 4.8-2.6-0.2-5.2-0.4-8-0.6zM519.2 427.8c1.6-12 7.6-17 19-17.4 2.4 6.2 4.6 12 7 18.6-9.6 10.4-17.2 1.2-26-1.2zM550.2 474c0 2 0.2 4 0.2 5.8-5.2 0.6-10.6 1.2-15.8 1.6-0.2-1.4-0.4-2.6-0.6-4 5.2-1 10.6-2.2 16.2-3.4zM536.6 487c-1.2 8.8-2 14.2-2.8 19.4 0.2 0 0.2 0.2 0.4 0.2 0 0.2 0 0.2 0 0.4 6-1.8 11.8-3.8 18-5.6 2.2 16.8 2.2 16.8-18 16.8 0-3.8 0-7.4 0-11.2-0.2 0-0.4 0.2-0.6 0.2 0 0 0 0 0 0 0-0.2 0-0.4 0.2-0.6-6.2-2.8-12.4-5.8-22-10.4 9.2-3.6 15.2-5.6 24.8-9.2zM564.6 491c0.4 0.6-2.6 4-3.2 3.8-2.8-1-5.2-2.6-7.6-4 1.2-2 2.2-3.8 4.4-7.4 3 3.4 5.2 5.2 6.4 7.6zM563 455.8c1.6-0.2 3.2 0.4 6.6 0.8-2.6 2.2-3.6 3.6-5 4.2-0.6 0.2-2.6-1-2.8-1.8-0.4-1 0.4-3 1.2-3.2zM555.4 582.8c-3 7-4.4 10.4-7 16.6-6-9.6-3-12.6 7-16.6zM536.6 663.8c-3-9.4-4.6-14.6-6.2-19.6 1.4-1.4 2.8-2.6 4-4 3.4 3 8.4 5.6 9.6 9.2 1 2.6-3.2 7-7.4 14.4zM493 465c6-14.4 8-15.4 24.8-13.4-5.2 11.2-14.2 12-24.8 13.4zM517.2 405c-8.8-1.4-17.2-2.6-28.4-4.2 3.4-8.8 6.2-15.6 10-24.8 7.4 10.8 25 10.6 18.4 29zM491.4 426.2c1.2 0.8 2.2 4.2 1.4 5.2-4.4 6.6-9.4 5.2-15 0.6 3.2-6.2 6.6-10.6 13.6-5.8zM457.4 643.8c-0.8-1.2-1.8-2.2-2.6-3.4 3.2-3.2 6.4-6.4 9.4-9.6 1.6 1.8 3 3.4 4.6 5.2-3.8 2.8-7.6 5.4-11.4 7.8zM464.8 833c-0.4 1.4-1.8 2.6-3.4 4.8-1.2-2.6-2.6-4.2-2.6-5.6 0-0.8 2.4-1.8 4-2 0.6 0 2.2 2 2 2.8zM436.8 743.6c4.6-1.4 9.2-2.8 14-4.4 0.4 1.4 0.8 2.8 1.2 4.2-4.4 1.2-9 2.6-13.4 3.8-0.6-1.2-1.2-2.4-1.8-3.6zM449.8 1020.6c-1.6-3.2-3.6-5.4-3.2-6.2 1-2 3.2-3.6 5.2-4.4 0.8-0.4 3.8 2.6 3.6 3.2-0.8 1.8-2.4 3.6-5.6 7.4zM448.4 963.6c7.4-4.6 11.8-7.4 18.2-11.6-3.8 11.8-3.8 11.8-18.2 11.6zM482 691.8c-5.2-5.8-9.2-10.4-16-18.2 10.2 0.8 17.2 1.4 27 2-4.4 6.4-7 10.2-11 16.2zM506.2 628.8c-5.6 6-8 8.4-10.8 11.4-2.4-8.8-2.4-8.8 10.8-11.4zM509.4 711.2c-0.2 0.8-0.6 1.6-0.8 2.4-2.6-0.8-5.4-1.6-8-2.4 0.4-1 0.8-2.2 1-3.2 2.6 1 5.2 2.2 7.8 3.2zM502.6 910.8c-0.8-1.8-1.6-3.4-2.4-5.2 4.4-1.8 8.8-3.8 16.4-7-3.4 11-7.6 13.4-14 12.2zM517.2 886.4c-2.8 0.4-6-0.4-10.6-0.8 4.8-8.6 11-5.6 17-2.6-2.2 1.2-4.2 3-6.4 3.4zM526.4 993.4c6.8-8.4 6.8-11 7.6-27.6 0.2-5.6 4.4-12.2 8.6-16.2 2.2-2 8.8 0.8 12.6 1.2-1 21.8-6.8 37.4-28.8 42.6zM532.6 868.2c1.4-2.4 2.6-4.6 4-7 1 0.6 3 1.8 3 1.8-1.2 2.4-2.6 4.8-4 7-1.2-0.6-2-1.2-3-1.8zM556.8 723.4c-13.8 7-28.4 12.2-44 18.8-1.8-10.4 4-13.4 10.4-15.8 11.4-4.2 19.6-10 17.4-24.6-0.8-5.8 2.8-12.2 7.4-18 0.4 2.2 1 4.2 1.4 6.4 0.4 1.8 0.8 3.6 1.4 7 8.4-1.2 16.6-2.4 26.8-3.8-3.6 13.6-9.4 24.4-20.8 30zM583 590c0.4 25.2-8 29.8-32.6 16.6 10.2-7.6 18.8-16.4 32.6-16.6zM594.8 42.2c-1 1.8-3.4 3.2-5.4 4.2-0.6 0.2-3-1.6-3-2 0.8-2 2.2-4 5.2-9.2 1.8 3.8 3.6 6 3.2 7zM582.8 23.2c2.4 1.6 4.2 4.2 7.2 7.4-10-0.6-10-0.6-16.8-9.6 4.6 1 7.4 1 9.6 2.2zM566.2 134.2c6.4 8 6 14.2 1.8 20.8-11.2-7.6-11.2-7.6-1.8-20.8zM523.6 154.2c0.6 2.8 1.4 4.4 1.2 5.8-0.2 0.8-2.4 2.4-2.8 2.2-1.4-0.8-3.2-2.6-3-3.4 0.6-1.4 2.4-2.4 4.6-4.6zM524.6 259.6c5.8-1.8 13.6-8.2 18-0.6 3.2 5.4 2 13.6 2 20.4 0 2.2-2.4 4.4-7.2 6.4-0.4-6.2-0.8-12.2-1.4-18.6-10-8.2-18-1-26.4 4.8-0.8-1.4-1.4-2.8-2.2-4.2 5.8-2.8 11.2-6.4 17.2-8.2zM515.4 331.4c5.4-2.2 11.2-4.2 16.4-6 10 6.8 19.2 13 30.2 20.6-25 8-29.4 8-66.8 2.2-8.8 9-16.8 19.8-34.8 23.8 9.6-12.4 16.6-21.4 24-30.8-7.8-11-15.2-21-23.6-33 5.8-2.6 10.6-6.8 13.2-5.6 7 3.2 13 8.4 19 13.6 1.8 1.4 1.6 5 2.8 7.4 4.2 8 10.4 11.6 19.6 7.8zM492.8 261.6c-11.4-1.8-20.6-3.2-29.8-5-3.4-0.6-8.6-1.4-9.6-3.6-1.2-2.6 0.2-7.6 2.2-10.4 2-3 5.8-4.6 9.6-7.4 3.6 5 6.6 9 10 13.6 5.4 0 11.2 0 19.4 0-0.8 5.2-1.4 9.4-1.8 12.8zM476.4 178.8c-5.4 9-10.2 17.2-16.6 28-4-4.4-7.2-8.2-11.4-13 9.4-6.4 13.4-19 28-15zM439.2 141.6c4.6 9.6 8.8 18.2 13 26.8-1.2 1.4-2.6 2.6-3.8 4-6.8-6.8-13.6-13.8-21.6-22 4.6-3.4 8-5.8 12.4-8.8zM433.4 178.8c0 7.8 0 12.6 0 17.6-8-5.2-8.8-10.2 0-17.6zM429.8 235.8c-1.4 9.2-5.4 11.4-14 8.4 1.4-9 5.6-11.2 14-8.4zM427.2 410c-1.4 1.2-2.8 2.8-4.2 3.2-0.8 0.2-2.2-2-3.2-3 1.6-1 3-2.2 4.6-2.8 0.4-0.2 1.4 1.4 2.8 2.6zM432.8 556.6c10 14.4 2.6 25-3.8 36.4-1.6-10.2 3.2-23-17.8-24.8 10-5.4 15.6-8.4 21.6-11.6zM403.4 387.6c3.2 6.2 1.4 10-5.2 11-1.4 0.2-4.2-1.8-4.2-3-1-7 3.4-8.2 9.4-8zM373.2 375.8c1 1.2 2.6 2.2 2.4 2.6-0.8 1.6-2 3-3 4.4-1-1.2-2.2-2.2-3.2-3.4 1.2-1.2 2.6-2.4 3.8-3.6zM344.4 456.6c4 13.8-4.6 15-11.2 17.6-1.6-1.6-3-3.4-4.6-5 4.8-3.8 9.6-7.6 15.8-12.6zM313.8 526.6c3 7.4 3.6 9 4.2 10.6-1.6 0.6-3.2 1.6-4.8 1.6-0.6 0-1.8-2-1.8-3 0.2-1.8 1-3.6 2.4-9.2zM588.8 295.6v-17.6c-0.2 0.4-0.4 0.6-0.6 1-2.2 4-0.2 10.2 0.6 16.6z"></path>
</svg>
