<?xml version="1.0" encoding="utf-8"?>
<!-- Generator: Adobe Illustrator 19.0.0, SVG Export Plug-In . SVG Version: 6.00 Build 0)  -->
<svg version="1.1" id="Layer_1" xmlns="http://www.w3.org/2000/svg" xmlns:xlink="http://www.w3.org/1999/xlink" x="0px" y="0px"
	 viewBox="0 0 40 40" style="enable-background:new 0 0 40 40;" xml:space="preserve">
<style type="text/css">
	.st0{fill:#010101;}
</style>
<path class="st0" d="M39.9,22.3l0.1,0L38.1,17c0-0.1,0-0.1-0.1-0.2l-4.2-6c0,0,0,0,0,0c0-0.1,0-0.1-0.1-0.2l-7-4.5
	c0-0.1-0.1,0-0.2,0c-0.1,0-0.1,0-0.1,0.1L20,4.9h-0.1l-7,1.3l-7,4.3c0,0,0,0,0-0.1c-0.1,0-0.2,0-0.3,0.1l-4.2,6.2l0.1,0.1
	c0,0-0.1,0.1-0.1,0.1L0,23.1v6.5c0,0.1,0,0.2,2,2c0,0.1,0.1,0.1,0.1,0.1L8,33.6c0.1,0,0.1,0.1,0.2,0.1l9.6,1.4c0,0,0.1,0,0.1,0
	l10.5-0.9l7.6-1.6c0,0,0.1,0,0.1-0.1c0-0.1,0-0.1,0-0.2l3.1-1.6c0,0,0.1,0,0.1,0c0.1,0,0.2-0.1,0.2-0.2l0.4-8.1
	C39.9,22.4,39.9,22.4,39.9,22.3z M39.6,22.3l-0.8,0.8l-0.5-4.5L39.6,22.3z M13.1,25.8l9.7,0.2l-4.9,8.4L13.1,25.8z M4.7,24.4
	l7.7,1.3l-4.1,7.2L4.7,24.4z M5.9,11L10,9.8L4.6,15L5.9,11z M26.9,8.8l-6.2-2.6l5.8,0.3L26.9,8.8z M38.1,22.9l-3.6-6.6l3,0.8
	L38.1,22.9z M12.4,25.3L4.7,24l5.4-7.2L12.4,25.3z M12.8,25.1l-2.3-8.5l7.3,1.9L12.8,25.1z M10.9,16.3l7.5-4.9l-0.5,6.7L10.9,16.3z
	 M27,9.4L26.4,16l-7.2-5L27,9.4z M18.9,10.6l0.6-4.3l7,2.8L18.9,10.6z M18.7,11.2l7.3,5.1l-7.7,1.7L18.7,11.2z M27.4,9.7l6.4,6.1
	l-7.1,0.4L27.4,9.7z M18.3,10.6l-6.6-1.4l7.2-2.8L18.3,10.6z M17.8,11l-7.4,4.8l0.7-6.3L17.8,11z M10.7,9.9l-0.6,6.2l-5.6-0.4
	L10.7,9.9z M9.8,16.5l-5.3,7l-0.2-7.4L9.8,16.5z M13.1,25.4l5-6.6l4.7,6.8L13.1,25.4z M18.5,18.5l7.7-1.8l-3,8.6L18.5,18.5z
	 M26.6,16.9l5.7,7.6l-8.8,1L26.6,16.9z M26.9,16.6l7-0.4l-1.3,7.9L26.9,16.6z M34.4,16.7l3.8,6.9L33,24.4L34.4,16.7z M38.1,24
	l-2.3,7.5l-2.7-6.7L38.1,24z M37.3,16.5l-2.9-0.7l-0.5-4.1L37.3,16.5z M33.9,15.4l-6-5.9l5.5,1.5L33.9,15.4z M32.3,10.4l-4.9-1.3
	l0,0l-0.5-2.2L32.3,10.4z M20.1,5.4L23.4,6l-3.6-0.2L20.1,5.4z M19.5,5.4l-0.2,0.3c-0.1,0-0.1,0-0.2,0c0,0.1,0,0.1-0.1,0.1l-2.3,0.1
	L19.5,5.4z M13.2,6.6L18,6.3l-6.4,2.5L13.2,6.6z M12.2,7.1L10.7,9l-3.3,1L12.2,7.1z M3.8,15.6l-1.6,0.7L5,12.3L3.8,15.6z M1.9,17.1
	l1.7-0.7l-2.7,5.1L1.9,17.1z M3.8,16.6L4,23.8l-3.5-0.9L3.8,16.6z M0.4,29.6v-4.3l1.1,5.5C1,30.3,0.5,29.8,0.4,29.6z M2,30.6
	l-1.5-7.2L4,24.3L2,30.6z M2.2,31.4l2.1-6.5l3.5,8.3L2.2,31.4z M8.6,33.3l4.1-7.3l4.8,8.6L8.6,33.3z M18.3,34.6l4.9-8.4l4.7,7.5
	L18.3,34.6z M28.3,33.5L23.6,26l8.9-1L28.3,33.5z M28.6,33.6l4.1-8.4l2.8,6.9L28.6,33.6z M38.4,24.9l0.7,5.4l-2.8,1.4L38.4,24.9z
	 M39.2,28.1l-0.5-4.2l0-0.1l0.7-0.7L39.2,28.1z"/>
</svg>
