<?xml version="1.0" encoding="utf-8"?>
<!-- Generator: Adobe Illustrator 19.0.0, SVG Export Plug-In . SVG Version: 6.00 Build 0)  -->
<svg version="1.1" id="Layer_2" xmlns="http://www.w3.org/2000/svg" xmlns:xlink="http://www.w3.org/1999/xlink" x="0px" y="0px"
	 viewBox="-3 5 32 32" style="enable-background:new -3 5 32 32;" xml:space="preserve">
<path d="M21,7.1H5L-3,21l8,13.9h16L29,21L21,7.1z M20.4,33.8H5.6L-1,22.4c1,0.2,2.2,0.4,3.3,0.4c1.5,0.1,4-0.3,4.6-0.4
	c0.6-0.1,0.6,0.2,0.9,0.5c0.2,0.2,0.7,0.4,0.7,0.4s0,0.1,0,0.3c0,0.2-0.6,0.5-0.7,0.8S7.1,25.9,7,26.1c-0.2,0.3,0,1.1,0.2,1.3
	c0.3,0.4,0.9,0.3,0.9,0.3h0.6c0.1,0,0.1-0.2-0.1-0.3C8.4,27.4,8,26.7,8,26.7v-0.5c0-0.2,0.5-0.4,0.6-0.7S9,25.2,9.3,25
	c0.4-0.1,0.8-0.8,0.8-0.8s0.1,0.1,0.3,0.1s0.6,0.1,0.7,0.1c0.1,0.1,0.3,0.9,0.6,1.2c0.3,0.4,0.3,0.6,0.3,0.9s0.4,0.9,0.6,1
	c0.2,0.1,1.3,0,1.3,0s0.7,0.1,0.7-0.1s-1-0.7-1.3-1s-0.2-0.6-0.1-0.9c0.1-0.3-0.1-1-0.1-1s0.2-0.1,0.5-0.1s0.8,0,1,0.2
	c0.3,0.2,0.8,0.2,0.8,0.2l-0.3,0.3c-0.1,0.2,0.2,0.5,0.4,1.1c0.2,0.6,0.5,0.9,0.5,1.2c0,0.3,0.4,0.4,0.8,0.4s0.9-0.1,0.9-0.1
	s0.3,0.1,0.4,0c0-0.1-0.7-0.6-0.9-0.7c-0.2-0.2-0.3-0.3-0.3-0.5c0-0.1-0.1-1-0.2-1.4s0.8-0.7,0.8-0.7s0.1,0.4,0.4,0.8
	s0.6,0.3,1.1,0.5c0.5,0.3,0.6,0.6,0.6,1.1s0.4,0.6,0.8,0.8c0.3,0.1,0.8,0,0.8,0s0.4,0.2,0.4,0s-0.4-0.5-0.6-0.9s0-0.7,0-0.7
	c0-0.4-0.4-0.8-0.7-0.9c-0.3,0-0.3-0.8-0.5-0.8c-0.3,0-0.3-0.5-0.3-0.5s1.6-0.2,1.8-0.3c0.2-0.2,0.6-0.1,0.9-0.1
	c0.2,0,0.7-0.3,1-0.3s0.6-0.2,0.8-0.2c0.2,0,0.8,0,0.9-0.4c0-0.4-0.8-0.6-1.4-0.7c-0.6-0.1-1.2-0.1-1.2-0.1s0-0.1,0-0.3
	c0-0.2-0.1-0.4-0.3-0.2c-0.2,0.2,0,0.6,0,0.6L21.3,22c0,0,0-0.2,0.1-0.4c0.1-0.2,0.1-0.8,0-0.8S21.2,21,21.2,21l-0.6-0.6
	c0,0,0-0.3-0.4,0.2S20,21.4,20,21.4l-0.5-0.2v-0.4c0-0.1,0.3-0.3,0.5-0.4s0.1-0.9,0.1-0.9l-0.4,0.1c0,0,0-0.6-0.2-0.6
	c-0.2,0-0.9,0.7-1.1,0.8c-0.2,0.2,0,0.6,0,0.6L18,19.9c0,0,0.5-0.3,0.7-0.5c0.2-0.1,0.5-1.5,0.3-1.8c-0.2-0.2-0.6,0-0.8,0
	c-0.2,0-0.4-1.2-0.6-1.2s-1,1.2-1,1.2l-0.4-0.5c0,0,0.2-0.2,0.2-0.5c0-0.3-0.5-2.1-0.7-2.1s-0.7,0.8-0.8,1s-0.8-1.4-1.1-1.4
	c-0.2,0-1,1.3-1,1.3s-0.3-0.6-0.7-1c-0.3-0.5-1-1-1.2-1c-0.2,0-0.5,0.9-0.6,1.1c-0.1,0.2-1.3-0.9-1.5-0.8c-0.2,0.4-0.4,1.8-0.5,1.8
	c-0.2,0-1.8-0.8-2-0.5c-0.2,0.2-0.2,1.4-0.2,1.4s-1.5-0.5-1.5-0.2c0,0.3,0.4,1.4,0.4,1.4H3.7l-0.1,1.3c0,0-0.5-0.2-0.8,0
	c-0.3,0.3-0.5,1.4-0.5,1.4l-0.7-0.1v0.8l0.2,0.3l-0.7,0.2v-0.9c0-0.4-0.5-1.3-0.5-1.3s0,0.4,0.2,0.9c0.1,0.5-0.2,1.4-0.2,1.4L0,20.9
	v-0.5c0-0.3-0.3-0.7-0.5-1c0,0.1,0.1,0.2,0.1,0.3c0.2,0.5,0.1,0.8,0.1,0.8l-0.8-1l0.7,1.4v0.9h-0.3c0,0-0.5-0.2-1-0.4l-0.3-0.6
	L5.6,8.1h14.8L27.8,21L20.4,33.8z"/>
</svg>
