<?xml version="1.0" encoding="utf-8"?>
<!-- Generator: Adobe Illustrator 19.0.0, SVG Export Plug-In . SVG Version: 6.00 Build 0)  -->
<svg version="1.1" id="Layer_1" xmlns="http://www.w3.org/2000/svg" xmlns:xlink="http://www.w3.org/1999/xlink" x="0px" y="0px"
	 viewBox="0 0 40 40" style="enable-background:new 0 0 40 40;" xml:space="preserve">
<style type="text/css">
	.st0{fill:none;}
	.st1{fill:#010101;}
</style>
<g id="XMLID_2_">
	<path id="XMLID_3_" class="st0" d="M25.4,21v-0.3c0-0.9-0.6-2.2-0.9-2.8c-0.3-0.3-0.6-0.9-0.9-1.2c-0.3-0.3-0.6-0.6-0.9-0.9
		c-0.6-0.6-1.2-0.9-1.9-0.9c-0.6-0.3-0.9-0.3-1.2-0.3c-0.3,0-0.3,0-0.3,0l0,0l0,0h-0.3c-0.3,0-0.9,0-1.2,0.3
		c-0.6,0.3-1.2,0.6-1.9,0.9c-0.3,0.3-0.6,0.6-0.9,0.9c-0.3,0.3-0.6,0.6-0.9,1.2c-0.3,0.3-0.3,0.9-0.6,1.2C13,19.7,13,20,13,20.7V21
		c0,0,0,0,0,0.3l0,0l0,0l0,0l0,0l0,0c0,0,0,0,0,0.3c0,0,0,0,0,0.3v0.3c0,0.6,0.3,1.2,0.3,1.9c0.3,0.6,0.6,1.2,0.9,1.6
		c0.3,0.3,0.3,0.6,0.6,0.6c0.3,0.3,0.6,0.3,0.6,0.6c0.3,0.3,0.6,0.3,0.9,0.6c0.3,0,0.6,0.3,0.9,0.3c0.3,0,0.6,0,0.9,0.3
		c0.3,0,0.6,0,0.9,0c0,0,0.3,0,0.6,0c0.3,0,0.3,0,0.6,0c0.3,0,0.6,0,0.9-0.3c0.6-0.3,1.2-0.6,1.6-0.9c0.9-0.6,1.9-1.9,2.2-2.8
		c0,0,0-0.3,0.3-0.3v-0.3c0-0.3,0-0.6,0.3-0.9v-0.3c0,0,0,0,0-0.3c0,0,0,0,0-0.3l0,0L25.4,21C25.4,21.3,25.4,21,25.4,21z"/>
	<path id="XMLID_4_" class="st0" d="M1.9,34.9C1.9,34.9,2.2,34.9,1.9,34.9C2.2,34.9,1.9,34.9,1.9,34.9L1.9,34.9z"/>
	<path id="XMLID_17_" class="st0" d="M37.8,30.9v-0.3v-3.1v-3.1c0-0.9,0-2.2,0-3.1v-3.1V12v-0.3v-0.3l0,0l0,0l0,0l0,0l0,0l0,0
		c0-0.3-0.3-0.3-0.3-0.6s-0.3-0.3-0.3-0.3c-0.3,0-0.3-0.3-0.6-0.3l0,0l0,0l0,0l0,0l0,0l0,0h-0.3H36H35h-3.1c-0.9,0-2.2,0-3.1,0h-6.2
		h-3.1h-3.1c-0.6,0-0.9,0-1.6,0h-0.3h-0.3H14c-0.3,0-0.3-0.3-0.3-0.3s-0.3-0.3-0.3-0.6l0,0l0,0l0,0l0,0l0,0V8.9V8.3V7
		c-1.2,0-2.5,0-3.7,0H7.8H5.9v1.2v1.2v0.3v0.3v0.3l-0.3,0.3H5.3H5H4.3c-0.6,0-1.2,0.3-1.9,0.6c-0.6,0.3-0.9,1.2-0.9,1.9v0.3v0.3v0.6
		v0.9v2.2c0,1.2,0,2.8,0,4v4v2.2V30c0,0.6,0,1.2,0,2.2v0.9v0.3l0,0l0,0l0,0l0,0c0,0,0,0,0,0.3l0,0l0,0c0,0.6,0.6,0.9,0.9,1.2
		c0.3,0,0.6,0.3,0.6,0.3h0.3c0,0,0,0,0.3,0l0,0l0,0l0,0H4c1.2,0,2.8,0,4,0h4h4c1.2,0,2.8,0,4,0c1.2,0,2.8,0,4,0h2.2h2.2
		c1.2,0,2.8,0,4,0h2.2h0.9l0,0l0,0l0,0l0,0l0,0l0,0l0,0c0,0,0,0,0.3,0h0.3c0.6-0.3,1.2-0.6,1.2-1.2c0-0.3,0.3-0.6,0.3-0.9
		c0,0,0,0,0-0.3C37.8,31.2,37.8,31.2,37.8,30.9L37.8,30.9L37.8,30.9z M27.9,21.3L27.9,21.3c0,0.3,0,0.3,0,0.3c0,0.3,0,0.3,0,0.6
		c0,0.3,0,0.3,0,0.6v0.3v0.3c0,0.3,0,0.3,0,0.6c0,0.3,0,0.3-0.3,0.6c-0.3,0.6-0.6,1.2-0.9,1.9c-0.3,0.6-0.9,0.9-1.2,1.2
		c-0.3,0.3-0.9,0.6-1.2,0.9c-0.3,0.3-0.9,0.3-1.2,0.6h-0.3h-0.3H22h-0.3c-0.6,0.3-1.2,0.3-1.6,0.3c-0.3,0-0.3,0-0.3,0l0,0l0,0l0,0
		h-0.3c-0.3,0-0.9,0-1.6-0.3h-0.3h-0.3h-0.3h-0.3c-0.3,0-0.9-0.3-1.2-0.6c-0.3-0.3-0.9-0.6-1.2-0.9c-0.3-0.3-0.9-0.9-1.2-1.2
		c-0.3-0.6-0.6-1.2-0.9-1.9c-0.3-0.6-0.3-1.2-0.6-2.2c0-0.3,0-0.3,0-0.6v-0.3l0,0l0,0l0,0l0,0l0,0v-0.3V21c0-0.3,0-0.3,0-0.6
		c0-0.3,0.3-0.6,0.3-1.2c0-0.3,0-0.3,0.3-0.6v-0.3v-0.3c0.6-1.6,1.9-2.5,3.1-3.4c1.2-0.9,3.1-1.6,4.7-1.6c0.3,0,0.3,0,0.6,0
		c0.3,0,0.3,0,0.6,0c0.3,0,0.9,0,1.2,0.3c0.3,0,0.9,0.3,1.2,0.3c0.3,0.3,0.6,0.3,1.2,0.6c1.6,0.9,2.5,2.2,3.1,3.7v0.3v0.3
		c0,0.3,0,0.3,0.3,0.6c0,0.3,0.3,0.6,0.3,1.2c0,0.3,0,0.3,0,0.6v0.3C27.9,21,27.9,21.3,27.9,21.3L27.9,21.3L27.9,21.3L27.9,21.3z"/>
	<path id="XMLID_26_" class="st1" d="M27.9,21.3C27.9,21.3,27.9,21,27.9,21.3c0-0.3,0-0.6,0-0.6c0-0.3,0-0.3,0-0.6
		c0-0.3,0-0.6-0.3-1.2c0-0.3,0-0.3-0.3-0.6v-0.3v-0.3c-0.6-1.6-1.9-2.8-3.1-3.7c-0.3-0.3-0.6-0.3-1.2-0.6c-0.3-0.3-0.9-0.3-1.2-0.3
		c-0.3,0-0.9-0.3-1.2-0.3c-0.3,0-0.3,0-0.6,0c-0.3,0-0.3,0-0.6,0c-1.6,0-3.4,0.6-4.7,1.6s-2.5,2.2-3.1,3.4v0.3v0.3
		c0,0.3,0,0.3-0.3,0.6c0,0.3-0.3,0.6-0.3,1.2c0,0.3,0,0.3,0,0.6V21v0.3l0,0l0,0l0,0l0,0l0,0v0.3c0,0.3,0,0.3,0,0.6
		c0,0.6,0.3,1.6,0.6,2.2c0.3,0.6,0.6,1.2,0.9,1.9c0.3,0.6,0.9,0.9,1.2,1.2c0.3,0.3,0.9,0.6,1.2,0.9c0.3,0.3,0.9,0.3,1.2,0.6h0.3h0.3
		h0.3h0.3c0.6,0.3,1.2,0.3,1.6,0.3c0.3,0,0.3,0,0.3,0l0,0l0,0l0,0h0.3c0.3,0,0.9,0,1.6-0.3h0.3h0.3H22h0.3c0.3,0,0.9-0.3,1.2-0.6
		c0.3-0.3,0.9-0.6,1.2-0.9c0.3-0.3,0.9-0.9,1.2-1.2c0.3-0.6,0.6-1.2,0.9-1.9c0-0.3,0-0.3,0.3-0.6c0-0.3,0-0.3,0-0.6v-0.3v-0.3
		c0-0.3,0-0.3,0-0.6c0-0.3,0-0.3,0-0.6C27.9,21.6,27.9,21.6,27.9,21.3L27.9,21.3L27.9,21.3L27.9,21.3L27.9,21.3z M25.4,21.6
		L25.4,21.6c0,0.3,0,0.3,0,0.3v0.3c0,0.3,0,0.6-0.3,0.9v0.3c0,0,0,0.3-0.3,0.3c-0.3,0.9-1.2,2.2-2.2,2.8c-0.6,0.3-0.9,0.6-1.6,0.9
		c-0.3,0-0.6,0.3-0.9,0.3c-0.3,0-0.3,0-0.6,0c0,0-0.3,0-0.6,0c-0.3,0-0.6,0-0.9,0c-0.3,0-0.6,0-0.9-0.3c-0.3,0-0.6-0.3-0.9-0.3
		c-0.3,0-0.6-0.3-0.9-0.6c-0.3-0.3-0.6-0.3-0.6-0.6c-0.3-0.3-0.3-0.3-0.6-0.6c-0.3-0.6-0.6-0.9-0.9-1.6c-0.3-0.6-0.3-1.2-0.3-1.9
		v-0.3c0,0,0,0,0-0.3c0,0,0,0,0-0.3l0,0l0,0l0,0l0,0l0,0c0,0,0,0,0-0.3v-0.3c0-0.6,0.3-0.9,0.3-1.6c0.3-0.6,0.3-0.9,0.6-1.2
		c0.3-0.3,0.6-0.9,0.9-1.2c0.3-0.3,0.6-0.6,0.9-0.9c0.6-0.6,1.2-0.9,1.9-0.9c0.6-0.3,0.9-0.3,1.2-0.3s0.3,0,0.3,0l0,0l0,0h0.3
		c0.3,0,0.9,0,1.2,0.3c0.6,0.3,1.2,0.6,1.9,0.9c0.3,0.3,0.6,0.6,0.9,0.9c0.3,0.3,0.6,0.6,0.9,1.2c0.6,0.9,0.9,1.9,0.9,2.8v0.3
		C25.4,21,25.4,21.3,25.4,21.6L25.4,21.6L25.4,21.6z"/>
	<path id="XMLID_29_" class="st1" d="M40,29.3v-2.8V15.7v-2.8v-1.2v-0.3v-0.3c0-0.3,0-0.6,0-0.6c0-0.6-0.3-0.9-0.6-1.2
		c0,0,0-0.3-0.3-0.3l0,0l0,0l0,0c-0.3-0.3-0.3-0.3-0.6-0.6c-0.3-0.3-0.9-0.6-1.2-0.6c-0.3,0-0.6,0-0.6,0h-0.3H36c0,0,0,0-0.3,0l0,0
		l0,0h-5.3c-1.9,0-3.7,0-5.3,0c-1.9,0-3.7,0-5.3,0h-2.8h-1.2h-1.2V5.8c0-0.3,0-0.3,0-0.6c0-0.3,0-0.3-0.3-0.6
		c-0.3-0.3-0.6-0.6-0.9-0.6l0,0l0,0H13l0,0l0,0l0,0l0,0l0,0l0,0h-0.3h-0.9H9.6H7.4H6.5H6.2l0,0l0,0l0,0l0,0c-0.3,0-0.3,0-0.6,0
		C5.3,3.9,5,4.2,4.7,4.5c0,0.3-0.3,0.3-0.3,0.6v0.3c0,0,0,0,0,0.3l0,0l0,0l0,0l0,0l0,0l0,0v1.6l0,0l0,0l0,0H4c-0.3,0-0.3,0-0.6,0
		H3.1H2.8H2.5H2.2c-0.3,0-0.3,0.3-0.6,0.3C1.2,8,0.9,8.3,0.6,8.6c0,0-0.3,0.3-0.3,0.6S0,9.5,0,9.8v0.3v0.3v0.3l0,0l0,0l0,0l0,0l0,0
		v0.3l0,0l0,0l0,0l0,0v0.3v0.9c0,0.6,0,1.2,0,2.2v2.2c0,0.6,0,1.2,0,2.2V21v4c0,1.2,0,2.8,0,4V30v0.6c0,0.3,0,0.3,0,0.6v0.3v0.3l0,0
		l0,0v0.3c0,0.3,0.3,0.6,0.3,0.9c0.3,0.6,0.9,0.9,1.6,1.6c0.3,0.3,0.6,0.3,0.9,0.3h0.3h0.3h0.3H4l0,0c1.9,0,3.7,0,5.3,0
		c1.9,0,3.7,0,5.3,0h5.3c1.9,0,3.7,0,5.3,0c1.9,0,3.7,0,5.3,0h5.3H36h0.3c0,0,0,0,0.3,0c0.3,0,0.6,0,0.6-0.3c0.6,0,0.9-0.3,1.2-0.6
		c0.3-0.3,0.6-0.6,0.9-1.2c0.3-0.3,0.6-0.9,0.6-1.6v-0.3c0,0,0,0,0-0.3v-0.3l0,0l0,0V30l0,0l0,0l0,0l0,0v-0.3V29.3z M1.9,34.9
		L1.9,34.9C1.9,34.9,2.2,34.9,1.9,34.9C2.2,34.9,1.9,34.9,1.9,34.9z M37.8,31.2C37.8,31.5,37.8,31.5,37.8,31.2
		c0,0.6-0.3,0.9-0.3,1.2c-0.3,0.6-0.9,0.9-1.2,1.2H36c0,0,0,0-0.3,0l0,0l0,0l0,0l0,0l0,0l0,0l0,0h-0.9h-2.2c-1.2,0-2.8,0-4,0h-2.2
		h-2.2c-1.2,0-2.8,0-4,0s-2.8,0-4,0h-4h-4c-1.2,0-2.8,0-4,0H3.7l0,0l0,0l0,0c0,0,0,0-0.3,0H3.1c-0.3,0-0.6-0.3-0.6-0.3
		c-0.6-0.3-0.9-0.9-0.9-1.2l0,0l0,0c0,0,0,0,0-0.3l0,0l0,0l0,0l0,0v-0.3v-0.9c0-0.6,0-1.2,0-2.2v-2.2v-2.2v-4c0-1.2,0-2.8,0-4v-2.2
		v-0.9v-0.6V12v-0.3c0-0.6,0.3-1.2,0.9-1.9c0.6-0.3,1.2-0.6,1.9-0.6H5h0.3h0.3c0,0,0.3,0,0.3-0.3V8.6V8.3V8V6.7V5.5h1.9h1.9
		c1.2,0,2.5,0,3.7,0v1.2v0.6v0.3l0,0l0,0l0,0l0,0l0,0c0,0.3,0,0.3,0.3,0.6L14,8.6h0.3h0.3h0.3c0.6,0,0.9,0,1.6,0h3.1h3.1h6.2
		c0.9,0,2.2,0,3.1,0H35H36h0.3h0.3l0,0l0,0l0,0l0,0l0,0l0,0c0.3,0,0.3,0,0.6,0.3c0.3,0,0.3,0.3,0.3,0.3c0,0.3,0.3,0.3,0.3,0.6l0,0
		l0,0l0,0l0,0l0,0l0,0v0.3v0.3v6.2v3.1c0,0.9,0,2.2,0,3.1v3.1V29v0.3l0,0L37.8,31.2L37.8,31.2z"/>
</g>
</svg>
