<?xml version="1.0" encoding="utf-8"?>
<!-- Generated by IcoMoon.io -->
<!DOCTYPE svg PUBLIC "-//W3C//DTD SVG 1.1//EN" "http://www.w3.org/Graphics/SVG/1.1/DTD/svg11.dtd">
<svg version="1.1" xmlns="http://www.w3.org/2000/svg" xmlns:xlink="http://www.w3.org/1999/xlink" width="1024" height="1024" viewBox="0 0 1024 1024">
<g id="icomoon-ignore">
</g>
<path d="M908.8 266.2v0 0zM148.4 302c0 34.4 10.4 66.8 28.4 93.2 3.6-3.2 7.2-6.6 13.8-12.8-1.2 11.6-3.4 16.6-10.4 17.4 10.4 14.2 23.2 26.6 37.8 36.4 2.4-2 4.6-5.2 7.4-5.8 2.4-0.6 5.6 2 11.2 4.2-5.4 2.6-8 4.8-10.8 4.8-2.4 0-4.8-1.6-7.2-2.8 0.6 0.4 1 0.8 1.6 1-25.6 0-51.2-7.6-74.2-20.4v2.6c0 79.4 56.4 146 130.6 158.8-12.8 2.6-28.2 5.2-43.6 5.2-10.2 0-20.4 0-30.8-2.6 20.4 64 82 112.6 151 112.6-53.8 43.6-122.8 69.2-199.6 69.2-12.8 0-25.6 0-38.4-2.6 37.2 23.8 78.4 43 122 55.8 4.4-8.4 8.6-16 12.8-24.2 7.8 6.6 14.4 11.2 8.4 20.8-1.8 3-3.8 5.6-6 7.6 36 9.2 73.4 14.4 111.2 14.4 52.6 0 101-7.6 145.2-21.4-0.2-0.2-0.4-0.2-0.6-0.4 6-4 9.4-6.2 12.6-8.4 1.4 2 2.6 3 2.8 3.8 53-18.6 99.4-46.2 139-80-0.6-13.6 1.2-26.2 10.2-39.4 3.6 10.4 6 18 7.2 23.6 96.4-91.8 147-221.6 147-341 0-7.6 0-15.4 0-20.4 33.2-23 58.8-51.2 82-84.4-28.2 12.8-61.4 20.4-94.8 25.6 33.2-20.4 58.8-51.2 71.6-89.6-30.8 18-66.6 33.2-102.4 38.4-30.8-30.8-71.6-51.2-117.8-51.2-89.6 0-163.8 71.6-163.8 163.8 0 12.8 2.6 25.6 5.2 35.8-7-0.4-14-1-20.8-1.6-1.4 4.8-5.6 8-12.8 10-0.4-5.6-0.6-9-0.2-11.4-21.6-2.8-42.6-7-63.2-12.4-0.6 1-1.2 2-1.8 3-10.6-3.4-21.4-6.6-34.4-10.8-3.2 2-8.6 5.4-14.8 9.4-2-4.8-4-9.2-7-16.2 6.6 2 12.2 2.6 17 1.4-22.2-8.2-43.6-18-63.8-29.2 0 0 0 0.2 0 0.2-0.2 0.8-1.8 1.4-2.8 2-0.6-1-2-2-1.8-2.8 0.2-0.4 0.6-0.8 1.4-1.2-50.2-28.2-94.4-65.4-130.2-109.2-13 22.4-23.4 50.6-23.4 81.2zM158.4 465.8c-2.4-0.4-6-3.2-6-5.2-0.2-2.2 2.4-6.2 4.6-6.8 1.8-0.6 4.6 2.6 7 4.2 1.2 1.8 2.4 3.6 3.6 5.2-3.2 1-6.4 3-9.2 2.6zM751.6 372.4c2-0.4 4.2 1 8.6 2.4-3.6 3.2-5.4 5.8-7.2 5.8-1.6 0-3.8-2.4-4.8-4.2-0.2-0.6 2-3.8 3.4-4zM719.2 632c3.2 2.6 5.6 4.6 9.2 7.4-6.8 1.4-13 3.8-9.2-7.4zM727.8 395c-6.4 18-13.6 23-35.4 22.4 11.4-9.2 20.8-17 30.4-24.6 0.8-0.4 3.4 1.4 5 2.2zM697.8 221.6c-2.2 9.8-3.8 16-5.6 24.2-13.2-14.8-13.2-14.8 5.6-24.2zM653 686c-1.2-1.2-3.4-2.2-3.4-3.4 0-1.4 1.8-2.8 3-4.6 1.8 1.2 3.2 2.2 4.6 3-1.4 1.8-2.8 3.4-4.2 5zM664 658c-1.4 0-2.6-2.2-3.8-3.4 1.4-1.2 2.6-3.2 4.2-3.4 1.2-0.2 2.8 1.8 5 3.4-2.4 1.6-3.8 3.6-5.4 3.4zM660.2 383.4c2.2 2.6 4.6 5 8 9-3.8 2.2-6.8 5-8.4 4.4-2.2-0.8-4.8-4.4-4.6-6.8-0.2-2.2 3-4.4 5-6.6zM648.8 525.4c2.2 3.8 3.8 6.2 4.8 8.6 0.2 0.4-3.4 2.8-3.8 2.4-1.8-1.6-3.6-3.4-4.6-5.6-0.4-0.8 1.6-2.4 3.6-5.4zM600.8 398.8c1.2-0.2 3.4 1.6 3.8 2.8 0.2 1-1.6 2.6-3 4.4-1.8-1.6-3-2.8-4.2-3.8 1-1.2 2.2-3.2 3.4-3.4zM564.2 281.4c1.4 1.8 3.4 3.2 4.2 5.2 0.4 0.8-1.8 2.6-3.6 5-2-3-3.6-4.8-4.2-6.8-0.2-0.8 2.4-2.2 3.6-3.4zM572.6 753.2c-5.8 6.2-8.6 9.4-13.8 15-1.8-12.2 2.2-14.2 13.8-15zM553.2 523.4c0.6 0.2 1 2 1.6 3.6-1.8 0.2-3.8 1-5.2 0.6-0.8-0.2-1.2-2.6-1.6-4 1.6-0.2 3.6-0.6 5.2-0.2zM537.8 316.2c2 2 5.6 4 6 6.2 1 7.4-3 10.4-16.2 9.4 5-7.4 7.6-11.6 10.2-15.6zM469.4 675.4c-3.8-1-7-4-10.4-6.2 2.2-2.8 4.6-8 6.4-7.8 3.6 0.4 7 3.8 12.4 7-4 3.6-6.8 7.4-8.4 7zM469 433.4c1.6-0.6 5 3.8 9.8 7.4-5.6 4.2-9 8.4-13.2 9.4-1.8 0.4-5.2-5.6-7.8-8.6 3.6-2.8 7-6.6 11.2-8.2zM463.2 507.6c2.8-2.8 9.4-3.8 13.8-2.8 2 0.4 5 8 3.8 10.6-5.2 11.8 0.4 17 13.4 20.2-3.8 4.8-6 10-9 10.6s-7.8-2.8-10.2-5.8c-5.4-6.6-9.8-13.8-14.6-20.8-1.6 1.2-3 2.2-4.6 3.4 2.4-5.2 3.6-11.6 7.4-15.4zM391.6 599c0.4-0.2 3 2.8 4.8 4.4-2.2 2-4.4 4-7 6.6-1.8-2.2-4-4.4-3.8-4.8 1.6-2.4 3.6-4.6 6-6.2zM379.2 420c1.6 2.4 3.4 4.2 4 6.2 0.2 0.8-2 2.4-3.2 3.6-2-2-4-4.2-6.2-6.2 1.4-1 3-2 5.4-3.6zM387 785.2c-8.8-4.2-16.8-8-25.8-12.4 18.2-10.6 23.6-8 25.8 12.4zM358.4 521.2c1.2 7 1.8 11 3 17.8-8.8-5.2-14.2-8.4-3-17.8zM326.2 541c2 9.8 4.8 17.6-7.8 24.2 1.2-9.4-3.2-17.6 7.8-24.2zM319.2 424.2c1.2 0.4 2 4.6 1.6 4.8-4.4 2.8-9.2 5-13.8 7.4 0.6-10.4 4.2-15.4 12.2-12.2zM306 620.4c1.4 1.2 2.6 2.4 4 3.6-2.6 2.6-5.2 5-7.8 7.6-1-0.8-1.8-1.6-2.8-2.6 2.2-3 4.4-5.8 6.6-8.6zM286 411.6c0.6-0.2 2.2 2 2 2.6-0.4 1.4-1.8 2.6-3.2 4.8-1.4-2.4-2.2-3.8-3-5.2 1.2-0.8 2.6-1.8 4.2-2.2zM279 571.2c0.6-0.4 2.8 1.4 4.2 2 1 1.4 2.2 3 3.2 4.4-2.6 0.6-5 1.8-7.6 1.8-1 0-2.8-2.4-2.8-3.8 0.2-1.4 1.6-3.4 3-4.4zM252.2 326c3.4-6.6 8.4-6.8 17.6-1-7 3.2-11.2 5.2-16.2 7.6-0.8-3.2-2.2-5.4-1.4-6.6zM267.8 481.6c1.4 1.4-0.2 8.2-2.4 9.8-6.6 4.6-10.2-0.4-14.2-6.4 5.4-4.8 10.2-9.8 16.6-3.4zM222.6 401.8c-10.4-8.4-7.4-14.4-2.4-22.4 7.8 7 5.2 13.2 2.4 22.4zM229.8 326.2c0 0.2-2 0.6-4.6 1.2 1.6-3 2.6-4.8 3.8-6.6 0.2 1.8 0.6 3.6 0.8 5.4zM216 291.8c6 1.6 8.6 2.2 12 3.2-5.2 6.6-10.2 13-16.4 21-5-11.2 5-15.6 4.4-24.2zM182.4 307c8 12 15 22.4 22.6 33.8-15.4 7.6-14.4-7.8-21-11.2-7-3.8-7.8-12.6-1.6-22.6z"></path>
</svg>
