<?xml version="1.0" encoding="utf-8"?>
<!-- Generator: Adobe Illustrator 19.0.0, SVG Export Plug-In . SVG Version: 6.00 Build 0)  -->
<svg version="1.1" id="Layer_1" xmlns="http://www.w3.org/2000/svg" xmlns:xlink="http://www.w3.org/1999/xlink" x="0px" y="0px"
	 viewBox="0 0 40 40" style="enable-background:new 0 0 40 40;" xml:space="preserve">
<g id="XMLID_1_">
	<g id="XMLID_22_">
		<g id="XMLID_23_">
			<g id="XMLID_24_">
				<g id="XMLID_25_">
					<path id="XMLID_26_" d="M32.7,40l-6.6-6.6c-2,0.6-4,0.9-6.1,0.9c-10.6,0-19.3-7.7-19.3-17.2C0.7,7.7,9.4,0,20,0
						s19.3,7.7,19.3,17.2c0,5-2.4,9.7-6.6,12.9V40L32.7,40z M26.5,31.8l4.8,4.8v-7.2l0.3-0.2c4-3,6.3-7.4,6.3-12
						c0-8.7-8-15.8-17.9-15.8S2.1,8.5,2.1,17.2S10.1,33,20,33c2.1,0,4.1-0.3,6.1-1L26.5,31.8z"/>
				</g>
			</g>
		</g>
	</g>
	<g id="XMLID_9_">
		<g id="XMLID_18_">
			<g id="XMLID_19_">
				<g id="XMLID_20_">
					<path id="XMLID_21_" d="M29.4,18.1H10.6c-0.4,0-0.7-0.3-0.7-0.7c0-0.4,0.3-0.7,0.7-0.7h18.8c0.4,0,0.7,0.3,0.7,0.7
						C30.1,17.8,29.8,18.1,29.4,18.1z"/>
				</g>
			</g>
		</g>
		<g id="XMLID_14_">
			<g id="XMLID_15_">
				<g id="XMLID_16_">
					<path id="XMLID_17_" d="M29.4,22.8H10.6c-0.4,0-0.7-0.3-0.7-0.7c0-0.4,0.3-0.7,0.7-0.7h18.8c0.4,0,0.7,0.3,0.7,0.7
						S29.8,22.8,29.4,22.8z"/>
				</g>
			</g>
		</g>
		<g id="XMLID_10_">
			<g id="XMLID_11_">
				<g id="XMLID_12_">
					<path id="XMLID_13_" d="M29.4,13.4H10.6c-0.4,0-0.7-0.3-0.7-0.7s0.3-0.7,0.7-0.7h18.8c0.4,0,0.7,0.3,0.7,0.7
						C30.1,13.1,29.8,13.4,29.4,13.4z"/>
				</g>
			</g>
		</g>
	</g>
</g>
</svg>
