<?xml version="1.0" encoding="utf-8"?>
<!-- Generator: Adobe Illustrator 19.0.0, SVG Export Plug-In . SVG Version: 6.00 Build 0)  -->
<svg version="1.1" id="Layer_1" xmlns="http://www.w3.org/2000/svg" xmlns:xlink="http://www.w3.org/1999/xlink" x="0px" y="0px"
	 viewBox="-79 81 40 40" style="enable-background:new -79 81 40 40;" xml:space="preserve">
<style type="text/css">
	.st0{fill:#0B1719;}
</style>
<path class="st0" d="M-41.6,83.6c-1.7-1.7-3.9-2.6-6.2-2.6c-2.2,0-4.5,0.9-6.2,2.6l-3.8,3.8c-2.5,2.5-3.1,6-2,9.1l-3.8,3.8
	c-0.9-0.3-1.9-0.5-2.9-0.5c-2.2,0-4.5,0.9-6.2,2.6l-3.8,3.8c-3.4,3.4-3.4,9,0,12.4c1.7,1.7,3.9,2.6,6.2,2.6c2.2,0,4.5-0.9,6.2-2.6
	l3.8-3.8c2.5-2.5,3.1-6,2-9.1l3.8-3.8c0.9,0.3,1.9,0.5,2.9,0.5c2.2,0,4.5-0.9,6.2-2.6l3.8-3.8C-38.1,92.5-38.1,87-41.6,83.6z
	 M-49,94.6c0-0.9-0.4-1.8-1.1-2.5c-0.7-0.7-1.6-1-2.5-1.1l3-3c0.5-0.5,1.1-0.7,1.8-0.7c0.7,0,1.3,0.3,1.8,0.7
	c0.5,0.5,0.7,1.1,0.7,1.8s-0.3,1.3-0.7,1.8L-49,94.6z M-54.5,93c0.5-0.5,1.1-0.7,1.8-0.7c0.7,0,1.3,0.3,1.8,0.7
	c0.5,0.5,0.7,1.1,0.7,1.8s-0.3,1.3-0.7,1.8L-63.5,109c-0.5,0.5-1.1,0.7-1.8,0.7c-0.7,0-1.3-0.3-1.8-0.7s-0.7-1.1-0.7-1.8
	s0.3-1.3,0.7-1.8L-54.5,93z M-69,107.4c0,0.9,0.4,1.8,1.1,2.5c0.7,0.7,1.6,1,2.5,1.1l-3,3c-0.5,0.5-1.1,0.7-1.8,0.7
	c-0.7,0-1.3-0.3-1.8-0.7s-0.7-1.1-0.7-1.8s0.3-1.3,0.7-1.8L-69,107.4z M-61.2,113.8l-3.8,3.8c-1.4,1.4-3.3,2.2-5.3,2.2
	c-2,0-3.9-0.8-5.3-2.2c-2.9-2.9-2.9-7.7,0-10.6l3.8-3.8c1.4-1.4,3.3-2.2,5.3-2.2c0.7,0,1.3,0.1,1.9,0.3l-8.3,8.3
	c-1.5,1.5-1.5,3.8,0,5.3c0.7,0.7,1.7,1.1,2.7,1.1c1,0,1.9-0.4,2.7-1.1l8.3-8.3C-58.6,109.1-59.2,111.9-61.2,113.8z M-42.4,95.1
	l-3.8,3.8c-1.4,1.4-3.3,2.2-5.3,2.2c-0.7,0-1.3-0.1-1.9-0.3l8.3-8.3c1.5-1.5,1.5-3.8,0-5.3c-0.7-0.7-1.7-1.1-2.7-1.1
	s-1.9,0.4-2.7,1.1l-8.3,8.3c-0.7-2.5-0.1-5.3,1.9-7.2l3.8-3.8c1.4-1.4,3.3-2.2,5.3-2.2c2,0,3.9,0.8,5.3,2.2
	C-39.5,87.4-39.5,92.1-42.4,95.1z"/>
</svg>
