<?xml version="1.0" encoding="utf-8"?>
<!-- Generator: Adobe Illustrator 19.0.0, SVG Export Plug-In . SVG Version: 6.00 Build 0)  -->
<svg version="1.1" id="Layer_1" xmlns="http://www.w3.org/2000/svg" xmlns:xlink="http://www.w3.org/1999/xlink" x="0px" y="0px"
	 viewBox="0 0 40 40" style="enable-background:new 0 0 40 40;" xml:space="preserve">
<g id="XMLID_1_">
	<path id="XMLID_68_" d="M36.9,9.4c0-0.1-0.1-0.2-0.2-0.3L32,6.4c-0.2-0.1-0.5-0.1-0.7,0.2C31,7.3,30.3,7.8,29.5,8
		c-0.8,0.2-1.6,0.1-2.4-0.3c-1.5-0.9-2-2.8-1.1-4.3c0.1-0.2,0.1-0.5-0.2-0.7l-4.7-2.7c-0.2-0.1-0.5,0-0.7,0.2l-17.4,30
		c-0.1,0.1-0.1,0.2,0,0.4c0,0.1,0.1,0.2,0.2,0.3L8,33.6c0.2,0.1,0.5,0,0.7-0.2c0.4-0.7,1.1-1.2,1.9-1.5c0.8-0.2,1.6-0.1,2.4,0.3
		c1.5,0.9,2,2.8,1.1,4.3c-0.1,0.2-0.1,0.5,0.2,0.7l4.7,2.7c0.1,0.1,0.2,0.1,0.4,0c0.1,0,0.2-0.1,0.3-0.2l3.7-6.5l0,0l0.1-0.2
		L33,16.5l0,0l0.1-0.2l3.8-6.6C37,9.6,37,9.5,36.9,9.4z M32.4,15.6L32.4,15.6l-0.3,0.4l0,0l-9.4,16.3l0,0l-0.2,0.4l0,0l-3.5,6
		l-3.9-2.2c0.8-1.9,0.1-4.1-1.7-5.2c-0.9-0.5-2-0.7-3.1-0.4c-0.9,0.2-1.7,0.8-2.2,1.5l-3.9-2.2l3.2-5.6l0.1,0l0.2-0.4l0,0L17.1,8
		l0.1,0l0.2-0.4l0,0l3.7-6.4l3.9,2.2c-0.8,1.9-0.1,4.1,1.7,5.2c0.9,0.5,2,0.7,3.1,0.4c0.9-0.2,1.7-0.8,2.2-1.5l3.9,2.2L32.4,15.6z"
		/>
	<path id="XMLID_73_" d="M24,22.9C24,22.9,24,22.9,24,22.9c0-0.1,0-0.1,0.1-0.2c0.1-0.2,0.2-0.4,0.3-0.6c0.2-0.4,0.3-0.8,0.3-1.2
		c0.1-0.5,0-1.1-0.1-1.6c-0.1-0.5-0.3-1-0.6-1.4c-0.3-0.4-0.6-0.7-0.9-1c-0.2-0.1-0.3-0.2-0.5-0.3c0,0,0,0,0,0
		c-0.1-0.1-0.2-0.1-0.4-0.2c0,0-0.1,0-0.1-0.1c-0.4-0.2-0.8-0.3-1.3-0.4c-0.6-0.1-1.2,0-1.8,0.1c-0.6,0.2-1.1,0.4-1.5,0.7
		c-0.3,0.2-0.6,0.5-0.8,0.8c-0.2,0.3-0.4,0.6-0.6,1c0,0,0,0,0,0c-0.4-0.2-0.9-0.5-1.3-0.7c0,0,0,0,0,0c-0.4,0.8-0.9,1.6-1.3,2.4
		c0,0,0,0,0,0c0.8,0.4,1.6,0.9,2.4,1.3c0,0,0,0,0,0.1c0.2,0.6,0.4,1.1,0.8,1.6c0.2,0.3,0.5,0.6,0.8,0.8c0.2,0.1,0.3,0.2,0.5,0.3
		c0,0,0,0,0,0c0.1,0,0.2,0.1,0.3,0.1c0.1,0,0.1,0,0.2,0.1c0.4,0.2,0.7,0.3,1.1,0.4c0.6,0.1,1.2,0.1,1.8-0.1c0.1,0,0.2-0.1,0.4-0.1
		c0,0,0,0,0.1,0c0.8,0.5,1.7,0.9,2.5,1.4c0,0,0,0,0,0c0.4-0.8,0.9-1.6,1.3-2.4c0,0,0,0,0,0C25,23.4,24.5,23.2,24,22.9z M17.3,17.1
		c0.5-0.5,1.1-0.8,1.8-1c0.5-0.1,1.1-0.2,1.6-0.1c0.3,0,0.7,0.1,1,0.2c0.3,0.1,0.6,0.3,0.9,0.5c0.8,0.5,1.4,1.2,1.7,2.1
		c0.2,0.6,0.3,1.2,0.3,1.8c0,0.4-0.1,0.8-0.3,1.2c-0.1,0.3-0.3,0.6-0.4,0.9c0,0,0,0.1-0.1,0.1c-1.5-0.8-3-1.7-4.5-2.5
		c0,0,0.1,0,0.1,0c0.1,0,0.1,0,0.2,0c0,0,0.1,0,0.1,0c0.1,0,0.1,0,0.2,0c0,0,0,0,0.1,0.1c0,0,0.1,0,0.1,0c0,0,0.1,0,0.1,0
		c0.1,0,0.1,0,0.2,0.1c0,0,0,0,0,0c0,0.1,0,0.2,0,0.3c0,0,0.1-0.1,0.1-0.1c0-0.1,0-0.2,0-0.2c0-0.1-0.1-0.1-0.2-0.1c0,0-0.1,0-0.1,0
		c0,0,0,0-0.1,0c0,0,0,0,0,0c0,0,0,0,0,0c0,0,0,0,0,0c0,0,0,0,0,0c0,0,0.1,0,0.1,0c0.1,0,0.2,0.1,0.2,0.1c0,0,0,0,0,0c0,0,0,0,0,0
		c0,0,0,0,0,0c-0.1-0.1-0.2-0.2-0.3-0.3c0,0,0,0,0,0c0,0,0,0,0,0c0,0.1-0.1,0.1-0.2,0.1c-0.1,0-0.2,0-0.3,0c0,0,0,0-0.1,0
		c0,0-0.1,0.1-0.2,0c-0.1,0-0.1-0.1-0.2-0.1c0,0-0.1,0-0.1-0.1c0-0.1,0.1-0.1,0.1-0.1c0,0,0,0,0,0c0.2,0.1,0.3,0.1,0.5,0.2
		c0.1,0,0.1,0,0.1,0c0.1,0,0.1-0.1,0.1-0.2c0.1,0,0.1,0,0.2,0c0.1-0.1,0.2,0,0.3,0c0,0,0.1,0.1,0.1,0.1c0,0,0-0.1,0-0.1
		c0-0.1-0.1-0.2-0.2-0.2c0,0-0.1,0-0.1,0c0,0,0,0-0.1,0c0,0,0,0,0,0s0,0,0,0c0,0,0,0,0-0.1c0.1,0,0.2,0,0.3,0.1c0-0.1,0-0.1-0.1-0.1
		c-0.1-0.1-0.2-0.1-0.3-0.1c-0.1,0-0.2,0.1-0.1,0.2c0,0,0,0,0,0c0,0-0.1,0.1-0.1,0.2c0,0,0,0,0,0c0,0-0.1,0-0.1,0
		c-0.1,0-0.2,0-0.3,0c-0.1,0-0.1,0-0.2-0.1c0,0-0.1-0.1,0-0.1c0-0.1,0-0.1-0.1-0.1c0,0-0.1,0-0.1,0.1c0,0,0,0-0.1,0
		c-0.1-0.1-0.1-0.1-0.1-0.2c0,0,0,0,0,0c0-0.1,0.1-0.1,0.1-0.2c0,0,0,0,0.1,0c0,0,0,0,0,0.1c0-0.1,0-0.1,0-0.2
		c0-0.1,0.1-0.1,0.1-0.2c0,0,0,0,0,0c0,0,0.1,0,0.1,0c0,0,0,0,0,0c0,0,0-0.1,0.1-0.1c0,0,0,0,0,0c0,0,0,0,0,0c0,0,0,0,0,0
		c0,0.1,0,0.1,0,0.2c0,0.1-0.1,0.2-0.2,0.2c0,0,0,0,0,0.1c0,0,0,0,0,0c0.1,0,0.2-0.1,0.3-0.2c0.1-0.1,0.1-0.1,0.2-0.2
		c0.1,0.1,0,0.2,0,0.3c-0.1,0-0.1,0.1-0.2,0.1c0,0-0.1,0.1-0.1,0.1c0,0,0,0,0,0c0,0,0.1,0,0.1-0.1c0,0,0.1-0.1,0.1-0.1
		c0,0,0.1,0,0.1,0c0,0,0,0,0.1,0c0.1-0.1,0.1-0.1,0.2-0.2c0,0,0,0,0,0c0,0,0,0,0,0C20,18.9,20,19,19.9,19.1c0,0,0,0,0,0c0,0,0,0,0,0
		c0.1,0,0.1-0.1,0.2-0.1c0,0,0.1-0.1,0.1-0.1c0,0,0.1,0,0.1,0c0,0,0,0.1,0,0.1c0,0.1-0.1,0.1-0.1,0.2c0,0,0.1,0,0.1-0.1
		c0.1-0.1,0.1-0.1,0.2-0.2c0,0,0.1-0.1,0.1-0.1c0,0,0,0.1,0,0.1c0,0,0-0.1,0.1,0c0,0.1-0.1,0.2-0.1,0.3c0,0,0,0,0,0
		c0.1,0,0.1-0.1,0.2-0.2c0,0,0,0.1,0,0.1c0,0,0,0.1,0,0.1c0,0.1,0,0.2,0,0.4c0.1,0.1,0.1,0.3,0.2,0.4c0.1,0.1,0.2,0.3,0.3,0.4
		c0,0,0,0.1,0,0.1c0,0,0,0,0,0.1c0,0.1,0.1,0.3,0.1,0.4c0.1,0.2,0.3,0.4,0.6,0.5c0,0,0.1,0,0.1,0c0,0,0,0,0,0c0,0,0-0.1,0-0.1
		c0,0,0,0,0-0.1c-0.1-0.1-0.2-0.2-0.3-0.4c-0.1-0.2-0.1-0.4-0.2-0.6c0-0.1,0-0.3,0-0.4c0,0,0,0,0,0c0-0.1,0-0.1,0-0.2c0,0,0,0,0,0
		c0,0,0.1,0,0.1,0.1c0,0,0,0,0,0.1c0,0,0,0,0,0c0,0,0,0,0,0c0,0,0,0,0-0.1c0,0,0-0.1,0-0.1c0,0,0-0.1,0-0.1c0-0.1,0-0.1-0.1-0.2
		c0,0,0,0-0.1-0.1c0,0,0,0,0-0.1c0,0,0,0,0,0c0,0,0,0,0,0c0,0.1,0.1,0.1,0.1,0.1c0,0,0.1,0,0.1,0c0,0,0.1,0,0.1,0c0,0,0,0.1,0.1,0.1
		c0,0.1,0.1,0.1,0.2,0.1c0.1,0,0.1,0.1,0.1,0.1c0,0.1,0,0.1,0.1,0.2c0.1,0.1,0.2,0.3,0.3,0.4c0.1,0.1,0.2,0.2,0.3,0.3
		c0.1,0,0.1,0.1,0.2,0.1c0,0,0,0,0,0c0,0,0,0.1,0.1,0c0,0,0,0,0,0c0,0,0,0,0,0c0,0,0,0,0,0c0,0,0,0,0.1,0c0,0,0,0,0,0c0,0,0,0,0,0
		c0,0,0,0,0,0c0,0,0,0.1,0,0.1c0,0,0,0,0.1,0.1c0,0,0,0.1,0,0.1c0,0,0,0,0,0.1c0,0,0,0,0,0c0.2,0,0.3-0.1,0.4-0.2
		c0-0.1,0.1-0.1,0.1-0.2c0-0.1,0-0.2,0-0.3c0-0.1,0-0.2,0-0.2c0,0,0-0.1,0-0.1c-0.1-0.1-0.1-0.2-0.2-0.2c0,0,0,0,0,0
		c0,0-0.1-0.1-0.1-0.2c0-0.1-0.1-0.2-0.1-0.3c-0.1-0.1-0.1-0.2-0.2-0.2c0-0.1-0.1-0.1-0.1-0.2c0-0.1,0-0.1-0.1-0.2
		c0,0-0.1-0.1-0.1-0.1c0-0.1-0.1-0.1-0.1-0.2c0,0,0-0.1,0-0.1c0-0.1,0-0.1-0.1-0.1c0,0,0,0,0,0c0,0,0,0,0,0c0-0.1,0-0.2,0-0.2
		c0,0-0.1-0.1-0.1-0.1c0-0.1-0.1-0.1-0.1-0.2c0,0,0-0.1-0.1-0.1c0,0-0.1,0-0.1,0c-0.1,0-0.1,0-0.2,0c0,0,0,0-0.1,0
		c-0.1,0-0.1,0-0.2,0c0,0-0.1,0-0.1,0c-0.1,0-0.2-0.1-0.3-0.1c0,0-0.1,0-0.1,0c0,0,0,0,0,0c-0.1-0.1-0.1-0.2-0.2-0.2c0,0,0,0,0,0
		c0,0,0,0.1,0,0.1c0,0,0,0,0,0c0,0,0,0.1,0,0.1c0,0,0,0.1,0,0.1c0,0,0,0.1,0,0.1c0,0,0,0,0,0c0,0,0,0-0.1,0c0,0-0.1-0.1-0.1-0.1
		c0,0,0-0.1-0.1-0.1c-0.1-0.1-0.1-0.1-0.2,0c0,0,0,0,0,0c0,0,0,0,0,0.1c0,0,0,0,0,0.1c0,0,0,0,0,0.1c0,0,0,0.1,0,0.1
		c0,0,0,0.1,0,0.1c0,0,0,0,0,0c-0.1,0-0.1,0-0.1-0.1c0,0-0.1-0.1-0.1-0.1c0,0-0.1-0.1-0.1-0.1c0,0-0.1,0-0.1,0c0,0,0,0,0,0.1
		c0,0.1,0,0.2,0,0.4c0,0,0,0,0,0c0,0-0.1,0-0.1,0c0,0,0-0.1-0.1-0.1c0,0-0.1-0.1-0.1-0.1c0,0,0,0,0,0c0,0.1,0,0.1,0,0.1
		c0,0,0,0.1,0,0.1c0,0,0,0.1,0,0.1c0,0,0,0-0.1-0.1c0,0,0,0,0-0.1c0,0,0,0,0,0c0,0,0,0,0,0.1c0,0,0,0.1,0,0.1c0,0,0,0.1,0,0.1
		c0,0,0,0,0,0c0,0,0-0.1,0-0.1c0,0,0-0.1-0.1-0.1c0,0,0,0.1,0,0.1c0,0,0,0.1,0,0.1c0,0,0,0.1,0,0.1c0,0,0,0-0.1,0c0,0,0,0,0-0.1
		c0,0,0,0,0-0.1c0,0,0,0,0,0c0,0,0,0.1-0.1,0.1c0,0,0,0.1-0.1,0.1c0,0,0,0-0.1,0.1c0,0-0.1,0-0.1,0c0,0,0,0,0-0.1c0,0,0,0,0-0.1
		c0,0,0,0,0,0.1c0,0,0,0.1,0,0.1c0,0,0,0.1-0.1,0.1c0,0,0-0.1,0-0.1c0,0,0-0.1,0-0.1c0,0,0,0.1-0.1,0.1c0,0,0,0.1,0,0.1c0,0,0,0,0,0
		c0,0,0,0,0,0c0,0,0-0.1,0-0.1c0,0,0-0.1,0-0.1c0,0-0.1,0.1-0.1,0.1c0,0,0,0-0.1,0.1c0,0,0,0-0.1,0c0,0-0.1,0-0.1,0c0,0,0-0.1,0-0.1
		c0,0,0-0.1,0-0.1c0,0-0.1,0-0.1,0.1c0,0-0.1,0.1-0.1,0.1c0,0,0,0,0,0c0,0,0,0-0.1,0c0-0.1-0.1-0.2-0.1-0.3c0,0,0,0-0.1,0
		c0,0,0,0.1-0.1,0.1c0,0,0,0,0,0.1c0,0,0,0,0,0c0,0,0-0.1,0-0.1c0,0,0,0,0-0.1c0-0.1,0-0.1-0.1-0.1c0,0-0.1,0-0.1,0
		c0,0,0,0.1-0.1,0.1c0,0-0.1,0-0.1,0c0,0,0,0,0,0c0,0,0,0,0-0.1c0,0,0,0,0,0c0,0,0-0.1,0-0.1c0,0-0.1,0-0.1,0c0,0-0.1,0-0.1,0
		c0,0-0.1,0-0.1,0.1c0,0,0,0.1,0,0.1c0,0,0,0,0,0c-0.1,0-0.1,0-0.2,0c0-0.1,0-0.2,0-0.3c0,0,0,0-0.1-0.1c-0.1,0-0.1,0-0.2,0
		c0,0,0,0,0,0c0,0,0,0,0,0C17.1,17.3,17.2,17.2,17.3,17.1z M20.2,22.7c-0.1,0.1-0.1,0.1-0.2,0.2c-0.1,0.1-0.2,0.2-0.3,0.3
		c0,0,0,0,0,0c-0.1,0-0.1-0.1-0.2-0.1c0,0,0,0,0,0c0-0.1,0.1-0.3,0.1-0.4c0-0.1,0.1-0.2,0.1-0.3c0-0.1,0.1-0.3,0.1-0.4
		c0-0.1,0.1-0.2,0.1-0.3c0-0.1,0.1-0.2,0.1-0.4c0.1,0,0.1,0,0.2,0.1c0.1,0,0.1,0.1,0.2,0.1c0,0,0,0,0,0.1c-0.1,0.2-0.2,0.4-0.2,0.6
		c0,0.1,0,0.1-0.1,0.2c0,0,0,0,0,0c0,0,0.1-0.1,0.1-0.1c0.1-0.1,0.2-0.2,0.3-0.3c0,0,0,0,0.1,0c0.1,0,0.1,0.1,0.2,0.1c0,0,0,0,0,0
		c0,0.2-0.1,0.4-0.1,0.5c0,0,0,0,0,0c0,0,0,0,0.1-0.1c0.1-0.2,0.3-0.3,0.4-0.5c0,0,0.1-0.1,0.1-0.1c0,0,0,0,0,0
		c0.1,0.1,0.2,0.2,0.3,0.3c0,0,0,0,0,0c-0.1,0.1-0.1,0.1-0.2,0.2c-0.3,0.3-0.5,0.6-0.8,0.8c-0.1,0.1-0.2,0.2-0.3,0.3c0,0,0,0,0,0
		c-0.1,0-0.1-0.1-0.2-0.1c0,0,0,0,0,0c0-0.1,0.1-0.3,0.1-0.4C20.2,22.8,20.2,22.8,20.2,22.7C20.2,22.7,20.2,22.7,20.2,22.7z
		 M19.1,22.4c-0.1,0-0.2,0.1-0.4,0.1c-0.1-0.2-0.2-0.3-0.1-0.5c0-0.1,0-0.2,0.1-0.3c0-0.1,0.1-0.2,0.2-0.3c0.2-0.2,0.4-0.3,0.7-0.4
		c0,0,0,0,0,0c0,0.1,0.1,0.2,0.1,0.3c-0.3,0-0.5,0.1-0.6,0.3C18.9,22,18.9,22.2,19.1,22.4z M18,21.1c0-0.1,0-0.2,0-0.3
		c0-0.1,0.1-0.1,0.1-0.1c0.1-0.1,0.2-0.1,0.4-0.1c0,0,0,0,0,0c0,0.1,0.1,0.2,0.1,0.3c0,0,0,0,0,0.1c-0.1,0-0.1,0-0.2,0.1
		c0,0-0.1,0-0.1,0c-0.1,0-0.1,0.1-0.1,0.2c0,0.1,0,0.1,0,0.2c0,0.1,0,0.1,0,0.2c0,0.1,0,0.1-0.1,0.1c-0.2,0.1-0.3,0.2-0.5,0.2
		c0,0,0,0,0,0c-0.1-0.1-0.1-0.2-0.2-0.3c0,0,0,0,0,0c0,0,0.1,0,0.1,0c0.1,0,0.1,0,0.2,0c0.1,0,0.2-0.1,0.2-0.2
		C18,21.2,18,21.1,18,21.1z M18.3,19.7c-0.1,0-0.2-0.1-0.2-0.1c0,0,0,0,0,0c0-0.1,0-0.1,0-0.2c0-0.1,0.1-0.1,0.1-0.2
		c0,0,0,0.1,0.1,0.1c0,0.1,0.1,0.1,0.1,0.2c0,0,0,0,0,0C18.3,19.6,18.3,19.7,18.3,19.7C18.3,19.8,18.3,19.7,18.3,19.7z M18.8,18.7
		c0,0,0-0.1,0-0.1c0.1,0.1,0.1,0.2,0,0.3c0,0,0,0,0.1,0c0,0.1-0.1,0.2-0.1,0.2c0,0,0,0,0-0.1c0-0.1,0-0.1,0-0.2c0,0,0,0,0-0.1
		C18.7,18.8,18.7,18.8,18.8,18.7c0,0,0,0.1,0,0.1c0,0,0,0,0,0C18.8,18.8,18.8,18.8,18.8,18.7z M18.8,19.7
		C18.7,19.8,18.7,19.8,18.8,19.7c-0.1,0-0.1,0-0.1,0c0,0,0,0,0,0c0-0.1,0.1-0.1,0.1-0.2C18.8,19.6,18.8,19.7,18.8,19.7z M18.6,19.6
		c-0.1-0.1-0.1-0.3,0-0.4c0,0.1,0,0.1,0.1,0.2C18.7,19.5,18.6,19.6,18.6,19.6z M18.5,19.2C18.4,19.2,18.4,19.2,18.5,19.2
		c-0.1-0.1-0.1-0.1-0.1-0.2c0,0,0,0,0-0.1c0,0,0.1,0,0.1,0C18.5,19.1,18.5,19.2,18.5,19.2z M18.5,19.9c0,0-0.1,0-0.1-0.1
		c0,0,0,0,0,0c0,0,0-0.1,0-0.1C18.4,19.7,18.5,19.8,18.5,19.9z M18.8,20.7C18.8,20.7,18.8,20.7,18.8,20.7c0.1,0.1,0.2,0.1,0.3,0.2
		c0,0,0,0,0,0c-0.1,0.2-0.2,0.3-0.3,0.5c-0.1,0.3-0.3,0.5-0.4,0.8c0,0,0,0.1,0,0.1c-0.1-0.1-0.2-0.1-0.3-0.2
		C18.3,21.6,18.6,21.1,18.8,20.7z M19,18.6c0,0-0.1-0.1,0-0.1C19.1,18.5,19.1,18.6,19,18.6z M19.2,18.5
		C19.2,18.6,19.2,18.6,19.2,18.5c0,0.2-0.1,0.2-0.1,0.2C19.1,18.7,19.1,18.6,19.2,18.5z M19.9,18.9c0-0.1,0.1-0.1,0.1-0.2
		C20,18.8,19.9,18.9,19.9,18.9z M22.6,18c0,0,0-0.1,0-0.1c0-0.1,0.2-0.1,0.2-0.1c0,0,0,0.1,0,0.1c0,0.1,0,0.2-0.1,0.4
		c0,0.1-0.1,0.1-0.1,0.1c-0.1,0-0.2,0.1-0.3,0.1c-0.1,0-0.1,0-0.1-0.1c0-0.1,0-0.1,0-0.2c0,0,0.1,0,0.1,0c0,0,0.1,0,0.1,0
		c0.1,0,0.1,0,0.1-0.1C22.6,18.1,22.6,18.1,22.6,18z M23.2,19.2C23.2,19.2,23.2,19.2,23.2,19.2c-0.2,0.1-0.3,0.1-0.4,0.1
		c0,0-0.1,0-0.1-0.1c0-0.1,0-0.1,0-0.2c0,0,0,0,0-0.1c0-0.1,0-0.1,0.1-0.1c0.1,0,0.1,0,0.1-0.1c0,0,0-0.1,0-0.1c0-0.1,0-0.1,0.1-0.1
		c0,0,0.1,0,0.1,0c0,0,0,0.1,0,0.1c0,0,0,0.1,0,0.1c0,0.1,0,0.2,0.1,0.3c0,0,0,0.1,0,0.1C23.3,19.1,23.3,19.1,23.2,19.2z M23.4,19.5
		c0,0.1,0,0.1,0,0.1c0,0,0,0,0,0c0,0-0.1,0-0.1,0c0,0,0,0,0,0c-0.1,0-0.1-0.1-0.2-0.1c0,0,0,0,0-0.1c0-0.1,0-0.1,0-0.1
		c0,0,0.1,0,0.1,0C23.3,19.4,23.4,19.4,23.4,19.5z M17.7,19.1C17.7,19.1,17.8,19.1,17.7,19.1c0.1,0,0.1,0,0.1,0c0,0,0.1,0,0.1,0
		c0,0.1-0.1,0.3-0.1,0.4c0,0,0,0,0,0c-0.1,0-0.2-0.1-0.2-0.1c0,0,0,0,0,0C17.7,19.3,17.7,19.2,17.7,19.1z M17.5,19.3
		c-0.1,0-0.1-0.1-0.1-0.1c0-0.1,0-0.1,0-0.2c0,0,0.1,0,0.1,0c0,0,0,0,0.1,0c0,0,0,0,0,0C17.6,19.1,17.6,19.2,17.5,19.3z M17.3,19.2
		c-0.1,0-0.1-0.1-0.2-0.1c0,0,0.1-0.1,0.1-0.1c0,0,0,0,0,0c0,0,0,0,0,0C17.3,19.1,17.3,19.2,17.3,19.2z M14.5,19.9
		c0,0-0.1,0.1-0.1,0.1c-0.1,0.1-0.2,0.1-0.3,0c-0.1-0.1-0.3-0.1-0.4-0.2c0,0,0,0,0,0c0-0.1,0.1-0.2,0.1-0.3c0,0,0,0,0-0.1
		c0,0,0.1,0.1,0.1,0.1c0,0,0.1,0,0.1,0.1c0,0,0.1,0,0.1,0c0,0,0.1-0.1,0.1-0.1c0.1-0.1,0.1-0.3,0.2-0.4c0.1-0.2,0.2-0.4,0.3-0.5
		c0-0.1,0.1-0.2,0.1-0.3c0.1,0.1,0.3,0.2,0.4,0.3c-0.1,0.1-0.1,0.2-0.1,0.2c0,0-0.1,0.1-0.1,0.1c-0.1,0.2-0.3,0.5-0.4,0.7
		C14.6,19.8,14.6,19.9,14.5,19.9z M15.4,20.6c-0.1,0-0.2-0.1-0.3-0.1c0,0,0,0,0,0c0,0,0-0.1,0-0.1c0,0-0.1,0-0.1,0
		c-0.1,0-0.1,0-0.2-0.1c-0.1-0.1-0.1-0.2-0.2-0.3c0,0,0,0,0-0.1c0,0,0-0.1,0-0.1c0.1-0.2,0.2-0.4,0.3-0.5c0-0.1,0.1-0.2,0.1-0.3
		c0-0.1,0.1-0.2,0.1-0.3c0.1,0.1,0.2,0.1,0.3,0.2c0,0.1,0,0.1-0.1,0.2c-0.1,0.1-0.1,0.3-0.2,0.4c-0.1,0.1-0.1,0.2-0.2,0.4
		c0,0.1,0,0.1,0,0.1c0,0,0.1,0.1,0.1,0.1c0,0,0,0,0.1,0c0-0.1,0.1-0.2,0.1-0.2c0.1-0.2,0.2-0.3,0.3-0.5c0.1-0.1,0.1-0.2,0.2-0.3
		c0,0,0,0,0,0c0,0,0.1,0,0.1,0.1c0.1,0,0.1,0.1,0.2,0.1c0,0,0,0,0,0c-0.1,0.2-0.2,0.3-0.3,0.5c-0.1,0.2-0.2,0.3-0.3,0.5
		C15.5,20.3,15.5,20.4,15.4,20.6C15.4,20.6,15.4,20.6,15.4,20.6z M15.9,20.5c-0.1,0.1-0.1,0.2-0.2,0.3c0,0,0,0,0,0
		c-0.1,0-0.1-0.1-0.2-0.1c0,0-0.1,0-0.1,0c0,0,0,0,0,0c0.1-0.1,0.2-0.3,0.2-0.4c0.1-0.3,0.3-0.5,0.4-0.8c0,0,0-0.1,0.1-0.1
		c0,0,0,0,0,0c0.1,0.1,0.2,0.1,0.3,0.2c0.1,0,0.1,0.1,0.1,0.2c0,0.1,0.1,0.3,0,0.4c0,0.2-0.1,0.2-0.3,0.3c0,0-0.1,0-0.1,0
		c0,0,0,0,0,0c0,0.1,0,0.2-0.1,0.3c0,0,0,0,0,0c0,0,0,0,0,0c0.3-0.3,0.6-0.7,0.9-1c0,0,0,0,0,0c0.1,0.1,0.2,0.1,0.4,0.2
		c0,0,0,0,0,0.1c-0.1,0.3-0.2,0.6-0.3,1c0,0.1,0,0.1-0.1,0.2c0,0,0,0,0,0c0.2,0,0.4-0.1,0.3-0.3c0-0.1,0-0.2,0-0.3
		c0-0.1,0-0.2,0.2-0.3c0.1-0.1,0.2-0.1,0.3-0.1c0,0,0,0,0.1,0c0.1,0.1,0.1,0.2,0.2,0.3c-0.1,0-0.1,0-0.1,0c0,0-0.1,0-0.1,0
		c-0.1,0-0.1,0.1-0.1,0.2c0,0.1,0,0.1,0,0.2c0,0,0,0.1,0,0.1c0,0.1,0,0.2-0.1,0.3c-0.1,0.1-0.3,0.1-0.4,0.2c0,0,0,0,0,0c0,0,0,0,0,0
		c0-0.1-0.1-0.1-0.1-0.2c0,0,0,0.1,0,0.1c0,0,0,0,0,0c-0.1,0-0.2-0.1-0.3-0.1c0,0,0,0,0,0c0-0.1,0.1-0.2,0.1-0.2c0,0,0-0.1,0-0.1
		c-0.1,0-0.1-0.1-0.2-0.1c0,0,0,0-0.1,0c0,0.1-0.1,0.1-0.1,0.2c0,0,0,0-0.1,0c-0.1,0-0.2-0.1-0.2-0.1c0,0,0,0,0,0
		c-0.1,0-0.1,0-0.2,0C16,20.8,16,20.6,15.9,20.5C15.9,20.4,15.9,20.4,15.9,20.5z M16.5,22.7C16.5,22.6,16.5,22.6,16.5,22.7
		C16.6,22.6,16.6,22.6,16.5,22.7z M16.7,22.8C16.6,22.8,16.6,22.8,16.7,22.8C16.7,22.7,16.7,22.7,16.7,22.8
		C16.7,22.7,16.7,22.8,16.7,22.8z M16.6,22.6C16.6,22.6,16.6,22.6,16.6,22.6c0,0,0.1,0,0.1,0c0,0,0,0,0,0
		C16.7,22.6,16.7,22.6,16.6,22.6z M16.8,22.9C16.8,22.9,16.7,22.9,16.8,22.9C16.7,22.9,16.7,22.9,16.8,22.9
		C16.8,22.8,16.8,22.8,16.8,22.9c0-0.1,0-0.1,0-0.1c0,0,0,0,0,0c0,0,0,0,0,0c0,0,0,0,0,0C16.8,22.9,16.8,22.9,16.8,22.9z M17.3,23.2
		C17.3,23.2,17.3,23.2,17.3,23.2c-0.1-0.1-0.1-0.1-0.1-0.1c0,0,0,0,0-0.1c0,0,0,0,0,0c0,0,0,0,0,0c-0.1,0-0.1,0-0.1-0.1
		c0,0,0-0.1,0-0.1c0,0,0,0,0.1,0c0,0,0,0,0,0.1c0,0,0,0,0,0c0,0,0.1,0,0.1-0.1c0,0,0,0,0,0c0,0.1,0,0.1,0,0.1c0,0,0,0,0,0.1
		c0,0,0,0,0.1,0c0,0,0,0,0.1,0c0,0,0,0-0.1,0.1C17.3,23,17.4,23.1,17.3,23.2C17.4,23.1,17.3,23.2,17.3,23.2z M17.1,22.7
		C17.1,22.7,17.1,22.7,17.1,22.7C17.2,22.7,17.2,22.7,17.1,22.7C17.1,22.7,17.1,22.7,17.1,22.7z M17.4,22.8
		C17.4,22.8,17.4,22.8,17.4,22.8C17.4,22.8,17.4,22.8,17.4,22.8C17.4,22.8,17.4,22.8,17.4,22.8C17.4,22.9,17.4,22.8,17.4,22.8
		C17.3,22.8,17.3,22.8,17.4,22.8z M17.4,23.3C17.4,23.2,17.4,23.2,17.4,23.3C17.4,23.2,17.4,23.2,17.4,23.3
		C17.4,23.2,17.4,23.2,17.4,23.3C17.5,23.2,17.5,23.2,17.4,23.3C17.5,23.2,17.4,23.3,17.4,23.3z M17.7,23.2
		C17.7,23.2,17.7,23.2,17.7,23.2C17.7,23.2,17.7,23.2,17.7,23.2C17.7,23.2,17.7,23.2,17.7,23.2C17.7,23.2,17.7,23.2,17.7,23.2z
		 M17.7,23.2C17.7,23.2,17.7,23.2,17.7,23.2C17.8,23.2,17.8,23.2,17.7,23.2C17.8,23.1,17.8,23.1,17.7,23.2
		C17.8,23.2,17.9,23.2,17.7,23.2C17.8,23.2,17.8,23.2,17.7,23.2C17.8,23.2,17.8,23.2,17.7,23.2z M17.9,23.4
		C17.9,23.4,17.9,23.4,17.9,23.4C17.8,23.4,17.8,23.4,17.9,23.4C17.8,23.3,17.8,23.3,17.9,23.4C17.9,23.3,17.9,23.3,17.9,23.4
		C17.9,23.3,17.9,23.4,17.9,23.4z M18,23.6C18,23.6,18,23.5,18,23.6C18.1,23.5,18.1,23.5,18,23.6C18.1,23.6,18,23.6,18,23.6z
		 M18.2,23.5C18.2,23.5,18.1,23.5,18.2,23.5C18.1,23.5,18.1,23.5,18.2,23.5C18.1,23.4,18.1,23.4,18.2,23.5
		C18.1,23.4,18.2,23.4,18.2,23.5C18.2,23.5,18.2,23.5,18.2,23.5z M18.3,23.6C18.3,23.6,18.3,23.6,18.3,23.6
		C18.3,23.6,18.3,23.6,18.3,23.6C18.3,23.6,18.3,23.6,18.3,23.6C18.3,23.6,18.3,23.6,18.3,23.6C18.3,23.6,18.3,23.6,18.3,23.6z
		 M18.4,23.6C18.3,23.6,18.3,23.5,18.4,23.6C18.3,23.5,18.4,23.5,18.4,23.6C18.4,23.5,18.4,23.5,18.4,23.6
		C18.4,23.5,18.4,23.6,18.4,23.6z M18.7,23.7C18.6,23.7,18.7,23.7,18.7,23.7C18.7,23.7,18.7,23.7,18.7,23.7
		C18.7,23.8,18.7,23.8,18.7,23.7z M18.7,24.1C18.7,24,18.7,24,18.7,24.1C18.7,24,18.8,24,18.7,24.1C18.8,24,18.8,24,18.7,24.1
		c0-0.1,0-0.1,0-0.1c0,0,0,0,0,0c0,0,0.1,0,0,0.1C18.8,24,18.8,24,18.7,24.1C18.8,24,18.8,24,18.7,24.1z M18.9,24.2
		C18.9,24.2,18.9,24.2,18.9,24.2C18.9,24.2,18.9,24.1,18.9,24.2C18.8,24.1,18.8,24.1,18.9,24.2c-0.1-0.1,0-0.1,0-0.1
		C18.9,24.1,18.9,24.1,18.9,24.2C18.9,24.1,18.9,24.1,18.9,24.2z M18.9,23.9c0,0-0.1-0.1,0-0.1C18.9,23.8,18.9,23.8,18.9,23.9
		c0-0.1,0-0.1,0-0.1C18.9,23.8,18.9,23.8,18.9,23.9C18.9,23.9,18.9,23.9,18.9,23.9z M19,24.2C19,24.2,19,24.1,19,24.2
		C19,24.1,19,24.1,19,24.1c0,0,0,0,0,0c0,0,0,0,0,0c0,0,0,0,0,0c0,0,0,0,0,0c0,0,0,0,0,0C19.1,24.1,19.1,24.1,19,24.2
		C19.1,24.1,19.1,24.1,19,24.2C19.1,24.2,19.1,24.2,19,24.2z M19.1,24C19.1,24,19.1,24,19.1,24C19.1,24,19.1,24,19.1,24
		C19.1,24,19.1,24,19.1,24C19.1,24,19.1,24,19.1,24z M19.6,24.3C19.6,24.3,19.5,24.3,19.6,24.3C19.5,24.3,19.5,24.2,19.6,24.3
		C19.5,24.2,19.5,24.2,19.6,24.3C19.6,24.2,19.6,24.2,19.6,24.3C19.6,24.3,19.6,24.3,19.6,24.3z M19.7,24C19.7,24,19.7,24,19.7,24
		C19.7,23.9,19.7,23.9,19.7,24C19.7,23.9,19.7,23.9,19.7,24C19.7,23.9,19.7,24,19.7,24z M21.3,24.6c-0.3,0.1-0.5,0.1-0.8,0.1
		c0,0-0.1,0-0.1,0c0,0,0,0-0.1,0c0,0,0,0,0,0c0,0,0,0,0,0c0,0,0,0,0,0c0,0,0,0,0.1,0c0-0.1-0.1-0.1-0.2-0.1c0,0,0-0.1,0-0.1
		c0,0-0.1,0-0.1,0c0,0-0.1,0-0.1,0.1c0,0,0,0,0,0c0,0,0,0,0,0c0,0,0,0,0,0c0,0,0,0,0.1-0.1c0,0,0,0-0.1,0c0,0,0,0,0-0.1
		c0,0-0.1,0.1-0.1,0.1c0,0,0,0,0,0c0,0-0.1,0-0.1,0c0,0,0-0.1,0-0.1c0,0,0.1,0,0.1,0c0,0,0.1,0,0.1-0.1c0,0,0,0,0,0
		c0,0-0.1-0.1-0.1-0.1c0,0,0,0,0,0c0,0,0.1,0,0.1,0.1c0-0.1,0-0.1-0.1-0.1c0,0,0,0-0.1,0c0,0,0,0,0,0c0,0,0,0,0,0c0,0,0,0,0,0
		c0,0,0,0,0.1,0c0,0,0,0,0,0c0,0,0,0,0,0c0,0-0.1-0.1-0.1-0.1c0,0-0.1,0-0.1,0c0,0,0,0-0.1,0.1c0,0,0,0,0,0c0,0,0,0,0,0
		c0,0.1-0.1,0.1-0.1,0.2c0,0,0,0,0,0c0,0-0.1,0-0.1,0c0,0,0,0,0,0c0,0,0,0,0.1,0c0,0,0,0,0,0c0,0,0,0,0,0c0,0,0,0,0,0
		c0,0-0.1,0-0.1,0c0,0,0,0,0,0c0,0,0,0,0,0c0,0,0-0.1,0-0.1c0,0,0,0,0,0c0,0,0,0,0,0c0,0,0,0,0.1,0c0,0,0,0,0.1,0c0,0,0,0,0,0
		c0-0.1-0.1-0.1-0.1-0.2c0,0,0,0,0,0c0,0,0.1,0.1,0.1,0c0,0,0,0-0.1-0.1c0,0,0,0,0,0c0,0,0,0,0-0.1c0,0,0,0,0,0c0,0,0,0-0.1,0
		c0,0,0,0,0,0c0,0,0,0,0-0.1c0,0-0.1,0-0.1,0c0,0-0.1,0-0.1,0c-0.1,0-0.1,0.1-0.2,0.1c0,0-0.1,0-0.1,0.1c0,0,0-0.1,0.1-0.1
		c0,0-0.1,0-0.1,0c0,0,0,0,0,0c0,0,0.1,0,0.1-0.1c0,0,0,0-0.1,0c-0.1,0-0.1,0-0.2,0c0,0,0,0,0,0c0,0,0,0,0-0.1c-0.1,0-0.1,0-0.1,0
		c0,0,0.1,0,0.1-0.1c0,0-0.1,0-0.1,0c0,0,0.1-0.1,0.1-0.1c0,0,0,0,0,0c0,0,0,0,0,0c0,0-0.1,0-0.1,0c0,0-0.1,0-0.1,0c0,0,0-0.1,0-0.1
		c-0.1,0-0.1,0,0-0.1c-0.1,0-0.1,0-0.1,0.1c0,0,0,0,0,0c0,0-0.1,0-0.1,0c0,0,0,0,0-0.1c0,0,0-0.1,0-0.1c0,0,0,0,0,0c0,0,0,0,0,0
		c0,0,0,0,0,0c0,0,0,0.1,0,0.1c0,0,0,0,0,0c0,0,0,0,0,0.1c0,0,0,0,0,0c0,0-0.1,0-0.1,0c0,0,0-0.1-0.1-0.1c0,0,0,0,0,0c0,0,0,0,0,0
		c0,0,0.1,0,0.1,0c0,0,0,0-0.1,0c0,0,0,0,0.1,0c0,0-0.1-0.1-0.1-0.1c0,0,0,0,0,0c0,0,0,0-0.1,0c-0.1,0-0.1,0-0.1,0c0,0-0.1,0-0.1,0
		c0,0,0,0,0,0c0,0,0,0,0-0.1c0,0,0,0,0.1,0c-0.1,0-0.1-0.1-0.1-0.1c0,0,0.1,0,0.1,0c0,0,0,0-0.1,0c0,0,0,0,0,0c0,0,0,0-0.1,0
		c0,0-0.1,0-0.1,0c0,0,0,0,0.1-0.1c0,0,0,0-0.1,0c0,0,0,0-0.1,0c0,0-0.1,0-0.1,0c0,0,0,0,0,0.1c-0.1,0-0.1,0.1-0.1,0.2
		c0,0,0.1-0.1,0.1-0.1c0,0,0,0,0,0c0,0,0,0,0,0.1c0,0,0,0,0,0.1c0,0,0,0.1-0.1,0.1c0,0,0,0,0,0c0,0,0,0,0-0.1c0,0,0,0,0,0
		c0,0-0.1-0.1-0.1-0.1c0,0,0,0,0-0.1c0,0,0,0,0-0.1c-0.1,0-0.1,0-0.2,0c0,0,0,0,0,0c0.1,0,0.1-0.1,0.2-0.1c-0.1,0-0.2,0-0.2,0
		c0,0,0-0.1,0-0.1c0,0-0.1,0-0.1,0c0,0,0,0,0,0c0,0-0.1,0.1-0.1,0.1c-0.1-0.2-0.2-0.5-0.3-0.7C17.8,22.6,19.5,23.6,21.3,24.6
		C21.3,24.6,21.3,24.6,21.3,24.6z M21.4,23.9c-0.2,0-0.4-0.2-0.4-0.4c0-0.2,0-0.3,0.1-0.4c0.1-0.2,0.2-0.4,0.3-0.5
		c0.1-0.1,0.2-0.2,0.3-0.2c0.1,0,0.2,0,0.3,0c0.2,0.1,0.3,0.2,0.3,0.4c0,0.2,0,0.3-0.1,0.4c0,0.1,0,0.1-0.1,0.1
		c-0.1,0.1-0.2,0.3-0.3,0.4C21.7,23.8,21.5,23.9,21.4,23.9z M22.2,24c-0.1,0.1-0.1,0.2-0.2,0.3c0,0,0,0,0,0c-0.1,0-0.1-0.1-0.2-0.1
		c0,0,0,0,0,0c0.1-0.2,0.3-0.5,0.4-0.7c0.1-0.2,0.2-0.4,0.3-0.5c0,0,0,0,0-0.1c0,0,0,0,0,0c0.1,0.1,0.2,0.1,0.3,0.2
		c0.1,0,0.1,0.1,0.1,0.1c0,0.1,0.1,0.2,0.1,0.4c0,0.2-0.1,0.3-0.2,0.3c-0.1,0-0.1,0-0.2,0.1c0,0,0,0,0,0c0,0.1-0.1,0.2-0.1,0.3
		c0,0.1,0,0.2,0,0.3c-0.1,0-0.2,0-0.3,0C22.2,24.2,22.2,24.1,22.2,24C22.2,23.9,22.2,23.9,22.2,24z M23.3,25
		c-0.2-0.2-0.5-0.3-0.8-0.4c0-0.1,0.1-0.1,0.1-0.2c0.1-0.1,0.1-0.2,0.2-0.3c0.1-0.1,0.1-0.2,0.2-0.3c0.1-0.1,0.1-0.3,0.2-0.4
		c0,0,0-0.1,0.1-0.1c0,0,0,0,0,0c0.1,0.1,0.2,0.1,0.3,0.2c0,0,0,0,0,0c-0.1,0.1-0.1,0.2-0.2,0.3c-0.1,0.2-0.3,0.5-0.4,0.7
		c0,0,0,0,0,0.1c0.1,0.1,0.2,0.1,0.3,0.2c0,0,0.1,0,0.1,0c0,0,0,0,0,0c0,0.1-0.1,0.1-0.1,0.2C23.3,24.9,23.3,24.9,23.3,25z
		 M24.7,24.5c0,0.2-0.1,0.3-0.3,0.5c-0.2,0.2-0.5,0.2-0.7,0.2c-0.1,0-0.2-0.1-0.3-0.1c0,0,0,0,0,0c0,0,0,0,0-0.1c0,0,0,0,0,0
		c0.1-0.2,0.2-0.4,0.3-0.6c0.1-0.1,0.1-0.3,0.2-0.4c0.1-0.1,0.1-0.2,0.2-0.3c0,0,0,0,0-0.1c0,0,0,0,0,0c0.1,0.1,0.2,0.1,0.3,0.2
		C24.6,24,24.8,24.2,24.7,24.5z"/>
	<path id="XMLID_177_" d="M22.2,20.9c0.1,0,0.1-0.1,0.2-0.2c-0.1,0.1-0.2,0.1-0.3,0.2C22.1,20.9,22.2,20.9,22.2,20.9z"/>
	<path id="XMLID_178_" d="M23.4,20.4C23.4,20.4,23.4,20.4,23.4,20.4C23.4,20.4,23.3,20.4,23.4,20.4c-0.1,0-0.1,0-0.2,0
		c0,0-0.1,0.1-0.1,0.1C23.2,20.5,23.3,20.5,23.4,20.4C23.4,20.4,23.4,20.4,23.4,20.4z"/>
	<path id="XMLID_179_" d="M22,20.7c0.1,0,0.3-0.1,0.3-0.2c0,0-0.1,0-0.1,0.1C22.2,20.5,22.1,20.6,22,20.7C22.1,20.6,22,20.6,22,20.7
		z"/>
	<path id="XMLID_180_" d="M22.9,19.9C22.9,19.9,22.8,19.9,22.9,19.9c-0.1-0.1-0.1-0.1-0.1,0c0,0-0.1,0.1-0.1,0.1c0,0-0.1,0-0.1,0
		C22.7,20.1,22.8,20,22.9,19.9C22.9,19.9,22.9,19.9,22.9,19.9z"/>
	<path id="XMLID_181_" d="M23.2,20.2c-0.1,0.1-0.2,0.1-0.2,0.2c0.1,0,0.2-0.1,0.2-0.1C23.2,20.3,23.2,20.3,23.2,20.2z"/>
	<path id="XMLID_182_" d="M22.9,20c-0.1,0-0.1,0.1-0.2,0.1c0,0,0,0,0,0c0.1,0,0.2,0,0.3-0.1C22.9,20,22.9,20,22.9,20z"/>
	<path id="XMLID_183_" d="M22.7,19.8c-0.1,0.1-0.2,0.1-0.2,0.2c0,0,0,0,0,0C22.6,19.9,22.7,19.9,22.7,19.8
		C22.7,19.8,22.7,19.8,22.7,19.8z"/>
	<path id="XMLID_184_" d="M22,20.4c0,0-0.1,0-0.1,0c0,0,0,0,0,0.1C21.9,20.5,22,20.5,22,20.4C22,20.4,22,20.4,22,20.4z"/>
	<path id="XMLID_185_" d="M22.1,20.5C22.1,20.5,22,20.5,22.1,20.5c-0.1,0.1-0.1,0.1-0.2,0.1c0,0,0,0,0,0.1
		C22,20.6,22.1,20.6,22.1,20.5z"/>
	<path id="XMLID_186_" d="M23,20.1C23,20.1,23,20.1,23,20.1c-0.1,0.1-0.1,0.1-0.1,0.1c0,0,0.2,0,0.2-0.1C23.1,20.1,23,20.1,23,20.1z
		"/>
	<path id="XMLID_187_" d="M22,20.3C22,20.3,22,20.3,22,20.3C21.9,20.3,21.9,20.3,22,20.3c-0.1,0-0.1,0-0.2,0c0,0,0,0,0,0.1
		C21.8,20.4,21.8,20.4,22,20.3C21.9,20.3,21.9,20.3,22,20.3z"/>
	<path id="XMLID_188_" d="M21.8,20C21.8,20,21.8,20,21.8,20c-0.1,0-0.1,0-0.1,0.1c0.1,0,0.2,0,0.2-0.1C21.9,20,21.9,20,21.8,20z"/>
	<path id="XMLID_189_" d="M23.4,20.7c0,0,0.1,0,0.1,0c0,0,0.1,0,0.1-0.1C23.5,20.6,23.5,20.7,23.4,20.7
		C23.4,20.7,23.4,20.7,23.4,20.7z"/>
	<path id="XMLID_190_" d="M23.5,20.5c0,0-0.1,0-0.1,0s-0.1,0.1-0.1,0.1C23.4,20.6,23.5,20.5,23.5,20.5z"/>
	<path id="XMLID_191_" d="M22.1,20.7C22.1,20.7,22.1,20.7,22.1,20.7c-0.1,0-0.1,0-0.2,0c0,0,0,0,0.1,0.1
		C22.1,20.8,22.1,20.8,22.1,20.7C22.1,20.7,22.1,20.7,22.1,20.7z"/>
	<path id="XMLID_192_" d="M22.4,20.9C22.3,20.9,22.3,20.9,22.4,20.9c-0.1,0-0.1,0.1-0.1,0.1c0,0,0,0,0,0.1
		C22.3,21,22.3,20.9,22.4,20.9z"/>
	<path id="XMLID_193_" d="M22.2,21.1c0.1,0,0.1-0.1,0.2-0.1C22.3,21,22.3,21,22.2,21.1C22.2,21.1,22.2,21.1,22.2,21.1z"/>
	<path id="XMLID_194_" d="M22.6,19.7C22.6,19.7,22.6,19.7,22.6,19.7c-0.1,0.1-0.1,0.1-0.2,0.1C22.6,19.8,22.6,19.8,22.6,19.7
		C22.7,19.7,22.6,19.7,22.6,19.7z"/>
	<path id="XMLID_195_" d="M23.3,20.3C23.3,20.3,23.3,20.3,23.3,20.3c-0.1,0-0.1,0.1-0.2,0.1C23.1,20.4,23.2,20.4,23.3,20.3
		C23.3,20.4,23.3,20.3,23.3,20.3z"/>
	<path id="XMLID_196_" d="M23.1,20.2c-0.1,0-0.1,0.1-0.2,0.1C23,20.3,23.1,20.3,23.1,20.2z"/>
	<path id="XMLID_197_" d="M21.8,20.2c0.1,0,0.1,0,0.2-0.1C21.9,20.1,21.8,20.1,21.8,20.2z"/>
	<path id="XMLID_198_" d="M23.4,20.6c0,0,0.1,0,0.1,0c0,0,0,0,0,0C23.5,20.6,23.4,20.6,23.4,20.6z"/>
	<path id="XMLID_199_" d="M21.7,19.9C21.8,19.9,21.8,19.9,21.7,19.9C21.8,19.9,21.8,19.9,21.7,19.9C21.8,19.9,21.7,19.9,21.7,19.9
		C21.7,19.9,21.7,19.9,21.7,19.9C21.7,19.9,21.7,19.9,21.7,19.9C21.7,19.9,21.7,19.9,21.7,19.9z"/>
	<path id="XMLID_200_" d="M22.6,19.6c-0.1,0-0.1,0.1-0.1,0.1C22.5,19.7,22.6,19.7,22.6,19.6z"/>
	<path id="XMLID_201_" d="M21.8,19.7C21.8,19.7,21.7,19.7,21.8,19.7c-0.1,0-0.1,0-0.1,0C21.7,19.8,21.7,19.8,21.8,19.7
		C21.7,19.8,21.8,19.8,21.8,19.7z"/>
	<path id="XMLID_202_" d="M22.6,19.5C22.5,19.5,22.5,19.6,22.6,19.5C22.5,19.6,22.6,19.6,22.6,19.5z"/>
	<path id="XMLID_203_" d="M20.5,22.1C20.5,22.1,20.5,22.2,20.5,22.1c0,0.2-0.1,0.4-0.1,0.5c0,0.2-0.1,0.4-0.1,0.5c0,0,0,0,0,0.1
		c0,0,0,0,0,0c0.1-0.1,0.1-0.1,0.2-0.2c0.3-0.3,0.5-0.6,0.8-0.8c0,0,0.1-0.1,0.1-0.1c0,0,0,0,0,0c0,0,0,0,0,0c0,0,0,0,0,0
		c-0.3,0.3-0.5,0.6-0.8,0.9c0,0-0.1,0.1-0.1,0.1c0,0,0,0,0,0c0,0,0,0,0,0c0-0.1,0.1-0.2,0.1-0.4C20.5,22.5,20.5,22.3,20.5,22.1
		C20.6,22.1,20.6,22.1,20.5,22.1C20.6,22.1,20.6,22.1,20.5,22.1C20.6,22.1,20.6,22.1,20.5,22.1C20.5,22.1,20.5,22.1,20.5,22.1
		c-0.3,0.2-0.5,0.5-0.7,0.7c0,0,0,0,0,0c0-0.1,0-0.2,0.1-0.3c0.1-0.2,0.1-0.5,0.2-0.7c0-0.1,0.1-0.3,0.1-0.4c0,0,0,0,0-0.1
		c0,0,0,0,0,0c0,0,0,0,0,0c-0.1,0.4-0.2,0.8-0.4,1.2c0,0.1,0,0.1-0.1,0.2c0,0,0,0,0,0c0,0,0,0,0,0c0,0,0,0,0.1-0.1
		C20.1,22.6,20.3,22.4,20.5,22.1C20.5,22.1,20.5,22.1,20.5,22.1z"/>
	<path id="XMLID_206_" d="M16.3,21c0.1-0.1,0.2-0.2,0.2-0.3c0,0,0,0,0,0c0.1,0.1,0.3,0.2,0.4,0.2c0,0,0,0,0,0c0,0,0,0.1,0,0.1
		c0,0.1-0.1,0.2-0.1,0.3c0,0,0,0,0,0c0,0,0,0,0,0c0,0,0,0,0,0c0.1-0.1,0.1-0.3,0.2-0.4c0.1-0.3,0.2-0.6,0.3-0.8c0,0,0,0,0-0.1
		c0,0-0.1,0-0.1-0.1c0,0,0,0-0.1,0c0,0,0,0,0,0.1C16.9,20.3,16.6,20.6,16.3,21C16.4,20.9,16.3,20.9,16.3,21
		C16.3,20.9,16.3,21,16.3,21C16.3,21,16.3,21,16.3,21C16.3,21,16.3,21,16.3,21z M17.2,20c0,0,0,0,0.1,0c0,0,0,0,0.1,0c0,0,0,0,0,0
		c-0.1,0.2-0.1,0.4-0.2,0.6c0,0.1-0.1,0.2-0.1,0.2c0,0,0,0,0,0c0,0,0,0,0,0c-0.1-0.1-0.3-0.1-0.4-0.2c0,0,0,0,0-0.1
		C16.8,20.4,17,20.2,17.2,20z"/>
	<path id="XMLID_209_" d="M16.2,20.3c0,0.1,0,0.2-0.1,0.4c0,0,0,0.1,0,0.1c0,0,0,0,0,0c0,0,0,0,0,0c0,0,0,0,0,0
		C16.1,20.6,16.2,20.5,16.2,20.3C16.2,20.3,16.2,20.3,16.2,20.3c0.1,0,0.1-0.1,0.2-0.1c0.2-0.1,0.3-0.3,0.3-0.5
		c0-0.2-0.1-0.3-0.3-0.4c0,0,0,0-0.1,0c-0.1,0.3-0.3,0.5-0.4,0.8c-0.1,0.1-0.1,0.2-0.2,0.4c0,0,0,0,0,0c0,0,0,0,0,0
		c0.1-0.1,0.1-0.2,0.2-0.3c0,0,0,0,0-0.1C16,20.3,16.1,20.3,16.2,20.3C16.2,20.3,16.2,20.3,16.2,20.3z M15.9,20.2
		C15.9,20.2,15.9,20.2,15.9,20.2c0-0.1,0-0.1,0.1-0.2c0.1-0.2,0.2-0.4,0.3-0.6c0,0,0,0,0,0c0,0,0.1,0,0.1,0.1
		c0.2,0.1,0.2,0.4,0.1,0.6c-0.1,0.1-0.1,0.1-0.2,0.1C16.2,20.3,16,20.3,15.9,20.2z"/>
	<path id="XMLID_210_" d="M17.3,21.4c0.1,0,0.1-0.1,0.2-0.1c0,0,0,0,0.1-0.1c0.1-0.1,0.1-0.2,0.1-0.3c0-0.1,0-0.1,0-0.2
		c0-0.1,0-0.2,0.1-0.3c0.1,0,0.1-0.1,0.2-0.1c0,0,0,0,0,0c0,0,0,0,0,0c0,0-0.1,0-0.1,0.1c-0.1,0.1-0.2,0.2-0.2,0.3
		c0,0.1,0,0.1,0,0.2c0,0.1,0,0.2-0.1,0.3C17.4,21.3,17.4,21.3,17.3,21.4C17.3,21.4,17.3,21.4,17.3,21.4
		C17.3,21.4,17.3,21.4,17.3,21.4C17.3,21.4,17.3,21.4,17.3,21.4C17.3,21.4,17.3,21.4,17.3,21.4z"/>
	<path id="XMLID_211_" d="M15.9,19.3C15.9,19.3,16,19.3,15.9,19.3C16,19.2,16,19.2,15.9,19.3C16,19.2,15.9,19.2,15.9,19.3
		C15.9,19.2,15.9,19.2,15.9,19.3c-0.1,0.1-0.2,0.3-0.3,0.4c-0.1,0.1-0.1,0.3-0.2,0.4c0,0,0,0,0,0c-0.1,0-0.2,0-0.3,0
		c0,0-0.1,0-0.1,0c0-0.1-0.1-0.1-0.1-0.2c0,0,0,0,0-0.1c0.2-0.3,0.3-0.6,0.5-1c0,0,0,0,0,0c0,0,0,0,0,0c-0.1,0.2-0.2,0.5-0.4,0.7
		c-0.1,0.1-0.1,0.2-0.2,0.3c0,0,0,0,0,0c0,0.1,0.1,0.2,0.2,0.2c0,0,0,0,0.1,0c0.1,0,0.1,0,0.2,0c0,0,0,0,0.1,0
		c0,0.1-0.1,0.1-0.1,0.2c0,0,0,0,0,0c0,0,0,0,0,0c0.1-0.1,0.2-0.3,0.2-0.4C15.7,19.7,15.8,19.5,15.9,19.3z"/>
	<path id="XMLID_212_" d="M14.9,18.7c-0.2,0.3-0.3,0.6-0.5,0.9c0,0-0.1,0.1-0.1,0.1c-0.1,0.1-0.2,0.1-0.3,0c0,0-0.1,0-0.1-0.1
		c0,0,0,0,0,0c0,0,0,0,0,0c0.1,0,0.1,0.1,0.2,0.1c0.1,0,0.2,0,0.2-0.1c0-0.1,0.1-0.1,0.1-0.2c0.1-0.2,0.2-0.3,0.3-0.5
		c0.1-0.2,0.2-0.4,0.3-0.6c0,0,0,0-0.1,0C15,18.6,15,18.7,14.9,18.7z"/>
	<path id="XMLID_215_" d="M22.1,22.6c0-0.1-0.2-0.2-0.3-0.2c-0.1,0-0.2,0-0.3,0.1c-0.1,0.1-0.2,0.2-0.3,0.3c0,0.1-0.1,0.2-0.1,0.2
		c0,0.1-0.1,0.2-0.1,0.4c0,0.2,0.3,0.3,0.4,0.2c0.1,0,0.1-0.1,0.2-0.1c0.2-0.2,0.3-0.4,0.4-0.7C22.1,22.8,22.1,22.7,22.1,22.6z
		 M21.9,23.2c-0.1,0.1-0.2,0.3-0.3,0.4c-0.1,0-0.1,0.1-0.2,0.1c-0.1,0-0.2,0-0.3-0.1c0,0,0-0.1,0-0.1c0-0.1,0-0.2,0.1-0.4
		c0.1-0.2,0.2-0.3,0.3-0.5c0.1-0.1,0.2-0.1,0.3-0.2c0.2,0,0.3,0.1,0.3,0.2c0,0.1,0,0.1,0,0.2C22,23,22,23.1,21.9,23.2z"/>
	<path id="XMLID_216_" d="M23.2,24.7c-0.1-0.1-0.3-0.2-0.4-0.2c0,0,0,0,0,0c0.1-0.2,0.2-0.4,0.3-0.6c0.1-0.1,0.2-0.3,0.2-0.4
		c0,0,0,0,0-0.1c0,0,0,0,0,0c-0.1,0.2-0.2,0.4-0.3,0.5c0,0,0,0,0,0c-0.1,0.2-0.2,0.4-0.3,0.5c0,0,0,0,0,0c0.1,0.1,0.2,0.1,0.3,0.2
		C23.2,24.7,23.2,24.7,23.2,24.7C23.3,24.8,23.3,24.7,23.2,24.7C23.3,24.7,23.3,24.7,23.2,24.7C23.3,24.7,23.2,24.7,23.2,24.7z"/>
	<path id="XMLID_219_" d="M22.4,23.8c0,0.2-0.1,0.3-0.1,0.5c0,0,0,0,0,0c0,0,0,0,0,0c0,0,0,0,0,0c0,0,0,0,0,0
		C22.4,24.1,22.5,23.9,22.4,23.8C22.5,23.8,22.5,23.8,22.4,23.8c0.1-0.1,0.1-0.1,0.2-0.1c0.2-0.1,0.3-0.4,0.2-0.6
		c-0.1-0.1-0.1-0.2-0.3-0.3c0,0,0,0,0,0c-0.1,0.3-0.3,0.5-0.4,0.8c-0.1,0.1-0.1,0.2-0.2,0.4c0,0,0,0,0,0c0,0,0,0,0,0c0,0,0,0,0,0
		c0.1-0.1,0.1-0.2,0.2-0.3c0,0,0,0,0.1,0C22.3,23.7,22.3,23.8,22.4,23.8C22.5,23.8,22.5,23.8,22.4,23.8z M22.2,23.7
		c0-0.1,0.1-0.1,0.1-0.2c0.1-0.2,0.2-0.4,0.3-0.6c0,0,0,0,0,0c0.1,0.1,0.2,0.1,0.2,0.2c0.1,0.3-0.1,0.5-0.3,0.6
		C22.4,23.8,22.3,23.7,22.2,23.7z"/>
	<path id="XMLID_222_" d="M24.2,23.8c-0.1,0.2-0.2,0.4-0.3,0.5c0,0,0,0,0,0c-0.1,0.2-0.2,0.3-0.3,0.5c0,0,0,0.1,0,0.1
		c0.1,0,0.2,0.1,0.2,0.1c0.2,0,0.3,0,0.5-0.2c0.1-0.1,0.1-0.2,0.2-0.3c0.1-0.2,0.1-0.3,0-0.5C24.5,23.9,24.4,23.9,24.2,23.8
		C24.2,23.8,24.2,23.8,24.2,23.8z M24.5,24.6c-0.1,0.1-0.1,0.2-0.2,0.3C24.2,25,24,25,23.9,25c-0.1,0-0.1,0-0.2-0.1c0,0,0,0,0,0
		c0.2-0.4,0.4-0.7,0.6-1.1c0.1,0,0.1,0.1,0.2,0.2C24.6,24.2,24.6,24.4,24.5,24.6z"/>
	<path id="XMLID_223_" d="M17.8,21.7C17.7,21.7,17.7,21.7,17.8,21.7C17.7,21.7,17.7,21.7,17.8,21.7C17.7,21.7,17.8,21.7,17.8,21.7
		C17.8,21.7,17.8,21.7,17.8,21.7c0.1,0,0.1,0,0.2-0.1c0.1,0,0.2-0.2,0.2-0.4c0-0.1,0-0.1,0-0.2c0-0.1,0-0.2,0.1-0.3
		c0.1,0,0.1-0.1,0.2-0.1c0,0,0,0,0,0c0,0,0,0,0,0c-0.1,0-0.1,0-0.2,0.1c-0.1,0.1-0.2,0.2-0.2,0.3c0,0.1,0,0.2,0,0.2
		c0,0.1,0,0.2-0.1,0.3C17.9,21.6,17.9,21.6,17.8,21.7C17.8,21.6,17.8,21.7,17.8,21.7z"/>
	<path id="XMLID_224_" d="M19.4,21.3C19.4,21.3,19.4,21.3,19.4,21.3C19.5,21.2,19.5,21.2,19.4,21.3C19.5,21.2,19.4,21.2,19.4,21.3
		c-0.1,0-0.2,0-0.3,0.1c-0.2,0.1-0.3,0.3-0.3,0.5c0,0.1,0,0.3,0.1,0.4c0,0,0,0,0,0c0,0,0,0,0,0c-0.1-0.1-0.1-0.3-0.1-0.4
		c0-0.2,0.1-0.3,0.2-0.4C19.1,21.4,19.3,21.3,19.4,21.3z"/>
	<path id="XMLID_225_" d="M18.6,21.5c0-0.1,0.1-0.1,0.1-0.2c0.1-0.1,0.1-0.2,0.2-0.4c0,0,0,0,0,0c0,0,0,0,0,0c0,0,0,0,0,0
		c-0.1,0.2-0.3,0.5-0.4,0.7c-0.1,0.1-0.1,0.2-0.2,0.3c0,0,0,0,0,0c0,0,0,0,0,0C18.4,21.8,18.5,21.6,18.6,21.5
		C18.6,21.5,18.6,21.5,18.6,21.5z"/>
	<path id="XMLID_226_" d="M17,20.7C17,20.7,17,20.7,17,20.7c0.1-0.1,0.1-0.2,0.2-0.3c0-0.1,0-0.1,0-0.2c0,0,0,0,0,0c0,0,0,0,0,0
		c-0.1,0.1-0.2,0.2-0.3,0.3c0,0,0,0,0,0C16.9,20.7,16.9,20.7,17,20.7z"/>
	<path id="XMLID_227_" d="M16.4,19.9C16.4,19.9,16.4,19.9,16.4,19.9c0-0.1,0-0.2-0.1-0.3c-0.1,0.2-0.2,0.3-0.3,0.5c0,0,0,0,0,0
		c0.1,0,0.1,0,0.2,0C16.4,20,16.4,20,16.4,19.9z"/>
	<path id="XMLID_228_" d="M21.7,22.7c0,0-0.1,0.1-0.1,0.1c0,0.1-0.1,0.1-0.1,0.2c-0.1,0.1-0.1,0.2-0.2,0.4c0,0.1,0,0.1,0,0.2
		c0,0.1,0.1,0.1,0.1,0.1c0,0,0,0,0.1,0c0.1,0,0.1-0.1,0.1-0.2c0.1-0.1,0.1-0.2,0.2-0.3c0,0,0,0,0,0c0,0,0-0.1,0-0.1
		c0-0.1,0.1-0.1,0.1-0.2C21.9,22.7,21.8,22.6,21.7,22.7z"/>
	<path id="XMLID_229_" d="M22.6,23.1c-0.1,0.1-0.2,0.3-0.2,0.5c0.1,0,0.3,0,0.3-0.1C22.7,23.3,22.7,23.2,22.6,23.1z"/>
	<path id="XMLID_230_" d="M24.1,24.4C24.1,24.4,24.1,24.4,24.1,24.4c-0.1,0.1-0.1,0.2-0.2,0.3c0,0,0,0,0,0c0,0,0,0,0,0
		c0.1,0,0.1,0,0.2,0c0.2-0.1,0.3-0.3,0.3-0.5c0-0.1,0-0.1-0.1-0.2c0,0,0,0-0.1,0C24.2,24.2,24.1,24.3,24.1,24.4z"/>
	
		<rect id="XMLID_231_" x="15.8" y="29.2" transform="matrix(-0.8809 -0.4732 0.4732 -0.8809 17.4922 63.3266)" width="1.9" height="0.5"/>
	
		<rect id="XMLID_232_" x="9.1" y="25.6" transform="matrix(-0.8809 -0.4732 0.4732 -0.8809 6.6806 53.4639)" width="1.9" height="0.5"/>
	
		<rect id="XMLID_233_" x="12.4" y="27.4" transform="matrix(-0.8809 -0.4732 0.4732 -0.8809 12.0866 58.3943)" width="1.9" height="0.5"/>
	
		<rect id="XMLID_234_" x="19.1" y="31" transform="matrix(-0.8809 -0.4732 0.4732 -0.8809 22.8983 68.257)" width="1.9" height="0.5"/>
	
		<rect id="XMLID_235_" x="22.1" y="10.7" transform="matrix(0.8809 0.4733 -0.4733 0.8809 7.9253 -9.6172)" width="1.9" height="0.5"/>
	
		<rect id="XMLID_236_" x="28.8" y="14.3" transform="matrix(-0.8809 -0.4733 0.4733 -0.8809 49.0274 41.3554)" width="1.9" height="0.5"/>
	
		<rect id="XMLID_237_" x="25.5" y="12.5" transform="matrix(-0.8809 -0.4733 0.4733 -0.8809 43.6218 36.4247)" width="1.9" height="0.5"/>
	
		<rect id="XMLID_238_" x="18.8" y="8.9" transform="matrix(0.8809 0.4732 -0.4732 0.8809 6.6823 -8.2551)" width="1.9" height="0.5"/>
</g>
</svg>
