<?xml version="1.0" encoding="utf-8"?>
<!-- Generator: Adobe Illustrator 19.0.0, SVG Export Plug-In . SVG Version: 6.00 Build 0)  -->
<svg version="1.1" id="Layer_1" xmlns="http://www.w3.org/2000/svg" xmlns:xlink="http://www.w3.org/1999/xlink" x="0px" y="0px"
	 viewBox="0 0 40 40" style="enable-background:new 0 0 40 40;" xml:space="preserve">
<style type="text/css">
	.st0{fill:#010101;}
</style>
<g>
	<path class="st0" d="M22.1,11.7l1.8,3L33.7,9l-1.8-3L22.1,11.7z M24.2,13.4L23.3,12l8.2-4.8l0.9,1.4L24.2,13.4z"/>
	
		<rect x="29.4" y="13.3" transform="matrix(-0.4997 -0.8662 0.8662 -0.4997 32.8266 46.478)" class="st0" width="0.9" height="0.9"/>
	
		<rect x="31.7" y="12.1" transform="matrix(-0.4997 -0.8662 0.8662 -0.4997 37.3047 46.607)" class="st0" width="0.9" height="0.9"/>
	
		<rect x="27.1" y="14.7" transform="matrix(-0.4994 -0.8664 0.8664 -0.4994 28.2269 46.5639)" class="st0" width="0.9" height="0.9"/>
	<path class="st0" d="M33.8,30.1c-0.5-0.8-1.2-1.5-2.1-2L31.6,28v-5.6l6.9-4c1.5-0.9,2-2.7,1.1-4.2l-5.2-9.1
		c-0.5-0.7-1.5-1.5-2.7-1.5c-0.5,0-1,0.2-1.5,0.4l-20,11.6c-1.2,0.7-1.7,2-1.4,3.4v0.2l-7.4,0.9c-0.6,0-1.1,0.4-1.3,0.9
		c-0.2,0.5-0.2,1.1,0.1,1.6l7.2,12.5C7.7,35.7,8.3,36,8.9,36c0.6,0,1.1-0.3,1.4-0.9l4.4-5.9l0.2,0.2c0.6,0.6,1.3,0.9,2,0.9
		c0.5,0,1.1-0.2,1.6-0.5l8.2-4.7v3.7l-0.1,0.1c-0.7,0.8-1.2,2-1.2,3.1c0,2.5,2,4.4,4.4,4.4c1.2,0,2.3-0.5,3.2-1.3l0.1-0.1h6.4v-4.8
		h-5.6L33.8,30.1z M9.7,34.7C9.5,34.9,9.2,35,9,35c-0.3,0-0.6-0.1-0.8-0.4L1,22.2c-0.2-0.3-0.2-0.5,0-0.8C1.2,21.2,1.4,21,1.7,21
		c0,0,7.6-0.9,7.7-0.9l4.9,8.5L9.7,34.7z M18.1,29.1c-0.3,0.1-0.7,0.2-1,0.2c-0.9,0-1.7-0.5-2-1l-5.2-9.1c-0.6-1-0.2-2.3,0.8-2.9
		l20-11.6c0.3-0.1,0.7-0.2,1-0.2c0.8,0,1.6,0.6,1.9,1.1l5.2,9.1c0.6,1,0.2,2.3-0.8,2.9L18.1,29.1z M38.5,34.2h-5.9
		c-0.2,0.4-1.1,1.4-2.8,1.4c-2,0-3.5-1.6-3.5-3.5c0-1.5,1-2.5,1.3-2.7v-4.7l3-1.7v5.6l0.3,0.1c1,0.4,1.7,1.1,2.1,2.1l0.2,0.4h5.3
		V34.2z"/>
</g>
</svg>
