<?xml version="1.0" encoding="utf-8"?>
<!-- Generator: Adobe Illustrator 19.0.0, SVG Export Plug-In . SVG Version: 6.00 Build 0)  -->
<svg version="1.1" id="Layer_1" xmlns="http://www.w3.org/2000/svg" xmlns:xlink="http://www.w3.org/1999/xlink" x="0px" y="0px"
	 viewBox="-119 -19.5 240 240" style="enable-background:new -119 -19.5 240 240;" xml:space="preserve">
<path d="M65,82.2c0,0,5.7-10.5,9.9-13.9c4.2-3.4,8.5-7.6,10.3-9.6c0,0,3.6-0.3-3.7,7.9c0,0-1.2,2.4-1.2,3.3c0,0,3.4-3,4.6-3.6
	c1.2-0.6,2.4-2.2,2.7-2.8c0,0,0.1,2.5-1.6,4.5c-1.8,1.9-10.3,12.3-10.3,16.3c0,0,7.8,2.8,9.1,3c1.3,0.1,5.4-2.4,6.7-4.8
	c0,0,1,3.9-1.3,6.7c0,0,7.2,1.6,4.2,14.1c0,0-1.5-1.6-2.5-1.6c0,0-7.2,5.1-13.2,4.9c-6-0.1-11.2-0.1-14.2-0.9c0,0-4.2,4.2-13.9,5.1
	c0,0-4.2,1.6-4.2,6.4c0,4.8,0.5,7,1.6,9.4c1.2,2.4,3.1,5.8,3.1,7c0,1.2,3.3,5.4,4,5.8c0.7,0.5,3.4,0.7,3.7,3c0,0-2.1-0.6-3.9-0.2
	c-1.8,0.4-8.7,0.9-9.4,0.4c-0.7-0.4-7.9-11.5-8.5-13.8c-0.6-2.2-3.3-10.9-3.3-10.9h-1.9c0,0-1.3,7.6-2.2,10.3c-0.9,2.7-1,6-1,7.3
	c0,1.3,0.9,3.6,2.5,4.6c1.6,1,3,2.5,2.8,3.4c0,0-1.2-0.1-2.8-0.1c-1.6,0-8.1,0.1-9.1,0.1c-1,0-3.9,0.1-3.9-0.9s-1.2-9.6-1.2-10.8
	c0-1.2,0-7,0-8.7s0-4,0-4.5c0-0.4,0-1,0-1s-19.1,0.6-23.8-1.2c0,0,2.1,8.8,2.1,12.7s2.1,6.7,4,8.1c1.9,1.3,8.8,3.9,8.8,6
	c0,0-6.1-0.7-8.1,0c-1.9,0.7-11.1,0.6-11.8,0.2c-0.8-0.5-8.2-20.3-8.2-20.3s-2.7,6.7-4.9,8.7c-2.2,1.9-2.8,3.4-2.4,5.1
	c0.4,1.6-0.6,2.2,1.3,3.1c1.9,0.9,5.1,1.8,5.1,3.1c0,0-11.2,0.9-12.9,0.7c-1.7-0.2-0.6-3.6-0.6-3.6l-4.3-9.4c0,0,2.2-6.3,4.8-8.7
	c2.5-2.4,3.3-5.7,3.4-7.5c0.2-1.8,0.2-1.8,0.2-1.8s-5.8,0.7-11.1,6.7c-5.2,6-16,12-20,14.1c-4,2.1-23.3,8.7-26.9,8.7
	c-3.6,0-5.4-0.9-4-1.6c1.3-0.7,6-2.2,6-2.2s9-4.6,10.2-5.8c1.2-1.2,9.3-6.1,15.6-17.9c6.3-11.8,14.2-31.9,17.8-36.8
	c3.6-4.9,13.2-17.5,36.9-16.3c23.8,1.2,31.4,6,31.4,6s-0.1-0.7,0.2-1.5c0.3-0.7,1.2-0.1,1.8,0c0,0-0.9-1.9-0.4-2.8
	c0,0,1.5-0.8,2.1-0.2c0,0-1-1.2-0.4-1.9c0,0,1.2-0.2,1.9,0.4c0,0-0.1-3.6,0.9-4.6c1.1-1,0.7,1.2,1.1,2.5
	C32.6,61.1,42.2,77.4,65,82.2z"/>
</svg>
