<?xml version="1.0" encoding="utf-8"?>
<!-- Generator: Adobe Illustrator 19.0.0, SVG Export Plug-In . SVG Version: 6.00 Build 0)  -->
<svg version="1.1" id="Layer_1" xmlns="http://www.w3.org/2000/svg" xmlns:xlink="http://www.w3.org/1999/xlink" x="0px" y="0px"
	 viewBox="-168.1 30 40 40" style="enable-background:new -168.1 30 40 40;" xml:space="preserve">
<g>
	<path d="M-138.2,33.8H-158c-3.5,0-6.3,2.9-6.3,6.3v19.8c0,3.5,2.9,6.3,6.3,6.3h19.8c3.5,0,6.3-2.9,6.3-6.3V40.1
		C-131.8,36.6-134.7,33.8-138.2,33.8z M-133.1,42.4v0.7v1.4v1v14.4c0,2.8-2.3,5.1-5.1,5.1H-158c-1.6,0-3-0.7-4-1.9
		c-0.6-0.6-0.7-1.2-0.7-1.2c-0.2-0.6-0.4-1.2-0.4-1.9v-1.2v-1.9v-1.2v-1.9v-1.2v-1.9v-1.2v-1.9v-1.2v-1.9v-1.4v-1.2v-0.7V40
		c0-0.7,0.1-1.3,0.4-1.9c0.2-0.5,0.7-1.2,0.7-1.2c0.9-1.2,2.4-1.9,4-1.9h19.8c2.8,0,5.1,2.3,5.1,5.1V42.4z"/>
	<path d="M-148,42.5c-4.2,0-7.6,3.4-7.6,7.6s3.4,7.6,7.6,7.6c4.2,0,7.6-3.4,7.6-7.6S-143.8,42.5-148,42.5z M-148,56.4
		c-3.5,0-6.3-2.8-6.3-6.3s2.8-6.3,6.3-6.3c3.5,0,6.3,2.8,6.3,6.3S-144.5,56.4-148,56.4z"/>
	<circle cx="-139" cy="40.8" r="1.5"/>
</g>
</svg>
