<?xml version="1.0" encoding="utf-8"?>
<!-- Generator: Adobe Illustrator 19.0.0, SVG Export Plug-In . SVG Version: 6.00 Build 0)  -->
<svg version="1.1" id="Layer_1" xmlns="http://www.w3.org/2000/svg" xmlns:xlink="http://www.w3.org/1999/xlink" x="0px" y="0px"
	 viewBox="-119 -19.5 240 240" style="enable-background:new -119 -19.5 240 240;" xml:space="preserve">
<path d="M80.4,54.4c-7.7-0.9-16.6,0.9-25.1,1.5c-9.7,0.7-19.6,1.9-29.6,2c-0.1-1-2.2-0.1-2-1.5c0.1-0.4,0.4-0.6,1-0.5
	c0.2-2.7-2.3,1.5-2.5,0c-0.5-1.5,2.7-1.9,1-3c-1.4,0.6-1.7,2.3-2.5,3.5c-0.4-1.8,1.4-3.9,0.5-4.5C18.5,64.7,4.1,65.8-3.8,73.4
	c-2.4,12.8-17.9,27.9-28.6,16c1.8-5.1,4.2-9.5,8.5-12c-3.9,0.1-8.7,2.8-12,0.5c-4.1,8-16.5,0.5-24.6,2.5c4.9,1,9.5,2.2,12.5,5
	c-5.6,1.1-12.4,0.9-17,3c8.5,0.1,14.6,2.5,23.1,2.5c0.1,3.7,3.3,4.4,5,6.5c-7.2,1.8-13.6-1.4-16-6c-8.7,0-18,1.3-22.6-4
	c-0.6,1.5,2.4,1.9,1,2.5c0.2-1.1-2.7-1.5-3-0.5c0.9,0,3.2,1.1,2,1.5c0-0.7-1.4-0.6-1.5,0c0.9-0.1,1.2,0.5,1,1.5
	c-4.2,3.5-8.6,7.1-13.5,11c-4.6,3.6-11.4,6.5-14.5,10.5c-3.9,4.9-5,12.3-6.5,19c5.9-6.3,14.5-10.4,24.6-14.5
	c7.5-3.1,16.3-7,22.6-7.5c13.9-1.1,28.5,4.1,36.1,11c-1.8,2.5-3.1,5.6-3.5,9.5c3.2,3.5,8.1,5.3,7,13c0.9,1,2.6,3.7,3.5,3
	c-0.6-0.9-2.9-2.8-1.5-4c0.4,1.5,0.8,2.9,2,3.5c-0.3-2.5-2.1-3.6-2-6.5c0.7-0.1,1.9,1.7,2,0.5c-3.2-3.2-5.2-7.5-7.5-11.5
	c1.8-4.1,6.9-1,7.5,2c0.5-2.4-0.5-3.1,1-4.5c2.9,4.7,3.6,10.5,3.5,16c0.1-0.9,0.3-1.7,1-2c0.5,2.5,1.1,5,2,7c0.7-1.9-1.3-3.6,0-4.5
	c1.2,1.3,1.5,3.5,2,5.5c0.2,0,0.3,0,0.5,0c0.7-1.8-1.4-3.2,0-4c0.1,0.9,0.3,1.7,1,2c-1.4-5.4-5.5-8.5-5.5-14.5c0-5.8-1.8-9.2-4-13.5
	c14.1-13.6,25.8-28.6,44.1-36.6c22.6-9.9,57-15,86.7-15.5C102.6,63.5,92.7,55.8,80.4,54.4z M-34.8,82.8h-2.7l1.9-1.4
	c1.7,0,1.7,0,1.7,0L-34.8,82.8z"/>
</svg>
